<?xml version="1.0" encoding="UTF-8" standalone="no"?><!DOCTYPE svg PUBLIC "-//W3C//DTD SVG 1.1//EN" "http://www.w3.org/Graphics/SVG/1.1/DTD/svg11.dtd"><svg width="100%" height="100%" viewBox="0 0 120 120" version="1.1" xmlns="http://www.w3.org/2000/svg" xmlns:xlink="http://www.w3.org/1999/xlink" xml:space="preserve" xmlns:serif="http://www.serif.com/" style="fill-rule:evenodd;clip-rule:evenodd;stroke-linecap:round;stroke-linejoin:round;stroke-miterlimit:1.5;"><g><path d="M11.989,77.513l1.075,-0.463l-0.108,-1.216l-0.786,-0.228c0,-0 -0.096,-0.28 -0.111,-0.512c-0.014,-0.232 0.758,-1.882 0.758,-1.882c0,0 -0.404,-0.446 -0.434,-1.198c-0.031,-0.752 0.232,-4.07 0.656,-5.262c0.425,-1.193 1.548,-2.976 3.673,-3.86c2.124,-0.884 8.601,-1.834 13.654,-2.395c5.052,-0.562 8.077,-0.65 8.077,-0.65c-0,0 13.519,-7.73 19.44,-8.905c5.92,-1.175 17.122,-0.794 26.818,-0.012c9.696,0.782 14.846,2.328 14.846,2.328l-0.373,0.631l-1.178,0.288c-0,0 3.164,2.66 5.191,4.417c2.027,1.758 3.23,2.823 3.258,3.355c0.027,0.533 -0.171,4.764 -0.129,5.766c0.043,1.002 1.14,1.79 1.14,1.79l-0.074,2.088l0.263,0.007l-0.158,0.833l0.24,0.155l-0.1,0.649c0,-0 0.506,0.272 0.3,0.643c-0.206,0.372 -0.934,2.656 -2.711,3.25c-1.778,0.594 -3.111,0.801 -6.104,1.459c-2.993,0.658 -19.506,0.869 -19.506,0.869c0,-0 -10.553,-0.036 -20.179,0.094c-9.626,0.131 -16.732,0.092 -21.202,0.012c-4.47,-0.08 -20.286,-0.037 -22.469,-0.501c-2.183,-0.465 -3.767,-1.55 -3.767,-1.55Z" style="fill:#4eb84b;"/><path d="M44.376,60.885c0,-0 8.692,-4.858 14.08,-6.193c5.388,-1.336 12.79,-0.905 17.971,-0.626c5.18,0.278 13.957,1.257 13.957,1.257l3.88,5.215l-46.905,1.36l-2.983,-1.013Z" style="fill:#fff;stroke:#000;stroke-width:2px;"/><path d="M14.683,65.663c0.031,0.237 -0.025,0.561 0.368,0.615c0.393,0.054 1.771,-0.369 3.135,-0.973c1.365,-0.604 2.981,-1.556 2.792,-1.872c-0.188,-0.315 -3.615,0.487 -4.603,0.691c-0.468,0.096 -0.95,0.175 -1.329,0.531c-0.379,0.355 -0.399,0.743 -0.363,1.008Z" style="fill:#fff;"/><path d="M105.447,64.278c-0,0 -0.942,0.077 -1.932,-0.316c-0.99,-0.393 -3.128,-1.493 -3.119,-1.989c0.009,-0.496 0.352,-0.615 0.889,-0.657c0.537,-0.042 4.782,-0.048 4.782,-0.048c0,-0 0.294,0.3 0.328,0.49c0.012,0.068 0.051,0.162 0.052,0.423c0.003,0.742 -0.059,2.07 -0.059,2.07l-0.941,0.027Z" style="fill:#fff;"/><path d="M11.989,77.513l1.075,-0.463l-0.108,-1.216l-0.786,-0.228c0,-0 -0.096,-0.28 -0.111,-0.512c-0.014,-0.232 0.758,-1.882 0.758,-1.882c0,0 -0.404,-0.446 -0.434,-1.198c-0.031,-0.752 0.232,-4.07 0.656,-5.262c0.425,-1.193 1.548,-2.976 3.673,-3.86c2.124,-0.884 8.601,-1.834 13.654,-2.395c5.052,-0.562 8.077,-0.65 8.077,-0.65c-0,0 13.519,-7.73 19.44,-8.905c5.92,-1.175 17.122,-0.794 26.818,-0.012c9.696,0.782 14.846,2.328 14.846,2.328l-0.373,0.631l-1.178,0.288c-0,0 3.164,2.66 5.191,4.417c2.027,1.758 3.23,2.823 3.258,3.355c0.027,0.533 -0.171,4.764 -0.129,5.766c0.043,1.002 1.14,1.79 1.14,1.79l-0.074,2.088l0.263,0.007l-0.158,0.833l0.24,0.155l-0.1,0.649c0,-0 0.506,0.272 0.3,0.643c-0.206,0.372 -0.934,2.656 -2.711,3.25c-1.778,0.594 -3.111,0.801 -6.104,1.459c-2.993,0.658 -19.506,0.869 -19.506,0.869c0,-0 -10.553,-0.036 -20.179,0.094c-9.626,0.131 -16.732,0.092 -21.202,0.012c-4.47,-0.08 -20.286,-0.037 -22.469,-0.501c-2.183,-0.465 -3.767,-1.55 -3.767,-1.55Z" style="fill:none;stroke:#000;stroke-width:2px;"/><circle cx="28.396" cy="76.244" r="7.801" style="fill:#fff;stroke:#000;stroke-width:2px;"/><circle cx="89.968" cy="76.244" r="7.801" style="fill:#fff;stroke:#000;stroke-width:2px;"/></g></svg>