<?xml version="1.0" encoding="UTF-8" standalone="no"?><!DOCTYPE svg PUBLIC "-//W3C//DTD SVG 1.1//EN" "http://www.w3.org/Graphics/SVG/1.1/DTD/svg11.dtd"><svg width="100%" height="100%" viewBox="0 0 120 120" version="1.1" xmlns="http://www.w3.org/2000/svg" xmlns:xlink="http://www.w3.org/1999/xlink" xml:space="preserve" xmlns:serif="http://www.serif.com/" style="fill-rule:evenodd;clip-rule:evenodd;stroke-linecap:round;stroke-linejoin:round;stroke-miterlimit:1.5;"><g><path d="M12.81,78.806c0,-0 -0.432,-2.283 -0.266,-4.602c0.165,-2.319 0.329,-3.253 0.86,-4.271c0.53,-1.017 3.108,-2.661 6.175,-3.588c3.066,-0.926 13.959,-3.013 18.409,-3.046c-0,0 10.532,-6.12 19.368,-7.673c8.835,-1.553 12.931,-1.001 22.51,-0.405c9.579,0.596 17.673,2.062 17.673,2.062l-0.854,0.664l0.514,1.092c0,-0 3.831,2.272 5.709,3.664l1.152,0.15l1.534,0.874l-0.342,1.318c0,0 0.546,0.547 0.555,0.966c0.009,0.418 -0.486,1.229 -0.486,1.229c0,-0 0.215,2.06 0.662,3.004c0.446,0.944 1.563,1.845 1.589,2.171c0.027,0.327 0.108,2.321 0.108,2.321c-0,0 0.553,0.402 0.252,1.188c-0.302,0.786 -1.271,2.849 -2.225,3.15c-0.955,0.302 -6.694,1.236 -8.472,1.73l-18.064,0.801c0,-0 -33.333,-0.198 -42.75,0.054c-9.417,0.252 -18.836,-0.475 -20.012,-0.564c-1.175,-0.09 -0.46,-0.577 -2.538,-0.899c-2.078,-0.322 -1.929,-0.719 -1.822,-0.835c0.108,-0.117 0.761,-0.555 0.761,-0.555Z" style="fill:#4eb84b;"/><path d="M105.252,65.045c0,0 -4.634,-0.249 -5.316,0.112c-0.682,0.36 -0.521,0.565 0.049,0.669c0.571,0.105 2.652,0.556 2.729,0.812c0.077,0.255 -0.198,0.852 -0.198,0.852l1.869,-0.076c0,-0 0.833,-0.07 0.936,-0.174c0.115,-0.116 0.368,-0.715 0.477,-1.112c0.065,-0.233 -0.114,-0.548 -0.225,-0.691c-0.226,-0.291 -0.321,-0.392 -0.321,-0.392Z" style="fill:#fff;"/><path d="M43.592,64.528c0,0 8.616,-4.345 16.697,-5.653c1.295,-0.209 5.294,-0.463 6.981,-0.479c9.054,-0.086 20.996,1.365 20.996,1.365l7.636,3.992l-50.124,1.694l-2.186,-0.919Z" style="fill:#fff;stroke:#000;stroke-width:2px;"/><path d="M14.297,68.961c-0,0 5.515,-0.755 5.693,-0.577c0.166,0.165 -2.439,1.372 -2.689,1.446c-0.247,0.073 -4.019,0.35 -4.019,0.35c-0,0 0.151,-0.385 0.526,-0.776c0.279,-0.292 0.489,-0.443 0.489,-0.443Z" style="fill:#fff;"/><path d="M12.81,78.806c0,-0 -0.432,-2.283 -0.266,-4.602c0.165,-2.319 0.329,-3.253 0.86,-4.271c0.53,-1.017 3.108,-2.661 6.175,-3.588c3.066,-0.926 13.959,-3.013 18.409,-3.046c-0,0 10.532,-6.12 19.368,-7.673c8.835,-1.553 12.931,-1.001 22.51,-0.405c9.579,0.596 17.673,2.062 17.673,2.062l-0.854,0.664l0.514,1.092c0,-0 3.831,2.272 5.709,3.664l1.152,0.15l1.534,0.874l-0.342,1.318c0,0 0.546,0.547 0.555,0.966c0.009,0.418 -0.486,1.229 -0.486,1.229c0,-0 0.215,2.06 0.662,3.004c0.446,0.944 1.563,1.845 1.589,2.171c0.027,0.327 0.108,2.321 0.108,2.321c-0,0 0.553,0.402 0.252,1.188c-0.302,0.786 -1.271,2.849 -2.225,3.15c-0.955,0.302 -6.694,1.236 -8.472,1.73l-18.064,0.801c0,-0 -33.333,-0.198 -42.75,0.054c-9.417,0.252 -18.836,-0.475 -20.012,-0.564c-1.175,-0.09 -0.46,-0.577 -2.538,-0.899c-2.078,-0.322 -1.929,-0.719 -1.822,-0.835c0.108,-0.117 0.761,-0.555 0.761,-0.555Z" style="fill:none;stroke:#000;stroke-width:2px;"/><circle cx="27.834" cy="76.547" r="7.491" style="fill:#fff;stroke:#000;stroke-width:2px;"/><circle cx="88.922" cy="76.547" r="7.491" style="fill:#fff;stroke:#000;stroke-width:2px;"/></g></svg>