<?xml version="1.0" encoding="UTF-8" standalone="no"?><!DOCTYPE svg PUBLIC "-//W3C//DTD SVG 1.1//EN" "http://www.w3.org/Graphics/SVG/1.1/DTD/svg11.dtd"><svg width="100%" height="100%" viewBox="0 0 120 120" version="1.1" xmlns="http://www.w3.org/2000/svg" xmlns:xlink="http://www.w3.org/1999/xlink" xml:space="preserve" xmlns:serif="http://www.serif.com/" style="fill-rule:evenodd;clip-rule:evenodd;stroke-linecap:round;stroke-linejoin:round;stroke-miterlimit:1.5;"><g><path d="M13.069,78.327c-0,0 -0.783,-3.905 -0.904,-7.036c0,-0 -0.035,-1.034 0.531,-1.824c0.565,-0.791 5.827,-3.435 9.241,-4.158c3.415,-0.723 9.312,-1.782 19.61,-2.188c-0,0 8.051,-5.343 13.611,-7.335c5.56,-1.991 21.088,-1.721 29.29,0.003c8.201,1.725 16.609,5.505 16.609,5.505c0,0 2.915,0.08 4.541,0.103l0.43,0.465l-0.722,1.838l0.765,1.103c0,0 -0.31,0.547 -0.231,1.13c0.08,0.583 1.837,2.591 2.025,3.749c0.189,1.158 0.263,2.945 0.086,4.615c-0.177,1.671 -1.167,2.893 -1.814,3.187c-0.647,0.294 -9.086,2.01 -9.086,2.01l-17.439,1.688l-42.533,0.241l-24.108,-1.339l-0.073,-0.468l-0.808,-0.553l0.979,-0.736Z" style="fill:#4eb84b;"/><path d="M105.306,63.7c-0,-0 -6.416,0.024 -6.544,0.133c-0.128,0.11 -0.647,0.651 -0.588,0.835c0.059,0.184 4.722,1.924 5.29,1.988c0.568,0.065 2.634,-0.163 2.634,-0.163c-0,0 -0.251,-0.349 -0.27,-0.792c-0.012,-0.269 0.166,-0.623 0.243,-0.898c0,0 -0.336,-0.471 -0.476,-0.686c-0.161,-0.247 -0.289,-0.417 -0.289,-0.417Z" style="fill:#fff;"/><path d="M47.112,64.036c0,-0 7.198,-4.917 13.216,-5.54c6.175,-0.638 11.358,-0.386 17.052,0.157c5.538,0.527 10.964,1.896 10.964,1.896l1.079,1.104l-3.2,1.37l-39.111,1.013Z" style="fill:#fff;stroke:#000;stroke-width:2px;"/><path d="M13.069,78.327c-0,0 -0.783,-3.905 -0.904,-7.036c0,-0 -0.035,-1.034 0.531,-1.824c0.565,-0.791 5.827,-3.435 9.241,-4.158c3.415,-0.723 9.312,-1.782 19.61,-2.188c-0,0 8.051,-5.343 13.611,-7.335c5.56,-1.991 21.088,-1.721 29.29,0.003c8.201,1.725 16.609,5.505 16.609,5.505c0,0 2.915,0.08 4.541,0.103l0.43,0.465l-0.722,1.838l0.765,1.103c0,0 -0.31,0.547 -0.231,1.13c0.08,0.583 1.837,2.591 2.025,3.749c0.189,1.158 0.263,2.945 0.086,4.615c-0.177,1.671 -1.167,2.893 -1.814,3.187c-0.647,0.294 -9.086,2.01 -9.086,2.01l-17.439,1.688l-42.533,0.241l-24.108,-1.339l-0.073,-0.468l-0.808,-0.553l0.979,-0.736Z" style="fill:none;stroke:#000;stroke-width:2px;"/><circle cx="27.843" cy="77.315" r="6.693" style="fill:#fff;stroke:#000;stroke-width:2px;"/><circle cx="88.195" cy="77.315" r="6.693" style="fill:#fff;stroke:#000;stroke-width:2px;"/><path d="M14.619,69.814c-0.356,0.299 -0.778,1.54 0.164,1.594c0.942,0.053 2.198,-0.311 3.441,-0.66c1.243,-0.349 4.213,-1.916 4.213,-1.916c0,-0 -1.024,-0.45 -1.593,-0.528c-0.653,-0.089 -2.067,-0.029 -2.562,0.059c-0.484,0.086 -3.026,0.914 -3.663,1.451Z" style="fill:#fff;"/></g></svg>