<?xml version="1.0" encoding="UTF-8" standalone="no"?><!DOCTYPE svg PUBLIC "-//W3C//DTD SVG 1.1//EN" "http://www.w3.org/Graphics/SVG/1.1/DTD/svg11.dtd"><svg width="100%" height="100%" viewBox="0 0 120 120" version="1.1" xmlns="http://www.w3.org/2000/svg" xmlns:xlink="http://www.w3.org/1999/xlink" xml:space="preserve" xmlns:serif="http://www.serif.com/" style="fill-rule:evenodd;clip-rule:evenodd;stroke-linecap:round;stroke-linejoin:round;stroke-miterlimit:1.5;"><path d="M13.383,64.576c1.951,-1.682 6.876,-3.094 12.135,-3.828c5.259,-0.733 15.122,-1.64 15.122,-1.64c-0,0 10.555,-7.485 14.413,-8.769c3.858,-1.284 17.056,-2.874 30.438,-1.015c13.271,1.844 15.314,1.972 15.154,2.517c-0.375,1.282 -0.351,2.003 -0.351,2.003c1.554,1.348 2.985,2.782 4.305,4.295l1.388,0.755c0,0 -0.139,1.075 -0.118,1.713l0.276,0.428l0.017,0.424l-0.019,0.321c0,0 -0.006,0.508 0.142,0.721l0.014,0.436l-0.135,0.163l-0.026,0.889l-0.219,0.118c0,0 0.347,1.342 0.232,2.237c-0.115,0.894 -0.237,1.519 -0.174,1.979c0.074,0.544 1.245,1.886 1.26,1.788l0.239,1.086l0.162,0.001l0.087,0.755c0,0 0.545,0.797 0.274,1.875c-0.272,1.078 -0.865,2.452 -0.865,2.452l-9.076,1.762l-18.636,0.842c-0,0 -11.809,-0.1 -19.695,-0.04c-7.886,0.06 -23.006,0.286 -23.006,0.286l-19.489,-0.412c0,-0 -3.252,-0.602 -5.167,-2.943c0,-0 -0.175,-3.405 0.109,-5.091c-0,0 -0.172,-2.188 0.355,-2.445c-0,0 0.323,-0.735 0.361,-1.432c0.038,-0.696 -0.23,-1.609 0.493,-2.231Z" style="fill:#4eb84b;"/><path d="M13.771,64.967c0.52,-0.471 2.628,-1.062 2.776,-1.071c0.711,-0.046 2.88,0.112 3.166,0.349c0.287,0.238 0.477,0.62 0.436,0.869c-0.042,0.248 -1.704,1.312 -3.139,1.887c-1.435,0.575 -2.409,0.309 -2.703,0.167c-0.295,-0.142 -0.826,-0.997 -0.827,-1.249c-0.003,-0.76 -0.013,-0.678 0.291,-0.952Z" style="fill:#fff;"/><path d="M105.869,60.607l0.049,-1.068c-0,-0 -3.806,-0.269 -5.28,0.613c-1.474,0.883 -0.791,1.815 0.079,2.543c0.592,0.496 1.363,1.338 2.739,1.581c0.647,0.114 2.463,-0.169 2.463,-0.169l0.219,-0.118l0.026,-0.889l0.135,-0.163l-0.014,-0.436c-0,-0 -0.097,-0.18 -0.128,-0.45c-0.019,-0.173 0.005,-0.592 0.005,-0.592c0,0 -0.02,-0.339 -0.017,-0.424c-0.087,-0.133 -0.193,-0.285 -0.276,-0.428Z" style="fill:#fff;"/><path d="M13.383,64.576c1.951,-1.682 6.876,-3.094 12.135,-3.828c5.259,-0.733 15.122,-1.64 15.122,-1.64c-0,0 10.555,-7.485 14.413,-8.769c3.858,-1.284 17.056,-2.874 30.438,-1.015c13.271,1.844 15.314,1.972 15.154,2.517c-0.375,1.282 -0.351,2.003 -0.351,2.003c1.554,1.348 2.985,2.782 4.305,4.295l1.388,0.755c0,0 -0.139,1.075 -0.118,1.713l0.276,0.428l0.017,0.424l-0.019,0.321c0,0 -0.006,0.508 0.142,0.721l0.014,0.436l-0.135,0.163l-0.026,0.889l-0.219,0.118c0,0 0.347,1.342 0.232,2.237c-0.115,0.894 -0.237,1.519 -0.174,1.979c0.074,0.544 1.245,1.886 1.26,1.788l0.239,1.086l0.162,0.001l0.087,0.755c0,0 0.545,0.797 0.274,1.875c-0.272,1.078 -0.865,2.452 -0.865,2.452l-9.076,1.762l-18.636,0.842c-0,0 -11.809,-0.1 -19.695,-0.04c-7.886,0.06 -23.006,0.286 -23.006,0.286l-19.489,-0.412c0,-0 -3.252,-0.602 -5.167,-2.943c0,-0 -0.175,-3.405 0.109,-5.091c-0,0 -0.172,-2.188 0.355,-2.445c-0,0 0.323,-0.735 0.361,-1.432c0.038,-0.696 -0.23,-1.609 0.493,-2.231Z" style="fill:none;stroke:#000;stroke-width:2px;"/><circle cx="88.848" cy="76.506" r="7.56" style="fill:#fff;stroke:#000;stroke-width:2px;"/><circle cx="27.195" cy="76.508" r="7.56" style="fill:#fff;stroke:#000;stroke-width:2px;"/><path d="M44.958,60.684c0,-0 8.687,-6.103 11.795,-6.965c3.107,-0.863 11.266,-1.406 15.071,-1.443c2.297,-0.023 5.506,0.02 8.809,0.276c5.379,0.416 10.878,1.207 12.129,1.787c2.303,1.068 3.04,1.866 2.717,2.069c-0.323,0.203 -8.764,2.493 -12.647,2.847c-3.884,0.354 -34.096,2.699 -35.448,2.28c-1.353,-0.419 -2.426,-0.851 -2.426,-0.851Z" style="fill:#fff;stroke:#000;stroke-width:2px;"/></svg>