<?xml version="1.0" encoding="UTF-8" standalone="no"?><!DOCTYPE svg PUBLIC "-//W3C//DTD SVG 1.1//EN" "http://www.w3.org/Graphics/SVG/1.1/DTD/svg11.dtd"><svg width="100%" height="100%" viewBox="0 0 120 120" version="1.1" xmlns="http://www.w3.org/2000/svg" xmlns:xlink="http://www.w3.org/1999/xlink" xml:space="preserve" xmlns:serif="http://www.serif.com/" style="fill-rule:evenodd;clip-rule:evenodd;stroke-linecap:round;stroke-linejoin:round;stroke-miterlimit:1.5;"><path d="M13.365,67.339c-0,-0 -0.275,-1.61 -0.16,-2.843c0.115,-1.233 0.833,-3.148 2.458,-3.963c1.625,-0.814 7.763,-2.061 14.015,-2.61c6.251,-0.549 7.582,-0.468 7.582,-0.468c0,0 14.148,-9.568 19.536,-10.795c5.387,-1.227 16.37,-1.004 23.642,-0.596c7.271,0.409 18.346,2.122 18.346,2.122l-1.446,1.282l4.613,5.841c0,0 1.455,1.259 1.534,1.575c0.079,0.315 0.131,4.1 0.258,4.594c0.126,0.495 1.883,1.918 2.086,2.575c0.203,0.657 0.163,4.339 -0.045,4.842c-0,0 1.704,0.655 1.802,1.058c0.098,0.403 0.456,2.915 0.341,3.294c-0.115,0.379 -0.436,0.729 -0.436,0.729l0.176,0.483c-0,0 -0.591,0.885 -2.325,1.409c-1.733,0.524 -19.886,1.733 -23.002,1.825c-3.115,0.093 -32.217,0.6 -41.698,0.583c-9.48,-0.017 -19.284,0.276 -23.353,-0.121c-4.07,-0.397 -4.919,-0.895 -5.232,-1.3c-0.313,-0.405 0.477,-2.194 0.553,-2.941c0.076,-0.748 -0.998,-1.884 -0.543,-5.147c-0,-0 0.015,-0.468 0.582,-0.755c0.568,-0.288 0.716,-0.673 0.716,-0.673Z" style="fill:#4eb84b;"/><path d="M41.01,59.599c0,-0 9.564,-6.902 15.958,-8.984c6.394,-2.082 22.612,-0.83 26.308,-0.484c3.697,0.345 6.061,1.17 6.423,1.575c0.362,0.404 1.178,3.645 0.935,4.146c-0.242,0.502 -3.695,1.715 -8.492,2.414c-4.796,0.699 -41.132,1.333 -41.132,1.333Z" style="fill:#fff;stroke:#000;stroke-width:2px;"/><path d="M14.715,65.883c0,0 2.365,-0.536 2.365,-0.2c0,0.335 -2.321,0.519 -2.41,0.388c-0.09,-0.131 0.045,-0.188 0.045,-0.188Z" style="fill:#fff;"/><g><path d="M13.849,64.864c0.398,0.139 0.829,-0.086 2.417,-0.535c1.588,-0.449 3.475,-0.835 4.073,-1.115c0.488,-0.229 1.558,-0.849 1.917,-1.08c0.08,-0.052 0.078,-0.112 0.078,-0.112c0,0 0.008,-0.05 -0.071,-0.185c-0.044,-0.076 -0.177,-0.406 -0.28,-0.566c-0.098,-0.152 -0.168,-0.137 -0.168,-0.137c-0,0 -0.099,-0.007 -0.254,0.004c-0.739,0.051 -2.951,0.237 -4.006,0.462c-1.258,0.27 -2.295,0.703 -2.908,1.018c-0.345,0.178 -0.515,0.21 -0.769,0.874c-0.354,0.922 -0.427,1.232 -0.029,1.372Z" style="fill:#fff;"/><path d="M101.838,56.503c0,0 -2.422,-0.526 -3.226,-0.205c-0.803,0.32 -1.544,0.728 -1.626,0.994c-0.081,0.265 -0.038,1.209 0.035,1.376c0.074,0.168 1.616,1.561 1.933,1.682c0.317,0.122 4.789,1.128 4.789,1.128l-0.234,-4.391l-1.671,-0.584Z" style="fill:#fff;"/><path d="M13.365,67.339c-0,-0 -0.275,-1.61 -0.16,-2.843c0.115,-1.233 0.833,-3.148 2.458,-3.963c1.625,-0.814 7.763,-2.061 14.015,-2.61c6.251,-0.549 7.582,-0.468 7.582,-0.468c0,0 14.148,-9.568 19.536,-10.795c5.387,-1.227 16.37,-1.004 23.642,-0.596c7.271,0.409 18.346,2.122 18.346,2.122l-1.446,1.282l4.613,5.841c0,0 1.455,1.259 1.534,1.575c0.079,0.315 0.131,4.1 0.258,4.594c0.126,0.495 1.883,1.918 2.086,2.575c0.203,0.657 0.163,4.339 -0.045,4.842c-0,0 1.704,0.655 1.802,1.058c0.098,0.403 0.456,2.915 0.341,3.294c-0.115,0.379 -0.436,0.729 -0.436,0.729l0.176,0.483c-0,0 -0.591,0.885 -2.325,1.409c-1.733,0.524 -19.886,1.733 -23.002,1.825c-3.115,0.093 -32.217,0.6 -41.698,0.583c-9.48,-0.017 -19.284,0.276 -23.353,-0.121c-4.07,-0.397 -4.919,-0.895 -5.232,-1.3c-0.313,-0.405 0.477,-2.194 0.553,-2.941c0.076,-0.748 -0.998,-1.884 -0.543,-5.147c-0,-0 0.015,-0.468 0.582,-0.755c0.568,-0.288 0.716,-0.673 0.716,-0.673Z" style="fill:none;stroke:#000;stroke-width:2px;"/></g><circle cx="28.925" cy="75.66" r="8.423" style="fill:#fff;stroke:#000;stroke-width:2px;"/><circle cx="92.324" cy="75.66" r="8.423" style="fill:#fff;stroke:#000;stroke-width:2px;"/></svg>