<?xml version="1.0" encoding="UTF-8" standalone="no"?><!DOCTYPE svg PUBLIC "-//W3C//DTD SVG 1.1//EN" "http://www.w3.org/Graphics/SVG/1.1/DTD/svg11.dtd"><svg width="100%" height="100%" viewBox="0 0 120 120" version="1.1" xmlns="http://www.w3.org/2000/svg" xmlns:xlink="http://www.w3.org/1999/xlink" xml:space="preserve" xmlns:serif="http://www.serif.com/" style="fill-rule:evenodd;clip-rule:evenodd;stroke-linecap:round;stroke-linejoin:round;stroke-miterlimit:1.5;"><g><path d="M13.638,65.033l-0.325,-0.8l0.288,-1.683l0.707,-0.564l-0.232,-0.099c0,-0 3.255,-2.861 6.465,-3.211c3.21,-0.35 3.136,-0.825 5.416,-1.164c2.279,-0.34 8.945,-1.318 11.059,-1.194c-0,0 12.951,-8.494 16.764,-9.674c3.812,-1.18 11.851,-1.447 18.284,-1.488c6.433,-0.04 20.694,0.917 24.949,2.315c-0,0 0.309,0.23 -0.389,1.406l9.486,9.191l0.337,2.164l-0.463,1.157l0.891,0.88l0.129,3.548l-0.109,0.568c-0,-0 0.945,0.87 1.002,1.09c0.057,0.22 -0.124,6.231 -0.124,6.231l-2.125,2.275c-0,0 -0.895,0.375 -2.104,0.373c-1.209,-0.003 -10.253,2.183 -19.619,2.434c-9.367,0.251 -37.374,0.645 -45.489,0.646c-8.115,0.001 -20.692,-1.026 -21.925,-0.986c-1.232,0.041 -4.011,-1.32 -3.881,-1.855c0.131,-0.536 0.362,-0.693 0.362,-0.693l-0.654,-0.514l-0.314,-5.497l0.626,-0.671c0,0 -0.282,-0.655 -0.166,-1.717c0.116,-1.061 0.326,-1.622 0.326,-1.622l0.828,-0.846Z" style="fill:#4eb84b;"/><path d="M103.919,57.257c0,-0 -0.827,0.147 -1.732,0.591c-0.904,0.444 -1.069,0.571 -1.252,0.695c-0.189,0.129 -0.358,0.289 -0.324,0.533c0.034,0.243 0.106,1.166 0.157,1.44c0.052,0.274 0.079,0.32 0.481,0.445c0.403,0.125 2.04,0.752 2.36,0.836c0.32,0.084 1.294,0.179 1.536,0.037l0.839,-0.445l0.463,-1.157l-0.337,-2.164l-0.96,-0.931l-1.231,0.12Z" style="fill:#fff;"/><path d="M13.574,66.705c-0,-0 1.328,-0.047 1.622,-0.026c0.069,0.005 0.141,0.086 0.14,0.155c-0.017,0.739 -0.239,4.28 -0.239,4.28c0,-0 -0.73,-0.055 -0.809,-0.068c-0.079,-0.014 -0.228,-0.134 -0.282,-0.288c-0.054,-0.155 -0.778,-1.676 -0.778,-1.676c0,-0 0.009,-0.53 0.019,-0.911c0.004,-0.174 0.021,-0.785 0.06,-1.078c0.049,-0.367 0.267,-0.388 0.267,-0.388Z" style="fill:#fff;"/><path d="M13.638,65.033l1.811,0.089l0.27,0.314l1.408,-0.056l3.284,-3.031l-0.024,-0.697l-4.879,0.318l-1.2,0.016l-0.707,0.564l-0.288,1.683l0.325,0.8Z" style="fill:#fff;"/><path d="M41.57,58.3c0,0 7.36,-5.155 10.255,-6.711c2.896,-1.556 4.401,-1.846 9.456,-2.257c5.086,-0.413 22.221,-0.128 24.225,0.278c2.004,0.406 2.677,1.287 3.204,1.986c0.508,0.674 1.784,3.094 1.784,3.094c0,0 -4.397,2.492 -8.274,2.979c-3.877,0.488 -37.385,1.631 -38.271,1.562c-0.886,-0.068 -2.379,-0.931 -2.379,-0.931Z" style="fill:#fff;stroke:#000;stroke-width:2px;"/><path d="M13.638,65.033l-0.325,-0.8l0.288,-1.683l0.707,-0.564l-0.232,-0.099c0,-0 3.255,-2.861 6.465,-3.211c3.21,-0.35 3.136,-0.825 5.416,-1.164c2.279,-0.34 8.945,-1.318 11.059,-1.194c-0,0 12.951,-8.494 16.764,-9.674c3.812,-1.18 11.851,-1.447 18.284,-1.488c6.433,-0.04 20.694,0.917 24.949,2.315c-0,0 0.309,0.23 -0.389,1.406l9.486,9.191l0.337,2.164l-0.463,1.157l0.891,0.88l0.129,3.548l-0.109,0.568c-0,-0 0.945,0.87 1.002,1.09c0.057,0.22 -0.124,6.231 -0.124,6.231l-2.125,2.275c-0,0 -0.895,0.375 -2.104,0.373c-1.209,-0.003 -10.253,2.183 -19.619,2.434c-9.367,0.251 -37.374,0.645 -45.489,0.646c-8.115,0.001 -20.692,-1.026 -21.925,-0.986c-1.232,0.041 -4.011,-1.32 -3.881,-1.855c0.131,-0.536 0.362,-0.693 0.362,-0.693l-0.654,-0.514l-0.314,-5.497l0.626,-0.671c0,0 -0.282,-0.655 -0.166,-1.717c0.116,-1.061 0.326,-1.622 0.326,-1.622l0.828,-0.846Z" style="fill:none;stroke:#000;stroke-width:2px;"/><circle cx="27.905" cy="76.2" r="7.996" style="fill:#fff;stroke:#000;stroke-width:2px;"/><circle cx="94.731" cy="76.2" r="7.996" style="fill:#fff;stroke:#000;stroke-width:2px;"/></g></svg>