<?xml version="1.0" encoding="UTF-8" standalone="no"?><!DOCTYPE svg PUBLIC "-//W3C//DTD SVG 1.1//EN" "http://www.w3.org/Graphics/SVG/1.1/DTD/svg11.dtd"><svg width="100%" height="100%" viewBox="0 0 120 120" version="1.1" xmlns="http://www.w3.org/2000/svg" xmlns:xlink="http://www.w3.org/1999/xlink" xml:space="preserve" xmlns:serif="http://www.serif.com/" style="fill-rule:evenodd;clip-rule:evenodd;stroke-linecap:round;stroke-linejoin:round;stroke-miterlimit:1.5;"><g><path d="M12.099,66.282l1.837,-1.335c-0,0 -0.19,-0.86 -0.212,-1.282c-0.023,-0.422 0.14,-2.54 0.199,-2.721c0.06,-0.181 0.708,-0.69 0.708,-0.69c0,-0 0.346,-1.038 5.066,-1.995c4.721,-0.957 18.52,-2.303 18.52,-2.303c0,0 13.174,-9.296 19.71,-10.375c6.537,-1.079 33.891,-0.669 42.187,1.932l-0.233,3.079c-0,0 2.327,1.692 4.583,3.744c0,-0 1.037,4.681 0.357,7.121c-0,-0 1.542,1.006 1.762,1.568c0.22,0.562 0.533,2.116 0.101,5.788c-0,0 1.154,0.579 1.234,0.868c0.081,0.289 0.104,2.538 -0.181,3.295c-0.284,0.757 -0.109,1.961 -1.1,2.395c-0.991,0.435 -4.737,1.357 -4.737,1.357c-0,-0 -17.893,1.865 -20.258,2.05c-2.365,0.185 -35.455,0.576 -37.103,0.274c-1.647,-0.302 -21.902,-1.173 -24.652,-1.212c-2.75,-0.039 -6.464,-0.995 -7.851,-1.919c-0,-0 -0.122,-0.932 0.542,-1.177c0.664,-0.244 -0.039,-2.158 -0.24,-3.161c-0.201,-1.003 -0.239,-5.301 -0.239,-5.301Z" style="fill:#4eb84b;"/><path d="M42.29,57.761c-0,0 11.109,-7.283 15.203,-8.244c3.748,-0.879 10.507,-0.91 18.726,-0.686c7.12,0.195 13.313,0.806 13.313,0.806l2.223,1.431l0.2,2.87l-2.173,2.112l-46.588,2.168l-0.904,-0.457Z" style="fill:#fff;stroke:#000;stroke-width:2px;"/><path d="M14.885,65.072c0.023,0.037 1.793,-0.051 1.793,-0.051l1,-1.44l0.325,-3.23l-2.078,0.054c-0.425,0.012 -1.196,0.698 -1.392,0.957c-0,-0 -0.161,2.089 -0.148,2.506c0.019,0.6 0.262,0.826 0.5,1.204Z" style="fill:#fff;"/><path d="M103.003,54.317l-3.715,-0.011l0.004,1.785l1.32,0.01l4.209,5.356c-0,-0 0.21,-0.886 0.218,-1.541c0.008,-0.621 -0.007,-1.698 -0.07,-2.249c-0.035,-0.312 -0.092,-0.941 -0.19,-1.575c-0.136,-0.877 -0.315,-1.756 -0.315,-1.756l-1.461,-0.019Z" style="fill:#fff;"/><path d="M12.099,66.282l1.837,-1.335c-0,0 -0.19,-0.86 -0.212,-1.282c-0.023,-0.422 0.14,-2.54 0.199,-2.721c0.06,-0.181 0.708,-0.69 0.708,-0.69c0,-0 0.346,-1.038 5.066,-1.995c4.721,-0.957 18.52,-2.303 18.52,-2.303c0,0 13.174,-9.296 19.71,-10.375c6.537,-1.079 33.891,-0.669 42.187,1.932l-0.233,3.079c-0,0 2.327,1.692 4.583,3.744c0,-0 1.037,4.681 0.357,7.121c-0,-0 1.542,1.006 1.762,1.568c0.22,0.562 0.533,2.116 0.101,5.788c-0,0 1.154,0.579 1.234,0.868c0.081,0.289 0.104,2.538 -0.181,3.295c-0.284,0.757 -0.109,1.961 -1.1,2.395c-0.991,0.435 -4.737,1.357 -4.737,1.357c-0,-0 -17.893,1.865 -20.258,2.05c-2.365,0.185 -35.455,0.576 -37.103,0.274c-1.647,-0.302 -21.902,-1.173 -24.652,-1.212c-2.75,-0.039 -6.464,-0.995 -7.851,-1.919c-0,-0 -0.122,-0.932 0.542,-1.177c0.664,-0.244 -0.039,-2.158 -0.24,-3.161c-0.201,-1.003 -0.239,-5.301 -0.239,-5.301Z" style="fill:none;stroke:#000;stroke-width:2px;"/><circle cx="92.857" cy="75.532" r="8.475" style="fill:#fff;stroke:#000;stroke-width:2px;"/><circle cx="29.064" cy="75.532" r="8.475" style="fill:#fff;stroke:#000;stroke-width:2px;"/></g></svg>