<?xml version="1.0" encoding="UTF-8" standalone="no"?>
<!DOCTYPE svg PUBLIC "-//W3C//DTD SVG 1.1//EN" "http://www.w3.org/Graphics/SVG/1.1/DTD/svg11.dtd"><svg width="100%" height="100%" viewBox="0 0 120 120" version="1.1" xmlns="http://www.w3.org/2000/svg" xmlns:xlink="http://www.w3.org/1999/xlink" xml:space="preserve" xmlns:serif="http://www.serif.com/" style="fill-rule:evenodd;clip-rule:evenodd;stroke-linecap:round;stroke-linejoin:round;stroke-miterlimit:1.5;">
  <g>
    <path d="M19.84,79.59c-2.276,-0.018 -5.658,-0.918 -5.658,-0.918c0,0 -1.784,-1.462 -1.928,-1.662c-0.099,-0.138 -0.194,-2 -0.245,-1.989l0.726,-0.76c-0,0 -0.668,-2.471 -0.726,-5.196l0.913,-0.921l0.15,-1.979c-0,0 6.239,-5.38 20.757,-5.739l0.642,0c0,0 12.141,-7.409 18.155,-9.356c6.013,-1.947 11.962,-1.657 17.814,-1.762c5.853,-0.105 20.232,0.927 26.129,2.099l0,0.684c0,0 -1.299,0.308 -1.629,0.954c-0.33,0.646 0,0.773 0,0.773l2.186,1.155c-0,-0 5.18,2.674 9.504,6.157l-0,2.335l0.817,0.884l-0,3.648l-1.084,0.678l1.3,3.37l0.365,0.379c-0,0 -1.491,5.266 -7.195,5.638" style="fill:#4eb84b;" />
    <path d="M19.84,79.59c-2.276,-0.018 -5.658,-0.918 -5.658,-0.918c0,0 -1.784,-1.462 -1.928,-1.662c-0.099,-0.138 -0.194,-2 -0.245,-1.989l0.726,-0.76c-0,0 -0.668,-2.471 -0.726,-5.196l0.913,-0.921l0.15,-1.979c-0,0 6.239,-5.38 20.757,-5.739l0.642,0c0,0 12.141,-7.409 18.155,-9.356c6.013,-1.947 11.962,-1.657 17.814,-1.762c5.853,-0.105 20.232,0.927 26.129,2.099l0,0.684c0,0 -1.299,0.308 -1.629,0.954c-0.33,0.646 0,0.773 0,0.773l2.186,1.155c-0,-0 5.18,2.674 9.504,6.157l-0,2.335l0.817,0.884l-0,3.648l-1.084,0.678l1.3,3.37l0.365,0.379c-0,0 -1.491,5.266 -7.195,5.638" style="fill:none;" />
    <path d="M13.072,66.165l7.201,-0.359c0,0 -1.881,1.976 -2.598,2.265c-0.717,0.288 -1.916,0.526 -2.861,0.692c-0.297,0.052 -2.805,0.302 -2.805,0.302l0.913,-0.921l0.15,-1.979Z" style="fill:#fff;" />
    <path d="M106.63,61.13l-2.983,0.074l-1.4,2.341l4.383,-0.08" style="fill:#fff;" />
    <ellipse cx="27.51" cy="76.308" rx="7.731" ry="7.727" style="fill:#fff;stroke:#000;stroke-width:2px;" />
    <ellipse cx="92.649" cy="76.308" rx="7.731" ry="7.727" style="fill:#fff;stroke:#000;stroke-width:2px;" />
    <path d="M95.002,52.11l-5.846,1.315c0,0 4.122,2.788 8.385,5.298l5.47,0.035" style="fill:#fff;stroke:#000;stroke-width:2px;" />
    <path d="M35.38,79.347l49.194,-0.447" style="fill:none;stroke:#000;stroke-width:2px;" />
    <path d="M41.315,61.139c2.622,-2.072 4.893,-3.013 8.383,-4.758c0,0 5.137,-2.692 11.652,-2.989c2.294,-0.105 5.234,-0.241 8.146,-0.233c6.035,0.018 11.974,0.32 11.953,0.447l8.469,5.36l-48.14,2.154l-0.463,0.019Z" style="fill:#fff;stroke:#000;stroke-width:2px;" />
    <path d="M19.84,79.59c-2.276,-0.018 -5.658,-0.918 -5.658,-0.918c0,0 -1.784,-1.462 -1.928,-1.662c-0.099,-0.138 -0.194,-2 -0.245,-1.989l0.726,-0.76c-0,0 -0.668,-2.471 -0.726,-5.196l0.913,-0.921l0.15,-1.979c-0,0 6.239,-5.38 20.757,-5.739l0.642,0c0,0 12.141,-7.409 18.155,-9.356c6.013,-1.947 11.962,-1.657 17.814,-1.762c5.853,-0.105 20.232,0.927 26.129,2.099l0,0.684c0,0 -1.299,0.308 -1.629,0.954c-0.33,0.646 0,0.773 0,0.773l2.186,1.155c-0,-0 5.18,2.674 9.504,6.157l-0,2.335l0.817,0.884l-0,3.648l-1.084,0.678l1.3,3.37l0.365,0.379c-0,0 -1.491,5.266 -7.195,5.638" style="fill:none;stroke:#000;stroke-width:2px;" />
  </g>
</svg>