<?xml version="1.0" encoding="UTF-8" standalone="no"?><!DOCTYPE svg PUBLIC "-//W3C//DTD SVG 1.1//EN" "http://www.w3.org/Graphics/SVG/1.1/DTD/svg11.dtd"><svg width="100%" height="100%" viewBox="0 0 120 120" version="1.1" xmlns="http://www.w3.org/2000/svg" xmlns:xlink="http://www.w3.org/1999/xlink" xml:space="preserve" xmlns:serif="http://www.serif.com/" style="fill-rule:evenodd;clip-rule:evenodd;stroke-linecap:round;stroke-linejoin:round;stroke-miterlimit:1.5;"><g><path d="M12.132,65.832c0.055,-0.399 0.655,-1.739 3.119,-3.375c2.465,-1.636 8.613,-2.386 11.524,-2.796c2.911,-0.41 9.56,-0.888 11.555,-0.881c0,0 10.536,-6.894 16.962,-8.894c6.427,-1.999 28.454,-0.758 35.702,0.284c7.249,1.042 7.603,1.43 7.603,1.43c0,-0 -0.459,0.552 -1.307,0.841l0.122,0.967c-0,-0 4.166,2.276 6.495,4.107c2.328,1.831 2.849,2.438 2.698,5.197c-0.151,2.759 0.062,3.276 0.062,3.276l-1.071,0.289c-0,-0 0.484,2.025 0.782,3.822c0,0 0.398,0.329 0.644,0.351c0,-0 0.856,1.128 0.907,1.493c0.05,0.365 -0.287,2.744 -0.287,2.744l-0.731,0.606l0.267,0.601c0,-0 -0.166,0.393 -0.515,0.525c-0.35,0.131 -2.724,0.725 -7.042,1.056c-4.317,0.331 -15.679,0.747 -23.873,0.962c-8.194,0.214 -30.029,0.097 -36.633,0.202c-6.604,0.106 -19.138,0.236 -21.984,0.148c-2.846,-0.089 -2.759,-0.759 -2.759,-0.759c-0,0 -1.344,-0.105 -1.83,-0.918c-0.487,-0.812 -0.659,-1.208 -0.347,-1.53c0.311,-0.321 0.515,-0.327 0.515,-0.327l-0.159,-2.43c-0,-0 -0.202,-0.044 -0.219,-0.335c-0.017,-0.29 -0.238,-1.558 -0.191,-2.076l0.427,-0.45l0.139,-0.573l-0.501,-0.232c0,0 0.053,-0.231 0.022,-0.911c-0.031,-0.681 -0.151,-2.015 -0.096,-2.414Z" style="fill:#4eb84b;"/><path d="M14.168,64.076l6.403,-0.358l1.05,-0.639l-6.418,0.25c0,0 -0.179,0.075 -0.486,0.315c-0.308,0.24 -0.549,0.432 -0.549,0.432Z" style="fill:#fff;"/><path d="M106.529,60.721l-7.694,0.318c0,-0 0.488,-0.75 0.842,-0.871c0.355,-0.12 6.466,-0.477 6.466,-0.477c0,0 0.077,0.149 0.198,0.398c0.122,0.249 0.188,0.632 0.188,0.632Z" style="fill:#fff;"/><path d="M15.941,67.031c0.437,-0.124 4.326,-0.265 4.382,-0.22c0.055,0.046 -2.152,5.938 -2.329,6.154c-0.176,0.216 -1.635,0.165 -1.812,0.076c-0.178,-0.088 -1.825,-4.663 -1.82,-4.828c0.005,-0.164 1.142,-1.057 1.579,-1.182Z" style="fill:#fff;"/><path d="M99.224,64.529c-0.091,0.243 1.056,1.543 1.691,3.06c0.634,1.518 1.087,2.943 1.239,3.072c0.153,0.13 1.538,0.023 1.538,0.023l1.262,-2.982l0.407,-1.211c0,-0 -0.095,-0.283 -0.178,-0.461c-0.124,-0.266 -0.256,-0.43 -0.256,-0.43c-0,-0 -0.569,-0.677 -1.009,-0.984c-0.441,-0.307 -0.715,-0.421 -0.715,-0.421c-0,0 -3.888,0.091 -3.979,0.334Z" style="fill:#fff;"/><path d="M46.21,60.752l1.131,-3c0,-0 6.325,-3.941 11.343,-4.739c5.018,-0.798 19.396,-0.239 24.907,0.191c5.526,0.431 8.63,2.396 8.63,2.396c0,-0 -4.145,2.834 -8.097,3.485c-3.952,0.652 -37.914,1.667 -37.914,1.667Z" style="fill:#fff;stroke:#000;stroke-width:2px;"/><path d="M12.132,65.832c0.055,-0.399 0.655,-1.739 3.119,-3.375c2.465,-1.636 8.613,-2.386 11.524,-2.796c2.911,-0.41 9.56,-0.888 11.555,-0.881c0,0 10.536,-6.894 16.962,-8.894c6.427,-1.999 28.454,-0.758 35.702,0.284c7.249,1.042 7.603,1.43 7.603,1.43c0,-0 -0.459,0.552 -1.307,0.841l0.122,0.967c-0,-0 4.166,2.276 6.495,4.107c2.328,1.831 2.849,2.438 2.698,5.197c-0.151,2.759 0.062,3.276 0.062,3.276l-1.071,0.289c-0,-0 0.484,2.025 0.782,3.822c0,0 0.398,0.329 0.644,0.351c0,-0 0.856,1.128 0.907,1.493c0.05,0.365 -0.287,2.744 -0.287,2.744l-0.731,0.606l0.267,0.601c0,-0 -0.166,0.393 -0.515,0.525c-0.35,0.131 -2.724,0.725 -7.042,1.056c-4.317,0.331 -15.679,0.747 -23.873,0.962c-8.194,0.214 -30.029,0.097 -36.633,0.202c-6.604,0.106 -19.138,0.236 -21.984,0.148c-2.846,-0.089 -2.759,-0.759 -2.759,-0.759c-0,0 -1.344,-0.105 -1.83,-0.918c-0.487,-0.812 -0.659,-1.208 -0.347,-1.53c0.311,-0.321 0.515,-0.327 0.515,-0.327l-0.159,-2.43c-0,-0 -0.202,-0.044 -0.219,-0.335c-0.017,-0.29 -0.238,-1.558 -0.191,-2.076l0.427,-0.45l0.139,-0.573l-0.501,-0.232c0,0 0.053,-0.231 0.022,-0.911c-0.031,-0.681 -0.151,-2.015 -0.096,-2.414Z" style="fill:none;stroke:#000;stroke-width:2px;"/><circle cx="29.532" cy="76.649" r="7.383" style="fill:#fff;stroke:#000;stroke-width:2px;"/><circle cx="90.402" cy="76.649" r="7.383" style="fill:#fff;stroke:#000;stroke-width:2px;"/></g></svg>