<?xml version="1.0" encoding="UTF-8" standalone="no"?><!DOCTYPE svg PUBLIC "-//W3C//DTD SVG 1.1//EN" "http://www.w3.org/Graphics/SVG/1.1/DTD/svg11.dtd"><svg width="100%" height="100%" viewBox="0 0 120 120" version="1.1" xmlns="http://www.w3.org/2000/svg" xmlns:xlink="http://www.w3.org/1999/xlink" xml:space="preserve" xmlns:serif="http://www.serif.com/" style="fill-rule:evenodd;clip-rule:evenodd;stroke-linecap:round;stroke-linejoin:round;stroke-miterlimit:1.5;"><g><path d="M38.257,58.208c-0,-0 -7.553,0.226 -11.108,0.64c-3.555,0.414 -11.488,1.447 -12.707,4.075l0.297,0.114c0,-0 -1.079,0.94 -1.13,1.134c-0.05,0.194 -0.074,2.233 -0.074,2.233c-0,0 -0.918,0.669 -1.229,1.186c-0.311,0.517 -0.304,2.722 -0.322,4.037c-0.019,1.316 0.223,3.793 0.81,4.668l-0.5,0.371c-0,0 0.453,0.939 1.906,1.494c1.454,0.555 2.378,0.735 5.465,0.774c3.086,0.04 14.526,-0.039 20.441,-0.081c5.915,-0.042 35.44,-0.106 42.932,-0.212c7.491,-0.106 17.597,-1.036 19.914,-1.379c2.317,-0.342 2.37,-0.511 2.37,-0.511c-0,-0 2.717,-1.611 2.758,-4.435l-0.031,-4.007l-0.529,-0.083l0.03,-2.968l-0.62,-1.021c-0,0 -0.095,-4.22 -0.1,-4.687c-0.005,-0.467 -0.161,-0.863 -0.789,-1.52c-0.629,-0.658 -2.711,-1.874 -2.711,-1.874c-0,0 -1.858,-1.816 -3.184,-3.05c-1.325,-1.235 -2.058,-1.755 -2.058,-1.755l0.344,-0.918c-0,-0 1.339,-0.661 1.595,-1.013c-0,0 0.763,-0.487 -2.858,-0.859c-3.622,-0.372 -18.099,-1.285 -25.602,-1.101c-7.503,0.184 -15.609,0.094 -21.759,3.775c-6.15,3.682 -11.551,6.973 -11.551,6.973Z" style="fill:#4eb84b;"/><path d="M44.928,59.021c0,-0 1.795,-1.367 4.206,-2.895c2.174,-1.377 4.84,-2.894 7.293,-3.493c5.174,-1.262 9.473,-1.383 17.595,-1.388c8.101,-0.006 15.148,0.56 15.148,0.56c0,0 2.225,4.882 2.216,5.139c-0.008,0.258 0.301,1.044 -0.984,1.35c-1.285,0.307 -3.954,0.658 -6.172,0.932c-2.218,0.274 -38.41,0.762 -38.41,0.762l-0.892,-0.967Z" style="fill:#fff;stroke:#000;stroke-width:2px;"/><path d="M14.739,63.037c0,-0 1.47,-0.341 1.674,-0.375c0.204,-0.033 1.28,-0.361 0.979,0.427c-0.284,0.743 -1.701,3.045 -2.274,3.598c-0.574,0.554 -1.612,0.498 -1.612,0.498c-0,-0 0.06,-1.51 0.046,-1.769c-0.03,-0.565 0.094,-1.314 0.094,-1.314c0,0 0.284,-0.325 0.397,-0.427c0.156,-0.141 0.696,-0.638 0.696,-0.638Z" style="fill:#fff;"/><path d="M105.422,57.972c0,0 -2.836,-0.033 -3.193,0.013c-0.358,0.046 -0.434,0.052 -0.63,0.141c-0.196,0.09 -0.521,0.406 -0.648,0.535c-0.128,0.128 -0.359,0.303 -0.009,0.831c0.35,0.527 1.933,2.202 2.567,2.62c0.635,0.419 1.028,0.49 1.458,0.512c0.429,0.021 1.927,0.025 1.927,0.025c0,0 -0.023,-3.037 -0.072,-3.26c-0.052,-0.235 -0.131,-0.676 -0.437,-0.966c-0.438,-0.416 -0.963,-0.451 -0.963,-0.451Z" style="fill:#fff;"/><path d="M38.257,58.208c-0,-0 -7.553,0.226 -11.108,0.64c-3.555,0.414 -11.488,1.447 -12.707,4.075l0.297,0.114c0,-0 -1.079,0.94 -1.13,1.134c-0.05,0.194 -0.074,2.233 -0.074,2.233c-0,0 -0.918,0.669 -1.229,1.186c-0.311,0.517 -0.304,2.722 -0.322,4.037c-0.019,1.316 0.223,3.793 0.81,4.668l-0.5,0.371c-0,0 0.453,0.939 1.906,1.494c1.454,0.555 2.378,0.735 5.465,0.774c3.086,0.04 14.526,-0.039 20.441,-0.081c5.915,-0.042 35.44,-0.106 42.932,-0.212c7.491,-0.106 17.597,-1.036 19.914,-1.379c2.317,-0.342 2.37,-0.511 2.37,-0.511c-0,-0 2.717,-1.611 2.758,-4.435l-0.031,-4.007l-0.529,-0.083l0.03,-2.968l-0.62,-1.021c-0,0 -0.095,-4.22 -0.1,-4.687c-0.005,-0.467 -0.161,-0.863 -0.789,-1.52c-0.629,-0.658 -2.711,-1.874 -2.711,-1.874c-0,0 -1.858,-1.816 -3.184,-3.05c-1.325,-1.235 -2.058,-1.755 -2.058,-1.755l0.344,-0.918c-0,-0 1.339,-0.661 1.595,-1.013c-0,0 0.763,-0.487 -2.858,-0.859c-3.622,-0.372 -18.099,-1.285 -25.602,-1.101c-7.503,0.184 -15.609,0.094 -21.759,3.775c-6.15,3.682 -11.551,6.973 -11.551,6.973Z" style="fill:none;stroke:#000;stroke-width:2px;"/><circle cx="29.625" cy="75.309" r="8.601" style="fill:#fff;stroke:#000;stroke-width:2px;"/><circle cx="94.182" cy="75.309" r="8.601" style="fill:#fff;stroke:#000;stroke-width:2px;"/></g></svg>