<?xml version="1.0" encoding="UTF-8" standalone="no"?><!DOCTYPE svg PUBLIC "-//W3C//DTD SVG 1.1//EN" "http://www.w3.org/Graphics/SVG/1.1/DTD/svg11.dtd"><svg width="100%" height="100%" viewBox="0 0 120 120" version="1.1" xmlns="http://www.w3.org/2000/svg" xmlns:xlink="http://www.w3.org/1999/xlink" xml:space="preserve" xmlns:serif="http://www.serif.com/" style="fill-rule:evenodd;clip-rule:evenodd;stroke-linecap:round;stroke-linejoin:round;stroke-miterlimit:1.5;"><g><path d="M11.995,75.929c-0,0 0.157,-1.159 0.061,-3.752c-0.095,-2.594 0.532,-3.386 0.789,-3.587l-0.146,-0.472c0,0 0.023,-1.142 0.052,-1.678c0.03,-0.537 0.286,-2.189 1.67,-2.7c0,-0 1.416,-2.135 3.487,-3.089c2.071,-0.954 12.225,-2.517 16.978,-2.682c0,-0 10.732,-7.912 18.674,-9.773c7.942,-1.86 35.502,-1.457 48.133,2.025l0.361,0.363l-0.262,0.597l0.361,2.505l4.382,2.944c0,-0 1.254,3.558 1.339,5.07c0.084,1.511 -1.007,5.151 -1.007,5.151l0.213,0.85l0.638,0.202c-0,0 0.354,3.315 0.194,5.927l-0.581,1.107l0.53,0.245c0,-0 0.151,0.42 -1.845,1.001c-1.995,0.58 -4.836,1.213 -4.836,1.213c-0,0 -15.126,0.957 -19.403,1.162c-4.277,0.205 -38.487,0.327 -43.573,0.329c-5.085,0.001 -18.806,0.357 -19.35,0.414c-0.544,0.058 -2.342,-0.207 -3.377,-1.206c0,0 -1.866,-0.448 -2.628,-1.053c-0.762,-0.605 -0.854,-1.113 -0.854,-1.113Z" style="fill:#4eb84b;"/><path d="M44.201,60.076l0.62,-3.514c0.482,-0.562 6.935,-3.756 11.302,-5.014c-0,0 3.803,-0.351 7.969,-0.525c2.308,-0.097 4.918,-0.082 6.6,-0.058c1.029,0.015 2.295,0.013 3.662,0.048c2.276,0.06 4.83,0.175 7.034,0.288c2.821,0.144 5.124,0.365 5.124,0.365c-0,0 4.006,0.8 4.21,1.18c0.112,0.209 0.298,3.848 0.298,3.848l-1.265,1.639l-45.554,1.743Z" style="fill:#fff;stroke:#000;stroke-width:2px;"/><path d="M16.446,69.724c-0,0 0.019,-2.453 0.44,-3.267c0.421,-0.814 3.113,-3.047 3.5,-3.177c0.388,-0.13 2.32,-0.298 2.32,-0.298l0.825,-0.736c-0,-0 -2.295,-0.043 -4.477,0.26c-2.182,0.303 -4.066,0.497 -4.066,0.497l-0.567,0.737l2.514,-0.071c-0,0 -0.994,0.936 -1.4,1.585c-0.406,0.649 -0.415,2.028 -0.311,2.357c0.104,0.329 0.695,1.965 0.779,2.053c0.084,0.087 0.443,0.06 0.443,0.06Z" style="fill:#fff;"/><path d="M13.516,69.466c0.337,0.61 1.355,2.787 1.355,2.787l-0.107,1.462l-1.725,-2.96l-0.779,-1.071c0,0 0.093,-0.321 0.166,-0.485c0.04,-0.089 0.125,-0.26 0.194,-0.358c0.119,-0.17 0.225,-0.251 0.225,-0.251c-0,0 0.51,0.585 0.671,0.876Z" style="fill:#fff;"/><path d="M104.502,61.118l0.017,5.48l1.186,-1.972l0.07,-2.981c-0,0 0.932,-2.559 1.224,-3.613l-0.464,-1.402l-4.382,-2.944l1.049,2.334c-0,0 1.93,1.022 2.178,1.856c0.247,0.834 -0.356,2.032 -0.418,2.232c-0.063,0.201 -0.46,1.01 -0.46,1.01Z" style="fill:#fff;"/><path d="M11.995,75.929c-0,0 0.157,-1.159 0.061,-3.752c-0.095,-2.594 0.532,-3.386 0.789,-3.587l-0.146,-0.472c0,0 0.023,-1.142 0.052,-1.678c0.03,-0.537 0.286,-2.189 1.67,-2.7c0,-0 1.416,-2.135 3.487,-3.089c2.071,-0.954 12.225,-2.517 16.978,-2.682c0,-0 10.732,-7.912 18.674,-9.773c7.942,-1.86 35.502,-1.457 48.133,2.025l0.361,0.363l-0.262,0.597l0.361,2.505l4.382,2.944c0,-0 1.254,3.558 1.339,5.07c0.084,1.511 -1.007,5.151 -1.007,5.151l0.213,0.85l0.638,0.202c-0,0 0.354,3.315 0.194,5.927l-0.581,1.107l0.53,0.245c0,-0 0.151,0.42 -1.845,1.001c-1.995,0.58 -4.836,1.213 -4.836,1.213c-0,0 -15.126,0.957 -19.403,1.162c-4.277,0.205 -38.487,0.327 -43.573,0.329c-5.085,0.001 -18.806,0.357 -19.35,0.414c-0.544,0.058 -2.342,-0.207 -3.377,-1.206c0,0 -1.866,-0.448 -2.628,-1.053c-0.762,-0.605 -0.854,-1.113 -0.854,-1.113Z" style="fill:none;stroke:#000;stroke-width:2px;"/><circle cx="27.795" cy="75.5" r="8.513" style="fill:#fff;stroke:#000;stroke-width:2px;"/><circle cx="91.968" cy="75.5" r="8.513" style="fill:#fff;stroke:#000;stroke-width:2px;"/></g></svg>