<?xml version="1.0" encoding="UTF-8" standalone="no"?><!DOCTYPE svg PUBLIC "-//W3C//DTD SVG 1.1//EN" "http://www.w3.org/Graphics/SVG/1.1/DTD/svg11.dtd"><svg width="100%" height="100%" viewBox="0 0 120 120" version="1.1" xmlns="http://www.w3.org/2000/svg" xmlns:xlink="http://www.w3.org/1999/xlink" xml:space="preserve" xmlns:serif="http://www.serif.com/" style="fill-rule:evenodd;clip-rule:evenodd;stroke-linecap:round;stroke-linejoin:round;stroke-miterlimit:1.5;"><g><path d="M13.481,63.92c1.234,-1.155 5.374,-2.557 8.504,-3.296c3.129,-0.739 15.213,-2.048 16.056,-2.253c0.844,-0.205 9.8,-6.35 15.106,-8.186c5.307,-1.835 14.111,-2.26 26.905,-1.524c12.795,0.737 18.33,2.516 18.33,2.516l-1.079,0.834c-0,0 -0.174,0.592 0.346,1.04c0.521,0.448 2.229,1.662 5.592,4.632c-0,0 2.108,1.499 2.51,2.969c0.403,1.469 -0.131,3.18 0.2,4.337c0.331,1.157 0.746,1.5 0.731,2.238c-0.015,0.738 -0.075,2.341 -0.075,2.341c-0,0 1.038,0.509 1.101,1.043c0.064,0.534 0.1,1.871 0.311,2.993l-0.762,1.717l-0.372,1.165l-1.405,0.264c-0,0 -1.238,0.813 -3.339,1.143c-2.101,0.33 -11.244,0.818 -20.138,1.077c-8.894,0.259 -28.06,0.087 -42.92,0.526c-14.86,0.438 -20.838,0.024 -23.79,-0.78c-2.953,-0.804 -2.813,-1.594 -3.278,-1.976c0,0 -0.153,-3.205 0.181,-3.375c0,0 -0.091,-1.926 0.049,-4.377c0.14,-2.437 0.703,-4.57 1.236,-5.068Z" style="fill:#4eb84b;"/><path d="M13.281,68.058c0.268,0.005 0.759,-0.505 1.203,-0.554c0.444,-0.049 1.95,-0.259 3.271,-0.735c1.313,-0.474 3.619,-1.751 3.619,-1.751c0,-0 -0.777,-0.757 -1.33,-0.921c-0.552,-0.164 -4.392,0.037 -5.489,0.201c-0.442,0.066 -0.93,0.383 -1.09,0.78c-0.186,0.459 -0.315,1.06 -0.432,1.546c-0.062,0.258 -0.145,0.781 -0.158,0.853c-0.075,0.436 0.17,0.577 0.406,0.581Z" style="fill:#fff;"/><path d="M105.247,59.648c-0,0 -3.198,-0.171 -3.704,0.027c-0.505,0.198 -0.898,0.358 -1.172,0.507c-0.275,0.15 -0.389,0.381 -0.018,0.731c0.372,0.349 2.192,1.785 2.625,2.141c0.433,0.357 1.165,0.451 1.612,0.362c0.448,-0.089 1.275,-0.238 1.275,-0.238c-0,-0 0.064,-0.568 0.044,-1.252c-0.009,-0.305 -0.011,-1.033 -0.217,-1.459c-0.255,-0.527 -0.445,-0.819 -0.445,-0.819Z" style="fill:#fff;"/><path d="M13.481,63.92c1.234,-1.155 5.374,-2.557 8.504,-3.296c3.129,-0.739 15.213,-2.048 16.056,-2.253c0.844,-0.205 9.8,-6.35 15.106,-8.186c5.307,-1.835 14.111,-2.26 26.905,-1.524c12.795,0.737 18.33,2.516 18.33,2.516l-1.079,0.834c-0,0 -0.174,0.592 0.346,1.04c0.521,0.448 2.229,1.662 5.592,4.632c-0,0 2.108,1.499 2.51,2.969c0.403,1.469 -0.131,3.18 0.2,4.337c0.331,1.157 0.746,1.5 0.731,2.238c-0.015,0.738 -0.075,2.341 -0.075,2.341c-0,0 1.038,0.509 1.101,1.043c0.064,0.534 0.1,1.871 0.311,2.993l-0.762,1.717l-0.372,1.165l-1.405,0.264c-0,0 -1.238,0.813 -3.339,1.143c-2.101,0.33 -11.244,0.818 -20.138,1.077c-8.894,0.259 -28.06,0.087 -42.92,0.526c-14.86,0.438 -20.838,0.024 -23.79,-0.78c-2.953,-0.804 -2.813,-1.594 -3.278,-1.976c0,0 -0.153,-3.205 0.181,-3.375c0,0 -0.091,-1.926 0.049,-4.377c0.14,-2.437 0.703,-4.57 1.236,-5.068Z" style="fill:none;stroke:#000;stroke-width:2px;"/><path d="M43.037,60.722c0,0 -0.013,-0.512 0.948,-1.28c1.101,-0.88 8.701,-5.526 12.381,-6.22c1.907,-0.36 4.842,-0.818 8.245,-0.978c8.204,-0.385 18.871,0.064 22.545,1.286c5.197,1.728 6.53,3.129 6.677,3.733c-0,0 -5.787,1.263 -13.571,1.686c-7.783,0.422 -37.225,1.773 -37.225,1.773Z" style="fill:#fff;stroke:#000;stroke-width:2px;"/><circle cx="29.4" cy="75.895" r="8.178" style="fill:#fff;stroke:#000;stroke-width:2px;"/><circle cx="92.354" cy="75.895" r="8.178" style="fill:#fff;stroke:#000;stroke-width:2px;"/></g></svg>