<?xml version="1.0" encoding="UTF-8" standalone="no"?><!DOCTYPE svg PUBLIC "-//W3C//DTD SVG 1.1//EN" "http://www.w3.org/Graphics/SVG/1.1/DTD/svg11.dtd"><svg width="100%" height="100%" viewBox="0 0 120 120" version="1.1" xmlns="http://www.w3.org/2000/svg" xmlns:xlink="http://www.w3.org/1999/xlink" xml:space="preserve" xmlns:serif="http://www.serif.com/" style="fill-rule:evenodd;clip-rule:evenodd;stroke-linecap:round;stroke-linejoin:round;stroke-miterlimit:1.5;"><g><path d="M13.854,68.824c-0,-0 -0.013,-0.654 1.622,-1.486c1.635,-0.833 4.441,-2.153 10.824,-3.655c6.382,-1.501 13.047,-1.935 13.047,-1.935c0,-0 2.655,-1.487 6.924,-3.612c4.27,-2.125 6.786,-2.817 7.219,-2.925c0.434,-0.107 0.337,-0.567 0.964,-0.739c0.626,-0.172 3.383,-0.273 4.195,-0.332c0.812,-0.059 2.669,-0.396 8.372,-0.403c3.481,-0.005 8.552,0.381 13.912,1.513c3.422,0.722 6.95,1.79 10.299,3.123c8.593,3.42 11.13,3.625 11.882,3.682c0.752,0.058 0.968,0.544 1.106,0.903c0.138,0.358 0.803,0.854 0.803,0.854c-0,0 -0.253,0.223 -0.569,0.314c-0,0 0.551,0.101 0.974,0.496c0.423,0.394 0.942,1.024 1.331,2.048c0.388,1.023 0.867,1.916 1.117,2.272c-0,-0 -0.084,2.518 -0.044,3.129c0.04,0.612 0.222,0.552 0.19,1.057c-0.015,0.248 -0.118,1.664 -0.278,2.265c-0.159,0.6 -0.668,1.941 -2.648,2.842c-1.97,0.896 -5.736,2.359 -8.044,2.649c-2.307,0.289 -12.407,0.289 -20.733,0.316c-8.326,0.027 -32.198,-0.107 -40.491,0.071c-8.293,0.177 -16.403,0.093 -19.688,-0.472c-3.284,-0.565 -4.015,-1.235 -3.66,-2.388c0.369,-1.199 0.506,-0.654 0.729,-1.758c0.222,-1.105 -0.706,-3.882 -0.935,-4.864c-0.229,-0.982 -0.301,-1.298 0.004,-1.712c0.305,-0.415 0.534,-0.533 0.814,-0.747c0.289,-0.221 0.762,-0.506 0.762,-0.506Z" style="fill:#4eb84b;stroke:#000;stroke-width:2px;"/><path d="M15.598,68.137c0,-0 -0.432,0.728 -0.583,1.256c-0.151,0.527 -0.22,0.946 0.07,1.169c0.29,0.223 0.801,0.219 1.248,-0.056c0.446,-0.274 2.151,-1.151 3.127,-1.589c0.977,-0.439 2.792,-1.279 6.357,-1.797c-0,0 -2.183,-0.139 -4.287,0.127c-2.103,0.267 -5.932,0.89 -5.932,0.89Z" style="fill:#fff;"/><path d="M103.537,63.886c-0,-0 0.633,0.15 1.053,0.275c0.164,0.048 0.289,0.104 0.342,0.129c0.264,0.127 0.32,0.104 0.366,0.46c0.057,0.438 0.032,0.685 -0.012,0.955c-0.042,0.254 -0.114,0.643 -0.548,0.73c-0.434,0.087 -1.622,-0.539 -2.286,-0.837c-0.668,-0.3 -3.257,-1.439 -4.029,-1.557c-0,-0 1.117,-0.012 2.084,-0.033c0.965,-0.022 3.03,-0.122 3.03,-0.122Z" style="fill:#fff;"/><path d="M43.142,64.29c0,0 3.509,-2.52 11.209,-5.255c3.116,-1.108 6.818,-1.425 10.494,-1.491c5.407,-0.096 10.938,0.413 14.3,1.213c5.649,1.345 9.437,2.693 9.887,3.037c0.45,0.343 1.231,0.889 -0.048,0.941c-1.278,0.051 -10.937,0.046 -21.777,0.337c-10.84,0.291 -24.065,1.218 -24.065,1.218Z" style="fill:#fff;stroke:#000;stroke-width:2px;"/><path d="M13.854,68.824c-0,-0 -0.013,-0.654 1.622,-1.486c1.635,-0.833 4.441,-2.153 10.824,-3.655c6.382,-1.501 13.047,-1.935 13.047,-1.935c0,-0 2.655,-1.487 6.924,-3.612c4.27,-2.125 6.786,-2.817 7.219,-2.925c0.434,-0.107 0.337,-0.567 0.964,-0.739c0.626,-0.172 3.383,-0.273 4.195,-0.332c0.812,-0.059 2.669,-0.396 8.372,-0.403c3.481,-0.005 8.552,0.381 13.912,1.513c3.422,0.722 6.95,1.79 10.299,3.123c8.593,3.42 11.13,3.625 11.882,3.682c0.752,0.058 0.968,0.544 1.106,0.903c0.138,0.358 0.803,0.854 0.803,0.854c-0,0 -0.253,0.223 -0.569,0.314c-0,0 0.551,0.101 0.974,0.496c0.423,0.394 0.942,1.024 1.331,2.048c0.388,1.023 0.867,1.916 1.117,2.272c-0,-0 -0.084,2.518 -0.044,3.129c0.04,0.612 0.222,0.552 0.19,1.057c-0.015,0.248 -0.118,1.664 -0.278,2.265c-0.159,0.6 -0.668,1.941 -2.648,2.842c-1.97,0.896 -5.736,2.359 -8.044,2.649c-2.307,0.289 -12.407,0.289 -20.733,0.316c-8.326,0.027 -32.198,-0.107 -40.491,0.071c-8.293,0.177 -16.403,0.093 -19.688,-0.472c-3.284,-0.565 -4.015,-1.235 -3.66,-2.388c0.369,-1.199 0.506,-0.654 0.729,-1.758c0.222,-1.105 -0.706,-3.882 -0.935,-4.864c-0.229,-0.982 -0.301,-1.298 0.004,-1.712c0.305,-0.415 0.534,-0.533 0.814,-0.747c0.289,-0.221 0.762,-0.506 0.762,-0.506Z" style="fill:none;stroke:#000;stroke-width:2px;"/><path d="M13.854,68.824c-0,-0 -0.013,-0.654 1.622,-1.486c1.635,-0.833 4.441,-2.153 10.824,-3.655c6.382,-1.501 13.047,-1.935 13.047,-1.935c0,-0 2.655,-1.487 6.924,-3.612c4.27,-2.125 6.786,-2.817 7.219,-2.925c0.434,-0.107 0.337,-0.567 0.964,-0.739c0.626,-0.172 3.383,-0.273 4.195,-0.332c0.812,-0.059 2.669,-0.396 8.372,-0.403c3.481,-0.005 8.552,0.381 13.912,1.513c3.422,0.722 6.95,1.79 10.299,3.123c8.593,3.42 11.13,3.625 11.882,3.682c0.752,0.058 0.968,0.544 1.106,0.903c0.138,0.358 0.803,0.854 0.803,0.854c-0,0 -0.253,0.223 -0.569,0.314c-0,0 0.551,0.101 0.974,0.496c0.423,0.394 0.942,1.024 1.331,2.048c0.388,1.023 0.867,1.916 1.117,2.272c-0,-0 -0.084,2.518 -0.044,3.129c0.04,0.612 0.222,0.552 0.19,1.057c-0.015,0.248 -0.118,1.664 -0.278,2.265c-0.159,0.6 -0.668,1.941 -2.648,2.842c-1.97,0.896 -5.736,2.359 -8.044,2.649c-2.307,0.289 -12.407,0.289 -20.733,0.316c-8.326,0.027 -32.198,-0.107 -40.491,0.071c-8.293,0.177 -16.403,0.093 -19.688,-0.472c-3.284,-0.565 -4.015,-1.235 -3.66,-2.388c0.369,-1.199 0.506,-0.654 0.729,-1.758c0.222,-1.105 -0.706,-3.882 -0.935,-4.864c-0.229,-0.982 -0.301,-1.298 0.004,-1.712c0.305,-0.415 0.534,-0.533 0.814,-0.747c0.289,-0.221 0.762,-0.506 0.762,-0.506Z" style="fill:none;stroke:#000;stroke-width:2px;"/><circle cx="27.703" cy="76.433" r="7.548" style="fill:#fff;stroke:#000;stroke-width:2px;"/><circle cx="90.098" cy="76.433" r="7.548" style="fill:#fff;stroke:#000;stroke-width:2px;"/></g></svg>