<?xml version="1.0" encoding="UTF-8" standalone="no"?><!DOCTYPE svg PUBLIC "-//W3C//DTD SVG 1.1//EN" "http://www.w3.org/Graphics/SVG/1.1/DTD/svg11.dtd"><svg width="100%" height="100%" viewBox="0 0 120 120" version="1.1" xmlns="http://www.w3.org/2000/svg" xmlns:xlink="http://www.w3.org/1999/xlink" xml:space="preserve" xmlns:serif="http://www.serif.com/" style="fill-rule:evenodd;clip-rule:evenodd;stroke-linecap:round;stroke-linejoin:round;stroke-miterlimit:1.5;"><g><path d="M12.042,77.006c0,0 0.099,-2.237 -0.038,-2.685c-0,0 0.294,-0.776 0.574,-1.017l-0.271,-0.103c0,-0 -0.361,-5.576 1.087,-8.113c1.447,-2.537 10.444,-4.497 25.828,-5.429c-0,0 7.759,-6.43 12.022,-8.482c4.263,-2.053 25.121,-2.386 36.469,-2.146c11.348,0.239 13.443,1.769 13.443,1.769c-0,-0 0.308,0.572 -0.651,0.855l-0.009,0.719c-0,-0 4.827,7.278 5.397,8.484c0.569,1.207 0.151,6.515 0.151,6.515c-0,0 1.042,1.007 1.271,1.554c0.229,0.547 0.21,1.484 0.21,1.484c-0,0 0.368,0.105 0.482,1.701c0.114,1.597 0.014,2.031 0.014,2.031c-0,-0 -0.722,0.976 -0.892,2.327c-0,-0 0.307,0.357 -6.067,1.678c-6.374,1.321 -29.145,1.037 -29.145,1.037l-31.308,0.393c0,-0 -20.594,0.206 -24.232,-0.405c-3.638,-0.61 -4.335,-2.167 -4.335,-2.167Z" style="fill:#4eb84b;"/><path d="M106.063,61.487c-0,-0 -4.768,-0.144 -5.149,0.028c-0.382,0.172 -1.421,0.755 -1.388,1.066c0.034,0.31 1.08,1.861 1.933,2.002c0.854,0.141 4.721,0.068 4.721,0.068c-0,0 0.002,-1.258 0.001,-1.709c-0.001,-0.463 -0.1,-1.468 -0.118,-1.455Z" style="fill:#fff;"/><path d="M13.406,68.602c0,-0 3.429,-1.02 4.92,-1.588c1.491,-0.568 2.466,-1.365 2.466,-1.365c-0,0 -0.792,-0.707 -1.606,-0.818c-0.814,-0.11 -4.926,0.685 -4.926,0.685c0,0 -1.152,0.215 -1.285,0.518c-0.146,0.333 -0.228,0.783 -0.303,1.107c-0.059,0.251 -0.17,0.971 -0.209,1.223c-0.055,0.345 0.943,0.238 0.943,0.238Z" style="fill:#fff;"/><path d="M12.042,77.006c0,0 0.099,-2.237 -0.038,-2.685c-0,0 0.294,-0.776 0.574,-1.017l-0.271,-0.103c0,-0 -0.361,-5.576 1.087,-8.113c1.447,-2.537 10.444,-4.497 25.828,-5.429c-0,0 7.759,-6.43 12.022,-8.482c4.263,-2.053 25.121,-2.386 36.469,-2.146c11.348,0.239 13.443,1.769 13.443,1.769c-0,-0 0.308,0.572 -0.651,0.855l-0.009,0.719c-0,-0 4.827,7.278 5.397,8.484c0.569,1.207 0.151,6.515 0.151,6.515c-0,0 1.042,1.007 1.271,1.554c0.229,0.547 0.21,1.484 0.21,1.484c-0,0 0.368,0.105 0.482,1.701c0.114,1.597 0.014,2.031 0.014,2.031c-0,-0 -0.722,0.976 -0.892,2.327c-0,-0 0.307,0.357 -6.067,1.678c-6.374,1.321 -29.145,1.037 -29.145,1.037l-31.308,0.393c0,-0 -20.594,0.206 -24.232,-0.405c-3.638,-0.61 -4.335,-2.167 -4.335,-2.167Z" style="fill:none;stroke:#000;stroke-width:2px;"/><path d="M43.376,61.316c-0,0 5.619,-5.079 10.104,-6.788c2.039,-0.776 9.233,-1.234 16.761,-1.532c9.026,-0.358 18.536,-0.431 20.282,0.209c3.202,1.173 6.507,5.086 6.507,5.086c0,-0 -9.067,0.68 -11.593,0.751c-2.525,0.071 -2.185,0.567 -5.434,0.727c-3.249,0.161 -36.627,1.547 -36.627,1.547Z" style="fill:#fff;stroke:#000;stroke-width:2px;"/><circle cx="28.078" cy="76.244" r="7.77" style="fill:#fff;stroke:#000;stroke-width:2px;"/><circle cx="91.047" cy="76.244" r="7.77" style="fill:#fff;stroke:#000;stroke-width:2px;"/></g></svg>