<?xml version="1.0" encoding="UTF-8" standalone="no"?><!DOCTYPE svg PUBLIC "-//W3C//DTD SVG 1.1//EN" "http://www.w3.org/Graphics/SVG/1.1/DTD/svg11.dtd"><svg width="100%" height="100%" viewBox="0 0 120 120" version="1.1" xmlns="http://www.w3.org/2000/svg" xmlns:xlink="http://www.w3.org/1999/xlink" xml:space="preserve" xmlns:serif="http://www.serif.com/" style="fill-rule:evenodd;clip-rule:evenodd;stroke-linecap:round;stroke-linejoin:round;stroke-miterlimit:1.5;"><g><path d="M15.689,63.698c1.522,-0.9 3.737,-1.57 10.872,-2.73c7.136,-1.16 13.086,-1.339 15.076,-1.163c-0,0 8.442,-6.476 12.89,-7.756c4.449,-1.28 12.068,-1.258 18.625,-1.113c6.558,0.145 19.625,1.835 27.308,3.611l-0.746,0.714l-0.678,0.117c0,0 3.839,3.619 4.807,4.855c0.968,1.237 2.059,0.761 2.555,3.016c-0,-0 -0.383,0.728 -0.233,1.393c0.151,0.664 0.258,1.791 0.67,2.721c0.411,0.93 0.629,1.391 0.629,1.69c0,0.3 -0.032,0.868 -0.032,0.868c0,-0 0.193,0.211 0.169,0.476c-0.024,0.265 0.814,0.614 0.009,1.261c-0,-0 0.377,0.571 -0.178,1.632c-0.554,1.061 -0.479,1.867 -0.179,2.301c-0,0 -0.544,0.869 -1.285,1.357c-0.742,0.488 -1.081,0.728 -1.636,1.042c-0.555,0.314 -0.721,0.723 -0.774,0.888c-0,0 -1.025,-0.041 -4.047,0.842c-3.023,0.882 -18.375,0.889 -24.095,0.727c-5.72,-0.163 -30.073,-0.447 -37.362,-0.373c-7.29,0.074 -18.737,0.947 -20.547,-1.307c0,0 -4.859,-0.901 -5.375,-2.135c-0,-0 -0.126,-0.307 0.437,-0.424c0,0 -0.344,-1.132 -0.346,-1.894c-0.002,-0.763 -0.061,-1.74 -0.061,-1.74c0,0 0.515,-0.529 0.537,-1.056c0.021,-0.527 -0.029,-1.919 0.317,-3.484c0.347,-1.564 1.152,-3.435 2.673,-4.336Z" style="fill:#4eb84b;"/><path d="M106.143,62.418c-0,-0 -6.449,0.348 -7.211,0.396c-0.763,0.048 -1.238,0.373 -0.278,1c0.96,0.626 1.454,0.979 2.286,0.998c0.833,0.019 4.672,-0.035 4.672,-0.035c-0,0 0.468,-0.121 0.529,-0.665c0.069,-0.61 0.257,-0.863 0.257,-0.863c-0.085,-0.285 -0.121,-0.649 -0.255,-0.831Z" style="fill:#fff;"/><path d="M15.543,65.008c-0,0 1.801,-0.181 3.581,-0.261c1.779,-0.08 3.49,-0.146 3.49,-0.146c0,0 -0.408,0.881 -1.446,1.323c-1.039,0.442 -2.292,0.622 -3.754,1.133c-1.461,0.511 -2.039,0.994 -2.482,1.542c-0.444,0.547 -0.892,1.351 -1.392,1.7c-0,0 -0.537,0.034 -0.302,-1.218c0.115,-0.614 0.588,-2.3 0.969,-2.959c0.655,-1.129 1.336,-1.114 1.336,-1.114Z" style="fill:#fff;"/><path d="M15.689,63.698c1.522,-0.9 3.737,-1.57 10.872,-2.73c7.136,-1.16 13.086,-1.339 15.076,-1.163c-0,0 8.442,-6.476 12.89,-7.756c4.449,-1.28 12.068,-1.258 18.625,-1.113c6.558,0.145 19.625,1.835 27.308,3.611l-0.746,0.714l-0.678,0.117c0,0 3.839,3.619 4.807,4.855c0.968,1.237 2.059,0.761 2.555,3.016c-0,-0 -0.383,0.728 -0.233,1.393c0.151,0.664 0.258,1.791 0.67,2.721c0.411,0.93 0.629,1.391 0.629,1.69c0,0.3 -0.032,0.868 -0.032,0.868c0,-0 0.193,0.211 0.169,0.476c-0.024,0.265 0.814,0.614 0.009,1.261c-0,-0 0.377,0.571 -0.178,1.632c-0.554,1.061 -0.479,1.867 -0.179,2.301c-0,0 -0.544,0.869 -1.285,1.357c-0.742,0.488 -1.081,0.728 -1.636,1.042c-0.555,0.314 -0.721,0.723 -0.774,0.888c-0,0 -1.025,-0.041 -4.047,0.842c-3.023,0.882 -18.375,0.889 -24.095,0.727c-5.72,-0.163 -30.073,-0.447 -37.362,-0.373c-7.29,0.074 -18.737,0.947 -20.547,-1.307c0,0 -4.859,-0.901 -5.375,-2.135c-0,-0 -0.126,-0.307 0.437,-0.424c0,0 -0.344,-1.132 -0.346,-1.894c-0.002,-0.763 -0.061,-1.74 -0.061,-1.74c0,0 0.515,-0.529 0.537,-1.056c0.021,-0.527 -0.029,-1.919 0.317,-3.484c0.347,-1.564 1.152,-3.435 2.673,-4.336Z" style="fill:none;stroke:#000;stroke-width:2px;"/><circle cx="28.42" cy="76.336" r="7.596" style="fill:#fff;stroke:#000;stroke-width:2px;"/><circle cx="87.957" cy="76.336" r="7.596" style="fill:#fff;stroke:#000;stroke-width:2px;"/><path d="M45.927,62.1c0,0 0.155,-0.51 0.953,-1.221c0.422,-0.375 1.742,-1.322 3.394,-2.469c1.474,-1.023 3.178,-2.24 5.263,-2.818c3.158,-0.875 8.752,-0.938 13.919,-0.899c5.068,0.038 15.54,0.91 18.146,1.622c2.607,0.712 3.723,1.045 7.456,3.158c0,0 -2.425,0.927 -6.224,1.068c-3.8,0.142 -42.907,1.559 -42.907,1.559Z" style="fill:#fff;stroke:#000;stroke-width:2px;"/></g></svg>