<?xml version="1.0" encoding="UTF-8" standalone="no"?><!DOCTYPE svg PUBLIC "-//W3C//DTD SVG 1.1//EN" "http://www.w3.org/Graphics/SVG/1.1/DTD/svg11.dtd"><svg width="100%" height="100%" viewBox="0 0 120 120" version="1.1" xmlns="http://www.w3.org/2000/svg" xmlns:xlink="http://www.w3.org/1999/xlink" xml:space="preserve" xmlns:serif="http://www.serif.com/" style="fill-rule:evenodd;clip-rule:evenodd;stroke-linecap:round;stroke-linejoin:round;stroke-miterlimit:1.5;"><path d="M107.093,66.54l0.411,3.598c-0,-0 0.515,0.289 0.463,0.53c-0.053,0.242 -0.63,1.407 -0.63,1.407l0.258,0.603c-0,0 -0.829,1.703 -3.228,4.54c0,-0 -0.977,0.735 -2.276,0.945c-1.299,0.209 -8.842,0.767 -8.842,0.767l-25.659,0.419l-38.144,0.2l-9.31,0.149c-0,0 -5.201,0.002 -8.168,-1.328c0,-0 1.001,-0.25 1.456,-2.023l-0.775,-5.154c0,0 -0.443,-1.045 -0.445,-1.277c-0.003,-0.233 1.081,-3.574 7.746,-6.719c6.666,-3.145 17.034,-3.5 17.034,-3.5c-0,-0 6.975,-4.722 16.761,-8.295c9.785,-3.574 36.121,-1.211 45.771,0.341l-2.518,1.311l6.268,4.097l3.98,1.143l-0.133,0.852l-0.85,0.393c-0,-0 -1.183,4.2 -1.076,4.79c0.106,0.591 1.857,1.782 1.906,2.211c0.049,0.43 0.411,3.598 0.411,3.598" style="fill:#4eb84b;"/><path d="M42.612,60.975c-0,-0 3.512,-2.24 7.655,-4.131c3.38,-1.542 6.951,-2.754 11.271,-3.136c2.919,-0.258 6.22,-0.434 9.936,-0.41c5.096,0.032 10.719,0.37 14.912,0.745c2.824,0.253 5.728,0.362 7.091,0.968c3.187,1.417 2.822,2.175 2.822,2.175l-53.687,3.789Z" style="fill:#fff;stroke:#000;stroke-width:2px;"/><path d="M101.448,57.101c0,-0 -3.626,0.686 -5.483,1.585c-0.432,0.209 -0.139,0.638 0.391,0.778c1.712,0.451 6.871,0.236 6.871,0.236l-2.632,4.421c0,-0 2.675,-0.243 3.042,-0.537c0.367,-0.294 1.001,-1.508 1.001,-1.508l0.914,-2.358c0,0 0.184,-0.629 0.088,-0.892c0,-0 -0.515,-0.586 -1.144,-0.845c-0.313,-0.129 -1.301,-0.602 -1.918,-0.773c-0.758,-0.21 -1.13,-0.107 -1.13,-0.107Z" style="fill:#fff;"/><path d="M14.373,68.018c0,0 1.957,-0.612 4.374,-1.51c2.417,-0.898 4.76,-2.217 5.446,-2.76c0,0 -2.526,0.057 -3.744,0.262c-1.215,0.205 -1.818,0.308 -3.578,1.55c-1.571,1.109 -2.498,2.458 -2.498,2.458Z" style="fill:#fff;"/><path d="M107.093,66.54l0.411,3.598c-0,-0 0.515,0.289 0.463,0.53c-0.053,0.242 -0.63,1.407 -0.63,1.407l0.258,0.603c-0,0 -0.829,1.703 -3.228,4.54c0,-0 -0.977,0.735 -2.276,0.945c-1.299,0.209 -8.842,0.767 -8.842,0.767l-25.659,0.419l-38.144,0.2l-9.31,0.149c-0,0 -5.201,0.002 -8.168,-1.328c0,-0 1.001,-0.25 1.456,-2.023l-0.775,-5.154c0,0 -0.443,-1.045 -0.445,-1.277c-0.003,-0.233 1.081,-3.574 7.746,-6.719c6.666,-3.145 17.034,-3.5 17.034,-3.5c-0,-0 6.975,-4.722 16.761,-8.295c9.785,-3.574 36.121,-1.211 45.771,0.341l-2.518,1.311l6.268,4.097l3.98,1.143l-0.133,0.852l-0.85,0.393c-0,-0 -1.183,4.2 -1.076,4.79c0.106,0.591 1.857,1.782 1.906,2.211c0.049,0.43 0.411,3.598 0.411,3.598" style="fill:none;stroke:#000;stroke-width:2px;"/><path d="M14.658,70.279c-0,-0 1.897,4.454 2.056,4.842c0.16,0.389 0.746,1.397 0.746,1.397c0,-0 -0.66,0.027 -1.064,-0.775c-0.405,-0.803 -1.752,-3.775 -1.901,-4.429c-0.148,-0.655 0.163,-1.035 0.163,-1.035Z" style="fill:#fff;"/><circle cx="29.43" cy="76.377" r="7.64" style="fill:#fff;stroke:#000;stroke-width:2px;"/><circle cx="92.682" cy="76.377" r="7.64" style="fill:#fff;stroke:#000;stroke-width:2px;"/></svg>