<?xml version="1.0" encoding="UTF-8" standalone="no"?><!DOCTYPE svg PUBLIC "-//W3C//DTD SVG 1.1//EN" "http://www.w3.org/Graphics/SVG/1.1/DTD/svg11.dtd"><svg width="100%" height="100%" viewBox="0 0 120 120" version="1.1" xmlns="http://www.w3.org/2000/svg" xmlns:xlink="http://www.w3.org/1999/xlink" xml:space="preserve" xmlns:serif="http://www.serif.com/" style="fill-rule:evenodd;clip-rule:evenodd;stroke-linecap:round;stroke-linejoin:round;stroke-miterlimit:1.5;"><g><path d="M84.96,72.102l5.855,3.012l5.726,2.52l-0.605,2.715l-12.968,-2.715l-4.57,2.715l-4.358,-1.281l10.92,-6.966Z" style="fill:#4eb84b;stroke:#000;stroke-width:2px;"/><path d="M74.163,79.234l-3.412,1.505l-22.623,2.805c-0,0 -3.31,-0.01 -5.19,-2.805c-1.879,-2.795 -10.464,-19.558 -10.464,-19.558c0,-0 -0.683,-1.129 -2.937,-1.313c-2.253,-0.184 -3.295,-0.261 -3.805,-0.573c-0.51,-0.313 -0.977,-2.225 -0.977,-2.225c0,0 0.688,-1.81 0.621,-2.389c-0.067,-0.579 0,-1.73 0,-1.73c0,0 1.67,-3.81 5.451,-6.882l1.647,-0.493l5.856,-5.511l3.315,0.738c-0,-0 1.379,0.619 0.783,2.105c-0.596,1.485 -4.098,11.282 -4.098,11.282c0,-0 -0.483,1.425 0,2.88c0.483,1.456 7.298,18.56 7.298,18.56c0,-0 0.341,1.639 2.5,1.428c2.159,-0.211 11.096,-1.428 11.096,-1.428c0,-0 0.636,-0.122 1.108,-1.959c0.472,-1.838 1.302,-3.655 1.259,-4.232c-0.042,-0.577 -3.051,-11.283 -3.051,-11.283l1.792,-1.768l-2.353,-0.345l-1.084,-4.409c-0,-0 -0.388,-1.842 1.645,-1.795c2.033,0.048 14.066,0.26 16.357,-0.378c2.291,-0.638 3.816,-0.662 6.137,-2.47l12.548,0c0,0 0.573,0.237 1.231,0.822c0.369,0.329 3.05,3.208 5.331,5.669c1.78,1.921 3.316,3.588 3.316,3.588c0,0 0.981,1.114 -1.112,2.798c-2.092,1.684 -21.314,15.175 -21.314,15.175l-6.871,4.191l0,-0Z" style="fill:#4eb84b;stroke:#000;stroke-width:2px;"/><g><g><path d="M32.474,46.992c-0.373,0.949 -0.913,1.898 -1.647,2.847c-0.947,1.272 -1.941,2.485 -3.078,3.516c-1.537,1.051 -2.061,1.007 -2.446,0.812l0.834,-3.255l3.766,-3.92l1.998,-1.204c0.549,0.274 0.794,0.656 0.573,1.204Z" style="fill:#fff;"/><path d="M38.715,38.63l-1.803,-1.763l0,-1.493c0,0 1.745,-3.168 3.207,-4.174c-0,-0 0.109,0.883 0.822,1.145c0.713,0.262 3.932,1.367 4.574,1.89c0.643,0.522 1.545,2.632 1.545,2.632l-2.923,3.237l-5.422,-1.474Z" style="fill:#fff;stroke:#000;stroke-width:2px;"/><path d="M83.228,77.663l-4.585,2.47l-4.244,-0.75" style="fill:none;stroke:#000;stroke-width:2px;"/><path d="M83.248,77.653c-0.06,0.494 -0.09,0.995 -0.09,1.504c-0,6.868 5.566,12.444 12.421,12.444c6.855,-0 12.421,-5.576 12.421,-12.444c0,-6.867 -5.566,-12.35 -12.421,-12.443c-3.839,-0.052 -8.474,4.189 -10.732,6.177l11.831,4.753l-0.454,3.104l-12.959,-3.104l-0.017,0.009Z" style="fill:#fff;stroke:#000;stroke-width:2px;"/><ellipse cx="24.421" cy="79.158" rx="12.421" ry="12.444" style="fill:#fff;stroke:#000;stroke-width:2px;"/><path d="M97.327,50.414l-4.975,-3.486l-11.68,0.56l-11.601,2.418l-11.756,0l0,3.302l1.723,3.35l19.57,-2.39l18.719,-2.606l-0,-1.148Z" style="fill:#fff;stroke:#000;stroke-width:2px;stroke-linecap:butt;stroke-miterlimit:2;"/><path d="M60.332,56.388l38.096,-4.754" style="fill:none;stroke:#000;stroke-width:2px;"/><path d="M74.163,79.234l-3.412,1.505l-22.623,2.805c-0,0 -3.31,-0.01 -5.19,-2.805c-1.879,-2.795 -10.464,-19.558 -10.464,-19.558c0,-0 -0.683,-1.129 -2.937,-1.313c-2.253,-0.184 -3.295,-0.261 -3.805,-0.573c-0.51,-0.313 -0.977,-2.225 -0.977,-2.225c0,0 0.688,-1.81 0.621,-2.389c-0.067,-0.579 0,-1.73 0,-1.73c0,0 1.67,-3.81 5.451,-6.882l1.647,-0.493l5.856,-5.511l3.315,0.738c-0,-0 1.379,0.619 0.783,2.105c-0.596,1.485 -4.098,11.282 -4.098,11.282c0,-0 -0.483,1.425 0,2.88c0.483,1.456 7.298,18.56 7.298,18.56c0,-0 0.341,1.639 2.5,1.428c2.159,-0.211 11.096,-1.428 11.096,-1.428c0,-0 0.636,-0.122 1.108,-1.959c0.472,-1.838 1.302,-3.655 1.259,-4.232c-0.042,-0.577 -3.051,-11.283 -3.051,-11.283l1.792,-1.768l-2.353,-0.345l-1.084,-4.409c-0,-0 -0.388,-1.842 1.645,-1.795c2.033,0.048 14.066,0.26 16.357,-0.378c2.291,-0.638 3.816,-0.662 6.137,-2.47l12.548,0c0,0 0.573,0.237 1.231,0.822c0.369,0.329 3.05,3.208 5.331,5.669c1.78,1.921 3.316,3.588 3.316,3.588c0,0 0.981,1.114 -1.112,2.798c-2.092,1.684 -21.314,15.175 -21.314,15.175l-6.871,4.191l0,-0Z" style="fill:none;stroke:#000;stroke-width:2px;"/><path d="M30.72,61.44l-8.529,18.381l0.74,-1.547l1.425,0.684" style="fill:none;stroke:#000;stroke-width:6.01px;"/><path d="M30.72,61.44l-8.529,18.381l0.74,-1.547l1.425,0.684" style="fill:none;stroke:#4eb84b;stroke-width:2px;"/></g></g><path d="M28.495,57.527l6.601,3.78" style="fill:none;stroke:#4eb84b;stroke-width:2px;"/><path d="M28.795,59.992l4.205,2.408" style="fill:none;stroke:#000;stroke-width:2px;"/></g></svg>