<?xml version="1.0" encoding="UTF-8" standalone="no"?><!DOCTYPE svg PUBLIC "-//W3C//DTD SVG 1.1//EN" "http://www.w3.org/Graphics/SVG/1.1/DTD/svg11.dtd"><svg width="100%" height="100%" viewBox="0 0 120 120" version="1.1" xmlns="http://www.w3.org/2000/svg" xmlns:xlink="http://www.w3.org/1999/xlink" xml:space="preserve" xmlns:serif="http://www.serif.com/" style="fill-rule:evenodd;clip-rule:evenodd;stroke-linecap:round;stroke-linejoin:round;stroke-miterlimit:1.5;"><g><path d="M11.973,78.503c-0,-0 -0.053,-0.725 0.486,-1.11c-0,0 -0.184,-0.966 0.057,-1.795c-0,0 -0.002,-7.192 1.306,-8.696c0,0 -0.041,-1.137 7.031,-3.408c6.714,-2.156 17.56,-2.406 17.56,-2.406c0,-0 12.013,-7.953 18.554,-8.547c6.541,-0.593 20.006,-1.287 40.398,1.572c0,0 0.272,0.387 -0.151,0.699c-0.422,0.313 -1.799,0.114 -1.405,0.544c0.394,0.431 10.361,7.151 10.635,7.965c0.274,0.813 -0.338,0.903 -0.359,2.196c-0.02,1.293 -0.502,2.553 1.295,4.599c0,-0 0.003,0.791 -0.087,1.15c-0,0 0.152,0.688 0.152,1.265c-0,0.577 0.545,1.126 0.545,1.126l0.068,1.699c0,-0 -1.669,1.744 -3.921,2.58c-2.253,0.835 -6.089,1.337 -6.089,1.337l-19.377,1.447l-40.752,-0.227l-18.514,-0.227c-0,-0 -1.799,-0.025 -3.332,-0.247c-1.534,-0.222 -4.1,-1.516 -4.1,-1.516Z" style="fill:#4eb84b;"/><path d="M105.169,62.141c0,0 -6.156,-0.104 -6.286,0.181c-0.16,0.352 3.165,3.116 3.165,3.116l1.708,-0.016l0.558,-0.969l1.968,0.011c-0,-0 0.169,-0.311 0.223,-0.629c0.03,-0.176 -0.01,-0.373 -0.049,-0.477c-0.101,-0.27 -0.617,-0.736 -1.287,-1.217Z" style="fill:#fff;"/><path d="M15.203,66.583c0.277,-0.064 0.794,-0.147 0.931,-0.165c0.917,-0.119 4.449,-0.552 4.654,-0.16c0.235,0.452 -2.745,3.713 -3.025,3.83c-0.281,0.118 -1.519,0.1 -1.584,0.035c-0.065,-0.065 -0.041,-1.505 -0.041,-1.505l-1.701,0.248l-1.356,-0.042c0,-0 0.285,-1.322 0.566,-1.675c0.281,-0.352 1.128,-0.468 1.556,-0.566Z" style="fill:#fff;"/><path d="M11.973,78.503c-0,-0 -0.053,-0.725 0.486,-1.11c-0,0 -0.184,-0.966 0.057,-1.795c-0,0 -0.002,-7.192 1.306,-8.696c0,0 -0.041,-1.137 7.031,-3.408c6.714,-2.156 17.56,-2.406 17.56,-2.406c0,-0 12.013,-7.953 18.554,-8.547c6.541,-0.593 20.006,-1.287 40.398,1.572c0,0 0.272,0.387 -0.151,0.699c-0.422,0.313 -1.799,0.114 -1.405,0.544c0.394,0.431 10.361,7.151 10.635,7.965c0.274,0.813 -0.338,0.903 -0.359,2.196c-0.02,1.293 -0.502,2.553 1.295,4.599c0,-0 0.003,0.791 -0.087,1.15c-0,0 0.152,0.688 0.152,1.265c-0,0.577 0.545,1.126 0.545,1.126l0.068,1.699c0,-0 -1.669,1.744 -3.921,2.58c-2.253,0.835 -6.089,1.337 -6.089,1.337l-19.377,1.447l-40.752,-0.227l-18.514,-0.227c-0,-0 -1.799,-0.025 -3.332,-0.247c-1.534,-0.222 -4.1,-1.516 -4.1,-1.516Z" style="fill:none;stroke:#000;stroke-width:2px;"/><circle cx="28.444" cy="76.378" r="7.584" style="fill:#fff;stroke:#000;stroke-width:2px;"/><circle cx="88.666" cy="76.378" r="7.584" style="fill:#fff;stroke:#000;stroke-width:2px;"/><path d="M43.311,62.72c0.508,-0.908 9.751,-5.834 13.539,-6.349c4.182,-0.568 8.461,-0.68 16.834,-0.463c8.367,0.216 12.271,0.66 13.653,1.117c1.381,0.457 5.051,2.395 4.176,3.22c-0.875,0.824 -48.202,2.475 -48.202,2.475Z" style="fill:#fff;stroke:#000;stroke-width:2px;"/></g></svg>