<?xml version="1.0" encoding="UTF-8" standalone="no"?><!DOCTYPE svg PUBLIC "-//W3C//DTD SVG 1.1//EN" "http://www.w3.org/Graphics/SVG/1.1/DTD/svg11.dtd"><svg width="100%" height="100%" viewBox="0 0 120 120" version="1.1" xmlns="http://www.w3.org/2000/svg" xmlns:xlink="http://www.w3.org/1999/xlink" xml:space="preserve" xmlns:serif="http://www.serif.com/" style="fill-rule:evenodd;clip-rule:evenodd;stroke-linecap:round;stroke-linejoin:round;stroke-miterlimit:1.5;"><g><path d="M12.629,79.101l0.307,-0.304l-0.41,-0.145l0.197,-0.179l-0.007,-0.34l-0.263,-0.066l0.13,-0.282c0,0 -1.139,-1.163 -0.37,-2.647c-0,-0 -0.272,-2.191 0.207,-4.513c-0,-0 -0.12,-3.124 1.157,-4.221l-0.112,-0.134c0,-0 0.257,-1.242 4.581,-2.67c4.325,-1.427 12.308,-2.063 16.846,-2.553c0,-0 10.565,-6.436 17.77,-8.445c7.206,-2.009 16.535,-1.772 21.954,-1.626c5.418,0.145 18.117,1.663 22.137,2.301l0.319,0.504l-0.974,0.599c-0,0 -0.079,0.847 0.529,1.253c0.609,0.407 4.245,2.385 6.389,3.856c2.144,1.471 2.916,2.235 3.042,4.466c0.125,2.231 -0.179,2.552 -0.135,3.557c0.044,1.004 1.102,1.836 1.102,1.836l-0.025,1.37l0.223,1.382l0.499,0.058c0,-0 0.316,1.668 -0.08,2.504c0,-0 0.584,0.678 0.123,1.15c0,0 0.594,0.728 -2.466,1.964c-3.06,1.237 -4.963,1.28 -6.687,1.595c-1.724,0.315 -16.162,1.43 -20.257,1.573c-4.095,0.142 -34.68,-0.195 -40.83,0.057c-6.15,0.252 -19.686,0.384 -22.302,-0.381c-2.616,-0.766 -2.594,-1.519 -2.594,-1.519Z" style="fill:#4eb84b;"/><path d="M43.054,60.945c-0,0 4.604,-2.722 11.042,-4.54c3.256,-0.92 7.035,-1.529 10.814,-1.599c3.569,-0.066 7.077,-0.031 10.301,0.081c6.964,0.243 12.444,0.789 13.218,1.12c1.132,0.483 3.773,4.678 3.106,5.333c-0.667,0.656 -48.79,1.618 -48.79,1.618l0.309,-2.013Z" style="fill:#fff;stroke:#000;stroke-width:2px;"/><path d="M16.503,65.257c0.739,-0.2 3.47,-0.798 3.507,-0.404c0.038,0.394 -2.865,2.987 -4.062,3.433c-1.196,0.446 -3.504,1.364 -3.504,1.364c0,-0 0.061,-0.901 0.201,-1.41c0.129,-0.469 0.182,-0.63 0.263,-0.841c0.07,-0.183 0.224,-0.438 0.296,-0.566c0.122,-0.215 0.373,-0.429 0.373,-0.429c-0,0 1.323,-0.579 1.735,-0.761c0.392,-0.172 0.789,-0.277 1.191,-0.386Z" style="fill:#fff;"/><path d="M105.196,61.309c-0,-0 -2.724,-0.19 -4.086,-0.187c-1.362,0.003 -3.85,0.061 -3.838,0.537c0.011,0.476 3.546,2.667 3.776,2.692c0.23,0.026 5.022,-0.152 5.022,-0.152c0,-0 0.004,-0.842 -0.2,-1.539c-0.204,-0.697 -0.674,-1.351 -0.674,-1.351Z" style="fill:#fff;"/><path d="M12.629,79.101l0.307,-0.304l-0.41,-0.145l0.197,-0.179l-0.007,-0.34l-0.263,-0.066l0.13,-0.282c0,0 -1.139,-1.163 -0.37,-2.647c-0,-0 -0.272,-2.191 0.207,-4.513c-0,-0 -0.12,-3.124 1.157,-4.221l-0.112,-0.134c0,-0 0.257,-1.242 4.581,-2.67c4.325,-1.427 12.308,-2.063 16.846,-2.553c0,-0 10.565,-6.436 17.77,-8.445c7.206,-2.009 16.535,-1.772 21.954,-1.626c5.418,0.145 18.117,1.663 22.137,2.301l0.319,0.504l-0.974,0.599c-0,0 -0.079,0.847 0.529,1.253c0.609,0.407 4.245,2.385 6.389,3.856c2.144,1.471 2.916,2.235 3.042,4.466c0.125,2.231 -0.179,2.552 -0.135,3.557c0.044,1.004 1.102,1.836 1.102,1.836l-0.025,1.37l0.223,1.382l0.499,0.058c0,-0 0.316,1.668 -0.08,2.504c0,-0 0.584,0.678 0.123,1.15c0,0 0.594,0.728 -2.466,1.964c-3.06,1.237 -4.963,1.28 -6.687,1.595c-1.724,0.315 -16.162,1.43 -20.257,1.573c-4.095,0.142 -34.68,-0.195 -40.83,0.057c-6.15,0.252 -19.686,0.384 -22.302,-0.381c-2.616,-0.766 -2.594,-1.519 -2.594,-1.519Z" style="fill:none;stroke:#000;stroke-width:2px;"/><circle cx="27.585" cy="76.399" r="7.929" style="fill:#fff;stroke:#000;stroke-width:2px;"/><circle cx="89.231" cy="76.399" r="7.929" style="fill:#fff;stroke:#000;stroke-width:2px;"/></g></svg>