<?xml version="1.0" encoding="UTF-8" standalone="no"?><!DOCTYPE svg PUBLIC "-//W3C//DTD SVG 1.1//EN" "http://www.w3.org/Graphics/SVG/1.1/DTD/svg11.dtd"><svg width="100%" height="100%" viewBox="0 0 120 120" version="1.1" xmlns="http://www.w3.org/2000/svg" xmlns:xlink="http://www.w3.org/1999/xlink" xml:space="preserve" xmlns:serif="http://www.serif.com/" style="fill-rule:evenodd;clip-rule:evenodd;stroke-linecap:round;stroke-linejoin:round;stroke-miterlimit:1.5;"><path d="M12.032,78.259c0,0 0.291,-0.313 0.348,-0.943c0.056,-0.63 -0.354,-4.546 0.034,-4.749c0,0 -0.63,-6.077 0.657,-7.362c1.287,-1.285 6.227,-2.97 23.364,-4.825c-0,-0 10.17,-6.673 17.555,-8.709c7.385,-2.036 27.544,-1.361 45.344,1.35c-0,-0 0.527,0.4 0.527,0.656c-0,0.255 -1.317,0.851 -1.193,1.247c0.125,0.396 7.284,5.641 7.686,6.384c0.402,0.742 0.506,2.741 0.458,3.462c-0.047,0.722 -0.458,1.595 -0.458,2.689c-0,1.093 0.97,3.053 1.021,3.892c0.05,0.839 0.055,1.462 0.055,1.462l0.455,0.278l-0.261,2.337l0.364,0.37l-0.611,0.623l-0.143,0.758c0,0 -5.189,1.5 -8.811,1.716c-3.621,0.217 -20.06,1.348 -20.06,1.348c-0,0 -37.034,-0.007 -41.618,0.055c-4.585,0.063 -19.036,1.002 -20.522,-0.342c0,0 -1.878,-0.3 -2.803,-0.828c-0.925,-0.527 -1.388,-0.869 -1.388,-0.869Z" style="fill:#4eb84b;"/><path d="M106.8,63.65l-4.78,0.056l-0.721,-1.437l5.33,-0.076c0.128,0.698 0.159,1.151 0.171,1.457Z" style="fill:#fff;"/><path d="M40.252,62.548c0,-0 4.076,-2.546 8.461,-4.666c2.651,-1.282 5.653,-2.38 7.259,-2.745c4.261,-0.967 17.107,-1.164 31.505,0.218c0,0 3.506,2.129 3.393,3.123c-0.112,0.994 -9.809,2.573 -12.174,2.851c-2.365,0.277 -38.444,1.219 -38.444,1.219Z" style="fill:#fff;stroke:#000;stroke-width:2px;"/><path d="M12.277,68.505c0,-0 3.836,-1.58 5.921,-3.51c-1.482,0.216 -4.175,0.79 -5.613,1.168c-0,0 -0.069,0.205 -0.126,0.539c-0.033,0.198 -0.094,0.521 -0.121,0.881c-0.023,0.298 -0.061,0.922 -0.061,0.922Z" style="fill:#fff;"/><path d="M12.032,78.259c0,0 0.291,-0.313 0.348,-0.943c0.056,-0.63 -0.354,-4.546 0.034,-4.749c0,0 -0.63,-6.077 0.657,-7.362c1.287,-1.285 6.227,-2.97 23.364,-4.825c-0,-0 10.17,-6.673 17.555,-8.709c7.385,-2.036 27.544,-1.361 45.344,1.35c-0,-0 0.527,0.4 0.527,0.656c-0,0.255 -1.317,0.851 -1.193,1.247c0.125,0.396 7.284,5.641 7.686,6.384c0.402,0.742 0.506,2.741 0.458,3.462c-0.047,0.722 -0.458,1.595 -0.458,2.689c-0,1.093 0.97,3.053 1.021,3.892c0.05,0.839 0.055,1.462 0.055,1.462l0.455,0.278l-0.261,2.337l0.364,0.37l-0.611,0.623l-0.143,0.758c0,0 -5.189,1.5 -8.811,1.716c-3.621,0.217 -20.06,1.348 -20.06,1.348c-0,0 -37.034,-0.007 -41.618,0.055c-4.585,0.063 -19.036,1.002 -20.522,-0.342c0,0 -1.878,-0.3 -2.803,-0.828c-0.925,-0.527 -1.388,-0.869 -1.388,-0.869Z" style="fill:none;stroke:#000;stroke-width:2px;"/><circle cx="27.145" cy="76.636" r="7.448" style="fill:#fff;stroke:#000;stroke-width:2px;"/><circle cx="88.804" cy="76.636" r="7.448" style="fill:#fff;stroke:#000;stroke-width:2px;"/></svg>