<?xml version="1.0" encoding="UTF-8" standalone="no"?><!DOCTYPE svg PUBLIC "-//W3C//DTD SVG 1.1//EN" "http://www.w3.org/Graphics/SVG/1.1/DTD/svg11.dtd"><svg width="100%" height="100%" viewBox="0 0 120 120" version="1.1" xmlns="http://www.w3.org/2000/svg" xmlns:xlink="http://www.w3.org/1999/xlink" xml:space="preserve" xmlns:serif="http://www.serif.com/" style="fill-rule:evenodd;clip-rule:evenodd;stroke-linecap:round;stroke-linejoin:round;stroke-miterlimit:1.5;"><path d="M12.453,77.056c-0,-0 -0.095,-2.467 -0.087,-3.472c0.008,-1.005 0.454,-1.27 0.454,-1.27c0,0 0.296,-1.377 0.279,-1.924c-0.016,-0.547 -0.15,-0.99 -0.137,-1.306c0.013,-0.316 0.193,-0.389 0.193,-0.389c0,-0 -0.315,-0.684 0.969,-1.301c1.283,-0.617 4.832,-1.981 10.733,-3.225c5.901,-1.243 14.813,-1.888 17.959,-2.207c0,0 7.366,-4.492 10.947,-6.024c3.581,-1.531 10.082,-2.23 18.453,-2.094c8.372,0.137 11.872,1.542 15.399,2.98c3.527,1.439 8.383,3.512 8.383,3.512c0,0 5.726,1.371 6.501,1.426c0.775,0.056 2.599,0.138 2.724,0.537c0.126,0.398 0.351,1.81 0.351,1.81c0,0 0.607,0.358 0.3,0.942c0,-0 0.106,0.742 -0.072,1.119c0,-0 1.378,3.075 1.685,4.258c0.306,1.182 0.071,2.971 0.071,2.971l0.434,1.212l0.09,0.376c0,0 -0.585,0.907 -0.873,1.885c0,0 0.111,0.255 -3.034,0.719c-0,0 -3.245,1.486 -7.934,1.736c-4.688,0.251 -23.649,1.353 -29.546,1.338c-5.897,-0.016 -22.749,0.23 -29.267,0.212c-6.518,-0.018 -18.472,0.951 -19.193,-0.671c-0,-0 -1.177,0.027 -2.532,-0.25c-1.356,-0.277 -3.288,-0.561 -3.292,-1.291l-0.428,-0.029l0.47,-1.58Z" style="fill:#4eb84b;"/><path d="M14.165,68.575c0,-0 1.051,-0.396 2.88,-0.858c1.829,-0.463 5.688,-0.847 5.688,-0.847c-0,0 -0.528,0.949 -1.107,1.443c-0.579,0.494 -2.935,1.66 -3.498,1.762c-0.562,0.101 -2.282,0.043 -2.282,0.043l-0.285,0.298c-0,0 -0.819,-0.056 -0.976,-0.18c-0.158,-0.125 -0.42,-1.661 -0.42,-1.661Z" style="fill:#fff;"/><path d="M104.598,63.968c-0.452,-0.06 -1.237,-0.213 -1.756,-0.02c-0.518,0.193 -2.899,2.344 -2.899,2.344l4.96,0.098c0,-0 0.788,-0.053 0.899,-0.22c0.094,-0.141 0.104,-0.637 0.104,-0.637c0.006,-0.001 -0.032,-0.482 -0.032,-0.482c0,-0 0.069,-0.149 0.086,-0.293c0.01,-0.085 -0.027,-0.168 -0.029,-0.216c-0.002,-0.052 -0.131,-0.239 -0.168,-0.275c-0.085,-0.085 -0.189,-0.158 -0.189,-0.158c0,0 -0.656,-0.098 -0.976,-0.141Z" style="fill:#fff;"/><path d="M12.453,77.056c-0,-0 -0.095,-2.467 -0.087,-3.472c0.008,-1.005 0.454,-1.27 0.454,-1.27c0,0 0.296,-1.377 0.279,-1.924c-0.016,-0.547 -0.15,-0.99 -0.137,-1.306c0.013,-0.316 0.193,-0.389 0.193,-0.389c0,-0 -0.315,-0.684 0.969,-1.301c1.283,-0.617 4.832,-1.981 10.733,-3.225c5.901,-1.243 14.813,-1.888 17.959,-2.207c0,0 7.366,-4.492 10.947,-6.024c3.581,-1.531 10.082,-2.23 18.453,-2.094c8.372,0.137 11.872,1.542 15.399,2.98c3.527,1.439 8.383,3.512 8.383,3.512c0,0 5.726,1.371 6.501,1.426c0.775,0.056 2.599,0.138 2.724,0.537c0.126,0.398 0.351,1.81 0.351,1.81c0,0 0.607,0.358 0.3,0.942c0,-0 0.106,0.742 -0.072,1.119c0,-0 1.378,3.075 1.685,4.258c0.306,1.182 0.071,2.971 0.071,2.971l0.434,1.212l0.09,0.376c0,0 -0.585,0.907 -0.873,1.885c0,0 0.111,0.255 -3.034,0.719c-0,0 -3.245,1.486 -7.934,1.736c-4.688,0.251 -23.649,1.353 -29.546,1.338c-5.897,-0.016 -22.749,0.23 -29.267,0.212c-6.518,-0.018 -18.472,0.951 -19.193,-0.671c-0,-0 -1.177,0.027 -2.532,-0.25c-1.356,-0.277 -3.288,-0.561 -3.292,-1.291l-0.428,-0.029l0.47,-1.58Z" style="fill:none;stroke:#000;stroke-width:2px;"/><path d="M45.972,64.526c-0,0 4.553,-3.329 10.105,-5.322c3.511,-1.261 10.015,-1.557 15.243,-1.494c3.042,0.037 5.651,0.195 6.987,0.355c3.592,0.43 10.473,3.305 10.473,3.305l0.164,1.31c0,0 -3.823,0.452 -9.432,0.814c-5.61,0.362 -33.54,1.032 -33.54,1.032Z" style="fill:#fff;stroke:#000;stroke-width:2px;"/><circle cx="28.537" cy="76.932" r="7.066" style="fill:#fff;stroke:#000;stroke-width:2px;"/><circle cx="88.537" cy="76.932" r="7.066" style="fill:#fff;stroke:#000;stroke-width:2px;"/></svg>