<?xml version="1.0" encoding="UTF-8" standalone="no"?><!DOCTYPE svg PUBLIC "-//W3C//DTD SVG 1.1//EN" "http://www.w3.org/Graphics/SVG/1.1/DTD/svg11.dtd"><svg width="100%" height="100%" viewBox="0 0 120 120" version="1.1" xmlns="http://www.w3.org/2000/svg" xmlns:xlink="http://www.w3.org/1999/xlink" xml:space="preserve" xmlns:serif="http://www.serif.com/" style="fill-rule:evenodd;clip-rule:evenodd;stroke-linecap:round;stroke-linejoin:round;stroke-miterlimit:1.5;"><path d="M11.981,77.273c0,0 0.355,-2.063 0.355,-2.551c0,-0.489 -0.249,-1.851 -0.189,-3.124c0.06,-1.273 -0.037,-5.383 -0.038,-6.405c-0.002,-1.021 2.37,-2.296 6.05,-3.333c3.68,-1.037 20.278,-2.537 20.278,-2.537c-0,-0 11.829,-7.854 15.061,-9.13c3.233,-1.275 15.743,-1.666 24.691,-1.225c8.947,0.44 14.51,1.478 24.051,3.559c0,0 0.487,0.692 -1.591,1.215l5.389,5.412l0.029,3.711l-0.931,0.909l1.041,2.448l-0.272,2.041l1.382,2.084l0.01,1.438l0.69,0.556l-0.042,2.766l-0.805,1.029c-0,-0 -4.838,1.973 -9.068,2.646c-4.23,0.674 -18.703,1.133 -26.476,1.206c-7.773,0.073 -28.258,-0.079 -32.796,-0.071c-4.538,0.008 -20.297,-0.044 -23.216,-0.888c-2.919,-0.845 -3.603,-1.756 -3.603,-1.756Z" style="fill:#4eb84b;"/><path d="M13.184,65.201c0.586,-0.545 1.313,-0.729 4.095,-1.344c2.782,-0.615 6.777,-0.548 6.777,-0.548c-0,-0 -0.979,1.163 -1.6,1.502c-1.15,0.629 -4.505,2.059 -5.301,2.27c-0.573,0.152 -2.762,0.194 -3.213,0.043c-0.411,-0.138 -1.249,-1.467 -0.758,-1.923Z" style="fill:#fff;"/><path d="M106.058,61.692l0.009,1.173l-0.931,0.909l0.14,0.328c-0,0 -3.979,0.216 -4.307,0.092c-0.349,-0.132 -3.154,-2.349 -3.046,-2.988c0.109,-0.639 6.272,-1.531 6.272,-1.531l0.023,2.04l1.84,-0.023Z" style="fill:#fff;"/><path d="M11.981,77.273c0,0 0.355,-2.063 0.355,-2.551c0,-0.489 -0.249,-1.851 -0.189,-3.124c0.06,-1.273 -0.037,-5.383 -0.038,-6.405c-0.002,-1.021 2.37,-2.296 6.05,-3.333c3.68,-1.037 20.278,-2.537 20.278,-2.537c-0,-0 11.829,-7.854 15.061,-9.13c3.233,-1.275 15.743,-1.666 24.691,-1.225c8.947,0.44 14.51,1.478 24.051,3.559c0,0 0.487,0.692 -1.591,1.215l5.389,5.412l0.029,3.711l-0.931,0.909l1.041,2.448l-0.272,2.041l1.382,2.084l0.01,1.438l0.69,0.556l-0.042,2.766l-0.805,1.029c-0,-0 -4.838,1.973 -9.068,2.646c-4.23,0.674 -18.703,1.133 -26.476,1.206c-7.773,0.073 -28.258,-0.079 -32.796,-0.071c-4.538,0.008 -20.297,-0.044 -23.216,-0.888c-2.919,-0.845 -3.603,-1.756 -3.603,-1.756Z" style="fill:none;stroke:#000;stroke-width:2px;"/><path d="M42.722,61.08c-0,0 9.53,-7.221 15.33,-7.887c5.842,-0.67 11.506,-0.55 14.658,-0.578c3.18,-0.029 13.914,0.555 17.533,1.44c1.798,0.44 4.103,2.683 4.103,2.683c-0,0 -7.176,2.075 -12.436,2.383c-5.26,0.307 -39.188,1.959 -39.188,1.959Z" style="fill:#fff;stroke:#000;stroke-width:2px;"/><circle cx="29.214" cy="76.249" r="7.671" style="fill:#fff;stroke:#000;stroke-width:2px;"/><circle cx="89.563" cy="76.249" r="7.671" style="fill:#fff;stroke:#000;stroke-width:2px;"/></svg>