<?xml version="1.0" encoding="UTF-8" standalone="no"?><!DOCTYPE svg PUBLIC "-//W3C//DTD SVG 1.1//EN" "http://www.w3.org/Graphics/SVG/1.1/DTD/svg11.dtd"><svg width="100%" height="100%" viewBox="0 0 120 120" version="1.1" xmlns="http://www.w3.org/2000/svg" xmlns:xlink="http://www.w3.org/1999/xlink" xml:space="preserve" xmlns:serif="http://www.serif.com/" style="fill-rule:evenodd;clip-rule:evenodd;stroke-linecap:round;stroke-linejoin:round;stroke-miterlimit:1.5;"><path d="M29.66,56.57c0,0 7.866,-5.093 13.951,-7.96c6.085,-2.866 9.504,-4.078 27.692,-3.991c18.188,0.088 26.632,2.633 26.632,2.633l0.535,0.651l-0.751,0.863c-0,-0 6.96,5.84 7.486,6.963c0.525,1.123 1.595,6.92 0.51,9.025l1.117,0.029c0,0 0.715,3.688 1.16,5.902c-0,0 -0.48,1.588 -0.808,2.522l0.036,0.789c-0,0 -0.592,1.295 -2.983,2.414c0,0 0.233,1.175 -1.662,1.709c-1.894,0.533 -21.026,0.96 -21.026,0.96c0,0 -8.878,-0.324 -18.198,-0.115c-9.32,0.21 -25.28,0.689 -25.28,0.689l-20.957,-0.586c0,-0 -4.952,-0.675 -5.159,-2.297c0,-0 0.046,-0.294 0.757,-0.479c-0,-0 -0.593,-1.793 -0.593,-2.159c0,-0.366 0.312,-0.933 0.298,-1.322c-0.014,-0.39 -0.492,-4.202 0.323,-4.989c0.815,-0.788 1.718,-1.328 1.918,-2.706c0.199,-1.377 -0.295,-2.66 2.35,-4.193c2.644,-1.533 7.583,-3.336 9.039,-3.761c1.456,-0.426 3.613,-0.591 3.613,-0.591Z" style="fill:#4eb84b;"/><path d="M105.116,59.593c0,0 -0.8,-0.049 -0.878,-0.346c-0.043,-0.161 -0.157,-1.075 -0.357,-1.936c-0.035,-0.15 -0.084,-0.281 -0.124,-0.415c-0.156,-0.522 -0.236,-0.733 -0.259,-0.887c-0.007,-0.052 0.129,-0.1 0.151,-0.051c0.174,0.384 0.682,1.952 0.895,2.359c0.049,0.095 0.942,0.117 0.942,0.117l0.123,1.161l-0.493,-0.002Z" style="fill:#fff;"/><path d="M103.754,55.964c-0.016,0.05 0.179,0.502 0.304,0.566c0.124,0.064 1.068,0.57 1.068,0.57c-0,0 -0.192,-0.601 -0.231,-0.712c-0.038,-0.11 -0.109,-0.315 -0.109,-0.315c-0,-0 -1.017,-0.159 -1.032,-0.109Z" style="fill:#fff;"/><path d="M41.541,53.894c0,-0 4.918,-3.196 11.286,-4.57c6.373,-1.374 22.51,-1.408 28.532,-0.742c6.068,0.672 13.339,2.242 18.29,1.869c1.817,1.579 2.597,2.326 4.21,3.793c0,0 -12.912,0.138 -14.74,0.764c-1.828,0.626 -5.45,2.256 -8.6,2.456c-3.15,0.201 -11.224,1.36 -11.831,0.979c-0.608,-0.381 -0.517,-2.312 -2.065,-2.224c-1.549,0.088 -26.178,1.605 -26.178,1.605l1.096,-3.93Z" style="fill:#fff;stroke:#000;stroke-width:2px;"/><path d="M17.244,61.809c1.38,-0.425 2.596,-0.956 7.121,-1.481c0,-0 -2.764,2 -4.559,3.14c-1.795,1.141 -2.995,1.98 -5.259,2.141c-0,0 0.089,-0.414 0.179,-1.332c0.064,-0.659 0.058,-0.775 0.204,-1.242c0.176,-0.561 1.797,-1.067 2.314,-1.226Z" style="fill:#fff;"/><path d="M29.66,56.57c0,0 7.866,-5.093 13.951,-7.96c6.085,-2.866 9.504,-4.078 27.692,-3.991c18.188,0.088 26.632,2.633 26.632,2.633l0.535,0.651l-0.751,0.863c-0,-0 6.96,5.84 7.486,6.963c0.525,1.123 1.595,6.92 0.51,9.025l1.117,0.029c0,0 0.715,3.688 1.16,5.902c-0,0 -0.48,1.588 -0.808,2.522l0.036,0.789c-0,0 -0.592,1.295 -2.983,2.414c0,0 0.233,1.175 -1.662,1.709c-1.894,0.533 -21.026,0.96 -21.026,0.96c0,0 -8.878,-0.324 -18.198,-0.115c-9.32,0.21 -25.28,0.689 -25.28,0.689l-20.957,-0.586c0,-0 -4.952,-0.675 -5.159,-2.297c0,-0 0.046,-0.294 0.757,-0.479c-0,-0 -0.593,-1.793 -0.593,-2.159c0,-0.366 0.312,-0.933 0.298,-1.322c-0.014,-0.39 -0.492,-4.202 0.323,-4.989c0.815,-0.788 1.718,-1.328 1.918,-2.706c0.199,-1.377 -0.295,-2.66 2.35,-4.193c2.644,-1.533 7.583,-3.336 9.039,-3.761c1.456,-0.426 3.613,-0.591 3.613,-0.591Z" style="fill:none;stroke:#000;stroke-width:2px;"/><circle cx="27.287" cy="75.409" r="8.627" style="fill:#fff;stroke:#000;stroke-width:2px;"/><circle cx="92.082" cy="75.409" r="8.627" style="fill:#fff;stroke:#000;stroke-width:2px;"/></svg>