<?xml version="1.0" encoding="UTF-8" standalone="no"?><!DOCTYPE svg PUBLIC "-//W3C//DTD SVG 1.1//EN" "http://www.w3.org/Graphics/SVG/1.1/DTD/svg11.dtd"><svg width="100%" height="100%" viewBox="0 0 120 120" version="1.1" xmlns="http://www.w3.org/2000/svg" xmlns:xlink="http://www.w3.org/1999/xlink" xml:space="preserve" xmlns:serif="http://www.serif.com/" style="fill-rule:evenodd;clip-rule:evenodd;stroke-linecap:round;stroke-linejoin:round;stroke-miterlimit:1.5;"><g><path d="M13.088,76.001c0,0 -0.544,-2.952 -0.358,-5.98c0.186,-3.028 0.415,-3.382 0.725,-3.906c0.309,-0.525 0.935,-0.616 1.186,-1.174c0.251,-0.558 0.835,-2.495 1.869,-3.309c1.034,-0.815 3.12,-1.596 6.163,-2.467c2.989,-0.855 5.796,-0.994 7.295,-1.864c1.499,-0.87 10.176,-7.196 14.674,-8.952c4.498,-1.756 7.009,-1.685 26.385,-1.725c19.377,-0.04 32.031,0.591 32.031,0.591l1.365,0.46c-0,-0 0.769,3.954 1.165,6.935c0.396,2.982 0.484,5.44 0.484,5.44c-0,0 0.212,0.04 0.218,1.261c0.006,1.221 0.055,1.471 -0.181,1.557c-0,-0 0.101,0.081 0.09,0.807c-0.012,0.725 -0.11,0.737 -0.11,0.737c0,0 0.273,0.169 0.267,1.522c-0.005,1.352 0.033,1.487 -0.232,1.663l-0.216,4.055c-0,0 0.209,0.006 0.345,0.011c0.137,0.006 0.259,0.028 0.358,0.169c0.1,0.14 0.686,0.987 0.782,1.272c0.096,0.284 0.167,1.055 0.472,1.24c-0,-0 0.203,1.159 0.085,1.624c-0.119,0.464 -0.473,1.399 -1.189,1.665c-0.716,0.265 -4.934,0.722 -4.934,0.722c0,0 -14.417,0.287 -22.774,0.433c-8.358,0.147 -34.133,0.466 -43.185,0.684c-9.052,0.218 -16.961,-0.18 -20.402,-0.987c-3.442,-0.807 -3.452,-1.429 -3.486,-2.025l1.108,-0.459Z" style="fill:#4eb84b;"/><path d="M105.451,59.621c0,0 -0.684,-0.107 -1.276,-0.071c0,0 0.089,2.144 0.146,4.227c0.056,2.083 0.009,4.078 0.009,4.078l0.826,0.025c-0,0 0.482,-0.095 0.477,-0.47c-0.002,-0.185 -0.02,-7.338 -0.029,-7.541c-0.008,-0.155 -0.153,-0.248 -0.153,-0.248Z" style="fill:#fff;"/><path d="M34.92,58.653c1.686,-1.318 8.172,-5.636 9.75,-6.332c1.578,-0.696 2.613,-1.112 4.998,-1.535c2.384,-0.423 6.373,-0.316 7,-0.325c0.628,-0.009 1.076,0.053 0.969,0.845c-0.107,0.792 -0.642,5.087 -0.777,5.925c-0.135,0.837 -0.355,1.069 -0.703,1.409c-0.349,0.34 -1.041,0.831 -1.388,1.096c-0.348,0.265 -0.985,0.74 -1.503,0.862c-0.517,0.122 -14.943,0.717 -15.651,0.685c-0.707,-0.031 -1.101,0.076 -2.123,-0.705c-1.022,-0.781 -2.257,-0.607 -0.572,-1.925Z" style="fill:#fff;stroke:#000;stroke-width:2px;"/><path d="M61.679,51.907c-0.032,0.965 0.077,5.102 0.115,6.7c0.038,1.598 0.249,2.021 1.851,1.925c1.602,-0.096 34.988,-0.525 36.447,-0.586c1.458,-0.06 1.241,-0.907 1.24,-1.686c0,-0.778 -0.415,-3.184 -0.611,-4.222c-0.196,-1.039 -0.586,-1.486 -1.422,-1.887c-0.836,-0.401 -1.849,-0.951 -2.386,-1.084c-0.538,-0.134 -1.306,-0.237 -2.622,-0.25c-1.316,-0.014 -30.216,-0.2 -31.247,-0.187c-1.03,0.014 -1.333,0.313 -1.365,1.277Z" style="fill:#fff;stroke:#000;stroke-width:2px;"/><path d="M15.343,64.801c-0,-0 1.293,-0.175 2.64,-0.434c1.348,-0.259 2.373,-0.392 2.652,-0.45c0.279,-0.058 0.87,-0.307 1.269,-0.758c0.398,-0.452 0.659,-0.799 0.734,-0.97c0.069,-0.159 0.279,-0.648 0.078,-0.927c-0.201,-0.279 -0.364,-0.649 -1.215,-0.614c-0.502,0.02 -0.637,0.056 -0.637,0.056c0,-0 -2.528,0.386 -3.263,0.805c-0.194,0.111 -0.787,0.532 -1.028,0.843c-0.13,0.167 -0.524,0.714 -0.622,0.912c-0.317,0.639 -0.477,1.116 -0.608,1.537Z" style="fill:#fff;"/><path d="M13.088,76.001c0,0 -0.544,-2.952 -0.358,-5.98c0.186,-3.028 0.415,-3.382 0.725,-3.906c0.309,-0.525 0.935,-0.616 1.186,-1.174c0.251,-0.558 0.835,-2.495 1.869,-3.309c1.034,-0.815 3.12,-1.596 6.163,-2.467c2.989,-0.855 5.796,-0.994 7.295,-1.864c1.499,-0.87 10.176,-7.196 14.674,-8.952c4.498,-1.756 7.009,-1.685 26.385,-1.725c19.377,-0.04 32.031,0.591 32.031,0.591l1.365,0.46c-0,-0 0.769,3.954 1.165,6.935c0.396,2.982 0.484,5.44 0.484,5.44c-0,0 0.212,0.04 0.218,1.261c0.006,1.221 0.055,1.471 -0.181,1.557c-0,-0 0.101,0.081 0.09,0.807c-0.012,0.725 -0.11,0.737 -0.11,0.737c0,0 0.273,0.169 0.267,1.522c-0.005,1.352 0.033,1.487 -0.232,1.663l-0.216,4.055c-0,0 0.209,0.006 0.345,0.011c0.137,0.006 0.259,0.028 0.358,0.169c0.1,0.14 0.686,0.987 0.782,1.272c0.096,0.284 0.167,1.055 0.472,1.24c-0,-0 0.203,1.159 0.085,1.624c-0.119,0.464 -0.473,1.399 -1.189,1.665c-0.716,0.265 -4.934,0.722 -4.934,0.722c0,0 -14.417,0.287 -22.774,0.433c-8.358,0.147 -34.133,0.466 -43.185,0.684c-9.052,0.218 -16.961,-0.18 -20.402,-0.987c-3.442,-0.807 -3.452,-1.429 -3.486,-2.025l1.108,-0.459Z" style="fill:none;stroke:#000;stroke-width:2px;"/><circle cx="27.563" cy="76.966" r="7.047" style="fill:#fff;stroke:#000;stroke-width:2px;"/><circle cx="93.872" cy="76.966" r="7.047" style="fill:#fff;stroke:#000;stroke-width:2px;"/></g></svg>