<?xml version="1.0" encoding="UTF-8" standalone="no"?><!DOCTYPE svg PUBLIC "-//W3C//DTD SVG 1.1//EN" "http://www.w3.org/Graphics/SVG/1.1/DTD/svg11.dtd"><svg width="100%" height="100%" viewBox="0 0 120 120" version="1.1" xmlns="http://www.w3.org/2000/svg" xmlns:xlink="http://www.w3.org/1999/xlink" xml:space="preserve" xmlns:serif="http://www.serif.com/" style="fill-rule:evenodd;clip-rule:evenodd;stroke-linecap:round;stroke-linejoin:round;stroke-miterlimit:1.5;"><g><path d="M14.93,64.603c0,-0 1.027,-1.376 6.087,-2.453c5.061,-1.078 8.713,-1.603 16.607,-1.808c-0,0 11.896,-6.973 16.899,-8.494c5.003,-1.521 14.772,-1.546 24.183,-0.8c9.411,0.746 18.333,4.246 22.024,6.036l3.912,0.289c0,0 -0.477,0.543 -1.014,1.398c-0,-0 2.249,1.427 2.424,2.402c0.175,0.976 -0.503,2.131 -0.503,2.131c0,0 0.642,2.724 0.665,3.424c0.023,0.701 -0.518,1.034 -0.316,1.569c0.202,0.535 2.056,2.431 2.129,3.862c0.073,1.431 -0.175,4.148 -0.978,4.86c-0.803,0.712 -2.407,1.507 -2.407,1.507l-21.225,0.746l-43.351,-0.268c-0,-0 -20.065,0.539 -23.013,0.007c-2.947,-0.531 -4.928,-1.237 -4.958,-1.937c-0.031,-0.701 0.321,-0.75 0.321,-0.75l-0.017,-3.951c0,0 -0.21,-2.052 0.301,-2.485c0.51,-0.434 1.524,-0.955 1.524,-0.955l-0.003,-0.43l-0.438,-0.542c-0,-0 -0.183,-2.064 0.12,-2.497c0.317,-0.455 1.027,-0.861 1.027,-0.861Z" style="fill:#4eb84b;"/><path d="M104.52,59.404c-0,-0 -2.483,-0.095 -2.599,-0.061c-0.077,0.024 -0.792,0.292 -1.396,0.589c-0.418,0.205 -0.775,0.432 -0.877,0.53c-0.243,0.232 -0.274,0.48 -0.029,0.937c0.245,0.457 1.227,1.547 1.475,1.783c0.248,0.237 0.507,0.386 0.886,0.419c0.379,0.033 2.847,0.102 2.847,0.102c0,0 0.564,-0.123 0.722,-0.399c0.226,-0.394 0.387,-0.794 0.429,-1.059c0.074,-0.463 0.21,-0.627 0.027,-1.236c-0.182,-0.608 -1.485,-1.605 -1.485,-1.605Z" style="fill:#fff;"/><path d="M14.698,67.006c-0,0 0.993,-0.029 1.368,-0.084c0.374,-0.056 0.471,-0.221 0.56,-0.358c0.095,-0.144 0.577,-1.114 0.577,-1.114c-0,-0 1.04,0.01 1.818,-0.167c0.779,-0.177 2.453,-1.263 4.057,-2.322c-0,0 -1.004,-0.211 -3.02,0.088c-0,0 -1.056,0.143 -2.624,0.786c-1.568,0.642 -2.901,1.584 -3.07,1.794c-0.148,0.186 -0.218,0.668 -0.217,0.948c0.001,0.287 0.551,0.429 0.551,0.429Z" style="fill:#fff;"/><path d="M46.887,62.86l0.616,-3.643c0,0 4.884,-3.603 11.902,-4.398c7.018,-0.795 17.019,-0.395 24.986,0.905c4.988,0.814 11.933,3.605 11.933,3.605l0.476,1.199c0,0 -6.618,-0.062 -8.915,0.017c-2.297,0.078 -2.306,1.146 -4.78,1.202c-2.474,0.057 -36.218,1.113 -36.218,1.113Z" style="fill:#fff;stroke:#000;stroke-width:2px;"/><path d="M14.228,68.526c0,-0 2.113,-0.163 2.363,-0.147c0.255,0.017 0.402,0.215 0.023,0.251c-0.38,0.036 -2.375,0.199 -2.375,0.199c-0,-0 0.004,-0.103 0.003,-0.169c-0.001,-0.067 -0.014,-0.134 -0.014,-0.134Z" style="fill:#fff;"/><path d="M14.93,64.603c0,-0 1.027,-1.376 6.087,-2.453c5.061,-1.078 8.713,-1.603 16.607,-1.808c-0,0 11.896,-6.973 16.899,-8.494c5.003,-1.521 14.772,-1.546 24.183,-0.8c9.411,0.746 18.333,4.246 22.024,6.036l3.912,0.289c0,0 -0.477,0.543 -1.014,1.398c-0,-0 2.249,1.427 2.424,2.402c0.175,0.976 -0.503,2.131 -0.503,2.131c0,0 0.642,2.724 0.665,3.424c0.023,0.701 -0.518,1.034 -0.316,1.569c0.202,0.535 2.056,2.431 2.129,3.862c0.073,1.431 -0.175,4.148 -0.978,4.86c-0.803,0.712 -2.407,1.507 -2.407,1.507l-21.225,0.746l-43.351,-0.268c-0,-0 -20.065,0.539 -23.013,0.007c-2.947,-0.531 -4.928,-1.237 -4.958,-1.937c-0.031,-0.701 0.321,-0.75 0.321,-0.75l-0.017,-3.951c0,0 -0.21,-2.052 0.301,-2.485c0.51,-0.434 1.524,-0.955 1.524,-0.955l-0.003,-0.43l-0.438,-0.542c-0,-0 -0.183,-2.064 0.12,-2.497c0.317,-0.455 1.027,-0.861 1.027,-0.861Z" style="fill:none;stroke:#000;stroke-width:2px;"/><circle cx="30.72" cy="76.513" r="7.517" style="fill:#fff;stroke:#000;stroke-width:2px;"/><circle cx="92.828" cy="76.513" r="7.517" style="fill:#fff;stroke:#000;stroke-width:2px;"/></g></svg>