<?xml version="1.0" encoding="UTF-8" standalone="no"?><!DOCTYPE svg PUBLIC "-//W3C//DTD SVG 1.1//EN" "http://www.w3.org/Graphics/SVG/1.1/DTD/svg11.dtd"><svg width="100%" height="100%" viewBox="0 0 120 120" version="1.1" xmlns="http://www.w3.org/2000/svg" xmlns:xlink="http://www.w3.org/1999/xlink" xml:space="preserve" xmlns:serif="http://www.serif.com/" style="fill-rule:evenodd;clip-rule:evenodd;stroke-linecap:round;stroke-linejoin:round;stroke-miterlimit:1.5;"><g><path d="M12.817,76.043l0.101,-1.547c0,0 -0.533,-0.271 -0.562,-1.489c-0.028,-1.217 -0.026,-4.205 0.359,-4.684c0.384,-0.479 1.145,-0.878 1.744,-1.722c0.089,-0.125 -0.246,-0.586 -0.265,-1.029c-0.029,-0.655 0.261,-1.813 0.261,-1.813c-0,-0 1.475,-1.305 3.659,-2.136c2.183,-0.832 7.173,-2.099 9.849,-2.352c2.675,-0.253 3.555,-0.395 3.555,-0.395c-0,0 5.275,-4.066 8.29,-5.907c3.015,-1.841 6.753,-4.453 10.936,-5.024c4.184,-0.571 15.114,-0.889 23.664,-1.068c8.55,-0.18 24.906,0.504 26.266,0.664c1.359,0.16 2.555,0.646 2.427,0.839c-0.128,0.192 -0.256,0.523 -0.256,0.523c0,0 1.79,3.781 2.301,5.51c0.435,1.471 0.617,3.481 0.761,5.267c0.045,0.557 0.394,1.221 0.57,2.442c0.389,2.696 0.71,4.994 0.627,6.069c-0.031,0.408 -1.121,0.097 -1.121,0.382c0,0.285 0.774,2.141 0.937,2.457c0.164,0.317 1.099,3.248 1.099,3.544c-0,0.295 0.049,0.915 -0.165,1.301c-0.213,0.387 -0.702,1.414 -1.643,1.431c-0.941,0.018 -16.752,1.456 -24.535,1.712c-7.782,0.256 -37.646,0.277 -44.114,0.454c-6.468,0.177 -18.971,-0.231 -22.232,-1.018c-3.26,-0.788 -3.305,-1.354 -3.305,-1.66c-0,-0.306 0.792,-0.751 0.792,-0.751Z" style="fill:#4eb84b;"/><path d="M102.829,56.676l-1.283,-0.013c0,-0 0.235,2.409 0.405,4.296c0.17,1.887 0.127,7.628 0.127,7.628l1.538,0.239l1.092,0.876c0,0 -0.016,-2.77 -0.02,-2.867c-0.011,-0.304 -0.152,-2.819 -0.212,-3.504c-0.068,-0.793 -0.334,-2.554 -0.449,-3.046c-0.219,-0.942 -0.63,-2.298 -0.734,-2.596c-0.167,-0.481 -0.464,-1.013 -0.464,-1.013Z" style="fill:#fff;"/><path d="M17.041,63.198c0.361,-0.114 0.448,-0.132 1.281,-0.316c1.386,-0.305 4.134,-0.623 4.299,-0.65c0.265,-0.042 0.667,0.235 0.3,0.716c-0.132,0.174 -0.45,0.803 -0.887,1.084c-0.371,0.239 -0.907,0.372 -1.301,0.442c-0.419,0.075 -3.096,0.725 -3.838,1.085c-0.267,0.13 -0.893,0.686 -0.893,0.686c-0,-0 2.305,-0.235 2.679,-0.259c0.345,-0.023 0.209,0.228 0.174,0.294c-0.082,0.155 -0.097,0.22 -0.272,0.275c-0.316,0.098 -3.209,0.331 -3.209,0.331c-0,-0 -0.854,-0.098 -0.91,-0.409c-0.015,-0.087 -0.199,-0.485 -0.234,-0.667c-0.056,-0.295 -0.03,-0.577 -0.026,-0.603c0.05,-0.364 0.429,-0.648 0.736,-0.873c0.282,-0.207 0.742,-0.483 1.219,-0.767c0.203,-0.121 0.57,-0.27 0.882,-0.369Z" style="fill:#fff;"/><path d="M12.817,76.043l0.101,-1.547c0,0 -0.533,-0.271 -0.562,-1.489c-0.028,-1.217 -0.026,-4.205 0.359,-4.684c0.384,-0.479 1.145,-0.878 1.744,-1.722c0.089,-0.125 -0.246,-0.586 -0.265,-1.029c-0.029,-0.655 0.261,-1.813 0.261,-1.813c-0,-0 1.475,-1.305 3.659,-2.136c2.183,-0.832 7.173,-2.099 9.849,-2.352c2.675,-0.253 3.555,-0.395 3.555,-0.395c-0,0 5.275,-4.066 8.29,-5.907c3.015,-1.841 6.753,-4.453 10.936,-5.024c4.184,-0.571 15.114,-0.889 23.664,-1.068c8.55,-0.18 24.906,0.504 26.266,0.664c1.359,0.16 2.555,0.646 2.427,0.839c-0.128,0.192 -0.256,0.523 -0.256,0.523c0,0 1.79,3.781 2.301,5.51c0.435,1.471 0.617,3.481 0.761,5.267c0.045,0.557 0.394,1.221 0.57,2.442c0.389,2.696 0.71,4.994 0.627,6.069c-0.031,0.408 -1.121,0.097 -1.121,0.382c0,0.285 0.774,2.141 0.937,2.457c0.164,0.317 1.099,3.248 1.099,3.544c-0,0.295 0.049,0.915 -0.165,1.301c-0.213,0.387 -0.702,1.414 -1.643,1.431c-0.941,0.018 -16.752,1.456 -24.535,1.712c-7.782,0.256 -37.646,0.277 -44.114,0.454c-6.468,0.177 -18.971,-0.231 -22.232,-1.018c-3.26,-0.788 -3.305,-1.354 -3.305,-1.66c-0,-0.306 0.792,-0.751 0.792,-0.751Z" style="fill:none;stroke:#000;stroke-width:2px;"/><circle cx="29.201" cy="76.805" r="7.191" style="fill:#fff;stroke:#000;stroke-width:2px;"/><circle cx="92.256" cy="76.805" r="7.191" style="fill:#fff;stroke:#000;stroke-width:2px;"/><path d="M66.348,50.87c1.054,-0.03 25.278,-0.238 26.789,-0.007c1.51,0.231 4.272,1.77 4.499,2.417c0.227,0.647 0.986,3.339 1.006,4.262c0.02,0.924 -2.274,2.612 -3.31,2.823c-1.036,0.212 -24.413,0.765 -25.209,0.795c-0.797,0.03 -4.174,-1.772 -4.612,-2.553c-0.439,-0.781 -0.377,-6.13 -0.377,-6.589c0,-0.459 0.159,-1.118 1.214,-1.148Z" style="fill:#fff;stroke:#000;stroke-width:2px;"/><path d="M40.132,57.6c-0,0 6.038,-4.815 9.966,-5.665c3.928,-0.85 8.231,-0.762 9.152,-0.709c0.922,0.053 1.258,0.291 1.28,1.353c0.021,1.061 0.003,4.208 -0.075,4.848c-0.079,0.639 -0.264,1.21 -1.109,1.721c-0.845,0.512 -1.985,1.568 -5.103,2.117c-3.1,0.547 -14.519,0.758 -14.519,0.758l0.408,-4.423Z" style="fill:#fff;stroke:#000;stroke-width:2px;"/></g></svg>