<?xml version="1.0" encoding="UTF-8" standalone="no"?><!DOCTYPE svg PUBLIC "-//W3C//DTD SVG 1.1//EN" "http://www.w3.org/Graphics/SVG/1.1/DTD/svg11.dtd"><svg width="100%" height="100%" viewBox="0 0 120 120" version="1.1" xmlns="http://www.w3.org/2000/svg" xmlns:xlink="http://www.w3.org/1999/xlink" xml:space="preserve" xmlns:serif="http://www.serif.com/" style="fill-rule:evenodd;clip-rule:evenodd;stroke-linecap:round;stroke-linejoin:round;stroke-miterlimit:1.5;"><g><path d="M12.659,67.704c0,0 2.838,-3.34 6.67,-4.724c3.832,-1.383 11.611,-2.363 13.596,-3.169c1.984,-0.806 12.022,-5.531 17.029,-7.305c5.006,-1.774 8.368,-2.591 17.48,-2.801c9.113,-0.211 25.28,1.574 32.877,3.592c-0,0 -0.86,2.67 0.296,3.529c1.157,0.859 3.82,3.275 5.123,4.533l-0.741,1.809l0.026,1.442l-0.241,0.337c0,-0 3.153,4.507 3.16,4.954c0.008,0.448 -0.587,2.383 -0.505,3.062c0.083,0.68 0.657,0.934 0.657,0.934l-0.268,2.807l-0.675,0.491l-0.333,1.055c0,0 -1.751,0.481 -2.638,0.827c-0.887,0.346 -1.79,0.49 -2.557,0.495c-0.766,0.005 -15.972,0.227 -20.66,0.212c-4.688,-0.014 -35.683,0.525 -43.447,0.581c-7.764,0.056 -18.671,0.155 -21.24,-0.077c-2.569,-0.231 -2.366,-0.579 -2.366,-0.579l-1.808,-0.133l0.264,-7.322c0,-0 0.599,-0.608 0.628,-1.181c0.029,-0.573 -0.733,-2.235 -0.733,-2.235l0.525,-0.793l-0.119,-0.341Z" style="fill:#4eb84b;"/><path d="M104.721,60.406c-0,0 -5.062,0.519 -5.646,0.62c-0.584,0.101 -1.112,0.353 -0.53,0.899c0.583,0.545 2.447,2.428 2.447,2.428l2.988,0.059l1.033,0.076l-0.024,-1.32l0.741,-1.809l-1.009,-0.953Z" style="fill:#fff;"/><path d="M14.746,67.763l0.062,0.815c-0,-0 0.356,-0.189 0.931,-0.134c0.575,0.055 0.849,0.138 0.849,0.138c-0,0 5.793,-3.627 6.159,-3.86c0.366,-0.232 0.935,-1.12 -0.661,-0.773c-1.62,0.352 -2.881,0.672 -3.917,1.087c-0.76,0.305 -1.551,0.753 -2.299,1.403c-0.747,0.65 -1.124,1.324 -1.124,1.324Z" style="fill:#fff;"/><path d="M38.613,62.118c-0,0 7.424,-4.177 13.615,-6.339c2.876,-1.004 5.746,-1.552 8.9,-1.904c3.635,-0.405 7.647,-0.517 12.484,-0.219c9.035,0.557 11.657,1.035 11.657,1.035l4.797,4.33c0,0 -2.293,0.835 -6.866,1.423c-4.573,0.588 -33.209,2.342 -37.066,2.354c-3.857,0.012 -7.521,-0.68 -7.521,-0.68Z" style="fill:#fff;stroke:#000;stroke-width:2px;"/><path d="M12.659,67.704c0,0 2.838,-3.34 6.67,-4.724c3.832,-1.383 11.611,-2.363 13.596,-3.169c1.984,-0.806 12.022,-5.531 17.029,-7.305c5.006,-1.774 8.368,-2.591 17.48,-2.801c9.113,-0.211 25.28,1.574 32.877,3.592c-0,0 -0.86,2.67 0.296,3.529c1.157,0.859 3.82,3.275 5.123,4.533l-0.741,1.809l0.026,1.442l-0.241,0.337c0,-0 3.153,4.507 3.16,4.954c0.008,0.448 -0.587,2.383 -0.505,3.062c0.083,0.68 0.657,0.934 0.657,0.934l-0.268,2.807l-0.675,0.491l-0.333,1.055c0,0 -1.751,0.481 -2.638,0.827c-0.887,0.346 -1.79,0.49 -2.557,0.495c-0.766,0.005 -15.972,0.227 -20.66,0.212c-4.688,-0.014 -35.683,0.525 -43.447,0.581c-7.764,0.056 -18.671,0.155 -21.24,-0.077c-2.569,-0.231 -2.366,-0.579 -2.366,-0.579l-1.808,-0.133l0.264,-7.322c0,-0 0.599,-0.608 0.628,-1.181c0.029,-0.573 -0.733,-2.235 -0.733,-2.235l0.525,-0.793l-0.119,-0.341Z" style="fill:none;stroke:#000;stroke-width:2px;"/><circle cx="92.233" cy="76.228" r="7.84" style="fill:#fff;stroke:#000;stroke-width:2px;"/><circle cx="27.36" cy="76.228" r="7.84" style="fill:#fff;stroke:#000;stroke-width:2px;"/></g></svg>