<?xml version="1.0" encoding="UTF-8" standalone="no"?><!DOCTYPE svg PUBLIC "-//W3C//DTD SVG 1.1//EN" "http://www.w3.org/Graphics/SVG/1.1/DTD/svg11.dtd"><svg width="100%" height="100%" viewBox="0 0 120 120" version="1.1" xmlns="http://www.w3.org/2000/svg" xmlns:xlink="http://www.w3.org/1999/xlink" xml:space="preserve" xmlns:serif="http://www.serif.com/" style="fill-rule:evenodd;clip-rule:evenodd;stroke-linecap:round;stroke-linejoin:round;stroke-miterlimit:1.5;"><g><path d="M12.026,78.556c0,0 0.409,-3.321 0.989,-4.425l-0.44,-0.128c0,0 -0.302,-3.285 -0.397,-5.246l0.483,-0.793l0.04,-0.539l-0.124,-0.052c-0,0 0.573,-1.027 1.783,-1.668c1.21,-0.64 5.528,-2.573 10.235,-3.502c4.706,-0.93 10.264,-1.366 10.264,-1.366c-0,-0 10.641,-6.591 18.5,-8.688c7.859,-2.097 25.725,-2.447 36.204,0.736c10.478,3.182 13.609,5.83 15.683,6.044l1.493,-0.238c-0,0 -0.371,0.401 -0.376,0.838c-0.005,0.438 0.065,0.992 -0.108,1.21c-0,-0 -0.695,1.56 -0.702,2.975c-0.007,1.415 1.464,2.328 1.451,2.91c-0.013,0.582 -0.376,1.711 -0.474,2.583c-0.098,0.873 -0.246,2.313 0.294,2.579c0.539,0.266 1.246,0.696 1.125,0.88c-0.121,0.185 -0.549,0.613 -0.455,1.057c0.095,0.445 0.574,2.415 -0.149,2.722c-0.723,0.308 -1.951,0.746 -2.041,0.843c-0.09,0.098 0.396,0.793 -1.929,1.134c-2.324,0.342 -20.049,1.583 -24.923,1.636c-4.874,0.054 -36.789,0.22 -39.071,0.163c-2.281,-0.057 -19.775,0.447 -21.236,0.285c-1.461,-0.162 -6.119,-1.95 -6.119,-1.95Z" style="fill:#4eb84b;"/><path d="M15.051,67.754c0.713,0.115 4.08,-0.123 4.536,-0.244c0.456,-0.121 4.805,-3.084 4.699,-3.418c-0.064,-0.206 -1.832,0.037 -3.487,0.464c-1.03,0.265 -1.991,0.661 -2.55,0.884c-0.777,0.309 -2.267,0.899 -2.975,1.52c-0.619,0.542 -0.558,0.74 -0.223,0.794Z" style="fill:#fff;"/><path d="M41.16,61.57c-0,0 2.85,-1.699 6.652,-3.345c2.814,-1.218 6.151,-2.376 9.229,-2.96c3.83,-0.727 10.005,-0.976 16.427,-0.783c5.709,0.172 10.146,0.589 13.658,1.673c-0,-0 -2.552,1.587 -7.178,2.81c-4.626,1.223 -26.611,2.364 -31.268,2.452c-4.658,0.088 -7.52,0.153 -7.52,0.153Z" style="fill:#fff;stroke:#000;stroke-width:2px;"/><path d="M103.591,59.468c-0,-0 -7.151,0.172 -7.342,0.995c-0.192,0.823 2.304,1.565 2.885,1.599c0.581,0.034 4.339,0.496 4.969,0.428c0.657,-0.07 0.67,-0.29 0.67,-0.29c0.201,-0.268 0.323,-0.545 0.413,-0.833c0.111,-0.351 0.122,-0.723 0.209,-1.07c0.035,-0.138 0.023,-0.272 0,-0.41c-0.215,-0.222 -0.336,-0.326 -0.584,-0.377c-0.356,-0.074 -0.769,-0.047 -1.22,-0.042Z" style="fill:#fff;"/><path d="M12.026,78.556c0,0 0.409,-3.321 0.989,-4.425l-0.44,-0.128c0,0 -0.302,-3.285 -0.397,-5.246l0.483,-0.793l0.04,-0.539l-0.124,-0.052c-0,0 0.573,-1.027 1.783,-1.668c1.21,-0.64 5.528,-2.573 10.235,-3.502c4.706,-0.93 10.264,-1.366 10.264,-1.366c-0,-0 10.641,-6.591 18.5,-8.688c7.859,-2.097 25.725,-2.447 36.204,0.736c10.478,3.182 13.609,5.83 15.683,6.044l1.493,-0.238c-0,0 -0.371,0.401 -0.376,0.838c-0.005,0.438 0.065,0.992 -0.108,1.21c-0,-0 -0.695,1.56 -0.702,2.975c-0.007,1.415 1.464,2.328 1.451,2.91c-0.013,0.582 -0.376,1.711 -0.474,2.583c-0.098,0.873 -0.246,2.313 0.294,2.579c0.539,0.266 1.246,0.696 1.125,0.88c-0.121,0.185 -0.549,0.613 -0.455,1.057c0.095,0.445 0.574,2.415 -0.149,2.722c-0.723,0.308 -1.951,0.746 -2.041,0.843c-0.09,0.098 0.396,0.793 -1.929,1.134c-2.324,0.342 -20.049,1.583 -24.923,1.636c-4.874,0.054 -36.789,0.22 -39.071,0.163c-2.281,-0.057 -19.775,0.447 -21.236,0.285c-1.461,-0.162 -6.119,-1.95 -6.119,-1.95Z" style="fill:none;stroke:#000;stroke-width:2px;"/><circle cx="89.624" cy="75.938" r="8.097" style="fill:#fff;stroke:#000;stroke-width:2px;"/><circle cx="30.032" cy="75.938" r="8.097" style="fill:#fff;stroke:#000;stroke-width:2px;"/></g></svg>