<?xml version="1.0" encoding="UTF-8" standalone="no"?><!DOCTYPE svg PUBLIC "-//W3C//DTD SVG 1.1//EN" "http://www.w3.org/Graphics/SVG/1.1/DTD/svg11.dtd"><svg width="100%" height="100%" viewBox="0 0 120 120" version="1.1" xmlns="http://www.w3.org/2000/svg" xmlns:xlink="http://www.w3.org/1999/xlink" xml:space="preserve" xmlns:serif="http://www.serif.com/" style="fill-rule:evenodd;clip-rule:evenodd;stroke-linecap:round;stroke-linejoin:round;stroke-miterlimit:1.5;"><path d="M88.341,81.969l-1.613,-3.021l-18.189,1.037l10.504,1.052l9.298,0.932Z" style="fill:#4eb84b;"/><g><path d="M23.353,81.285c0,-0 -7.053,-0.708 -8.565,-1.038c-1.512,-0.33 -2.65,-0.735 -2.77,-1.764c-0.121,-1.029 0.413,-2.657 0.383,-3.15c-0.03,-0.493 -0.46,-0.901 -0.383,-3.499c0.077,-2.598 1.056,-2.468 0.99,-5.545c-0,0 -0.143,-1.18 1.78,-1.82c0,-0 0.508,-3.762 18.979,-6.218c-0,-0 13.973,-9.717 22.2,-11.849c4.397,-1.139 28.882,-1.401 33.136,1.493c3.177,2.161 8.681,7.907 12.381,9.968c1.344,0.749 2.295,2.151 2.295,2.151l-1.167,-0l2.537,6.275c-0,0 2.345,1.367 2.363,3.661c0.019,2.294 0.874,4.878 0.276,6.429c-0.599,1.55 -2.04,2.851 -2.04,2.851c0,-0 -1.643,0.583 -3.673,0.511" style="fill:#4eb84b;"/><path d="M23.353,81.285c0,-0 -7.053,-0.708 -8.565,-1.038c-1.512,-0.33 -2.65,-0.735 -2.77,-1.764c-0.121,-1.029 0.413,-2.657 0.383,-3.15c-0.03,-0.493 -0.46,-0.901 -0.383,-3.499c0.077,-2.598 1.056,-2.468 0.99,-5.545c-0,0 -0.143,-1.18 1.78,-1.82c0,-0 0.508,-3.762 18.979,-6.218c-0,-0 13.973,-9.717 22.2,-11.849c4.397,-1.139 28.882,-1.401 33.136,1.493c3.177,2.161 8.681,7.907 12.381,9.968c1.344,0.749 2.295,2.151 2.295,2.151l-1.167,-0l2.537,6.275c-0,0 2.345,1.367 2.363,3.661c0.019,2.294 0.874,4.878 0.276,6.429c-0.599,1.55 -2.04,2.851 -2.04,2.851c0,-0 -1.643,0.583 -3.673,0.511" style="fill:none;"/><path d="M16.05,65.141c0,0 -0.325,2.441 0.513,2.741c0.837,0.301 3.901,-0.503 4.993,-3.392c-2.1,0.124 -4.05,0.301 -5.506,0.651l0,0Z" style="fill:#fff;"/><path d="M102.612,60.014c0,-0 -2.122,-0.517 -2.599,0.07c-0.389,0.478 1.868,4.494 3.749,5.908c0.424,0.318 1.067,0.285 1.387,0.297l-2.537,-6.275Z" style="fill:#fff;"/><circle cx="30.552" cy="77.383" r="7.545" style="fill:#fff;stroke:#000;stroke-width:2.03px;"/><circle cx="94.434" cy="77.448" r="7.545" style="fill:#fff;stroke:#000;stroke-width:2.03px;"/><path d="M40.377,58.649c-0,-0 2.667,-1.748 5.97,-3.627c3.801,-2.163 8.445,-4.522 10.836,-4.94c1.937,-0.339 6.965,-0.561 11.873,-0.549c5.162,0.013 10.194,0.274 11.438,0.44c2.475,0.331 7.51,1.421 9.996,6.57c0,-0 0.171,0.29 -2.104,0.376c-2.083,0.079 -40.627,1.465 -47.092,1.697c-0.133,0.005 -0.252,0.009 -0.357,0.013c-0.365,0.013 -0.56,0.02 -0.56,0.02Z" style="fill:#fff;stroke:#000;stroke-width:2.03px;"/><path d="M36.915,81.888c-0,0 4.621,0.115 5.929,-0.131c1.307,-0.246 8.106,-0.492 8.106,-0.492l28.457,0c0,0 2.25,0.437 5.232,0.492c2.981,0.055 3.189,-0 3.189,-0" style="fill:none;stroke:#000;stroke-width:2.03px;"/><path d="M23.353,81.285c0,-0 -7.053,-0.708 -8.565,-1.038c-1.512,-0.33 -2.65,-0.735 -2.77,-1.764c-0.121,-1.029 0.413,-2.657 0.383,-3.15c-0.03,-0.493 -0.46,-0.901 -0.383,-3.499c0.077,-2.598 1.056,-2.468 0.99,-5.545c-0,0 -0.143,-1.18 1.78,-1.82c0,-0 0.508,-3.762 18.979,-6.218c-0,-0 13.973,-9.717 22.2,-11.849c4.397,-1.139 28.882,-1.401 33.136,1.493c3.177,2.161 8.681,7.907 12.381,9.968c1.344,0.749 2.295,2.151 2.295,2.151l-1.167,-0l2.537,6.275c-0,0 2.345,1.367 2.363,3.661c0.019,2.294 0.874,4.878 0.276,6.429c-0.599,1.55 -2.04,2.851 -2.04,2.851c0,-0 -1.643,0.583 -3.673,0.511" style="fill:none;stroke:#000;stroke-width:2.03px;"/></g></svg>