<?xml version="1.0" encoding="UTF-8" standalone="no"?><!DOCTYPE svg PUBLIC "-//W3C//DTD SVG 1.1//EN" "http://www.w3.org/Graphics/SVG/1.1/DTD/svg11.dtd"><svg width="100%" height="100%" viewBox="0 0 120 120" version="1.1" xmlns="http://www.w3.org/2000/svg" xmlns:xlink="http://www.w3.org/1999/xlink" xml:space="preserve" xmlns:serif="http://www.serif.com/" style="fill-rule:evenodd;clip-rule:evenodd;stroke-linecap:round;stroke-linejoin:round;stroke-miterlimit:1.5;"><g><path d="M39.069,61.603c-0,-0 8.88,-6.796 15.36,-8.86c6.481,-2.063 19.015,-1.732 26.497,-1.203c7.481,0.53 16.662,2.103 16.662,2.103l-0.295,0.42l-0.834,0.347c0,-0 0.229,0.757 1.167,1.347c0.938,0.589 6.905,3.699 6.905,3.699l2.96,1.234l0.071,0.804c0,-0 -0.435,0.549 -0.431,0.949c-0,-0 0.52,0.409 0.55,0.563l-0.462,0.13c-0,-0 0.455,0.844 0.668,1.509c0.212,0.664 0.022,1.75 -0.269,2.786c-0.291,1.036 -0.7,2.031 -0.2,3.416c0.5,1.384 0.224,4.79 0.224,4.79c0,0 -1.974,1.747 -3.293,2.387c-1.319,0.639 -14.031,2.343 -21.86,2.44c-7.829,0.097 -40.131,-0.091 -45.068,-0.212c-4.938,-0.121 -14.634,0.111 -18.824,-0.097c-4.19,-0.208 -5.058,-0.567 -6.35,-1.52c-0,-0 0.524,-0.716 0.588,-0.878c0.064,-0.162 0.224,-2.474 0.224,-2.474c-0,0 -0.767,-0.689 -0.845,-1.564c-0.079,-0.875 -0.264,-5.627 0.337,-6.388c0.601,-0.762 3.441,-2.701 6.466,-3.731c3.025,-1.03 8.826,-2.036 13.524,-2.108c4.697,-0.072 6.528,0.111 6.528,0.111Z" style="fill:#4eb84b;"/><path d="M45.691,62.675l0.19,-1.279c0,-0 3.602,-2.758 8.057,-4.736c2.211,-0.982 4.287,-1.4 6.539,-1.69c2.285,-0.294 4.752,-0.452 7.934,-0.332c6.317,0.237 22.072,3.85 22.072,3.85c0,-0 -1,1.054 -4.642,1.636c-3.641,0.581 -11.14,1.361 -19.902,1.659c-8.761,0.298 -20.248,0.892 -20.248,0.892Z" style="fill:#fff;stroke:#000;stroke-width:2px;"/><path d="M13.271,68.087c0,-0 0.158,0.367 0.191,0.421c0.042,0.068 -0.168,0.245 -0.187,0.316c-0.011,0.041 -0.038,0.119 0.075,0.104c0.665,-0.087 3.138,-0.454 4.275,-0.586c0,0 1.988,-1.253 2.802,-1.622c0.815,-0.368 1.869,-0.822 2.171,-0.957c0.302,-0.136 0.208,-0.301 -0.207,-0.307c-0.454,-0.007 -2.868,0.086 -5.073,0.632c-2.205,0.547 -2.351,0.717 -2.956,0.95c-0.177,0.068 -0.516,0.274 -0.771,0.511c-0.106,0.099 -0.252,0.294 -0.269,0.346c-0.02,0.061 -0.038,0.123 -0.051,0.192Z" style="fill:#fff;"/><path d="M107.273,61.952c0,-0 -2.49,0.108 -2.815,0.526c-0.325,0.418 -0.114,0.666 0.154,1.008c0.271,0.347 1.082,1.354 1.142,1.425c0.059,0.071 0.123,0.051 0.21,0.048c0.087,-0.002 0.692,-0.082 0.692,-0.082c-0,-0 1.264,-0.158 1.136,-0.5c-0.14,-0.378 -0.292,-0.686 -0.369,-0.841c-0.107,-0.213 -0.204,-0.4 -0.204,-0.4l0.462,-0.13c-0,-0 -0.082,-0.138 -0.137,-0.195c-0.092,-0.094 -0.413,-0.368 -0.413,-0.368l0.142,-0.491Z" style="fill:#fff;"/><path d="M39.069,61.603c-0,-0 8.88,-6.796 15.36,-8.86c6.481,-2.063 19.015,-1.732 26.497,-1.203c7.481,0.53 16.662,2.103 16.662,2.103l-0.295,0.42l-0.834,0.347c0,-0 0.229,0.757 1.167,1.347c0.938,0.589 6.905,3.699 6.905,3.699l2.96,1.234l0.071,0.804c0,-0 -0.435,0.549 -0.431,0.949c-0,-0 0.52,0.409 0.55,0.563l-0.462,0.13c-0,-0 0.455,0.844 0.668,1.509c0.212,0.664 0.022,1.75 -0.269,2.786c-0.291,1.036 -0.7,2.031 -0.2,3.416c0.5,1.384 0.224,4.79 0.224,4.79c0,0 -1.974,1.747 -3.293,2.387c-1.319,0.639 -14.031,2.343 -21.86,2.44c-7.829,0.097 -40.131,-0.091 -45.068,-0.212c-4.938,-0.121 -14.634,0.111 -18.824,-0.097c-4.19,-0.208 -5.058,-0.567 -6.35,-1.52c-0,-0 0.524,-0.716 0.588,-0.878c0.064,-0.162 0.224,-2.474 0.224,-2.474c-0,0 -0.767,-0.689 -0.845,-1.564c-0.079,-0.875 -0.264,-5.627 0.337,-6.388c0.601,-0.762 3.441,-2.701 6.466,-3.731c3.025,-1.03 8.826,-2.036 13.524,-2.108c4.697,-0.072 6.528,0.111 6.528,0.111Z" style="fill:none;stroke:#000;stroke-width:2px;"/><circle cx="91.938" cy="76.262" r="7.794" style="fill:#fff;stroke:#000;stroke-width:2px;"/><circle cx="26.882" cy="76.262" r="7.794" style="fill:#fff;stroke:#000;stroke-width:2px;"/></g></svg>