<?xml version="1.0" encoding="UTF-8" standalone="no"?><!DOCTYPE svg PUBLIC "-//W3C//DTD SVG 1.1//EN" "http://www.w3.org/Graphics/SVG/1.1/DTD/svg11.dtd"><svg width="100%" height="100%" viewBox="0 0 120 120" version="1.1" xmlns="http://www.w3.org/2000/svg" xmlns:xlink="http://www.w3.org/1999/xlink" xml:space="preserve" xmlns:serif="http://www.serif.com/" style="fill-rule:evenodd;clip-rule:evenodd;stroke-linecap:round;stroke-linejoin:round;stroke-miterlimit:1.5;"><g><path d="M13.336,67.551c-0,-0 -0.213,-2.404 0.131,-4.085c0.344,-1.68 0.808,-2.316 2.46,-3.062c1.653,-0.746 7.022,-3.215 21.767,-3.759c-0,-0 13.186,-7.358 19.049,-8.429c5.863,-1.071 15.909,-0.838 24.45,-0.456c8.541,0.383 19.312,1.768 20.204,2.715c-0,-0 0.56,0.384 -1.053,0.494c-0,0 -0.412,0.613 -0.2,1.119c0.211,0.506 2.617,3.393 3.62,4.08c1.003,0.687 1.985,1.249 2.173,1.719c-0,-0 0.718,0.159 0.785,0.716c0.067,0.558 0.111,3.53 0.143,4.478c0.033,0.948 0.627,0.749 0.7,1.337c0.073,0.589 0.166,3.161 0.179,3.803c0.013,0.643 -0.071,1.341 -0.062,2.282c0.008,0.941 0.33,1.038 0.214,1.689c-0.116,0.65 -0.356,1.424 -0.356,1.424c-0,0 0.125,0.311 -0.015,0.669c-0.139,0.357 -1.116,1.984 -1.755,2.512c-0.639,0.527 -2.266,0.985 -3.609,1.211c-1.344,0.227 -15.497,0.639 -19.96,0.738c-4.463,0.1 -39.974,0.075 -43.776,0.348c-3.802,0.274 -18.23,0.293 -20.973,0.132c-2.744,-0.16 -5.362,-1.923 -5.435,-2.815c-0.072,-0.893 0.954,-1.208 0.954,-1.208l-0.556,-2.633c-0,0 -0.397,-0.017 -0.344,-0.891c0.053,-0.875 0.003,-2.438 -0.05,-2.864c0,-0 0.309,-0.462 0.627,-0.707c0.317,-0.245 0.688,-0.557 0.688,-0.557Z" style="fill:#4eb84b;"/><path d="M42.172,59.472c0,0 10.889,-6.835 15.646,-7.615c2.074,-0.34 7.734,-0.603 13.562,-0.555c7.536,0.062 15.368,0.517 16.235,0.676c1.539,0.281 8.377,3.981 7.464,4.482c-0.912,0.501 -6.533,0.226 -7.346,0.52c-0.813,0.294 -6.008,2.027 -9.803,2.148c-3.795,0.12 -35.758,0.344 -35.758,0.344Z" style="fill:#fff;stroke:#000;stroke-width:2px;"/><path d="M13.455,63.526c0,0 1.423,-0.09 1.461,-0.017c0.039,0.074 -0.213,1.559 -0.091,2.613c0,0 1.212,0.097 2.041,-0.019c0.829,-0.116 3.047,-1.912 3.609,-2.715c0.404,-0.576 0.688,-1.214 0.693,-1.525c0.002,-0.122 -0.092,-0.154 -0.159,-0.173c-0.235,-0.065 -5.481,-0.006 -5.481,-0.006c0,-0 -1.346,-0.072 -1.491,0.142c-0.123,0.18 -0.29,0.619 -0.351,0.78c-0.145,0.382 -0.231,0.92 -0.231,0.92Z" style="fill:#fff;"/><path d="M105.349,58.638c-0,-0 -2.837,-0.092 -3.051,0.22c-0.113,0.165 -0.107,0.604 -0.079,1.087c0.025,0.432 0.051,0.899 0.272,1.26c0.469,0.766 3.741,3.005 3.741,3.005c-0,-0 0.716,-0.45 0.649,-0.939c-0.067,-0.49 0.023,-3.061 -0.112,-3.825c-0.059,-0.339 -0.696,-0.763 -0.696,-0.763l-0.724,-0.045Z" style="fill:#fff;"/><path d="M13.336,67.551c-0,-0 -0.213,-2.404 0.131,-4.085c0.344,-1.68 0.808,-2.316 2.46,-3.062c1.653,-0.746 7.022,-3.215 21.767,-3.759c-0,-0 13.186,-7.358 19.049,-8.429c5.863,-1.071 15.909,-0.838 24.45,-0.456c8.541,0.383 19.312,1.768 20.204,2.715c-0,-0 0.56,0.384 -1.053,0.494c-0,0 -0.412,0.613 -0.2,1.119c0.211,0.506 2.617,3.393 3.62,4.08c1.003,0.687 1.985,1.249 2.173,1.719c-0,-0 0.718,0.159 0.785,0.716c0.067,0.558 0.111,3.53 0.143,4.478c0.033,0.948 0.627,0.749 0.7,1.337c0.073,0.589 0.166,3.161 0.179,3.803c0.013,0.643 -0.071,1.341 -0.062,2.282c0.008,0.941 0.33,1.038 0.214,1.689c-0.116,0.65 -0.356,1.424 -0.356,1.424c-0,0 0.125,0.311 -0.015,0.669c-0.139,0.357 -1.116,1.984 -1.755,2.512c-0.639,0.527 -2.266,0.985 -3.609,1.211c-1.344,0.227 -15.497,0.639 -19.96,0.738c-4.463,0.1 -39.974,0.075 -43.776,0.348c-3.802,0.274 -18.23,0.293 -20.973,0.132c-2.744,-0.16 -5.362,-1.923 -5.435,-2.815c-0.072,-0.893 0.954,-1.208 0.954,-1.208l-0.556,-2.633c-0,0 -0.397,-0.017 -0.344,-0.891c0.053,-0.875 0.003,-2.438 -0.05,-2.864c0,-0 0.309,-0.462 0.627,-0.707c0.317,-0.245 0.688,-0.557 0.688,-0.557Z" style="fill:none;stroke:#000;stroke-width:2px;"/><circle cx="28.242" cy="75.482" r="8.498" style="fill:#fff;stroke:#000;stroke-width:2px;"/><circle cx="92.697" cy="75.482" r="8.498" style="fill:#fff;stroke:#000;stroke-width:2px;"/></g></svg>