<?xml version="1.0" encoding="UTF-8" standalone="no"?><!DOCTYPE svg PUBLIC "-//W3C//DTD SVG 1.1//EN" "http://www.w3.org/Graphics/SVG/1.1/DTD/svg11.dtd"><svg width="100%" height="100%" viewBox="0 0 120 120" version="1.1" xmlns="http://www.w3.org/2000/svg" xmlns:xlink="http://www.w3.org/1999/xlink" xml:space="preserve" xmlns:serif="http://www.serif.com/" style="fill-rule:evenodd;clip-rule:evenodd;stroke-linecap:round;stroke-linejoin:round;stroke-miterlimit:1.5;"><g><path d="M12.259,77.673c0,-0 0.142,-2.626 -0.152,-3.748c-0.294,-1.121 0.24,-2.177 0.564,-2.708l0.027,-5.679c0,-0 1.61,-1.986 2.52,-3.526c0.91,-1.539 3.366,-2.821 7.018,-3.459c3.651,-0.637 11.399,-1.553 14.011,-1.363c0,0 10.356,-9.421 13.911,-10.85c3.555,-1.429 20.539,-2.25 46.52,-0.643c0,-0 1.282,0.005 0.178,1.786c-0,-0 5.014,4.608 9.317,8.663c-0,-0 0.689,5.607 0.145,6.566c-0,0 1.437,2.271 1.491,4.726c0.055,2.455 0.983,8.448 -2.131,9.871c-3.115,1.424 -20.343,2.63 -20.343,2.63c0,-0 -41.699,0.461 -47.356,0.387c-5.656,-0.075 -19.331,-0.235 -19.331,-0.235c0,0 -1.837,0.228 -3.841,-0.808c-2.003,-1.036 -2.548,-1.61 -2.548,-1.61Z" style="fill:#4eb84b;"/><path d="M13.617,64.353c-0,-0 3.232,-0.289 5.59,-1.148c2.358,-0.86 2.481,-1.677 2.481,-1.677l-5.195,0.413c-0,-0 -1.212,-0.002 -1.626,0.636c-0.497,0.767 -1.25,1.776 -1.25,1.776Z" style="fill:#fff;"/><path d="M13.648,67.027c0.058,-0.249 0.105,-0.616 0.452,-0.618c0.346,-0.002 0.803,-0.045 0.747,2.572c-0.056,2.617 -0.376,2.554 -0.764,2.56c-0.388,0.007 -0.409,-0.233 -0.455,-0.438c-0.096,-0.431 -0.129,-1.465 -0.126,-2.144c0.004,-0.652 0.046,-1.507 0.146,-1.932Z" style="fill:#fff;"/><path d="M106.503,60.025c-0.003,0.138 -1.064,-0.177 -2.16,-0.992c-1.532,-1.139 -3.247,-2.927 -3.247,-2.927c0,-0 2.771,-0.046 3.617,-0.04c0.487,0.004 1.46,0.08 1.46,0.08c-0,-0 0.345,3.201 0.33,3.879Z" style="fill:#fff;"/><path d="M40.38,58.648c0,-0 8.742,-7.87 11.214,-8.791c2.473,-0.921 12.031,-1.128 12.031,-1.128c-0,0 -0.299,7.281 -2.632,8.676c-2.334,1.395 -20.613,1.243 -20.613,1.243Z" style="fill:#fff;stroke:#000;stroke-width:2px;"/><path d="M68.258,48.699c-0,-0 -0.717,8.24 -0,8.742c0.716,0.502 22.406,0.268 22.406,0.268c-0,-0 0.329,-2.328 0.01,-3.01c-0.319,-0.683 -3.589,-5.348 -4.613,-5.67c-1.025,-0.323 -17.803,-0.33 -17.803,-0.33Z" style="fill:#fff;stroke:#000;stroke-width:2px;"/><path d="M12.259,77.673c0,-0 0.142,-2.626 -0.152,-3.748c-0.294,-1.121 0.24,-2.177 0.564,-2.708l0.027,-5.679c0,-0 1.61,-1.986 2.52,-3.526c0.91,-1.539 3.366,-2.821 7.018,-3.459c3.651,-0.637 11.399,-1.553 14.011,-1.363c0,0 10.356,-9.421 13.911,-10.85c3.555,-1.429 20.539,-2.25 46.52,-0.643c0,-0 1.282,0.005 0.178,1.786c-0,-0 5.014,4.608 9.317,8.663c-0,-0 0.689,5.607 0.145,6.566c-0,0 1.437,2.271 1.491,4.726c0.055,2.455 0.983,8.448 -2.131,9.871c-3.115,1.424 -20.343,2.63 -20.343,2.63c0,-0 -41.699,0.461 -47.356,0.387c-5.656,-0.075 -19.331,-0.235 -19.331,-0.235c0,0 -1.837,0.228 -3.841,-0.808c-2.003,-1.036 -2.548,-1.61 -2.548,-1.61Z" style="fill:none;stroke:#000;stroke-width:2px;"/><circle cx="29.089" cy="75.478" r="8.47" style="fill:#fff;stroke:#000;stroke-width:2px;"/><circle cx="95.184" cy="75.476" r="8.472" style="fill:#fff;stroke:#000;stroke-width:2px;"/></g></svg>