<?xml version="1.0" encoding="UTF-8" standalone="no"?><!DOCTYPE svg PUBLIC "-//W3C//DTD SVG 1.1//EN" "http://www.w3.org/Graphics/SVG/1.1/DTD/svg11.dtd"><svg width="100%" height="100%" viewBox="0 0 120 120" version="1.1" xmlns="http://www.w3.org/2000/svg" xmlns:xlink="http://www.w3.org/1999/xlink" xml:space="preserve" xmlns:serif="http://www.serif.com/" style="fill-rule:evenodd;clip-rule:evenodd;stroke-linecap:round;stroke-linejoin:round;stroke-miterlimit:1.5;"><g><path d="M12,72.096c0,-0 3.422,-3.636 6.885,-5.106c3.463,-1.469 8.954,-3.557 16.745,-4.11c-0,-0 8.319,-5.899 16.388,-7.892c8.07,-1.994 18.899,-1.956 27.231,-0c8.332,1.955 16.638,5.54 16.638,5.54l6.155,0.608c-0,-0 1.682,0.286 0.363,1.017c-1.32,0.732 -1.546,0.727 -1.546,0.727l3.332,1.396c0,0 2.238,0.542 2.275,0.751c0.038,0.209 -0.399,1.44 -0.399,1.44l-0.815,0.523l1.214,1.773c0,0 1.478,1.198 1.529,1.967c0.051,0.769 -0.274,5.568 -0.957,7.001c-0.683,1.433 -10.043,2.737 -10.043,2.737l-17.313,0.599l-44.052,0.523l-16.745,-0c0,-0 -5.47,-0.469 -6.885,-1.819l0,-1.017l0.831,-1.51l-0.831,-5.148Z" style="fill:#4eb848;"/><path d="M40.532,64.368c0,0 5.511,-4.356 15.387,-6.193c2.695,-0.502 5.689,-0.756 9.016,-0.755c3.95,0.001 7.804,0.318 11.278,1.022c10.18,2.065 17.495,6.274 17.495,6.274c-0,-0 -18.761,-1.166 -26.509,-1.025c-7.749,0.141 -26.667,0.677 -26.667,0.677Z" style="fill:#fff;stroke:#000;stroke-width:2px;"/><path d="M16.68,68.188l4.599,-0.025l-0.039,0.237l-4.951,2.744c-0,-0 -0.431,0.257 -0.648,0.262c-0.216,0.005 -2.921,-0.028 -2.921,-0.028c1.405,-1.26 2.255,-2.131 3.96,-3.19Z" style="fill:#fff;"/><path d="M105.252,66.99l-2.412,0.265l-3.12,1.745l3.981,0.039l2.765,-0.276l-1.214,-1.773Z" style="fill:#fff;"/><path d="M12,72.096c0,-0 3.422,-3.636 6.885,-5.106c3.463,-1.469 8.954,-3.557 16.745,-4.11c-0,-0 8.319,-5.899 16.388,-7.892c8.07,-1.994 18.899,-1.956 27.231,-0c8.332,1.955 16.638,5.54 16.638,5.54l6.155,0.608c-0,-0 1.682,0.286 0.363,1.017c-1.32,0.732 -1.546,0.727 -1.546,0.727l3.332,1.396c0,0 2.238,0.542 2.275,0.751c0.038,0.209 -0.399,1.44 -0.399,1.44l-0.815,0.523l1.214,1.773c0,0 1.478,1.198 1.529,1.967c0.051,0.769 -0.274,5.568 -0.957,7.001c-0.683,1.433 -10.043,2.737 -10.043,2.737l-17.313,0.599l-44.052,0.523l-16.745,-0c0,-0 -5.47,-0.469 -6.885,-1.819l0,-1.017l0.831,-1.51l-0.831,-5.148Z" style="fill:none;stroke:#000;stroke-width:2px;"/><circle cx="88.704" cy="76.944" r="7.159" style="fill:#fff;stroke:#000;stroke-width:2px;"/><circle cx="27.443" cy="76.948" r="7.163" style="fill:#fff;stroke:#000;stroke-width:2px;"/></g></svg>