<?xml version="1.0" encoding="UTF-8" standalone="no"?><!DOCTYPE svg PUBLIC "-//W3C//DTD SVG 1.1//EN" "http://www.w3.org/Graphics/SVG/1.1/DTD/svg11.dtd"><svg width="100%" height="100%" viewBox="0 0 120 120" version="1.1" xmlns="http://www.w3.org/2000/svg" xmlns:xlink="http://www.w3.org/1999/xlink" xml:space="preserve" xmlns:serif="http://www.serif.com/" style="fill-rule:evenodd;clip-rule:evenodd;stroke-linecap:round;stroke-linejoin:round;stroke-miterlimit:1.5;"><g><path d="M13.577,67.289l-0.184,-1.882c0,0 1.366,-1.318 4.501,-2.32c3.135,-1.002 9.032,-2.685 19.731,-2.7c-0,-0 11.899,-7.339 16.284,-8.694c4.384,-1.356 19.57,-2.894 46.226,0.849l0.009,0.403c-0,0 -1.295,0.642 -2.138,1.43c-0,-0 3.414,2.138 6.668,4.69c0,0 1.168,0.592 1.378,0.995c0.21,0.402 0.195,1.052 0.258,1.174c0.064,0.123 0.256,0.793 0.268,0.994l-0.215,0.167c-0,0 -0.225,2.598 -0.135,4.009c0.089,1.411 1.042,2.035 1.619,2.496c0,-0 0.067,2.603 0.242,4.968c-0,-0 -0.55,2.357 -1.428,2.987c-0.877,0.629 -4.526,1.054 -5.457,1.12c-0.932,0.065 -7.491,2.078 -18.032,1.716c-10.541,-0.363 -36.055,0.117 -44.124,0.097c-8.069,-0.02 -13.222,0.831 -18.927,0.434c-5.704,-0.397 -5.598,-0.891 -5.598,-0.891c0,0 -2.575,-0.394 -2.464,-1.272c0.111,-0.879 0.579,-1.222 0.579,-1.222c0,-0 -0.481,-3.318 -0.45,-5.09c0.032,-1.772 1.389,-4.458 1.389,-4.458Z" style="fill:#4eb84b;"/><path d="M15.305,66.621c0.357,-0.092 1.081,-0.201 2.277,-0.372c1.196,-0.172 2.807,-0.31 3.221,-0.338c0.413,-0.028 0.736,0.176 0.438,0.518c-0.298,0.341 -1.367,1.953 -2.035,3.231c-0.669,1.277 -0.875,1.82 -0.875,1.82c0,0 -1.89,-0.07 -2.286,-0.099c-0.396,-0.028 -0.404,-0.131 -0.485,-0.371c-0.08,-0.239 -0.543,-1.771 -0.543,-1.771c-0,0 -0.641,-0.014 -0.79,0c-0.15,0.015 -0.219,-0.1 -0.232,-0.263c-0.013,-0.163 0.661,-1.704 0.769,-1.939c0.108,-0.235 0.184,-0.324 0.541,-0.416Z" style="fill:#fff;"/><path d="M89.048,53.139c-0,0 3.944,0.49 4.918,0.661c0.974,0.171 1.832,0.358 2.816,1.029c0.985,0.671 4.287,3.17 4.992,3.705c0.706,0.535 0.762,1.27 0.606,1.841c-0.155,0.571 -1.247,4.46 -1.247,4.46c0,-0 -1.205,-1.025 -1.238,-1.664c-0.032,-0.64 0.501,-3.316 0.196,-3.827c-0.305,-0.511 -3.473,-3.696 -5.511,-4.305c-2.037,-0.609 -3.956,-0.738 -4.577,-1.12c-0.621,-0.382 -0.955,-0.78 -0.955,-0.78Z" style="fill:#fff;"/><path d="M13.577,67.289l-0.184,-1.882c0,0 1.366,-1.318 4.501,-2.32c3.135,-1.002 9.032,-2.685 19.731,-2.7c-0,-0 11.899,-7.339 16.284,-8.694c4.384,-1.356 19.57,-2.894 46.226,0.849l0.009,0.403c-0,0 -1.295,0.642 -2.138,1.43c-0,-0 3.414,2.138 6.668,4.69c0,0 1.168,0.592 1.378,0.995c0.21,0.402 0.195,1.052 0.258,1.174c0.064,0.123 0.256,0.793 0.268,0.994l-0.215,0.167c-0,0 -0.225,2.598 -0.135,4.009c0.089,1.411 1.042,2.035 1.619,2.496c0,-0 0.067,2.603 0.242,4.968c-0,-0 -0.55,2.357 -1.428,2.987c-0.877,0.629 -4.526,1.054 -5.457,1.12c-0.932,0.065 -7.491,2.078 -18.032,1.716c-10.541,-0.363 -36.055,0.117 -44.124,0.097c-8.069,-0.02 -13.222,0.831 -18.927,0.434c-5.704,-0.397 -5.598,-0.891 -5.598,-0.891c0,0 -2.575,-0.394 -2.464,-1.272c0.111,-0.879 0.579,-1.222 0.579,-1.222c0,-0 -0.481,-3.318 -0.45,-5.09c0.032,-1.772 1.389,-4.458 1.389,-4.458Z" style="fill:none;stroke:#000;stroke-width:2px;"/><path d="M42.993,62.129c0,-0 7.405,-5.833 13.994,-7.301c6.59,-1.467 25.493,-0.553 25.493,-0.553c-0,0 5.781,4.473 5.792,5.635c0.01,1.162 -0.128,1.286 -0.128,1.286l-45.151,0.933Z" style="fill:#fff;stroke:#000;stroke-width:2px;"/><circle cx="29.943" cy="76.812" r="7.246" style="fill:#fff;stroke:#000;stroke-width:2px;"/><circle cx="92.501" cy="76.812" r="7.246" style="fill:#fff;stroke:#000;stroke-width:2px;"/></g></svg>