<?xml version="1.0" encoding="UTF-8" standalone="no"?><!DOCTYPE svg PUBLIC "-//W3C//DTD SVG 1.1//EN" "http://www.w3.org/Graphics/SVG/1.1/DTD/svg11.dtd"><svg width="100%" height="100%" viewBox="0 0 120 120" version="1.1" xmlns="http://www.w3.org/2000/svg" xmlns:xlink="http://www.w3.org/1999/xlink" xml:space="preserve" xmlns:serif="http://www.serif.com/" style="fill-rule:evenodd;clip-rule:evenodd;stroke-linecap:round;stroke-linejoin:round;stroke-miterlimit:1.5;"><g><path d="M13.693,63.999c0,-0 1.517,-1.493 3.718,-2.45c2.201,-0.958 12.945,-2.185 19.197,-2.11c-0,-0 11.339,-8.081 13.459,-8.899c2.121,-0.817 5.424,-1.932 25.175,-1.58c19.751,0.351 19.994,0.744 23.486,1.286c3.492,0.542 4.355,1.127 4.355,1.127l-0.556,1.096l-0.547,0.132c-0,0 -1.125,0.651 -0.833,1.089c0.291,0.439 4.636,5.543 4.498,6.497c-0,-0 0.504,0.753 0.573,1.177c0.069,0.425 -0.138,2.962 -0.122,4.136c0.016,1.175 0.861,1.817 0.881,2.394c0.02,0.578 0.001,1.154 0.001,1.154l0.595,0.644l0.111,2.238l0.3,0.199c0,-0 -0.302,2.961 -2.606,4.006c-2.305,1.046 -4.091,1.49 -5.726,1.618c-1.635,0.129 -19.959,0.518 -19.959,0.518c-0,0 -25.795,0.465 -33.093,0.404c-7.298,-0.062 -28.288,0.739 -31.312,0.365c-3.025,-0.374 -3.379,-1.124 -3.241,-2.728c0.139,-1.605 0.368,-1.465 0.368,-1.465l-0.353,-3.881c-0,-0 0.123,-0.428 0.478,-1.103c0.354,-0.674 0.691,-1.007 0.816,-1.567c0.126,-0.56 0.337,-4.297 0.337,-4.297Z" style="fill:#4eb84b;"/><path d="M13.297,70.466c0,0 0.596,-0.185 0.782,-0.257c0.187,-0.072 0.459,-0.154 0.668,-0.53c0.128,-0.23 1.358,-2.457 2.334,-4.128c0.625,-1.069 1.171,-1.886 1.171,-1.886c0,-0 0.821,-0.281 1.736,-0.504c0.914,-0.223 1.409,-0.309 1.719,-0.453c0.31,-0.144 1.333,-1.046 1.333,-1.046c0,0 -2.572,0.141 -4.303,0.474c-0,-0 -1.374,0.357 -2.879,1.419c-0.187,0.131 -2.165,0.444 -2.165,0.444l-0.044,0.748c-0,0 1.587,-0.092 1.58,0.101c-0.011,0.344 -0.783,2.155 -0.783,2.155c-0,0 -0.703,1.925 -0.771,2.119c-0.114,0.333 -0.378,1.344 -0.378,1.344Z" style="fill:#fff;"/><path d="M100.781,54.75c0,0 0.079,0.468 0.225,0.71c0.146,0.243 2.216,2.756 2.206,3.566c-0.01,0.811 -0.133,1.448 -0.116,2.717c0.016,1.269 0.142,3.532 0.142,3.532l2.089,1.207c0,0 1.182,0.385 0.959,-0.065c-0.091,-0.183 -0.189,-0.779 -0.19,-1.132c-0.002,-0.334 0.038,-1.205 0.056,-1.621c0.045,-1.042 0.106,-1.906 0.079,-2.136c-0.011,-0.087 -0.013,-0.341 -0.167,-0.605c-0.04,-0.068 -0.075,-0.155 -0.116,-0.23c-0.048,-0.088 -0.1,-0.165 -0.136,-0.238c-0.079,-0.163 -0.167,-0.268 -0.167,-0.268c-0,-0 -0.008,-0.184 -0.069,-0.362c-0.099,-0.286 -0.249,-0.539 -0.354,-0.699c-0.21,-0.323 -0.976,-1.491 -1.724,-2.458c-0.318,-0.41 -1.376,-1.832 -1.802,-2.28c-0.613,-0.642 -0.915,0.362 -0.915,0.362Z" style="fill:#fff;"/><path d="M41.474,60.669c0,0 2.181,-1.617 4.681,-3.208c5.24,-3.333 4.493,-4.093 13.73,-4.597c7.562,-0.414 31.558,0.022 32.683,0.585c1.432,0.716 2.063,1.063 1.192,1.963c-0.87,0.901 -2.191,2.067 -4.87,2.775c-2.679,0.707 -47.416,2.482 -47.416,2.482Z" style="fill:#fff;stroke:#000;stroke-width:2px;"/><path d="M13.693,63.999c0,-0 1.517,-1.493 3.718,-2.45c2.201,-0.958 12.945,-2.185 19.197,-2.11c-0,-0 11.339,-8.081 13.459,-8.899c2.121,-0.817 5.424,-1.932 25.175,-1.58c19.751,0.351 19.994,0.744 23.486,1.286c3.492,0.542 4.355,1.127 4.355,1.127l-0.556,1.096l-0.547,0.132c-0,0 -1.125,0.651 -0.833,1.089c0.291,0.439 4.636,5.543 4.498,6.497c-0,-0 0.504,0.753 0.573,1.177c0.069,0.425 -0.138,2.962 -0.122,4.136c0.016,1.175 0.861,1.817 0.881,2.394c0.02,0.578 0.001,1.154 0.001,1.154l0.595,0.644l0.111,2.238l0.3,0.199c0,-0 -0.302,2.961 -2.606,4.006c-2.305,1.046 -4.091,1.49 -5.726,1.618c-1.635,0.129 -19.959,0.518 -19.959,0.518c-0,0 -25.795,0.465 -33.093,0.404c-7.298,-0.062 -28.288,0.739 -31.312,0.365c-3.025,-0.374 -3.379,-1.124 -3.241,-2.728c0.139,-1.605 0.368,-1.465 0.368,-1.465l-0.353,-3.881c-0,-0 0.123,-0.428 0.478,-1.103c0.354,-0.674 0.691,-1.007 0.816,-1.567c0.126,-0.56 0.337,-4.297 0.337,-4.297Z" style="fill:none;stroke:#000;stroke-width:2px;"/><circle cx="26.592" cy="75.524" r="8.417" style="fill:#fff;stroke:#000;stroke-width:2px;"/><circle cx="90.616" cy="75.524" r="8.417" style="fill:#fff;stroke:#000;stroke-width:2px;"/></g></svg>