<?xml version="1.0" encoding="UTF-8" standalone="no"?><!DOCTYPE svg PUBLIC "-//W3C//DTD SVG 1.1//EN" "http://www.w3.org/Graphics/SVG/1.1/DTD/svg11.dtd"><svg width="100%" height="100%" viewBox="0 0 120 120" version="1.1" xmlns="http://www.w3.org/2000/svg" xmlns:xlink="http://www.w3.org/1999/xlink" xml:space="preserve" xmlns:serif="http://www.serif.com/" style="fill-rule:evenodd;clip-rule:evenodd;stroke-linecap:round;stroke-linejoin:round;stroke-miterlimit:1.5;"><g><path d="M13.454,74.609l-0.954,-1.335c0,-0 -0.027,-2.255 0.026,-2.484c0.054,-0.23 1.025,-1.056 1.025,-1.056l0.068,-1.675c0,-0 3.112,-3.148 10.112,-5.078c7,-1.929 11.954,-1.603 11.954,-1.603c-0,0 13.469,-7.159 21.123,-8.519c7.653,-1.36 19.1,-0.799 26.224,0.054c7.124,0.853 12.864,2.192 12.864,2.192l-1.619,0.457l9.367,4.441c-0,-0 2.437,0.887 3.567,0.763c0,0 1.045,0.088 0.339,1.141c-0.707,1.053 -0.478,1.95 -0.524,2.416c-0.045,0.466 0.679,2.421 0.685,2.915c0.006,0.494 0.184,0.948 0.155,1.372c-0.03,0.424 -0.133,2.642 -0.133,2.642c0,0 0.462,-0.218 0.304,1.555c-0.157,1.773 -0.587,2.595 -0.587,2.595l0.326,0.609c-0,-0 -2.378,2.252 -2.801,2.46c-0.422,0.208 -4.962,1.031 -4.962,1.031c-0,-0 -19.417,0.927 -23.888,0.741c-4.472,-0.185 -35.767,0.057 -38.655,0.272c-2.888,0.216 -18.989,0.266 -21.932,-0.267c-2.944,-0.534 -3.524,-1.662 -3.524,-1.662l-0.016,-0.592l1.456,-3.385Z" style="fill:#4eb84b;"/><path d="M41.157,62.918c-0,0 9.979,-5.081 15.553,-6.15c5.575,-1.07 12.224,-0.931 17.43,-0.727c5.203,0.203 13.82,1.404 13.82,1.404l1.514,1.023c0,-0 -0.579,1.808 -3.982,3.014c-3.403,1.205 -26.548,1.54 -31.215,1.71c-4.667,0.171 -13.12,-0.274 -13.12,-0.274Z" style="fill:#fff;stroke:#000;stroke-width:2px;"/><path d="M14.06,70.556c-0,0 1.258,0.21 1.645,0.123c0.387,-0.086 0.5,-0.061 0.771,-0.328c0.272,-0.268 2.283,-2.248 3.273,-2.991l2.741,-0.412c-0,-0 0.49,-0.244 1.062,-0.5c0.344,-0.154 0.716,-0.333 1.034,-0.407c0,-0 0.437,-0.2 -0.428,-0.124c-0.866,0.076 -3.569,0.465 -5.525,0.864c-1.955,0.398 -2.536,0.563 -2.536,0.563c0,-0 -1.439,0.349 -1.814,0.459c-0.097,0.028 -0.664,0.256 -0.664,0.256l-0.068,1.675l-0.497,0.446l1.006,0.376Z" style="fill:#fff;"/><path d="M102.445,65.954c-0,-0 2.914,-2.204 3.637,-2.728c0.22,-0.16 0.369,-0.229 0.702,-0.419c0.197,-0.113 0.451,-0.307 0.451,-0.307l0.3,-0.571l-0.983,-0.22l-0.341,-0.043c0,0 -0.893,0.655 -1.305,0.915c-0.962,0.609 -4.465,2.722 -4.465,2.722l0.653,0.678c-0,0 0.254,-0.131 0.67,-0.147c0.44,-0.017 0.681,0.12 0.681,0.12Z" style="fill:#fff;"/><path d="M13.454,74.609l-0.954,-1.335c0,-0 -0.027,-2.255 0.026,-2.484c0.054,-0.23 1.025,-1.056 1.025,-1.056l0.068,-1.675c0,-0 3.112,-3.148 10.112,-5.078c7,-1.929 11.954,-1.603 11.954,-1.603c-0,0 13.469,-7.159 21.123,-8.519c7.653,-1.36 19.1,-0.799 26.224,0.054c7.124,0.853 12.864,2.192 12.864,2.192l-1.619,0.457l9.367,4.441c-0,-0 2.437,0.887 3.567,0.763c0,0 1.045,0.088 0.339,1.141c-0.707,1.053 -0.478,1.95 -0.524,2.416c-0.045,0.466 0.679,2.421 0.685,2.915c0.006,0.494 0.184,0.948 0.155,1.372c-0.03,0.424 -0.133,2.642 -0.133,2.642c0,0 0.462,-0.218 0.304,1.555c-0.157,1.773 -0.587,2.595 -0.587,2.595l0.326,0.609c-0,-0 -2.378,2.252 -2.801,2.46c-0.422,0.208 -4.962,1.031 -4.962,1.031c-0,-0 -19.417,0.927 -23.888,0.741c-4.472,-0.185 -35.767,0.057 -38.655,0.272c-2.888,0.216 -18.989,0.266 -21.932,-0.267c-2.944,-0.534 -3.524,-1.662 -3.524,-1.662l-0.016,-0.592l1.456,-3.385Z" style="fill:none;stroke:#000;stroke-width:2px;"/><circle cx="27.821" cy="76.631" r="7.737" style="fill:#fff;stroke:#000;stroke-width:2px;"/><circle cx="91.382" cy="76.631" r="7.737" style="fill:#fff;stroke:#000;stroke-width:2px;"/></g></svg>