<?xml version="1.0" encoding="UTF-8" standalone="no"?><!DOCTYPE svg PUBLIC "-//W3C//DTD SVG 1.1//EN" "http://www.w3.org/Graphics/SVG/1.1/DTD/svg11.dtd"><svg width="100%" height="100%" viewBox="0 0 120 120" version="1.1" xmlns="http://www.w3.org/2000/svg" xmlns:xlink="http://www.w3.org/1999/xlink" xml:space="preserve" xmlns:serif="http://www.serif.com/" style="fill-rule:evenodd;clip-rule:evenodd;stroke-linecap:round;stroke-linejoin:round;stroke-miterlimit:1.5;"><g><path d="M38.78,56.889c-0,0 15.088,-8.197 18.231,-8.954c3.143,-0.757 12.379,-1.125 20.38,-0.673c8,0.452 12.432,0.45 22.51,2.751c-0,0 -0.905,1.223 -1.212,1.821c0,0 3,2.307 5.026,4.448c0,-0 0.908,0.291 1.092,1.441c0.185,1.15 0.383,1.859 -0.019,2.039c-0,0 -0.274,2.038 -0.239,3.18c0.036,1.142 0.766,1.855 0.711,2.811c-0,0 0.151,0.248 0.525,0.459c0.374,0.211 0.928,0.483 0.915,0.925c-0.013,0.443 0.196,4.508 -0.256,4.925c0,0 0.753,0.396 0.521,0.776c-0.233,0.379 -0.812,0.819 -6.098,1.835c-5.285,1.016 -14.786,1.92 -27.761,1.656c-12.975,-0.265 -25.876,0.135 -32.573,-0.04c-6.697,-0.174 -12.25,0.363 -18.945,-0.34c-6.695,-0.703 -6.527,-0.77 -6.742,-1c-0.214,-0.231 -0.406,-0.371 -0.41,-0.611c-0.005,-0.24 0.558,-0.788 0.618,-1.124c0.059,-0.337 -0.275,-5.09 -0.083,-5.938c0.192,-0.849 0.558,-1.104 0.558,-1.104c0,0 0.066,-1.489 0.501,-2.447c0.435,-0.958 2.533,-3.243 8.681,-4.733c6.147,-1.49 14.069,-2.103 14.069,-2.103Z" style="fill:#4eb84b;"/><path d="M17.603,63.189c0,0 0.062,0.432 0.396,0.631c0.333,0.2 1.836,0.119 2.811,-0.119c0.462,-0.112 2.051,-1.222 3.757,-2.259c1.901,-1.156 3.827,-2.279 3.827,-2.279c0,0 0.189,-0.58 -2.15,0.071c-0.59,0.164 -3.818,1.076 -4.389,1.288c-0.38,0.141 -1.998,0.727 -2.354,0.866c-2.256,0.883 -1.898,1.801 -1.898,1.801Z" style="fill:#fff;"/><path d="M102.283,56.141c0,0 -0.563,0.498 -0.665,1.315c-0.102,0.816 0.014,2.733 0.014,2.733l2.177,-0.005l0.938,-0.103l0.041,-0.319c-0,0 0.099,-0.053 0.16,-0.144c0.045,-0.067 0.055,-0.171 0.064,-0.204c0.049,-0.173 -0.107,-1.515 -0.265,-1.962c-0.134,-0.381 -0.203,-0.561 -0.504,-0.835c-0.057,-0.052 -0.156,-0.138 -0.259,-0.201c-0.134,-0.081 -0.269,-0.134 -0.269,-0.134c0,-0 -0.391,-0.399 -0.495,-0.509c-0.197,-0.206 -0.937,0.368 -0.937,0.368Z" style="fill:#fff;"/><path d="M42.138,59.23c0,0 3.034,-1.723 6.607,-3.455c8.392,-4.068 8.913,-4.56 13.924,-4.828c7.163,-0.382 22.457,-0.27 26.337,1.358c3.88,1.629 6.282,4.612 6.282,4.612l-53.15,2.313Z" style="fill:#fff;stroke:#000;stroke-width:2px;"/><path d="M16.607,69.08c-0,-0 0.408,-0.932 0.49,-1.115c0.1,-0.223 0.268,-0.344 0.441,-0.362c0.289,-0.028 0.527,0.006 0.527,0.006l-0.545,1.472l-0.913,-0.001Z" style="fill:#fff;"/><path d="M16.8,70.061c-0,-0 0.571,1.851 0.744,2.18c0.108,0.204 0.358,0.373 0.68,0.364c0.182,-0.005 0.523,-0.098 0.523,-0.098l-1.035,-2.464" style="fill:#fff;"/><path d="M38.78,56.889c-0,0 15.088,-8.197 18.231,-8.954c3.143,-0.757 12.379,-1.125 20.38,-0.673c8,0.452 12.432,0.45 22.51,2.751c-0,0 -0.905,1.223 -1.212,1.821c0,0 3,2.307 5.026,4.448c0,-0 0.908,0.291 1.092,1.441c0.185,1.15 0.383,1.859 -0.019,2.039c-0,0 -0.274,2.038 -0.239,3.18c0.036,1.142 0.766,1.855 0.711,2.811c-0,0 0.151,0.248 0.525,0.459c0.374,0.211 0.928,0.483 0.915,0.925c-0.013,0.443 0.196,4.508 -0.256,4.925c0,0 0.753,0.396 0.521,0.776c-0.233,0.379 -0.812,0.819 -6.098,1.835c-5.285,1.016 -14.786,1.92 -27.761,1.656c-12.975,-0.265 -25.876,0.135 -32.573,-0.04c-6.697,-0.174 -12.25,0.363 -18.945,-0.34c-6.695,-0.703 -6.527,-0.77 -6.742,-1c-0.214,-0.231 -0.406,-0.371 -0.41,-0.611c-0.005,-0.24 0.558,-0.788 0.618,-1.124c0.059,-0.337 -0.275,-5.09 -0.083,-5.938c0.192,-0.849 0.558,-1.104 0.558,-1.104c0,0 0.066,-1.489 0.501,-2.447c0.435,-0.958 2.533,-3.243 8.681,-4.733c6.147,-1.49 14.069,-2.103 14.069,-2.103Z" style="fill:none;stroke:#000;stroke-width:2px;"/><circle cx="31.362" cy="73.055" r="7.424" style="fill:#fff;stroke:#000;stroke-width:2px;"/><circle cx="91.967" cy="73.055" r="7.424" style="fill:#fff;stroke:#000;stroke-width:2px;"/></g></svg>