<?xml version="1.0" encoding="UTF-8" standalone="no"?><!DOCTYPE svg PUBLIC "-//W3C//DTD SVG 1.1//EN" "http://www.w3.org/Graphics/SVG/1.1/DTD/svg11.dtd"><svg width="100%" height="100%" viewBox="0 0 120 120" version="1.1" xmlns="http://www.w3.org/2000/svg" xmlns:xlink="http://www.w3.org/1999/xlink" xml:space="preserve" xmlns:serif="http://www.serif.com/" style="fill-rule:evenodd;clip-rule:evenodd;stroke-linecap:round;stroke-linejoin:round;stroke-miterlimit:1.5;"><path d="M98.272,80.356c0,-0 -0.041,-0.034 0.678,-0c0.969,0.046 5.225,-1.059 5.454,-1.082c0.229,-0.024 0.874,-0 0.874,-0c0,-0 1.567,-1.327 1.738,-1.58c0.172,-0.253 0,-0.541 0,-0.541l0.961,-1.209c0,-0 0.052,-2.411 0,-3.312c-0.052,-0.902 -0.973,-2.668 -1.281,-3.149c-0.307,-0.482 0.061,-1.827 -0.183,-2.732c-0.244,-0.904 -1.859,-2.389 -1.859,-2.389c-2.361,0.083 -1.895,-0.839 -13.277,-4.878c-11.382,-4.04 -23.321,-3.807 -30.93,-3.416c-7.609,0.392 -23.168,7.56 -23.168,7.56c-3.438,0.153 -18.746,2.862 -22.437,5.187c-3.691,2.325 -2.937,8.016 -2.142,9.841c-0,-0 -0.775,0.617 -0.694,0.825c0.081,0.208 3.08,2.393 8.304,2.409c5.225,0.016 3.458,0 3.458,0l10.311,0c0,0 11.137,-0.336 26.771,-0.55c15.634,-0.213 26.014,0.255 26.014,0.255l11.408,-1.239Z" style="fill:#4eb84b;"/><path d="M106.086,65.948c-0,0 -3.301,-0.015 -3.929,0.159c-0.537,0.149 -1.433,0.295 -1.132,0.673c0.302,0.378 2.503,1.439 5.55,1.642c-0,-0 0.024,-1.244 -0.058,-1.657c-0.06,-0.302 -0.431,-0.817 -0.431,-0.817Z" style="fill:#fff;"/><path d="M14.575,69.699c1.586,-0.294 7.323,-1.067 7.99,-0.829c0.667,0.239 -2.435,1.801 -4.141,2.188c-1.706,0.386 -5.284,1.669 -5.754,2.429c-0.469,0.759 -0.259,-0.804 -0.205,-1.209c0.064,-0.475 0.261,-1.199 0.587,-1.641c0.326,-0.442 0.916,-0.825 1.523,-0.938Z" style="fill:#fff;"/><path d="M98.272,80.356c0,-0 -0.041,-0.034 0.678,-0c0.969,0.046 5.225,-1.059 5.454,-1.082c0.229,-0.024 0.874,-0 0.874,-0c0,-0 1.567,-1.327 1.738,-1.58c0.172,-0.253 0,-0.541 0,-0.541l0.961,-1.209c0,-0 0.052,-2.411 0,-3.312c-0.052,-0.902 -0.973,-2.668 -1.281,-3.149c-0.307,-0.482 0.061,-1.827 -0.183,-2.732c-0.244,-0.904 -1.859,-2.389 -1.859,-2.389c-2.361,0.083 -1.895,-0.839 -13.277,-4.878c-11.382,-4.04 -23.338,-4.064 -30.93,-3.416c-7.746,0.662 -23.168,7.56 -23.168,7.56c-3.438,0.153 -18.746,2.862 -22.437,5.187c-3.691,2.325 -2.937,8.016 -2.142,9.841c-0,-0 -0.775,0.617 -0.694,0.825c0.081,0.208 3.08,2.393 8.304,2.409c5.225,0.016 3.458,0 3.458,0l10.311,0c0,0 11.137,-0.336 26.771,-0.55c15.634,-0.213 26.014,0.255 26.014,0.255l11.408,-1.239Z" style="fill:none;stroke:#000;stroke-width:1.95px;"/><path d="M42.645,65.53c-0,-0 3.82,-1.948 10.552,-4.009c6.733,-2.062 9.517,-1.889 14.048,-1.881c5.066,0.009 11.221,0.541 15.234,1.353c3.961,0.801 9.046,2.356 9.64,2.918c0,-0 -9.78,0.286 -11.271,0.303c-1.491,0.017 -38.203,1.316 -38.203,1.316Z" style="fill:#fff;stroke:#000;stroke-width:1.91px;"/><circle cx="92.18" cy="77.407" r="6.593" style="fill:#fff;stroke:#000;stroke-width:1.91px;"/><circle cx="29.127" cy="77.407" r="6.593" style="fill:#fff;stroke:#000;stroke-width:1.91px;"/></svg>