<?xml version="1.0" encoding="UTF-8" standalone="no"?><!DOCTYPE svg PUBLIC "-//W3C//DTD SVG 1.1//EN" "http://www.w3.org/Graphics/SVG/1.1/DTD/svg11.dtd"><svg width="100%" height="100%" viewBox="0 0 120 120" version="1.1" xmlns="http://www.w3.org/2000/svg" xmlns:xlink="http://www.w3.org/1999/xlink" xml:space="preserve" xmlns:serif="http://www.serif.com/" style="fill-rule:evenodd;clip-rule:evenodd;stroke-linecap:round;stroke-linejoin:round;stroke-miterlimit:1.5;"><g><path d="M12.578,74.64c0,0 0.628,-1.337 0.779,-2.244c0.15,-0.907 0.234,-3.774 1.445,-5.05c1.211,-1.276 5.069,-2.886 8.282,-3.645c3.214,-0.758 4.146,-1.63 4.146,-1.63l0.453,0.122c-0,-0 12.357,-9.515 18.009,-10.395c5.652,-0.879 10.199,-1.129 18.81,-1.29c8.611,-0.162 30.077,0.181 34.863,0.27c4.786,0.089 3.752,0.724 5.124,0.711l0.199,0.233l-0.6,0.804c0,0 0.884,1.482 1.801,6.502c0.917,5.02 0.359,12.603 2.11,13.864c-0,0 0.365,4.225 -0.857,5.328c-0,-0 -1.606,0.529 -6.556,0.771c-4.951,0.242 -5.076,0.336 -25.715,0.492c-20.639,0.157 -36.513,1.029 -41.821,1.335c-5.309,0.306 -13.687,0.44 -17.231,-0.33c-3.544,-0.77 -3.478,-0.84 -3.837,-1.348l0.637,-0.478l0.399,-0.346c0,0 0.042,-2.708 -0.097,-2.897l-0.43,-0.154l0.163,-0.399l-0.076,-0.226Z" style="fill:#4eb84b;"/><path d="M106.246,61.753c-0,-0 -1.331,-0.281 -1.667,-0.276c-0,0 0.115,6.281 -0.195,7.086l2.349,0.04c-0,-0 -0.12,-1.265 -0.234,-3.294c-0.114,-2.028 -0.253,-3.556 -0.253,-3.556Z" style="fill:#fff;"/><path d="M14.529,70.649c0,0 2.693,-1.181 3.684,-1.95c0.99,-0.768 2.709,-2.633 2.709,-2.633c0,-0 -2.45,0.367 -3.341,0.606c-0.698,0.188 -1.095,0.151 -2.003,0.831c-0.552,0.413 -1.008,1.322 -1.145,1.66c-0.141,0.346 -0.308,1.029 -0.267,1.298c0.048,0.31 0.363,0.188 0.363,0.188Z" style="fill:#fff;"/><path d="M12.578,74.64c0,0 0.628,-1.337 0.779,-2.244c0.15,-0.907 0.234,-3.774 1.445,-5.05c1.211,-1.276 5.069,-2.886 8.282,-3.645c3.214,-0.758 4.146,-1.63 4.146,-1.63l0.453,0.122c-0,-0 12.357,-9.515 18.009,-10.395c5.652,-0.879 10.199,-1.129 18.81,-1.29c8.611,-0.162 30.077,0.181 34.863,0.27c4.786,0.089 3.752,0.724 5.124,0.711l0.199,0.233l-0.6,0.804c0,0 0.884,1.482 1.801,6.502c0.917,5.02 0.359,12.603 2.11,13.864c-0,0 0.365,4.225 -0.857,5.328c-0,-0 -1.606,0.529 -6.556,0.771c-4.951,0.242 -5.076,0.336 -25.715,0.492c-20.639,0.157 -36.513,1.029 -41.821,1.335c-5.309,0.306 -13.687,0.44 -17.231,-0.33c-3.544,-0.77 -3.478,-0.84 -3.837,-1.348l0.637,-0.478l0.399,-0.346c0,0 0.042,-2.708 -0.097,-2.897l-0.43,-0.154l0.163,-0.399l-0.076,-0.226Z" style="fill:none;stroke:#000;stroke-width:2px;"/><circle cx="25.385" cy="77.83" r="6.258" style="fill:#fff;stroke:#000;stroke-width:2px;"/><circle cx="89.981" cy="77.83" r="6.258" style="fill:#fff;stroke:#000;stroke-width:2px;"/><path d="M31.742,64.55c-0,-0 0.345,-0.91 1.113,-1.416c0.768,-0.507 8.904,-6.955 14.308,-7.77c1.62,-0.245 6.335,-0.732 12.35,-0.911c14.052,-0.418 34.845,-0.573 37.391,0.744c3.636,1.882 4.132,5.938 3.735,6.522c-0.398,0.584 -68.897,2.831 -68.897,2.831Z" style="fill:#fff;stroke:#000;stroke-width:2px;"/></g></svg>