<?xml version="1.0" encoding="UTF-8" standalone="no"?><!DOCTYPE svg PUBLIC "-//W3C//DTD SVG 1.1//EN" "http://www.w3.org/Graphics/SVG/1.1/DTD/svg11.dtd"><svg width="100%" height="100%" viewBox="0 0 120 120" version="1.1" xmlns="http://www.w3.org/2000/svg" xmlns:xlink="http://www.w3.org/1999/xlink" xml:space="preserve" xmlns:serif="http://www.serif.com/" style="fill-rule:evenodd;clip-rule:evenodd;stroke-linecap:round;stroke-linejoin:round;stroke-miterlimit:1.5;"><g><path d="M12.204,70.546c0.013,-0.719 0.988,-2.132 1.134,-3.056c-0,0 0.763,-1.166 5.591,-2.519c4.828,-1.354 12.977,-2.581 18.677,-3.358c-0,-0 9.526,-5.554 14.117,-7.256c4.59,-1.701 11.731,-3.005 28.842,-2.204c17.11,0.801 18.681,1.464 19.306,1.616c0.625,0.151 -0.52,0.673 -1.086,0.937l-0.116,0.264c0,-0 2.701,1.829 5.696,5.122c-0,0 2.555,1.814 2.477,3.262l-0.328,0.139c-0,-0 -0.51,2.956 -0.582,4.364c-0,0 -0.034,0.432 0.515,0.975c0.548,0.544 1.069,0.9 1.069,0.9c-0,-0 -0.009,1.256 0.035,2.537c0.044,1.281 0.503,1.14 0.438,1.886c-0.065,0.746 -0.356,1.387 -1.508,2.413c-1.153,1.025 -6.954,1.71 -9.177,1.839c-2.222,0.13 -18.682,0.804 -30.019,1.037c-11.336,0.233 -22.079,0.212 -28.093,0.334c-6.015,0.122 -18.27,-0.419 -22.076,-0.81c-3.807,-0.39 -5.125,-0.891 -5.125,-1.277c-0,-0.386 1.601,0.125 1.336,-1.597c-0.265,-1.722 -1.135,-4.829 -1.123,-5.548Z" style="fill:#4eb84b;"/><path d="M42.963,63.609c0,0 1.436,-1.414 3.189,-2.422c1.952,-1.123 5.422,-3.192 11.03,-4.41c2.243,-0.487 7.478,-1.009 13.547,-1.051c9.102,-0.063 19.552,0.561 20.385,0.861c1.388,0.499 3.863,3.68 3.625,4.158c-0.237,0.478 -7.763,0.053 -10.414,0.716c-2.651,0.663 -7.35,0.99 -13.111,1.309c-5.762,0.32 -28.251,0.839 -28.251,0.839Z" style="fill:#fff;stroke:#000;stroke-width:2px;"/><path d="M13.954,68.933c0.228,0.133 0.251,0.131 0.97,0.321c0.725,0.191 2.031,0.157 2.868,-0.08c0.836,-0.238 3.85,-2.594 4.096,-2.796c0.245,-0.202 0.131,-0.421 -0.399,-0.423c-0.53,-0.003 -3.083,0.215 -4.083,0.482c-0.672,0.179 -1.077,0.203 -2.003,0.586c-0.516,0.214 -0.899,0.388 -1.23,0.653c0,0 -0.559,0.31 -0.618,0.78c-0.023,0.181 0.22,0.373 0.399,0.477Z" style="fill:#fff;"/><path d="M104.4,61.395c-0.698,-0.133 -1.924,-0.216 -3.027,-0.199c-1.237,0.02 -3.068,0.081 -1.419,1.203c1.649,1.122 4.124,2.539 4.541,2.655c0.417,0.116 0.791,0.114 0.791,0.114c0,-0 0.954,-0.013 1.064,-0.672c0.024,-0.148 0.147,-0.879 0.164,-1.003c0.027,-0.209 -0.591,-1.118 -0.951,-1.495c-0.361,-0.378 -0.692,-0.513 -1.163,-0.603Z" style="fill:#fff;"/><path d="M12.204,70.546c0.013,-0.719 0.988,-2.132 1.134,-3.056c-0,0 0.763,-1.166 5.591,-2.519c4.828,-1.354 12.977,-2.581 18.677,-3.358c-0,-0 9.526,-5.554 14.117,-7.256c4.59,-1.701 11.731,-3.005 28.842,-2.204c17.11,0.801 18.681,1.464 19.306,1.616c0.625,0.151 -0.52,0.673 -1.086,0.937l-0.116,0.264c0,-0 2.701,1.829 5.696,5.122c-0,0 2.555,1.814 2.477,3.262l-0.328,0.139c-0,-0 -0.51,2.956 -0.582,4.364c-0,0 -0.034,0.432 0.515,0.975c0.548,0.544 1.069,0.9 1.069,0.9c-0,-0 -0.009,1.256 0.035,2.537c0.044,1.281 0.503,1.14 0.438,1.886c-0.065,0.746 -0.356,1.387 -1.508,2.413c-1.153,1.025 -6.954,1.71 -9.177,1.839c-2.222,0.13 -18.682,0.804 -30.019,1.037c-11.336,0.233 -22.079,0.212 -28.093,0.334c-6.015,0.122 -18.27,-0.419 -22.076,-0.81c-3.807,-0.39 -5.125,-0.891 -5.125,-1.277c-0,-0.386 1.601,0.125 1.336,-1.597c-0.265,-1.722 -1.135,-4.829 -1.123,-5.548Z" style="fill:none;stroke:#000;stroke-width:2px;"/><circle cx="30.535" cy="77.113" r="6.904" style="fill:#fff;stroke:#000;stroke-width:2px;"/><circle cx="88.98" cy="77.113" r="6.904" style="fill:#fff;stroke:#000;stroke-width:2px;"/></g></svg>