<?xml version="1.0" encoding="UTF-8" standalone="no"?><!DOCTYPE svg PUBLIC "-//W3C//DTD SVG 1.1//EN" "http://www.w3.org/Graphics/SVG/1.1/DTD/svg11.dtd"><svg width="100%" height="100%" viewBox="0 0 120 120" version="1.1" xmlns="http://www.w3.org/2000/svg" xmlns:xlink="http://www.w3.org/1999/xlink" xml:space="preserve" xmlns:serif="http://www.serif.com/" style="fill-rule:evenodd;clip-rule:evenodd;stroke-linecap:round;stroke-linejoin:round;stroke-miterlimit:1.5;"><g><path d="M37.324,59.011c0,0 11.261,-7.322 16.529,-9.363c5.268,-2.042 22.542,-3.278 44.771,0.12l-0.651,1.318c-0,-0 5.307,4.487 6.331,5.933c0,-0 2.579,1.101 1.975,3.652c-0.604,2.552 0.503,5.442 1.366,6.789c0,0 0.497,2.476 0.171,4.998c-0.326,2.521 -0.687,3.428 -3.522,4.01c-2.836,0.582 -17.013,2.452 -17.013,2.452l-57.199,0.004l-5.993,1.132l-5.639,-1.274c-0,0 -4.929,-0.314 -6.497,-1.97l0.892,-0.454c0,0 -0.832,-2.484 -0.797,-3.872c0.035,-1.387 0.699,0.276 0.087,-6.759c0,-0 -0.535,-0.897 5.925,-3.458c6.459,-2.562 19.264,-3.258 19.264,-3.258Z" style="fill:#4eb84b;"/><path d="M43.796,59.467c0,-0 4.833,-3.649 10.294,-5.82c4.788,-1.905 8.725,-1.897 13.235,-2.072c4.359,-0.17 14.539,-0.426 24.912,1.525c-0,-0 -8.79,3.393 -12.227,4.176c-3.438,0.783 -36.214,2.191 -36.214,2.191Z" style="fill:#fff;stroke:#000;stroke-width:2px;"/><path d="M13.116,65.461c-0,0 0.456,1.46 0.723,1.629c0.267,0.169 2.771,-0.005 3.457,-0.173c0.686,-0.167 4.658,-1.723 6.916,-3.633c0,0 -2.238,-0.32 -5.592,0.338c-2.584,0.506 -2.363,0.568 -3.281,0.875c-0.766,0.256 -2.223,0.964 -2.223,0.964Z" style="fill:#fff;"/><path d="M105.178,57.574c0,-0 -6.992,-0.287 -7.043,0.34c-0.052,0.627 3.989,3.477 6.434,3.661c0,-0 0.363,0.014 0.606,-0.069c0,-0 1.073,-0.734 1.132,-0.963c0.084,-0.327 0.116,-1.117 -0.147,-1.693c-0.323,-0.706 -0.456,-0.737 -0.576,-0.891c-0.123,-0.158 -0.406,-0.385 -0.406,-0.385Z" style="fill:#fff;"/><path d="M37.324,59.011c0,0 11.261,-7.322 16.529,-9.363c5.268,-2.042 22.542,-3.278 44.771,0.12l-0.651,1.318c-0,-0 5.307,4.487 6.331,5.933c0,-0 2.579,1.101 1.975,3.652c-0.604,2.552 0.503,5.442 1.366,6.789c0,0 0.497,2.476 0.171,4.998c-0.326,2.521 -0.687,3.428 -3.522,4.01c-2.836,0.582 -17.013,2.452 -17.013,2.452l-57.199,0.004l-5.993,1.132l-5.639,-1.274c-0,0 -4.929,-0.314 -6.497,-1.97l0.892,-0.454c0,0 -0.832,-2.484 -0.797,-3.872c0.035,-1.387 0.699,0.276 0.087,-6.759c0,-0 -0.535,-0.897 5.925,-3.458c6.459,-2.562 19.264,-3.258 19.264,-3.258Z" style="fill:none;stroke:#000;stroke-width:2px;"/><circle cx="30.909" cy="76.796" r="7.234" style="fill:#fff;stroke:#000;stroke-width:2px;"/><circle cx="90.762" cy="76.796" r="7.234" style="fill:#fff;stroke:#000;stroke-width:2px;"/></g></svg>