<?xml version="1.0" encoding="UTF-8" standalone="no"?><!DOCTYPE svg PUBLIC "-//W3C//DTD SVG 1.1//EN" "http://www.w3.org/Graphics/SVG/1.1/DTD/svg11.dtd"><svg width="100%" height="100%" viewBox="0 0 120 120" version="1.1" xmlns="http://www.w3.org/2000/svg" xmlns:xlink="http://www.w3.org/1999/xlink" xml:space="preserve" xmlns:serif="http://www.serif.com/" style="fill-rule:evenodd;clip-rule:evenodd;stroke-linecap:round;stroke-linejoin:round;stroke-miterlimit:1.5;"><g><path d="M13.593,77.033c0,0 -0.482,-2.074 -0.499,-3.798l-0.783,-0.653c-0,0 -1.02,-6.177 4.75,-9.123c5.77,-2.945 10.611,-3.789 22.27,-4.294c-0,-0 8.773,-7.339 12.067,-8.973c3.295,-1.634 10.384,-2.046 17.731,-2.003c7.347,0.043 12.557,0.401 17.204,0.659c4.646,0.258 9.074,1.244 10.288,1.177c1.215,-0.068 0.995,-0.385 2.916,0.186c0,0 0.032,0.262 -0.535,0.463l0.067,0.388c0,-0 0.124,0.237 -2.282,0.602c-0,-0 3.811,3.83 5.636,6.895c0,-0 2.886,1.219 3.391,4.543c0.505,3.323 -0.102,5.038 0.165,5.464c0.267,0.425 1.776,1.666 1.776,1.666c-0,-0 -0.031,3.624 -0.162,4.465c0,0 0.419,0.143 0.439,0.327c0.021,0.185 -0.58,1.459 -0.53,1.917c0.05,0.458 -0.062,1.164 -0.831,1.354c-0.768,0.19 -3.939,0.758 -3.939,0.758l-17.974,0.95c-0,-0 -14.581,0.036 -22.414,-0.018c-7.833,-0.055 -22.686,0.062 -22.686,0.062l-19.794,-0.034c-0,-0 -2.583,-0.198 -2.829,-0.928c0,0 -5.297,-0.154 -5.36,-1.164c-0.03,-0.479 1.918,-0.888 1.918,-0.888Z" style="fill:#4eb84b;"/><path d="M104.594,60.297c0,-0 -2.139,-0.158 -2.263,0.167c-0.125,0.326 0.694,3.023 1.405,4.704c0.71,1.681 0.818,1.891 1.28,1.99c-0,0 0.725,0.088 0.987,-0.547c0.22,-0.535 -0.013,-1.738 -0.053,-2.395c-0.037,-0.592 -0.25,-1.963 -0.59,-2.667c-0.487,-1.007 -0.766,-1.252 -0.766,-1.252Z" style="fill:#fff;"/><path d="M18.582,63.438c-1.855,1.304 -3.274,3.382 -2.146,3.331c1.128,-0.052 2.755,-1.367 3.826,-2.258c1.071,-0.891 2.197,-1.84 2.333,-2.302c0.071,-0.243 -0.207,-0.513 -1.185,-0.201c-0.705,0.224 -1.78,0.694 -2.828,1.43Z" style="fill:#fff;"/><path d="M13.593,77.033c0,0 -0.482,-2.074 -0.499,-3.798l-0.783,-0.653c-0,0 -1.02,-6.177 4.75,-9.123c5.77,-2.945 10.611,-3.789 22.27,-4.294c-0,-0 8.773,-7.339 12.067,-8.973c3.295,-1.634 10.384,-2.046 17.731,-2.003c7.347,0.043 12.557,0.401 17.204,0.659c4.646,0.258 9.074,1.244 10.288,1.177c1.215,-0.068 0.995,-0.385 2.916,0.186c0,0 0.032,0.262 -0.535,0.463l0.067,0.388c0,-0 0.124,0.237 -2.282,0.602c-0,-0 3.811,3.83 5.636,6.895c0,-0 2.886,1.219 3.391,4.543c0.505,3.323 -0.102,5.038 0.165,5.464c0.267,0.425 1.776,1.666 1.776,1.666c-0,-0 -0.031,3.624 -0.162,4.465c0,0 0.419,0.143 0.439,0.327c0.021,0.185 -0.58,1.459 -0.53,1.917c0.05,0.458 -0.062,1.164 -0.831,1.354c-0.768,0.19 -3.939,0.758 -3.939,0.758l-17.974,0.95c-0,-0 -14.581,0.036 -22.414,-0.018c-7.833,-0.055 -22.686,0.062 -22.686,0.062l-19.794,-0.034c-0,-0 -2.583,-0.198 -2.829,-0.928c0,0 -5.297,-0.154 -5.36,-1.164c-0.03,-0.479 1.918,-0.888 1.918,-0.888Z" style="fill:none;stroke:#000;stroke-width:2px;"/><circle cx="29.356" cy="75.914" r="8.158" style="fill:#fff;stroke:#000;stroke-width:2px;"/><circle cx="94.218" cy="75.918" r="8.158" style="fill:#fff;stroke:#000;stroke-width:2px;"/><path d="M48.306,59.356c0,-0 5.671,-6.292 7.64,-6.627c1.298,-0.222 4.838,-0.661 9.576,-0.741c2.449,-0.041 5.392,-0.003 8.907,0.07c2.435,0.051 4.763,0.126 6.733,0.222c6.419,0.314 10.716,0.87 11.004,0.951c0.375,0.106 5.097,5.254 5.097,5.254c0,-0 -27.98,0.473 -33.198,0.649c-5.218,0.175 -15.759,0.222 -15.759,0.222Z" style="fill:#fff;stroke:#000;stroke-width:2px;"/></g></svg>