<?xml version="1.0" encoding="UTF-8" standalone="no"?><!DOCTYPE svg PUBLIC "-//W3C//DTD SVG 1.1//EN" "http://www.w3.org/Graphics/SVG/1.1/DTD/svg11.dtd"><svg width="100%" height="100%" viewBox="0 0 120 120" version="1.1" xmlns="http://www.w3.org/2000/svg" xmlns:xlink="http://www.w3.org/1999/xlink" xml:space="preserve" xmlns:serif="http://www.serif.com/" style="fill-rule:evenodd;clip-rule:evenodd;stroke-linecap:round;stroke-linejoin:round;stroke-miterlimit:1.5;"><g><path d="M13.109,70.442c-0,-0 0.498,-1.981 0.749,-2.478c0,0 -0.241,-0.182 2.205,-1.809c2.446,-1.628 4.741,-2.686 7.38,-3.544c2.64,-0.857 9.382,-1.968 11.833,-2.489c2.45,-0.522 4.714,-1.843 9.714,-4.509c4.999,-2.667 8.643,-4.582 17.488,-5.049c8.846,-0.467 17.137,0.138 22.457,0.579c5.321,0.441 11.742,1.352 12.32,1.79c0,-0 -0.026,0.249 -0.585,0.683c-0.56,0.434 -0.675,0.932 -0.675,0.932c0,0 3.201,1.768 5.012,2.974c1.811,1.206 3.479,2.398 3.479,2.398l0.229,-0.029l0.386,0.336c0,0 -0.053,1.958 -0.067,2.077c-0.015,0.12 -0.014,0.397 0.062,0.532c0.077,0.135 0.823,1.242 0.825,1.409c0.002,0.168 0.016,1.438 0.016,1.438c0,0 1.146,1.987 1.533,3.243c0.386,1.256 0.659,3.743 0.288,3.902c0,-0 0.153,0.622 0.201,0.807l-0.186,0.478c0,-0 0.361,0.284 0.117,0.763c-0.244,0.479 -0.579,1.349 -1.029,1.746c-0.45,0.396 -0.946,0.512 -1.439,0.644c-0.494,0.131 -18.967,2.486 -21.026,2.522c-2.059,0.036 -2.28,0.076 -2.28,0.076l-1.055,-0.387c0,-0 -37.496,0.544 -40.874,0.532c-3.379,-0.012 -19.583,-0.465 -22.815,-0.778c-3.232,-0.312 -4.865,-0.888 -5.087,-1.022c-0.223,-0.135 -0.323,-0.488 -0.254,-0.709c0.07,-0.22 0.878,-0.303 0.878,-0.303l0.458,-0.789c-0,-0 -0.531,-0.167 -0.796,-0.383c-0.264,-0.217 -0.477,-0.656 -0.451,-2.417c0.026,-1.761 0.176,-2.29 0.466,-2.674c0.289,-0.383 0.523,-0.492 0.523,-0.492Z" style="fill:#4eb84b;"/><path d="M14.91,68.163c0,-0 -0.109,0.582 -0.099,0.917c0.01,0.336 0.045,0.618 0.045,0.618c0,0 3.047,-1.023 3.683,-1.272c0.636,-0.248 6.07,-3.499 6.327,-3.646c0.257,-0.146 0.234,-0.435 -0.321,-0.368c-0.543,0.065 -2.089,0.296 -3.71,0.671c-1.62,0.375 -2.206,0.63 -2.938,0.914c-0.89,0.346 -1.572,0.605 -2.401,1.16c-0.369,0.248 -0.586,1.006 -0.586,1.006Z" style="fill:#fff;"/><path d="M104.251,63.249c-0,-0 -0.756,-0.382 -1.395,-0.489c-0.639,-0.108 -1.965,-0.121 -4.28,-0.134c-2.315,-0.013 -2.575,-0.037 -3.029,-0.101c-0.455,-0.064 -1.188,-0.242 -1.516,-0.39c-0.327,-0.149 -0.409,-0.424 0.198,-0.613c0.607,-0.188 2.183,-0.543 3.948,-0.922c1.765,-0.379 2.532,-0.491 2.616,-0.564c0.084,-0.074 0.423,-0.271 -0.295,-0.572c-0.719,-0.301 -2.799,-1.211 -3.528,-1.6c-0.32,-0.171 -0.847,-0.736 -0.847,-0.736c-0,-0 1.357,0.407 3.425,1.232c2.069,0.824 2.427,0.977 2.427,0.977c-0,-0 1.571,0.63 1.982,0.874c0.218,0.129 0.414,0.344 0.481,0.588c0.085,0.308 0.038,0.912 0.026,1.257c-0.013,0.345 0.021,0.727 -0.019,0.837c-0.041,0.117 -0.194,0.356 -0.194,0.356Z" style="fill:#fff;"/><path d="M13.109,70.442c-0,-0 0.498,-1.981 0.749,-2.478c0,0 -0.241,-0.182 2.205,-1.809c2.446,-1.628 4.741,-2.686 7.38,-3.544c2.64,-0.857 9.382,-1.968 11.833,-2.489c2.45,-0.522 4.714,-1.843 9.714,-4.509c4.999,-2.667 8.643,-4.582 17.488,-5.049c8.846,-0.467 17.137,0.138 22.457,0.579c5.321,0.441 11.742,1.352 12.32,1.79c0,-0 -0.026,0.249 -0.585,0.683c-0.56,0.434 -0.675,0.932 -0.675,0.932c0,0 3.201,1.768 5.012,2.974c1.811,1.206 3.479,2.398 3.479,2.398l0.229,-0.029l0.386,0.336c0,0 -0.053,1.958 -0.067,2.077c-0.015,0.12 -0.014,0.397 0.062,0.532c0.077,0.135 0.823,1.242 0.825,1.409c0.002,0.168 0.016,1.438 0.016,1.438c0,0 1.146,1.987 1.533,3.243c0.386,1.256 0.659,3.743 0.288,3.902c0,-0 0.153,0.622 0.201,0.807l-0.186,0.478c0,-0 0.361,0.284 0.117,0.763c-0.244,0.479 -0.579,1.349 -1.029,1.746c-0.45,0.396 -0.946,0.512 -1.439,0.644c-0.494,0.131 -18.967,2.486 -21.026,2.522c-2.059,0.036 -2.28,0.076 -2.28,0.076l-1.055,-0.387c0,-0 -37.496,0.544 -40.874,0.532c-3.379,-0.012 -19.583,-0.465 -22.815,-0.778c-3.232,-0.312 -4.865,-0.888 -5.087,-1.022c-0.223,-0.135 -0.323,-0.488 -0.254,-0.709c0.07,-0.22 0.878,-0.303 0.878,-0.303l0.458,-0.789c-0,-0 -0.531,-0.167 -0.796,-0.383c-0.264,-0.217 -0.477,-0.656 -0.451,-2.417c0.026,-1.761 0.176,-2.29 0.466,-2.674c0.289,-0.383 0.523,-0.492 0.523,-0.492Z" style="fill:none;stroke:#000;stroke-width:2px;"/><path d="M40.331,63.4c-0,0 2.828,-2.524 6.241,-4.286c3.413,-1.761 7.766,-3.516 12.315,-4.234c4.549,-0.717 12.22,-1.274 27.477,0.218l0.366,3.656c0,0 -1.256,1.428 -2.896,1.837c-1.64,0.409 -11.61,1.458 -18.063,1.993c-6.453,0.535 -25.44,0.816 -25.44,0.816Z" style="fill:#fff;stroke:#000;stroke-width:2px;"/><ellipse cx="92.898" cy="76.61" rx="7.417" ry="7.416" style="fill:#fff;stroke:#000;stroke-width:2px;"/><ellipse cx="31.531" cy="76.61" rx="7.417" ry="7.416" style="fill:#fff;stroke:#000;stroke-width:2px;"/></g></svg>