<?xml version="1.0" encoding="UTF-8" standalone="no"?><!DOCTYPE svg PUBLIC "-//W3C//DTD SVG 1.1//EN" "http://www.w3.org/Graphics/SVG/1.1/DTD/svg11.dtd"><svg width="100%" height="100%" viewBox="0 0 120 120" version="1.1" xmlns="http://www.w3.org/2000/svg" xmlns:xlink="http://www.w3.org/1999/xlink" xml:space="preserve" xmlns:serif="http://www.serif.com/" style="fill-rule:evenodd;clip-rule:evenodd;stroke-linecap:round;stroke-linejoin:round;stroke-miterlimit:1.5;"><rect x="38.4" y="24" width="43.2" height="67.2" style="fill:#4eb84b;stroke:#000;stroke-width:2px;"/><rect x="38.4" y="91.2" width="43.2" height="4.8" style="fill:#fff;stroke:#000;stroke-width:2px;"/><path d="M38.4,26.4c0,-0 -3.061,1.287 -5.317,2.4c-2.256,1.113 -3.948,2.837 -4.905,6.458c-0.958,3.621 -6.329,24.299 -6.578,25.291c-0.249,0.992 1.086,2.665 4.8,4.251c3.714,1.586 12,4.8 12,4.8l0,-43.2Z" style="fill:#fff;stroke:#000;stroke-width:2px;"/><path d="M81.6,26.4c-0,-0 3.061,1.287 5.317,2.4c2.256,1.113 3.948,2.837 4.905,6.458c0.958,3.621 6.329,24.299 6.578,25.291c0.249,0.992 -1.086,2.665 -4.8,4.251c-3.714,1.586 -12,4.8 -12,4.8l-0,-43.2Z" style="fill:#fff;stroke:#000;stroke-width:2px;"/></svg>