<?xml version="1.0" encoding="UTF-8" standalone="no"?><!DOCTYPE svg PUBLIC "-//W3C//DTD SVG 1.1//EN" "http://www.w3.org/Graphics/SVG/1.1/DTD/svg11.dtd"><svg width="100%" height="100%" viewBox="0 0 120 120" version="1.1" xmlns="http://www.w3.org/2000/svg" xmlns:xlink="http://www.w3.org/1999/xlink" xml:space="preserve" xmlns:serif="http://www.serif.com/" style="fill-rule:evenodd;clip-rule:evenodd;stroke-linecap:round;stroke-linejoin:round;stroke-miterlimit:1.5;"><path d="M84,27.412l0,66.616c0,1.088 -0.884,1.972 -1.972,1.972l-44.056,0c-1.088,0 -1.972,-0.884 -1.972,-1.972l0,-66.616c0,-1.088 0.884,-1.972 1.972,-1.972l44.056,0c1.088,0 1.972,0.884 1.972,1.972Z" style="fill:#4eb84b;stroke:#000;stroke-width:2px;"/><circle cx="60" cy="49.44" r="16.8" style="fill:#fff;stroke:#000;stroke-width:2px;"/><path d="M84,25.281l0,2.319l-48,0l0,-2.319c0,-0.707 0.574,-1.281 1.281,-1.281l45.438,-0c0.707,-0 1.281,0.574 1.281,1.281Z" style="fill:#fff;stroke:#000;stroke-width:2px;"/></svg>