<?xml version="1.0" encoding="UTF-8" standalone="no"?><!DOCTYPE svg PUBLIC "-//W3C//DTD SVG 1.1//EN" "http://www.w3.org/Graphics/SVG/1.1/DTD/svg11.dtd"><svg width="100%" height="100%" viewBox="0 0 7087 7087" version="1.1" xmlns="http://www.w3.org/2000/svg" xmlns:xlink="http://www.w3.org/1999/xlink" xml:space="preserve" xmlns:serif="http://www.serif.com/" style="fill-rule:evenodd;clip-rule:evenodd;stroke-linecap:round;stroke-linejoin:round;stroke-miterlimit:1.5;"><g><path d="M3089.58,5425.15l62.738,43.08l-0,45.34c-0,-0 126.39,101.155 385.956,101.598" style="fill:none;stroke:#000;stroke-width:112px;"/><path d="M3642.56,1478.81l-1147.58,0l-363.78,146.239c-0,0 -66.077,45.383 -89.592,84.424c-23.516,39.04 -37.65,151.212 -37.65,151.212l17.853,2561.75c0,-0 9.082,136.186 32.204,199.495c23.122,63.31 45.477,113.791 77.185,137.326c31.708,23.535 960.647,666.135 960.647,666.135c-0,0 -57.151,-62.338 -47.891,-123.28c9.26,-60.942 9.002,-101.188 145.637,-233.624c1.463,-1.418 -0,0 -0,0c-3.411,1.222 172.208,40.372 346,39.832c167.626,1.669 -169.079,1.669 -1.453,0c173.793,0.54 349.412,-38.61 346.001,-39.832c-0,0 -1.464,-1.418 -0,0c136.635,132.436 136.377,172.682 145.637,233.624c9.26,60.942 -47.891,123.28 -47.891,123.28c-0,0 928.939,-642.6 960.647,-666.135c31.707,-23.535 54.062,-74.016 77.184,-137.326c23.122,-63.309 32.204,-199.495 32.204,-199.495l17.854,-2561.75c-0,-0 -14.134,-112.172 -37.65,-151.212c-23.516,-39.041 -89.592,-84.424 -89.592,-84.424l-363.78,-146.239l-1147.58,0" style="fill:#4eb848;stroke:#000;stroke-width:112px;"/><path d="M3181.01,5061.16l44.8,-50.759c0,0 12.093,-17.71 14.745,-48.372c3.179,-36.75 -0,-50.176 -0,-50.176l-742.756,-3431.23" style="fill:none;stroke:#000;stroke-width:112px;"/><path d="M3980.16,5425.15l-62.738,43.08l-0,45.34c-0,-0 -126.39,101.155 -385.957,101.598" style="fill:none;stroke:#000;stroke-width:112px;"/><path d="M3888.72,5061.16l-44.801,-50.759c0,0 -12.092,-17.71 -14.744,-48.372c-3.179,-36.75 -0,-50.176 -0,-50.176l742.756,-3431.23" style="fill:none;stroke:#000;stroke-width:112px;"/><path d="M3536.85,2678.24l-0,941.19" style="fill:none;stroke:#fff;stroke-width:112px;"/></g></svg>