<?xml version="1.0" encoding="UTF-8" standalone="no"?><!DOCTYPE svg PUBLIC "-//W3C//DTD SVG 1.1//EN" "http://www.w3.org/Graphics/SVG/1.1/DTD/svg11.dtd"><svg width="100%" height="100%" viewBox="0 0 7087 7087" version="1.1" xmlns="http://www.w3.org/2000/svg" xmlns:xlink="http://www.w3.org/1999/xlink" xml:space="preserve" xmlns:serif="http://www.serif.com/" style="fill-rule:evenodd;clip-rule:evenodd;stroke-linecap:round;stroke-linejoin:round;stroke-miterlimit:1.5;"><g><path d="M4789.16,1591.09c0,-60.244 -48.91,-109.155 -109.154,-109.155l-2257.61,0c-60.244,0 -109.154,48.911 -109.154,109.155l-0,2188.53c-0,60.244 48.91,109.154 109.154,109.154l2257.61,0c60.244,0 109.154,-48.91 109.154,-109.154l0,-2188.53Z" style="fill:#4eb848;stroke:#000;stroke-width:112px;"/><path d="M3541.53,1481.93l-425.769,0l0,2407.17l425.769,-0l0,-2407.17Zm0,573.947l-425.769,-0l0,193.286l425.769,0l0,-193.286Z" style="fill:#fff;stroke:#000;stroke-width:112px;"/></g><path d="M3344.88,4251.97l-0,1445.67l396.85,-0l0,-1445.67l708.662,-311.812l-300.473,5.67l-572.598,300.472l-232.441,5.67Z" style="fill:#4eb848;"/><path d="M3741.73,4251.97l0,1445.67l-396.85,-0l-0,-1445.67l-708.662,-311.812l300.473,5.67l572.598,300.472l232.441,5.67Z" style="fill:#4eb848;"/><path d="M2891.34,3888.77l583.328,334.179l193.364,-0.047l-249.448,-0l-101.875,-0.087l-927.998,-339.352l927.998,339.352l-0.173,142.537l0,1303.94l-793.7,0l1020.47,0" style="fill:none;stroke:#000;stroke-width:112px;"/><path d="M4195.28,3888.77l-583.329,334.179l157.959,-0.134l927.998,-339.352l-927.998,339.352l0.173,142.537l-0,1303.94l793.701,0l-1020.47,0" style="fill:none;stroke:#000;stroke-width:112px;"/></svg>