<?xml version="1.0" encoding="UTF-8" standalone="no"?><!DOCTYPE svg PUBLIC "-//W3C//DTD SVG 1.1//EN" "http://www.w3.org/Graphics/SVG/1.1/DTD/svg11.dtd"><svg width="100%" height="100%" viewBox="0 0 120 120" version="1.1" xmlns="http://www.w3.org/2000/svg" xmlns:xlink="http://www.w3.org/1999/xlink" xml:space="preserve" xmlns:serif="http://www.serif.com/" style="fill-rule:evenodd;clip-rule:evenodd;stroke-linecap:round;stroke-linejoin:round;stroke-miterlimit:1.5;"><path d="M39.6,60c0,-13.621 -0.671,-20.608 -1.533,-26.4c-0.861,-5.792 3.36,-9.6 8.733,-9.6l26.4,0c5.373,0 9.594,3.808 8.733,9.6c-0.862,5.792 -1.533,12.779 -1.533,26.4c0,13.621 0,-13.381 0,0.24c0,13.621 0.671,20.368 1.533,26.16c0.861,5.792 -3.36,9.6 -8.733,9.6l-26.4,0c-5.373,0 -9.594,-3.808 -8.733,-9.6c0.862,-5.792 1.533,-12.779 1.533,-26.4" style="fill:#4eb84b;stroke:#000;stroke-width:2px;"/><rect x="51.6" y="45.6" width="16.8" height="9.6" style="fill:#fff;stroke:#000;stroke-width:2px;"/><path d="M52.8,39.84l-0,-0.011" style="fill:none;stroke:#000;stroke-width:2px;"/><g><path d="M57.6,39.84l0,-0.011" style="fill:none;stroke:#000;stroke-width:2px;"/></g><g><path d="M62.4,39.84l0,-0.011" style="fill:none;stroke:#000;stroke-width:2px;"/></g><g><path d="M67.2,39.84l0,-0.011" style="fill:none;stroke:#000;stroke-width:2px;"/></g></svg>