<?xml version="1.0" encoding="UTF-8" standalone="no"?><!DOCTYPE svg PUBLIC "-//W3C//DTD SVG 1.1//EN" "http://www.w3.org/Graphics/SVG/1.1/DTD/svg11.dtd"><svg width="100%" height="100%" viewBox="0 0 120 120" version="1.1" xmlns="http://www.w3.org/2000/svg" xmlns:xlink="http://www.w3.org/1999/xlink" xml:space="preserve" xmlns:serif="http://www.serif.com/" style="fill-rule:evenodd;clip-rule:evenodd;stroke-linecap:round;stroke-linejoin:round;stroke-miterlimit:1.5;"><rect x="31.2" y="24" width="57.6" height="72" style="fill:#4eb84b;stroke:#000;stroke-width:2px;"/><path d="M31.2,40.8l57.6,-0" style="fill:none;stroke:#000;stroke-width:2px;"/><path d="M31.2,31.2l57.6,0" style="fill:none;stroke:#000;stroke-width:2px;"/><path d="M31.2,79.2l57.6,-0" style="fill:none;stroke:#000;stroke-width:2px;"/><path d="M31.2,88.8l57.6,0" style="fill:none;stroke:#000;stroke-width:2px;"/><path d="M74.4,70.32l9.6,-0" style="fill:none;stroke:#000;stroke-width:2px;"/><circle cx="81.6" cy="48.72" r="2.4" style="fill:#fff;stroke:#000;stroke-width:2px;"/><path d="M75.12,47.545l-0,16.99c-0,0.809 -0.656,1.465 -1.465,1.465l-37.87,0c-0.809,0 -1.465,-0.656 -1.465,-1.465l0,-16.99c0,-0.809 0.656,-1.465 1.465,-1.465l37.87,0c0.809,0 1.465,0.656 1.465,1.465Z" style="fill:#fff;stroke:#000;stroke-width:2px;"/><rect x="34.32" y="69.36" width="6.48" height="4.08" style="fill:#fff;stroke:#000;stroke-width:2px;"/><rect x="43.68" y="69.36" width="6.48" height="4.08" style="fill:#fff;stroke:#000;stroke-width:2px;"/><rect x="53.04" y="69.36" width="6.48" height="4.08" style="fill:#fff;stroke:#000;stroke-width:2px;"/><rect x="62.4" y="69.36" width="6.48" height="4.08" style="fill:#fff;stroke:#000;stroke-width:2px;"/><circle cx="36" cy="36.18" r="0.78" style="stroke:#000;stroke-width:2px;"/><circle cx="40.8" cy="36.18" r="0.78" style="stroke:#000;stroke-width:2px;"/><circle cx="45.6" cy="36.18" r="0.78" style="stroke:#000;stroke-width:2px;"/><circle cx="50.4" cy="36.18" r="0.78" style="stroke:#000;stroke-width:2px;"/><circle cx="55.2" cy="36.18" r="0.78" style="stroke:#000;stroke-width:2px;"/><circle cx="60" cy="36.18" r="0.78" style="stroke:#000;stroke-width:2px;"/><circle cx="64.8" cy="36.18" r="0.78" style="stroke:#000;stroke-width:2px;"/><circle cx="69.6" cy="36.18" r="0.78" style="stroke:#000;stroke-width:2px;"/><circle cx="74.4" cy="36.18" r="0.78" style="stroke:#000;stroke-width:2px;"/><circle cx="79.2" cy="36.18" r="0.78" style="stroke:#000;stroke-width:2px;"/><circle cx="84" cy="36.18" r="0.78" style="stroke:#000;stroke-width:2px;"/><circle cx="36" cy="84.06" r="0.78" style="stroke:#000;stroke-width:2px;"/><circle cx="40.8" cy="84.06" r="0.78" style="stroke:#000;stroke-width:2px;"/><circle cx="45.6" cy="84.06" r="0.78" style="stroke:#000;stroke-width:2px;"/><circle cx="50.4" cy="84.06" r="0.78" style="stroke:#000;stroke-width:2px;"/><circle cx="55.2" cy="84.06" r="0.78" style="stroke:#000;stroke-width:2px;"/><circle cx="60" cy="84.06" r="0.78" style="stroke:#000;stroke-width:2px;"/><circle cx="64.8" cy="84.06" r="0.78" style="stroke:#000;stroke-width:2px;"/><circle cx="69.6" cy="84.06" r="0.78" style="stroke:#000;stroke-width:2px;"/><circle cx="74.4" cy="84.06" r="0.78" style="stroke:#000;stroke-width:2px;"/><circle cx="79.2" cy="84.06" r="0.78" style="stroke:#000;stroke-width:2px;"/><circle cx="84" cy="84.06" r="0.78" style="stroke:#000;stroke-width:2px;"/></svg>