<?xml version="1.0" encoding="UTF-8" standalone="no"?><!DOCTYPE svg PUBLIC "-//W3C//DTD SVG 1.1//EN" "http://www.w3.org/Graphics/SVG/1.1/DTD/svg11.dtd"><svg width="100%" height="100%" viewBox="0 0 120 120" version="1.1" xmlns="http://www.w3.org/2000/svg" xmlns:xlink="http://www.w3.org/1999/xlink" xml:space="preserve" xmlns:serif="http://www.serif.com/" style="fill-rule:evenodd;clip-rule:evenodd;stroke-linecap:round;stroke-linejoin:round;stroke-miterlimit:1.5;"><path d="M85.92,24l0,72l-3.12,0l-1.2,-6l-43.2,0l-1.2,6l-3.12,0l0,-72l51.84,-0Z" style="fill:#4eb84b;stroke:#000;stroke-width:2px;"/><rect x="38.4" y="33.12" width="43.2" height="7.2" style="fill:#fff;stroke:#000;stroke-width:2px;"/><path d="M34.08,28.8l51.84,0" style="fill:none;stroke:#000;stroke-width:2px;"/><path d="M48,63.84l2.4,-0l0,-2.4l2.4,-0l-0,-2.4l-2.4,-0l-0,-2.4l-2.4,-0l-0,2.4l-2.4,-0l-0,2.4l2.4,-0l0,2.4Z" style="stroke:#000;stroke-width:2px;"/><rect x="67.2" y="58.56" width="7.2" height="2.4" style="stroke:#000;stroke-width:2px;"/><path d="M38.4,90l0,-20.4l43.2,0l0,20.4l0,-20.4l-14.4,0l7.2,-1.08l-7.2,-0.12l0,1.2l0,-2.4l7.2,0l0,2.4l-28.8,0l0,-1.32l7.2,0.12l-7.2,-0.12l0,-1.08l7.2,0l0,2.4" style="fill:none;stroke:#000;stroke-width:2px;"/></svg>