<?xml version="1.0" encoding="UTF-8" standalone="no"?><!DOCTYPE svg PUBLIC "-//W3C//DTD SVG 1.1//EN" "http://www.w3.org/Graphics/SVG/1.1/DTD/svg11.dtd"><svg width="100%" height="100%" viewBox="0 0 120 120" version="1.1" xmlns="http://www.w3.org/2000/svg" xmlns:xlink="http://www.w3.org/1999/xlink" xml:space="preserve" xmlns:serif="http://www.serif.com/" style="fill-rule:evenodd;clip-rule:evenodd;stroke-linecap:round;stroke-linejoin:round;stroke-miterlimit:1.5;"><rect x="45.402" y="24" width="29.196" height="72" style="fill:#4eb84b;stroke:#000;stroke-width:2px;"/><rect x="48.866" y="24" width="22.268" height="72" style="fill:#4eb84b;stroke:#000;stroke-width:2px;"/><circle cx="60" cy="33.649" r="2.474" style="fill:none;stroke:#fff;stroke-width:2px;"/><path d="M63.216,56.412l0,0.028" style="fill:none;stroke:#000;stroke-width:2px;"/><path d="M65.691,56.412l-0,0.028" style="fill:none;stroke:#000;stroke-width:2px;"/><path d="M68.165,56.412l-0,0.028" style="fill:none;stroke:#000;stroke-width:2px;"/><path d="M63.216,68.784l0,0.027" style="fill:none;stroke:#000;stroke-width:2px;"/><path d="M65.691,68.784l-0,0.027" style="fill:none;stroke:#000;stroke-width:2px;"/><path d="M68.165,68.784l-0,0.027" style="fill:none;stroke:#000;stroke-width:2px;"/><path d="M63.216,81.155l0,0.027" style="fill:none;stroke:#000;stroke-width:2px;"/><path d="M65.691,81.155l-0,0.027" style="fill:none;stroke:#000;stroke-width:2px;"/><path d="M68.165,81.155l-0,0.027" style="fill:none;stroke:#000;stroke-width:2px;"/><path d="M63.216,93.526l0,0.027" style="fill:none;stroke:#000;stroke-width:2px;"/><path d="M65.691,93.526l-0,0.027" style="fill:none;stroke:#000;stroke-width:2px;"/><path d="M68.165,93.526l-0,0.027" style="fill:none;stroke:#000;stroke-width:2px;"/><path d="M45.402,45.773l29.196,0" style="fill:none;stroke:#000;stroke-width:2px;"/><path d="M45.402,59.381l29.196,0" style="fill:none;stroke:#000;stroke-width:2px;"/><path d="M45.402,71.753l29.196,-0" style="fill:none;stroke:#000;stroke-width:2px;"/><path d="M45.402,84.124l29.196,-0" style="fill:none;stroke:#000;stroke-width:2px;"/></svg>