<?xml version="1.0" encoding="UTF-8" standalone="no"?><!DOCTYPE svg PUBLIC "-//W3C//DTD SVG 1.1//EN" "http://www.w3.org/Graphics/SVG/1.1/DTD/svg11.dtd"><svg width="100%" height="100%" viewBox="0 0 120 120" version="1.1" xmlns="http://www.w3.org/2000/svg" xmlns:xlink="http://www.w3.org/1999/xlink" xml:space="preserve" xmlns:serif="http://www.serif.com/" style="fill-rule:evenodd;clip-rule:evenodd;stroke-linecap:round;stroke-linejoin:round;stroke-miterlimit:1.5;"><path d="M35.28,49.2l-2.88,-0.72l-2.4,-0l-0,-4.8l2.4,-0l2.88,-0.72" style="fill:#fff;stroke:#000;stroke-width:2px;"/><path d="M85.44,95.76l-50.88,-0c0,-0 -1.44,-0.064 -1.44,-2.64c0,-2.576 1.44,-2.64 1.44,-2.64l0,-5.04c-6.006,-1.566 -8.64,-5.464 -8.64,-10.08c0,-4.616 1.655,-5.76 1.655,-5.76l-0,-14.88c-0,-2.083 1.542,-3.6 3.625,-3.6l4.08,0l0,-9.84l-0.24,-2.88l6.72,-14.4l36.48,0l6.72,14.4l-0.24,2.88l0,9.84l4.08,0c2.083,0 3.625,1.517 3.625,3.6l0,14.88c0,0 1.655,1.144 1.655,5.76c0,4.616 -2.634,8.514 -8.64,10.08l0,5.04c0,-0 1.44,0.064 1.44,2.64c0,2.576 -1.44,2.64 -1.44,2.64Zm-33.36,-66.84c0,-0.861 -0.699,-1.56 -1.56,-1.56l-3.36,-0c-0.861,-0 -1.56,0.699 -1.56,1.56c0,0.861 0.699,1.56 1.56,1.56l3.36,0c0.861,0 1.56,-0.699 1.56,-1.56Zm22.32,0c-0,-0.861 -0.699,-1.56 -1.56,-1.56l-3.36,-0c-0.861,-0 -1.56,0.699 -1.56,1.56c0,0.861 0.699,1.56 1.56,1.56l3.36,0c0.861,0 1.56,-0.699 1.56,-1.56Zm-26.4,7.98l-0,2.22l24,-0l-0.006,-2.22l0.006,-0c-0,-0.061 -0.002,-0.121 -0.006,-0.18c-0.093,-1.34 -1.211,-2.4 -2.574,-2.4l-18.84,-0c-1.424,-0 -2.58,1.156 -2.58,2.58Z" style="fill:#4eb84b;stroke:#000;stroke-width:2px;"/><path d="M30,46.08c-7.642,0 -11.566,1.761 -12.24,10.56c-0.663,8.657 -0.96,11.477 -0.96,20.16" style="fill:none;stroke:#000;stroke-width:2px;"/><path d="M14.997,76.8l3.6,0c1.205,0 1.44,0.545 1.44,1.68l0,2.4l-0.48,0.24l0,0.72l0.501,0.5l-0,2.62l0.422,0.422l-0,3.898l-7.365,0l0,-3.898l0.422,-0.422l0,-2.62l0.5,-0.5l0,-0.72l-0.48,-0.24l0,-2.4c0,-1.135 0.236,-1.68 1.44,-1.68Z" style="fill:#fff;stroke:#000;stroke-width:2px;"/></svg>