<?xml version="1.0" encoding="UTF-8" standalone="no"?><!DOCTYPE svg PUBLIC "-//W3C//DTD SVG 1.1//EN" "http://www.w3.org/Graphics/SVG/1.1/DTD/svg11.dtd"><svg width="100%" height="100%" viewBox="0 0 120 120" version="1.1" xmlns="http://www.w3.org/2000/svg" xmlns:xlink="http://www.w3.org/1999/xlink" xml:space="preserve" xmlns:serif="http://www.serif.com/" style="fill-rule:evenodd;clip-rule:evenodd;stroke-linecap:round;stroke-linejoin:round;stroke-miterlimit:1.5;"><path d="M96,35.76l0,48.48c0,1.192 -0.968,2.16 -2.16,2.16l-67.68,-0c-1.192,-0 -2.16,-0.968 -2.16,-2.16l0,-48.48c0,-1.192 0.968,-2.16 2.16,-2.16l67.68,-0c1.192,-0 2.16,0.968 2.16,2.16Z" style="fill:#4eb84b;stroke:#000;stroke-width:2px;"/><path d="M72.48,72c-0,1.59 -1.29,2.88 -2.88,2.88l-19.2,-0c-1.59,-0 -2.88,-1.29 -2.88,-2.88c0,-1.59 1.29,-2.88 2.88,-2.88l19.2,-0c1.59,-0 2.88,1.29 2.88,2.88Z" style="fill:#fff;stroke:#000;stroke-width:2px;"/></svg>