<?xml version="1.0" encoding="UTF-8" standalone="no"?><!DOCTYPE svg PUBLIC "-//W3C//DTD SVG 1.1//EN" "http://www.w3.org/Graphics/SVG/1.1/DTD/svg11.dtd"><svg width="100%" height="100%" viewBox="0 0 120 120" version="1.1" xmlns="http://www.w3.org/2000/svg" xmlns:xlink="http://www.w3.org/1999/xlink" xml:space="preserve" xmlns:serif="http://www.serif.com/" style="fill-rule:evenodd;clip-rule:evenodd;stroke-linecap:round;stroke-linejoin:round;stroke-miterlimit:1.5;"><rect x="36" y="24" width="48" height="72" style="fill:#4eb84b;stroke:#000;stroke-width:2px;"/><path d="M73.629,51.531l-0,12.138c-0,0.624 -0.507,1.131 -1.131,1.131l-30.567,0c-0.624,0 -1.131,-0.507 -1.131,-1.131l-0,-12.138c-0,-0.624 0.507,-1.131 1.131,-1.131l30.567,0c0.624,0 1.131,0.507 1.131,1.131Z" style="fill:#fff;stroke:#000;stroke-width:2px;"/><path d="M36,45.6l48,0" style="fill:none;stroke:#000;stroke-width:2px;"/><path d="M36,74.4l48,0" style="fill:none;stroke:#000;stroke-width:2px;"/><path d="M54,37.2l12,-0" style="fill:none;stroke:#000;stroke-width:2px;"/><path d="M54,82.8l12,0" style="fill:none;stroke:#000;stroke-width:2px;"/><rect x="68.88" y="68.16" width="4.8" height="3.12" style="fill:#fff;stroke:#000;stroke-width:2px;"/></svg>