<?xml version="1.0" encoding="UTF-8" standalone="no"?><!DOCTYPE svg PUBLIC "-//W3C//DTD SVG 1.1//EN" "http://www.w3.org/Graphics/SVG/1.1/DTD/svg11.dtd"><svg width="100%" height="100%" viewBox="0 0 120 120" version="1.1" xmlns="http://www.w3.org/2000/svg" xmlns:xlink="http://www.w3.org/1999/xlink" xml:space="preserve" xmlns:serif="http://www.serif.com/" style="fill-rule:evenodd;clip-rule:evenodd;stroke-linecap:round;stroke-linejoin:round;stroke-miterlimit:1.5;"><rect x="35.52" y="24" width="48.96" height="72" style="fill:#4eb84b;stroke:#000;stroke-width:2px;"/><path d="M35.52,36l48.96,0" style="fill:none;stroke:#000;stroke-width:2px;"/><path d="M35.52,45.6l48.96,0" style="fill:none;stroke:#000;stroke-width:2px;"/><path d="M35.52,74.4l48.96,0" style="fill:none;stroke:#000;stroke-width:2px;"/><path d="M35.52,84l48.96,0" style="fill:none;stroke:#000;stroke-width:2px;"/><circle cx="42.014" cy="30" r="2.4" style="fill:#fff;stroke:#000;stroke-width:2px;"/><circle cx="54.014" cy="30" r="2.4" style="fill:#fff;stroke:#000;stroke-width:2px;"/><circle cx="66.014" cy="30" r="2.4" style="fill:#fff;stroke:#000;stroke-width:2px;"/><circle cx="78.014" cy="30" r="2.4" style="fill:#fff;stroke:#000;stroke-width:2px;"/><circle cx="42.014" cy="90" r="2.4" style="fill:#fff;stroke:#000;stroke-width:2px;"/><circle cx="54.014" cy="90" r="2.4" style="fill:#fff;stroke:#000;stroke-width:2px;"/><circle cx="66.014" cy="90" r="2.4" style="fill:#fff;stroke:#000;stroke-width:2px;"/><circle cx="78.014" cy="90" r="2.4" style="fill:#fff;stroke:#000;stroke-width:2px;"/><rect x="40.8" y="50.4" width="38.4" height="14.4" style="fill:#fff;stroke:#000;stroke-width:2px;"/><path d="M42.96,68.64l0.021,0" style="fill:none;stroke:#000;stroke-width:2px;"/><path d="M48.48,68.64l0.021,0" style="fill:none;stroke:#000;stroke-width:2px;"/><path d="M57.12,68.64l3.12,0" style="fill:none;stroke:#000;stroke-width:2px;"/></svg>