<?xml version="1.0" encoding="UTF-8" standalone="no"?><!DOCTYPE svg PUBLIC "-//W3C//DTD SVG 1.1//EN" "http://www.w3.org/Graphics/SVG/1.1/DTD/svg11.dtd"><svg width="100%" height="100%" viewBox="0 0 120 120" version="1.1" xmlns="http://www.w3.org/2000/svg" xmlns:xlink="http://www.w3.org/1999/xlink" xml:space="preserve" xmlns:serif="http://www.serif.com/" style="fill-rule:evenodd;clip-rule:evenodd;stroke-linecap:round;stroke-linejoin:round;stroke-miterlimit:1.5;"><path d="M64.596,47.977l10.175,-0c1.032,-0 1.87,0.838 1.87,1.87l-0,26.773c-0,1.033 -0.838,1.87 -1.87,1.87l-29.986,0c-1.032,0 -1.87,-0.837 -1.87,-1.87l-0,-26.773c-0,-1.032 0.838,-1.87 1.87,-1.87l10.175,-0l-0,-4.015c-0,-1.33 1.079,-2.409 2.409,-2.409l4.818,-0c1.329,-0 2.409,1.079 2.409,2.409l-0,4.015Z" style="fill:#4eb84b;stroke:#000;stroke-width:2px;"/><rect x="47.99" y="56.528" width="23.578" height="14.077" style="fill:#fff;stroke:#000;stroke-width:2px;"/><path d="M76.743,64.591l5.675,-0" style="fill:none;stroke:#000;stroke-width:2px;"/><path d="M76.743,68.462l3.916,-0" style="fill:none;stroke:#000;stroke-width:2px;"/><path d="M76.787,72.685l15.133,-0" style="fill:none;stroke:#000;stroke-width:2px;"/><path d="M42.915,68.396l-5.542,-0" style="fill:none;stroke:#000;stroke-width:2px;"/><path d="M42.915,64.591l-5.542,-0" style="fill:none;stroke:#000;stroke-width:2px;"/><path d="M42.915,53.329l-12.229,0c-1.283,0 -3.519,0.574 -3.519,3.966c0,10.321 0,4.293 0,4.293" style="fill:none;stroke:#000;stroke-width:2px;"/><path d="M76.68,53.342l4.54,-0l-0,-1.408l1.187,-1.188l4.443,0l0.607,-0.607l2.209,0l0.449,0.45l2.718,0l-0,0.641l3.167,0l-0,4.223l-3.167,0l-0,0.641l-2.718,-0l-0.449,0.45l-2.209,-0l-0.607,-0.607l-4.443,-0l-1.187,-1.188l-0,-1.407" style="fill:#fff;stroke:#000;stroke-width:2px;"/><path d="M27.202,61.302l1.408,0l1.187,1.188l0,4.443l0.607,0.607l0,2.208l-0.45,0.45l0,2.717l-0.64,0l-0,3.168l-4.223,-0l-0,-3.168l-0.641,0l-0,-2.717l-0.45,-0.45l-0,-2.208l0.607,-0.607l-0,-4.443l1.187,-1.188l1.408,0" style="fill:#fff;stroke:#000;stroke-width:2px;"/><path d="M59.778,45.764l0,1.759" style="fill:none;stroke:#000;stroke-width:2px;"/></svg>