<?xml version="1.0" encoding="UTF-8" standalone="no"?><!DOCTYPE svg PUBLIC "-//W3C//DTD SVG 1.1//EN" "http://www.w3.org/Graphics/SVG/1.1/DTD/svg11.dtd"><svg width="100%" height="100%" viewBox="0 0 120 120" version="1.1" xmlns="http://www.w3.org/2000/svg" xmlns:xlink="http://www.w3.org/1999/xlink" xml:space="preserve" xmlns:serif="http://www.serif.com/" style="fill-rule:evenodd;clip-rule:evenodd;stroke-linecap:round;stroke-linejoin:round;stroke-miterlimit:1.5;"><rect x="45.6" y="24" width="28.8" height="72" style="fill:#4eb84b;stroke:#000;stroke-width:2px;"/><path d="M45.6,36l28.8,0" style="fill:none;stroke:#000;stroke-width:2px;"/><path d="M45.6,43.2l28.8,0" style="fill:none;stroke:#000;stroke-width:2px;"/><path d="M45.6,76.8l28.8,0" style="fill:none;stroke:#000;stroke-width:2px;"/><path d="M45.6,84l28.8,0" style="fill:none;stroke:#000;stroke-width:2px;"/><path d="M49.405,64.32l8.315,0l0,4.814l-1.532,0l0,1.313l-1.313,0l0,1.313l-2.626,-0l0,-1.313l-1.313,0l0,-1.313l-1.531,0l-0,-4.814l8.315,-0" style="fill:#fff;stroke:#000;stroke-width:2px;"/><path d="M62.16,49.8l-0,4.8c-0,1.258 -1.022,2.28 -2.28,2.28c-1.258,-0 -2.28,-1.022 -2.28,-2.28l-0,-4.8c-0,-1.258 1.022,-2.28 2.28,-2.28c1.258,-0 2.28,1.022 2.28,2.28Z" style="fill:#fff;stroke:#000;stroke-width:2px;"/><path d="M62.245,64.32l8.315,-0l-0,4.814l-1.532,0l0,1.313l-1.313,0l0,1.313l-2.626,-0l0,-1.313l-1.313,0l0,-1.313l-1.531,0l-0,-4.814l8.315,-0" style="fill:#fff;stroke:#000;stroke-width:2px;"/><circle cx="52.56" cy="90" r="2.76" style="fill:#fff;stroke:#000;stroke-width:2px;"/><circle cx="67.44" cy="90" r="2.76" style="fill:#fff;stroke:#000;stroke-width:2px;"/><circle cx="52.56" cy="30" r="2.76" style="fill:#fff;stroke:#000;stroke-width:2px;"/><circle cx="67.44" cy="30" r="2.76" style="fill:#fff;stroke:#000;stroke-width:2px;"/><path d="M49.2,80.4l0,-0.031" style="fill:none;stroke:#000;stroke-width:2px;"/><path d="M53.52,80.4l-0,-0.031" style="fill:none;stroke:#000;stroke-width:2px;"/><path d="M57.84,80.4l0,-0.031" style="fill:none;stroke:#000;stroke-width:2px;"/><path d="M62.16,80.4l-0,-0.031" style="fill:none;stroke:#000;stroke-width:2px;"/><path d="M66.48,80.4l0,-0.031" style="fill:none;stroke:#000;stroke-width:2px;"/><path d="M70.8,80.4l0,-0.031" style="fill:none;stroke:#000;stroke-width:2px;"/></svg>