<?xml version="1.0" encoding="UTF-8" standalone="no"?><!DOCTYPE svg PUBLIC "-//W3C//DTD SVG 1.1//EN" "http://www.w3.org/Graphics/SVG/1.1/DTD/svg11.dtd"><svg width="100%" height="100%" viewBox="0 0 120 120" version="1.1" xmlns="http://www.w3.org/2000/svg" xmlns:xlink="http://www.w3.org/1999/xlink" xml:space="preserve" xmlns:serif="http://www.serif.com/" style="fill-rule:evenodd;clip-rule:evenodd;stroke-linecap:round;stroke-linejoin:round;stroke-miterlimit:1.5;"><rect x="30" y="24" width="60" height="72" style="fill:#4eb84b;stroke:#000;stroke-width:2px;"/><path d="M30,43.2l60,0" style="fill:none;stroke:#000;stroke-width:2px;"/><path d="M30,76.8l60,0" style="fill:none;stroke:#000;stroke-width:2px;"/><rect x="36" y="49.2" width="33.6" height="21.6" style="fill:#fff;stroke:#000;stroke-width:2px;"/><circle cx="80.4" cy="53.28" r="3.6" style="fill:#fff;stroke:#000;stroke-width:2px;"/><path d="M80.4,63.12c1.987,-0 3.6,1.613 3.6,3.6c0,1.281 -0.836,2.201 -1.68,3.045c-0.02,0.02 0,3.435 0,3.435l-3.84,0c0,0 0.019,-3.416 0,-3.435c-0.844,-0.844 -1.68,-1.764 -1.68,-3.045c0,-1.987 1.613,-3.6 3.6,-3.6Z" style="fill:#fff;stroke:#000;stroke-width:2px;"/></svg>