<?xml version="1.0" encoding="UTF-8" standalone="no"?><!DOCTYPE svg PUBLIC "-//W3C//DTD SVG 1.1//EN" "http://www.w3.org/Graphics/SVG/1.1/DTD/svg11.dtd"><svg width="100%" height="100%" viewBox="0 0 120 120" version="1.1" xmlns="http://www.w3.org/2000/svg" xmlns:xlink="http://www.w3.org/1999/xlink" xml:space="preserve" xmlns:serif="http://www.serif.com/" style="fill-rule:evenodd;clip-rule:evenodd;stroke-linecap:round;stroke-linejoin:round;stroke-miterlimit:1.5;"><rect x="30" y="24" width="60" height="72" style="fill:#4eb84b;stroke:#000;stroke-width:2px;"/><path d="M30,33.6l60,-0" style="fill:none;stroke:#000;stroke-width:2px;"/><path d="M30,43.2l60,-0" style="fill:none;stroke:#000;stroke-width:2px;"/><path d="M30,76.791l60,0" style="fill:none;stroke:#000;stroke-width:2px;"/><path d="M30,86.391l60,0" style="fill:none;stroke:#000;stroke-width:2px;"/><path d="M79.2,91.2c-0,0.927 -0.753,1.68 -1.68,1.68l-35.04,-0c-0.927,-0 -1.68,-0.753 -1.68,-1.68c-0,-0.927 0.753,-1.68 1.68,-1.68l35.04,0c0.927,0 1.68,0.753 1.68,1.68Z" style="fill:#fff;stroke:#000;stroke-width:2px;"/><path d="M79.2,28.8c-0,0.927 -0.753,1.68 -1.68,1.68l-35.04,-0c-0.927,-0 -1.68,-0.753 -1.68,-1.68c-0,-0.927 0.753,-1.68 1.68,-1.68l35.04,-0c0.927,-0 1.68,0.753 1.68,1.68Z" style="fill:#fff;stroke:#000;stroke-width:2px;"/><path d="M86.88,28.8c-0,0.927 -0.753,1.68 -1.68,1.68c-0.927,0 -1.68,-0.753 -1.68,-1.68c-0,-0.927 0.753,-1.68 1.68,-1.68c0.927,0 1.68,0.753 1.68,1.68Z" style="fill:#fff;stroke:#000;stroke-width:2px;"/><path d="M36.48,28.8c0,0.927 -0.753,1.68 -1.68,1.68c-0.927,0 -1.68,-0.753 -1.68,-1.68c-0,-0.927 0.753,-1.68 1.68,-1.68c0.927,0 1.68,0.753 1.68,1.68Z" style="fill:#fff;stroke:#000;stroke-width:2px;"/><path d="M86.88,91.2c-0,0.927 -0.753,1.68 -1.68,1.68c-0.927,-0 -1.68,-0.753 -1.68,-1.68c-0,-0.927 0.753,-1.68 1.68,-1.68c0.927,0 1.68,0.753 1.68,1.68Z" style="fill:#fff;stroke:#000;stroke-width:2px;"/><path d="M36.48,91.2c0,0.927 -0.753,1.68 -1.68,1.68c-0.927,-0 -1.68,-0.753 -1.68,-1.68c-0,-0.927 0.753,-1.68 1.68,-1.68c0.927,0 1.68,0.753 1.68,1.68Z" style="fill:#fff;stroke:#000;stroke-width:2px;"/><path d="M45,43.2l0,2.4" style="fill:none;stroke:#000;stroke-width:2px;"/><path d="M51,43.2l0,2.4" style="fill:none;stroke:#000;stroke-width:2px;"/><path d="M57,43.2l0,2.4" style="fill:none;stroke:#000;stroke-width:2px;"/><path d="M63,43.2l0,2.4" style="fill:none;stroke:#000;stroke-width:2px;"/><path d="M69,43.2l0,2.4" style="fill:none;stroke:#000;stroke-width:2px;"/><path d="M75,43.2l0,2.4" style="fill:none;stroke:#000;stroke-width:2px;"/><path d="M45,74.4l0,2.4" style="fill:none;stroke:#000;stroke-width:2px;"/><path d="M51,74.4l0,2.4" style="fill:none;stroke:#000;stroke-width:2px;"/><path d="M57,74.4l0,2.4" style="fill:none;stroke:#000;stroke-width:2px;"/><path d="M63,74.4l0,2.4" style="fill:none;stroke:#000;stroke-width:2px;"/><path d="M69,74.4l0,2.4" style="fill:none;stroke:#000;stroke-width:2px;"/><path d="M75,74.4l0,2.4" style="fill:none;stroke:#000;stroke-width:2px;"/></svg>