<?xml version="1.0" encoding="UTF-8" standalone="no"?><!DOCTYPE svg PUBLIC "-//W3C//DTD SVG 1.1//EN" "http://www.w3.org/Graphics/SVG/1.1/DTD/svg11.dtd"><svg width="100%" height="100%" viewBox="0 0 120 120" version="1.1" xmlns="http://www.w3.org/2000/svg" xmlns:xlink="http://www.w3.org/1999/xlink" xml:space="preserve" xmlns:serif="http://www.serif.com/" style="fill-rule:evenodd;clip-rule:evenodd;stroke-linecap:round;stroke-linejoin:round;stroke-miterlimit:1.5;"><path d="M40.606,42.505l0,-8.905l38.507,0l0,8.905l-9.627,-0l0,-4.332l-19.253,-0l-0,4.332l-9.627,-0Z" style="fill:#4eb84b;stroke:#000;stroke-width:2px;"/><path d="M24,72.829l6.979,-0" style="fill:none;stroke:#000;stroke-width:2px;"/><path d="M24,68.978l5.776,0" style="fill:none;stroke:#000;stroke-width:2px;"/><path d="M30.979,50.206l-6.979,0" style="fill:none;stroke:#000;stroke-width:2px;"/><path d="M30.979,55.501l-6.979,-0" style="fill:none;stroke:#000;stroke-width:2px;"/><path d="M30.979,46.355l-5.776,0" style="fill:none;stroke:#000;stroke-width:2px;"/><path d="M30.979,42.505l57.761,-0l-0,41.154l-38.507,0l-0,4.332l-19.254,0l0,-45.486Z" style="fill:#4eb84b;stroke:#000;stroke-width:2px;"/><path d="M88.74,72.829l6.979,-0" style="fill:none;stroke:#000;stroke-width:2px;"/><path d="M88.74,68.978l5.776,0" style="fill:none;stroke:#000;stroke-width:2px;"/><path d="M95.719,50.206l-6.979,0" style="fill:none;stroke:#000;stroke-width:2px;"/><path d="M95.719,46.355l-5.776,0" style="fill:none;stroke:#000;stroke-width:2px;"/><path d="M88.74,75.958l3.722,-0l1.091,1.091l0,2.037l-1.084,1.084l-3.729,0l-0,-4.212Z" style="fill:#4eb84b;stroke:#000;stroke-width:2px;"/><path d="M100.773,78.165l0,-1.925l1.005,-1.004l8.622,-0l0,5.859l-8.622,-0l-1.005,-1.004l0,-1.926l-7.22,-0.041" style="fill:#fff;stroke:#000;stroke-width:2px;"/><path d="M46.262,33.6l-0,3.129l-1.685,-0l0,2.888" style="fill:none;stroke:#000;stroke-width:2px;"/><path d="M75.142,33.6l0,3.129l-1.685,-0l0,2.888" style="fill:none;stroke:#000;stroke-width:2px;"/></svg>