<?xml version="1.0" encoding="UTF-8" standalone="no"?><!DOCTYPE svg PUBLIC "-//W3C//DTD SVG 1.1//EN" "http://www.w3.org/Graphics/SVG/1.1/DTD/svg11.dtd"><svg width="100%" height="100%" viewBox="0 0 120 120" version="1.1" xmlns="http://www.w3.org/2000/svg" xmlns:xlink="http://www.w3.org/1999/xlink" xml:space="preserve" xmlns:serif="http://www.serif.com/" style="fill-rule:evenodd;clip-rule:evenodd;stroke-linecap:round;stroke-linejoin:round;stroke-miterlimit:1.5;"><rect x="30.96" y="24" width="57.6" height="72" style="fill:#4eb84b;stroke:#000;stroke-width:2px;"/><path d="M76.8,63.822l0,12.516c0,1.182 -0.96,2.142 -2.142,2.142l-29.316,0c-1.182,0 -2.142,-0.96 -2.142,-2.142l0,-12.516c0,-1.182 0.96,-2.142 2.142,-2.142l29.316,-0c1.182,-0 2.142,0.96 2.142,2.142Z" style="fill:#fff;stroke:#000;stroke-width:2px;"/><path d="M54.061,64.8l0,0.018" style="fill:none;stroke:#000;stroke-width:2px;"/><path d="M61.981,64.8l0,0.018" style="fill:none;stroke:#000;stroke-width:2px;"/><path d="M65.941,64.8l0,0.018" style="fill:none;stroke:#000;stroke-width:2px;"/><path d="M58.021,64.8l0,0.018" style="fill:none;stroke:#000;stroke-width:2px;"/><rect x="54" y="68.16" width="12" height="3.6" style="fill:#4eb84b;stroke:#000;stroke-width:2px;"/></svg>