<?xml version="1.0" encoding="UTF-8" standalone="no"?><!DOCTYPE svg PUBLIC "-//W3C//DTD SVG 1.1//EN" "http://www.w3.org/Graphics/SVG/1.1/DTD/svg11.dtd"><svg width="100%" height="100%" viewBox="0 0 120 120" version="1.1" xmlns="http://www.w3.org/2000/svg" xmlns:xlink="http://www.w3.org/1999/xlink" xml:space="preserve" xmlns:serif="http://www.serif.com/" style="fill-rule:evenodd;clip-rule:evenodd;stroke-linecap:round;stroke-linejoin:round;stroke-miterlimit:1.5;"><path d="M82.8,27.276l0,65.448c0,1.808 -1.468,3.276 -3.276,3.276l-39.048,0c-1.808,0 -3.276,-1.468 -3.276,-3.276l0,-65.448c0,-1.808 1.468,-3.276 3.276,-3.276l39.048,-0c1.808,-0 3.276,1.468 3.276,3.276Z" style="fill:#4eb84b;stroke:#000;stroke-width:2px;"/><path d="M66.109,63.709l-12.218,0c-1.621,-1.62 -2.531,-3.818 -2.531,-6.109c-0,-4.769 3.871,-8.64 8.64,-8.64c4.769,-0 8.64,3.871 8.64,8.64c0,2.291 -0.91,4.489 -2.531,6.109Z" style="fill:#fff;stroke:#000;stroke-width:2px;"/><rect x="56.16" y="54.24" width="7.68" height="4.8" style="fill:#4eb84b;stroke:#000;stroke-width:2px;"/><path d="M37.2,73.44l45.36,0" style="fill:none;stroke:#000;stroke-width:2px;"/></svg>