<?xml version="1.0" encoding="UTF-8" standalone="no"?><!DOCTYPE svg PUBLIC "-//W3C//DTD SVG 1.1//EN" "http://www.w3.org/Graphics/SVG/1.1/DTD/svg11.dtd"><svg width="100%" height="100%" viewBox="0 0 120 120" version="1.1" xmlns="http://www.w3.org/2000/svg" xmlns:xlink="http://www.w3.org/1999/xlink" xml:space="preserve" xmlns:serif="http://www.serif.com/" style="fill-rule:evenodd;clip-rule:evenodd;stroke-linecap:round;stroke-linejoin:round;stroke-miterlimit:1.5;"><path d="M78.602,30.75l0,58.5c0,3.725 -3.024,6.75 -6.75,6.75l-23.704,0c-3.726,0 -6.75,-3.025 -6.75,-6.75l-0,-58.5c-0,-3.725 3.024,-6.75 6.75,-6.75l23.704,0c3.726,0 6.75,3.025 6.75,6.75Z" style="fill:#4eb84b;stroke:#000;stroke-width:2px;"/><path d="M78.602,62.4l-37.204,0l-0,-14.88l3.962,0l-0,6.7l1.461,1.199l1.419,-1.179l-0,-6.72l23.52,0l-0,6.72l1.419,1.179l1.461,-1.199l0,-6.7l3.962,0l0,14.88Z" style="fill:#fff;stroke:#000;stroke-width:2px;"/><rect x="55.92" y="54.24" width="12" height="3.6" style="fill:#4eb84b;stroke:#000;stroke-width:2px;"/></svg>