<?xml version="1.0" encoding="UTF-8" standalone="no"?><!DOCTYPE svg PUBLIC "-//W3C//DTD SVG 1.1//EN" "http://www.w3.org/Graphics/SVG/1.1/DTD/svg11.dtd"><svg width="100%" height="100%" viewBox="0 0 120 120" version="1.1" xmlns="http://www.w3.org/2000/svg" xmlns:xlink="http://www.w3.org/1999/xlink" xml:space="preserve" xmlns:serif="http://www.serif.com/" style="fill-rule:evenodd;clip-rule:evenodd;stroke-linecap:round;stroke-linejoin:round;stroke-miterlimit:1.5;"><rect x="31.2" y="24" width="57.6" height="72" style="fill:#4eb84b;stroke:#000;stroke-width:2px;"/><path d="M31.2,40.8l57.6,-0" style="fill:none;stroke:#000;stroke-width:2px;"/><path d="M31.2,79.2l57.6,0" style="fill:none;stroke:#000;stroke-width:2px;"/><path d="M75.6,53.894l-0,12.212c-0,0.604 -0.49,1.094 -1.094,1.094l-29.012,0c-0.604,0 -1.094,-0.49 -1.094,-1.094l-0,-12.212c-0,-0.604 0.49,-1.094 1.094,-1.094l29.012,0c0.604,0 1.094,0.49 1.094,1.094Z" style="fill:#fff;stroke:#000;stroke-width:2px;"/><circle cx="82.2" cy="55.56" r="3" style="fill:#fff;stroke:#000;stroke-width:2px;"/><circle cx="82.2" cy="64.44" r="3" style="fill:#fff;stroke:#000;stroke-width:2px;"/><ellipse cx="40.8" cy="30" rx="4.8" ry="2.4" style="fill:#fff;stroke:#000;stroke-width:2px;"/><ellipse cx="79.2" cy="30" rx="4.8" ry="2.4" style="fill:#fff;stroke:#000;stroke-width:2px;"/><ellipse cx="40.8" cy="90" rx="4.8" ry="2.4" style="fill:#fff;stroke:#000;stroke-width:2px;"/><ellipse cx="79.2" cy="90" rx="4.8" ry="2.4" style="fill:#fff;stroke:#000;stroke-width:2px;"/><path d="M40.8,87.6l-0,4.8" style="fill:none;stroke:#000;stroke-width:2px;"/><path d="M79.2,87.6l-0,4.8" style="fill:none;stroke:#000;stroke-width:2px;"/><path d="M40.8,27.6l-0,4.8" style="fill:none;stroke:#000;stroke-width:2px;"/><path d="M79.2,27.6l-0,4.8" style="fill:none;stroke:#000;stroke-width:2px;"/></svg>