<?xml version="1.0" encoding="UTF-8" standalone="no"?><!DOCTYPE svg PUBLIC "-//W3C//DTD SVG 1.1//EN" "http://www.w3.org/Graphics/SVG/1.1/DTD/svg11.dtd"><svg width="100%" height="100%" viewBox="0 0 120 120" version="1.1" xmlns="http://www.w3.org/2000/svg" xmlns:xlink="http://www.w3.org/1999/xlink" xml:space="preserve" xmlns:serif="http://www.serif.com/" style="fill-rule:evenodd;clip-rule:evenodd;stroke-linecap:round;stroke-linejoin:round;stroke-miterlimit:1.5;"><rect x="35.52" y="24" width="48.96" height="72" style="fill:#4eb84b;stroke:#000;stroke-width:2px;"/><g><rect x="40.8" y="50.4" width="30.24" height="18.48" style="fill:#fff;stroke:#000;stroke-width:2px;"/><rect x="76.8" y="47.76" width="4.8" height="3.36" style="fill:#fff;stroke:#000;stroke-width:2px;"/><rect x="73.92" y="54.72" width="4.8" height="3.36" style="fill:#fff;stroke:#000;stroke-width:2px;"/><rect x="77.04" y="61.68" width="4.8" height="3.36" style="fill:#fff;stroke:#000;stroke-width:2px;"/><rect x="73.92" y="68.64" width="4.8" height="3.36" style="fill:#fff;stroke:#000;stroke-width:2px;"/><circle cx="47.04" cy="30.96" r="2.16" style="fill:#fff;stroke:#000;stroke-width:2px;"/><circle cx="55.68" cy="30.96" r="2.16" style="fill:#fff;stroke:#000;stroke-width:2px;"/><circle cx="64.32" cy="30.96" r="2.16" style="fill:#fff;stroke:#000;stroke-width:2px;"/><circle cx="72.96" cy="30.96" r="2.16" style="fill:#fff;stroke:#000;stroke-width:2px;"/><circle cx="47.04" cy="87.84" r="2.16" style="fill:#fff;stroke:#000;stroke-width:2px;"/><circle cx="55.68" cy="87.84" r="2.16" style="fill:#fff;stroke:#000;stroke-width:2px;"/><circle cx="64.32" cy="87.84" r="2.16" style="fill:#fff;stroke:#000;stroke-width:2px;"/><circle cx="72.96" cy="87.84" r="2.16" style="fill:#fff;stroke:#000;stroke-width:2px;"/></g><path d="M35.52,36.72l48.96,0" style="fill:none;stroke:#000;stroke-width:2px;"/><path d="M35.52,45.12l48.96,0" style="fill:none;stroke:#000;stroke-width:2px;"/><path d="M35.52,82.08l48.96,0" style="fill:none;stroke:#000;stroke-width:2px;"/><path d="M35.52,76.08l48.96,0" style="fill:none;stroke:#000;stroke-width:2px;"/><path d="M48,41.4l-0,0.021" style="fill:none;stroke:#000;stroke-width:2px;"/><path d="M51.6,41.4l-0,0.021" style="fill:none;stroke:#000;stroke-width:2px;"/><path d="M55.2,41.4l-0,0.021" style="fill:none;stroke:#000;stroke-width:2px;"/><path d="M58.8,41.4l-0,0.021" style="fill:none;stroke:#000;stroke-width:2px;"/><path d="M62.4,41.4l-0,0.021" style="fill:none;stroke:#000;stroke-width:2px;"/><path d="M66,41.4l-0,0.021" style="fill:none;stroke:#000;stroke-width:2px;"/><path d="M69.6,41.4l-0,0.021" style="fill:none;stroke:#000;stroke-width:2px;"/></svg>