<?xml version="1.0" encoding="UTF-8" standalone="no"?><!DOCTYPE svg PUBLIC "-//W3C//DTD SVG 1.1//EN" "http://www.w3.org/Graphics/SVG/1.1/DTD/svg11.dtd"><svg width="100%" height="100%" viewBox="0 0 120 120" version="1.1" xmlns="http://www.w3.org/2000/svg" xmlns:xlink="http://www.w3.org/1999/xlink" xml:space="preserve" xmlns:serif="http://www.serif.com/" style="fill-rule:evenodd;clip-rule:evenodd;stroke-linecap:round;stroke-linejoin:round;stroke-miterlimit:1.5;"><use xlink:href="#_Image1" x="0" y="0" width="702px" height="898px" transform="matrix(1.00168,0,0,0.994737,30.4893,22.8)"/><rect x="32.4" y="24" width="55.2" height="72" style="fill:#4eb84b;stroke:#000;stroke-width:2px;"/><g><rect x="38.4" y="50.4" width="36" height="16.8" style="fill:#fff;stroke:#000;stroke-width:2px;"/><circle cx="46.32" cy="30.96" r="2.16" style="fill:#fff;stroke:#000;stroke-width:2px;"/><circle cx="55.44" cy="30.96" r="2.16" style="fill:#fff;stroke:#000;stroke-width:2px;"/><circle cx="64.56" cy="30.96" r="2.16" style="fill:#fff;stroke:#000;stroke-width:2px;"/><circle cx="73.68" cy="30.96" r="2.16" style="fill:#fff;stroke:#000;stroke-width:2px;"/><circle cx="46.32" cy="87.84" r="2.16" style="fill:#fff;stroke:#000;stroke-width:2px;"/><circle cx="55.44" cy="87.84" r="2.16" style="fill:#fff;stroke:#000;stroke-width:2px;"/><circle cx="64.56" cy="87.84" r="2.16" style="fill:#fff;stroke:#000;stroke-width:2px;"/><circle cx="73.68" cy="87.84" r="2.16" style="fill:#fff;stroke:#000;stroke-width:2px;"/></g><path d="M32.4,36.72l55.2,0" style="fill:none;stroke:#000;stroke-width:2px;"/><path d="M32.4,45.12l55.2,0" style="fill:none;stroke:#000;stroke-width:2px;"/><path d="M32.4,82.08l55.2,0" style="fill:none;stroke:#000;stroke-width:2px;"/><path d="M32.4,76.08l55.2,0" style="fill:none;stroke:#000;stroke-width:2px;"/><path d="M45.6,41.4l-0,0.021" style="fill:none;stroke:#000;stroke-width:2px;"/><path d="M49.2,41.4l-0,0.021" style="fill:none;stroke:#000;stroke-width:2px;"/><path d="M52.8,41.4l-0,0.021" style="fill:none;stroke:#000;stroke-width:2px;"/><path d="M56.4,41.4l-0,0.021" style="fill:none;stroke:#000;stroke-width:2px;"/><path d="M60,41.4l-0,0.021" style="fill:none;stroke:#000;stroke-width:2px;"/><path d="M63.6,41.4l-0,0.021" style="fill:none;stroke:#000;stroke-width:2px;"/><path d="M67.2,41.4l-0,0.021" style="fill:none;stroke:#000;stroke-width:2px;"/></svg>