<?xml version="1.0" encoding="UTF-8" standalone="no"?><!DOCTYPE svg PUBLIC "-//W3C//DTD SVG 1.1//EN" "http://www.w3.org/Graphics/SVG/1.1/DTD/svg11.dtd"><svg width="100%" height="100%" viewBox="0 0 120 120" version="1.1" xmlns="http://www.w3.org/2000/svg" xmlns:xlink="http://www.w3.org/1999/xlink" xml:space="preserve" xmlns:serif="http://www.serif.com/" style="fill-rule:evenodd;clip-rule:evenodd;stroke-linecap:round;stroke-linejoin:round;stroke-miterlimit:1.5;"><rect x="52.286" y="24" width="15.429" height="72" style="fill:#4eb84b;stroke:#000;stroke-width:2px;"/><path d="M52.286,33l15.428,0" style="fill:none;stroke:#000;stroke-width:2px;"/><path d="M52.286,40.714l15.428,0" style="fill:none;stroke:#000;stroke-width:2px;"/><path d="M52.286,79.286l15.428,-0" style="fill:none;stroke:#000;stroke-width:2px;"/><path d="M52.286,87l15.428,0" style="fill:none;stroke:#000;stroke-width:2px;"/><rect x="56.4" y="45.6" width="7.2" height="22.114" style="fill:#fff;stroke:#000;stroke-width:2px;"/><path d="M62.571,72.471l0.062,0" style="fill:none;stroke:#000;stroke-width:2px;"/><path d="M59.97,83.113l0,0.03" style="fill:none;stroke:#000;stroke-width:2px;"/><path d="M56.113,83.083l0,0.03" style="fill:none;stroke:#000;stroke-width:2px;"/><path d="M63.827,83.113l0.001,0.03" style="fill:none;stroke:#000;stroke-width:2px;"/><path d="M59.97,36.827l0,0.03" style="fill:none;stroke:#000;stroke-width:2px;"/><path d="M56.113,36.798l0,0.029" style="fill:none;stroke:#000;stroke-width:2px;"/><path d="M57.429,28.599l-0,0.03" style="fill:none;stroke:#000;stroke-width:2px;"/><path d="M62.571,28.599l0,0.03" style="fill:none;stroke:#000;stroke-width:2px;"/><path d="M57.429,90.857l-0,0.03" style="fill:none;stroke:#000;stroke-width:2px;"/><path d="M62.571,90.857l0,0.03" style="fill:none;stroke:#000;stroke-width:2px;"/><path d="M63.827,36.827l0.001,0.03" style="fill:none;stroke:#000;stroke-width:2px;"/></svg>