<?xml version="1.0" encoding="UTF-8" standalone="no"?><!DOCTYPE svg PUBLIC "-//W3C//DTD SVG 1.1//EN" "http://www.w3.org/Graphics/SVG/1.1/DTD/svg11.dtd"><svg width="100%" height="100%" viewBox="0 0 120 120" version="1.1" xmlns="http://www.w3.org/2000/svg" xmlns:xlink="http://www.w3.org/1999/xlink" xml:space="preserve" xmlns:serif="http://www.serif.com/" style="fill-rule:evenodd;clip-rule:evenodd;stroke-linecap:round;stroke-linejoin:round;stroke-miterlimit:1.5;"><path d="M96,40.84l0,38.32c0,1.347 -1.093,2.44 -2.44,2.44l-67.12,0c-1.347,0 -2.44,-1.093 -2.44,-2.44l0,-38.32c0,-1.347 1.093,-2.44 2.44,-2.44l67.12,0c1.347,0 2.44,1.093 2.44,2.44Z" style="fill:#4eb84b;stroke:#000;stroke-width:2px;"/><path d="M84.96,38.4l-0,43.2" style="fill:none;stroke:#000;stroke-width:2px;"/><rect x="88.08" y="65.28" width="5.04" height="2.88" style="fill:#fff;stroke:#000;stroke-width:2px;"/><rect x="88.08" y="71.76" width="5.04" height="2.88" style="fill:#fff;stroke:#000;stroke-width:2px;"/><path d="M89.52,59.28l0.026,-0" style="fill:none;stroke:#fff;stroke-width:2px;"/><path d="M89.52,55.68l0.026,-0" style="fill:none;stroke:#fff;stroke-width:2px;"/><path d="M89.52,49.68l0.026,-0" style="fill:none;stroke:#fff;stroke-width:2px;"/><path d="M89.52,46.08l0.026,0" style="fill:none;stroke:#fff;stroke-width:2px;"/><path d="M24,62.16l60.96,-0" style="fill:none;stroke:#000;stroke-width:2px;"/></svg>