<?xml version="1.0" encoding="UTF-8" standalone="no"?><!DOCTYPE svg PUBLIC "-//W3C//DTD SVG 1.1//EN" "http://www.w3.org/Graphics/SVG/1.1/DTD/svg11.dtd"><svg width="100%" height="100%" viewBox="0 0 120 120" version="1.1" xmlns="http://www.w3.org/2000/svg" xmlns:xlink="http://www.w3.org/1999/xlink" xml:space="preserve" xmlns:serif="http://www.serif.com/" style="fill-rule:evenodd;clip-rule:evenodd;stroke-linecap:round;stroke-linejoin:round;stroke-miterlimit:1.5;"><path d="M95.76,28.857l-0,62.526c-0,2.018 -1.639,3.657 -3.657,3.657l-64.446,-0c-2.018,-0 -3.657,-1.639 -3.657,-3.657l-0,-62.526c-0,-2.018 1.639,-3.657 3.657,-3.657l64.446,-0c2.018,-0 3.657,1.639 3.657,3.657Z" style="fill:#4eb84b;stroke:#000;stroke-width:2px;"/><path d="M69.12,64.522l0,15.916c0,1.436 -1.166,2.602 -2.602,2.602l-13.036,-0c-1.436,-0 -2.602,-1.166 -2.602,-2.602l-0,-15.916c-0,-1.436 1.166,-2.602 2.602,-2.602l13.036,-0c1.436,-0 2.602,1.166 2.602,2.602Zm-3.84,5.078l-10.56,-0l0,5.76l10.56,-0l0,-5.76Z" style="fill:#fff;stroke:#000;stroke-width:2px;"/></svg>