<?xml version="1.0" encoding="UTF-8" standalone="no"?><!DOCTYPE svg PUBLIC "-//W3C//DTD SVG 1.1//EN" "http://www.w3.org/Graphics/SVG/1.1/DTD/svg11.dtd"><svg width="100%" height="100%" viewBox="0 0 120 120" version="1.1" xmlns="http://www.w3.org/2000/svg" xmlns:xlink="http://www.w3.org/1999/xlink" xml:space="preserve" xmlns:serif="http://www.serif.com/" style="fill-rule:evenodd;clip-rule:evenodd;stroke-linecap:round;stroke-linejoin:round;stroke-miterlimit:1.5;"><g><g><path d="M59.603,24.001c15.784,-0.086 27.071,4.166 27.071,4.166c-0,-0 3.515,1.093 3.455,5.139c-0.059,4.045 0,52.822 0,52.822c0,-0 0.665,4.982 -3.455,7.098l-1.598,-0.616c0,-0 -9.324,3.419 -25.473,3.39" style="fill:#4eb84b;stroke:#000;stroke-width:2px;"/><path d="M90.128,85.138c0,-0 -4.954,6.984 -30.525,7.072" style="fill:#4eb84b;stroke:#000;stroke-width:2px;"/><path d="M59.603,29.495c21.412,0.424 30.298,6.064 30.298,6.064" style="fill:#4eb84b;stroke:#000;stroke-width:2px;"/><path d="M60.397,24.001c-15.784,-0.086 -27.071,4.166 -27.071,4.166c0,-0 -3.515,1.093 -3.455,5.139c0.059,4.045 -0,52.822 -0,52.822c-0,-0 -0.665,4.982 3.455,7.098l1.598,-0.616c-0,-0 9.324,3.419 25.473,3.39" style="fill:#4eb84b;stroke:#000;stroke-width:2px;"/><path d="M29.872,85.138c-0,-0 4.954,6.984 30.525,7.072" style="fill:#4eb84b;stroke:#000;stroke-width:2px;"/><path d="M60.397,29.495c-21.412,0.424 -30.298,6.064 -30.298,6.064" style="fill:#4eb84b;stroke:#000;stroke-width:2px;"/></g><path d="M43.726,89.878l-0.857,-10.556l2.066,-3.442l29.168,-0l3.345,3.442l-1.108,10.556c-2.168,0.364 -4.349,0.661 -6.541,0.9c-2.77,0.207 -5.594,0.359 -8.499,0.426c-6.194,0.004 -11.303,-0.255 -17.574,-1.326Z" style="fill:#fff;stroke:#000;stroke-width:2px;"/><path d="M77.254,90.367l0,-11.128c-0.337,-2.139 -1.514,-3.26 -3.456,-3.456l-15.854,-0" style="fill:none;stroke:#000;stroke-width:2px;"/><path d="M42.746,90.367l-0,-11.128c0.337,-2.139 1.514,-3.26 3.456,-3.456l15.854,-0" style="fill:none;stroke:#000;stroke-width:2px;"/><rect x="55.215" y="80.864" width="10.259" height="3.04" style="fill:#4eb84b;stroke:#000;stroke-width:2px;"/></g></svg>