<?xml version="1.0" encoding="UTF-8" standalone="no"?><!DOCTYPE svg PUBLIC "-//W3C//DTD SVG 1.1//EN" "http://www.w3.org/Graphics/SVG/1.1/DTD/svg11.dtd"><svg width="100%" height="100%" viewBox="0 0 120 120" version="1.1" xmlns="http://www.w3.org/2000/svg" xmlns:xlink="http://www.w3.org/1999/xlink" xml:space="preserve" xmlns:serif="http://www.serif.com/" style="fill-rule:evenodd;clip-rule:evenodd;stroke-linecap:round;stroke-linejoin:round;stroke-miterlimit:1.5;"><path d="M91.2,33.044l0,53.912c0,4.992 -4.052,9.044 -9.044,9.044l-39.512,0c-4.992,0 -9.044,-4.052 -9.044,-9.044l-0,-53.912c-0,-4.992 4.052,-9.044 9.044,-9.044l39.512,-0c4.992,-0 9.044,4.052 9.044,9.044Z" style="fill:#4eb84b;stroke:#000;stroke-width:2px;"/><path d="M86.4,32.835l-0,54.33c-0,2.227 -1.808,4.035 -4.035,4.035l-39.93,-0c-2.227,-0 -4.035,-1.808 -4.035,-4.035l-0,-54.33c-0,-2.227 1.808,-4.035 4.035,-4.035l39.93,0c2.227,0 4.035,1.808 4.035,4.035Z" style="fill:none;stroke:#000;stroke-width:2px;"/><rect x="38.4" y="63.6" width="48" height="15.6" style="fill:#fff;stroke:#000;stroke-width:2px;"/><circle cx="49.68" cy="71.76" r="2.16" style="fill:#4eb84b;stroke:#000;stroke-width:2px;"/></svg>