<?xml version="1.0" encoding="UTF-8" standalone="no"?><!DOCTYPE svg PUBLIC "-//W3C//DTD SVG 1.1//EN" "http://www.w3.org/Graphics/SVG/1.1/DTD/svg11.dtd"><svg width="100%" height="100%" viewBox="0 0 120 120" version="1.1" xmlns="http://www.w3.org/2000/svg" xmlns:xlink="http://www.w3.org/1999/xlink" xml:space="preserve" xmlns:serif="http://www.serif.com/" style="fill-rule:evenodd;clip-rule:evenodd;stroke-linecap:round;stroke-linejoin:round;stroke-miterlimit:1.5;"><path d="M92.4,30.802l-0,58.396c-0,3.754 -3.048,6.802 -6.802,6.802l-52.396,-0c-3.754,-0 -6.802,-3.048 -6.802,-6.802l0,-58.396c0,-3.754 3.048,-6.802 6.802,-6.802l52.396,-0c3.754,-0 6.802,3.048 6.802,6.802Z" style="fill:#4eb84b;stroke:#000;stroke-width:2px;"/><circle cx="60" cy="53.28" r="9.6" style="fill:#fff;stroke:#000;stroke-width:2px;"/><circle cx="40.08" cy="63.36" r="3.6" style="fill:#fff;stroke:#000;stroke-width:2px;"/><path d="M86.4,34.242l0,46.716c0,3.004 -2.438,5.442 -5.442,5.442l-41.916,-0c-3.004,-0 -5.442,-2.438 -5.442,-5.442l0,-46.716c0,-3.004 2.438,-5.442 5.442,-5.442l41.916,0c3.004,0 5.442,2.438 5.442,5.442Z" style="fill:none;stroke:#000;stroke-width:2px;"/><path d="M86.4,73.704l0,7.254c0,3.004 -2.438,5.442 -5.442,5.442l-41.916,-0c-3.004,-0 -5.442,-2.438 -5.442,-5.442l0,-7.254l52.8,-0Z" style="fill:#fff;stroke:#000;stroke-width:2px;"/></svg>