<?xml version="1.0" encoding="UTF-8" standalone="no"?><!DOCTYPE svg PUBLIC "-//W3C//DTD SVG 1.1//EN" "http://www.w3.org/Graphics/SVG/1.1/DTD/svg11.dtd"><svg width="100%" height="100%" viewBox="0 0 120 120" version="1.1" xmlns="http://www.w3.org/2000/svg" xmlns:xlink="http://www.w3.org/1999/xlink" xml:space="preserve" xmlns:serif="http://www.serif.com/" style="fill-rule:evenodd;clip-rule:evenodd;stroke-linecap:round;stroke-linejoin:round;stroke-miterlimit:1.5;"><path d="M96,31.236l-0,49.128c-0,1.146 -0.93,2.076 -2.076,2.076l-67.848,0c-1.146,0 -2.076,-0.93 -2.076,-2.076l-0,-49.128c-0,-1.146 0.93,-2.076 2.076,-2.076l67.848,-0c1.146,-0 2.076,0.93 2.076,2.076Z" style="fill:#4eb84b;stroke:#000;stroke-width:2px;"/><path d="M86.4,34.623l-0,42.354c-0,1.558 -1.265,2.823 -2.823,2.823l-3.128,-0c-1.558,-0 -2.823,-1.265 -2.823,-2.823l0,-42.354c0,-1.558 1.265,-2.823 2.823,-2.823l3.128,-0c1.558,-0 2.823,1.265 2.823,2.823Z" style="fill:#fff;stroke:#000;stroke-width:2px;"/><path d="M96,84.336l0,4.608c0,1.046 -0.6,1.896 -0.6,1.896l-2.88,-0l-3.12,-8.4l4.704,0c1.046,0 1.896,0.85 1.896,1.896Z" style="fill:#fff;stroke:#000;stroke-width:2px;"/><path d="M24,84.336l0,4.608c0,1.046 0.6,1.896 0.6,1.896l2.88,0l3.12,-8.4l-4.704,0c-1.046,0 -1.896,0.85 -1.896,1.896Z" style="fill:#fff;stroke:#000;stroke-width:2px;"/></svg>