<?xml version="1.0" encoding="UTF-8" standalone="no"?><!DOCTYPE svg PUBLIC "-//W3C//DTD SVG 1.1//EN" "http://www.w3.org/Graphics/SVG/1.1/DTD/svg11.dtd"><svg width="100%" height="100%" viewBox="0 0 120 120" version="1.1" xmlns="http://www.w3.org/2000/svg" xmlns:xlink="http://www.w3.org/1999/xlink" xml:space="preserve" xmlns:serif="http://www.serif.com/" style="fill-rule:evenodd;clip-rule:evenodd;stroke-linecap:round;stroke-linejoin:round;stroke-miterlimit:1.5;"><path d="M34.8,73.44l0,-44.64c0,-3.041 14.522,-4.8 25.08,-4.8c10.558,0 -10.318,0 0.24,0c10.558,0 25.08,1.759 25.08,4.8l-0,62.4c-0,3.041 -14.522,4.8 -25.08,4.8c-10.558,0 10.318,0 -0.24,0c-10.558,0 -25.08,-1.759 -25.08,-4.8l-0,-44.64" style="fill:#4eb84b;stroke:#000;stroke-width:2px;"/><path d="M75.6,61.626l0,19.554c0,0.898 -0.729,1.626 -1.626,1.626l-27.948,0c-0.897,0 -1.626,-0.728 -1.626,-1.626l0,-19.554c0,-0.897 0.729,-1.626 1.626,-1.626l27.948,-0c0.897,-0 1.626,0.729 1.626,1.626Zm-3.84,2.934l-23.52,-0l0,12.72l23.52,-0l0,-12.72Z" style="fill:#fff;stroke:#000;stroke-width:2px;"/></svg>