<?xml version="1.0" encoding="UTF-8" standalone="no"?><!DOCTYPE svg PUBLIC "-//W3C//DTD SVG 1.1//EN" "http://www.w3.org/Graphics/SVG/1.1/DTD/svg11.dtd"><svg width="100%" height="100%" viewBox="0 0 120 120" version="1.1" xmlns="http://www.w3.org/2000/svg" xmlns:xlink="http://www.w3.org/1999/xlink" xml:space="preserve" xmlns:serif="http://www.serif.com/" style="fill-rule:evenodd;clip-rule:evenodd;stroke-linecap:round;stroke-linejoin:round;stroke-miterlimit:1.5;"><rect x="32.791" y="27.349" width="54.419" height="62.791" style="fill:#4eb84b;stroke:#000;stroke-width:2px;"/><rect x="64.186" y="86.163" width="4.186" height="9.837" style="fill:#fff;stroke:#000;stroke-width:2px;"/><rect x="71.721" y="86.163" width="11.721" height="7.116" style="fill:#fff;stroke:#000;stroke-width:2px;"/><rect x="37.605" y="83.86" width="19.674" height="6.279" style="fill:#fff;stroke:#000;stroke-width:2px;"/><rect x="35.93" y="24" width="3.558" height="7.326" style="fill:#fff;stroke:#000;stroke-width:2px;"/><rect x="42.628" y="24" width="3.558" height="7.326" style="fill:#fff;stroke:#000;stroke-width:2px;"/><rect x="49.326" y="24" width="3.558" height="7.326" style="fill:#fff;stroke:#000;stroke-width:2px;"/><rect x="67.116" y="24" width="3.558" height="7.326" style="fill:#fff;stroke:#000;stroke-width:2px;"/><rect x="73.814" y="24" width="3.558" height="7.326" style="fill:#fff;stroke:#000;stroke-width:2px;"/><rect x="80.512" y="24" width="3.558" height="7.326" style="fill:#fff;stroke:#000;stroke-width:2px;"/><rect x="32.791" y="33.628" width="54.419" height="50.233" style="fill:none;stroke:#000;stroke-width:2px;"/><rect x="32.791" y="42" width="54.419" height="33.488" style="fill:none;stroke:#000;stroke-width:2px;"/><rect x="47.442" y="47.319" width="31.395" height="23.023" style="fill:#fff;stroke:#000;stroke-width:2px;"/><path d="M37.395,47.965l0,-0.03" style="fill:none;stroke:#000;stroke-width:2px;"/><path d="M37.395,54.453l0,-0.029" style="fill:none;stroke:#000;stroke-width:2px;"/><path d="M37.395,60.942l0,-0.03" style="fill:none;stroke:#000;stroke-width:2px;"/><path d="M37.395,67.43l0,-0.03" style="fill:none;stroke:#000;stroke-width:2px;"/><path d="M37.395,72.244l0,-0.03" style="fill:none;stroke:#fff;stroke-width:2px;"/></svg>