<?xml version="1.0" encoding="UTF-8" standalone="no"?><!DOCTYPE svg PUBLIC "-//W3C//DTD SVG 1.1//EN" "http://www.w3.org/Graphics/SVG/1.1/DTD/svg11.dtd"><svg width="100%" height="100%" viewBox="0 0 120 120" version="1.1" xmlns="http://www.w3.org/2000/svg" xmlns:xlink="http://www.w3.org/1999/xlink" xml:space="preserve" xmlns:serif="http://www.serif.com/" style="fill-rule:evenodd;clip-rule:evenodd;stroke-linecap:round;stroke-linejoin:round;stroke-miterlimit:1.5;"><path d="M89.52,29.188l0,61.624c0,2.863 -2.325,5.188 -5.188,5.188l-48.664,0c-2.863,0 -5.188,-2.325 -5.188,-5.188l0,-61.624c0,-2.863 2.325,-5.188 5.188,-5.188l48.664,0c2.863,0 5.188,2.325 5.188,5.188Z" style="fill:#4eb84b;stroke:#000;stroke-width:2px;"/><path d="M89.52,78.417l0,12.366c0,2.88 -2.337,5.217 -5.217,5.217l-48.606,0c-2.88,0 -5.217,-2.337 -5.217,-5.217l0,-12.366c0,-2.88 2.337,-5.217 5.217,-5.217l48.606,0c2.88,0 5.217,2.337 5.217,5.217Z" style="fill:none;stroke:#000;stroke-width:2px;"/><path d="M85.68,79.478l-0,10.244c-0,0.948 -0.77,1.718 -1.718,1.718l-47.924,-0c-0.948,-0 -1.718,-0.77 -1.718,-1.718l-0,-10.244c-0,-0.948 0.77,-1.718 1.718,-1.718l47.924,-0c0.948,-0 1.718,0.77 1.718,1.718Z" style="fill:#fff;stroke:#000;stroke-width:2px;"/></svg>