<?xml version="1.0" encoding="UTF-8" standalone="no"?><!DOCTYPE svg PUBLIC "-//W3C//DTD SVG 1.1//EN" "http://www.w3.org/Graphics/SVG/1.1/DTD/svg11.dtd"><svg width="100%" height="100%" viewBox="0 0 120 120" version="1.1" xmlns="http://www.w3.org/2000/svg" xmlns:xlink="http://www.w3.org/1999/xlink" xml:space="preserve" xmlns:serif="http://www.serif.com/" style="fill-rule:evenodd;clip-rule:evenodd;stroke-linecap:round;stroke-linejoin:round;stroke-miterlimit:1.5;"><g><path d="M95.265,32.694c-0,-4.798 -3.896,-8.694 -8.694,-8.694l-53.142,-0c-4.798,-0 -8.694,3.896 -8.694,8.694l0,54.612c0,4.798 3.896,8.694 8.694,8.694l53.142,-0c4.798,-0 8.694,-3.896 8.694,-8.694l-0,-54.612Z" style="fill:#4eb84b;stroke:#000;stroke-width:2px;"/><path d="M71.409,70.233c0,0 0.05,2.42 -0.889,4.852c-0.939,2.432 -3.057,3.004 -3.057,3.004c-0,0 -2.767,1.101 -7.477,1.107c-4.709,0.005 4.662,0.005 -0.048,-0c-4.71,-0.006 -7.476,-1.107 -7.476,-1.107c-0,0 -2.118,-0.572 -3.057,-3.004c-0.94,-2.432 -0.89,-4.852 -0.89,-4.852l0,-0.217c0,-0 -0.05,-2.989 0.89,-5.421c0.939,-2.432 3.057,-3.004 3.057,-3.004c-0,-0 2.766,-1.101 7.476,-1.107c4.71,-0.005 -4.661,-0.005 0.048,0c4.71,0.006 7.477,1.107 7.477,1.107c-0,-0 2.118,0.572 3.057,3.004c0.939,2.432 0.889,5.421 0.889,5.421" style="fill:#fff;stroke:#000;stroke-width:2px;"/></g></svg>