<?xml version="1.0" encoding="UTF-8" standalone="no"?><!DOCTYPE svg PUBLIC "-//W3C//DTD SVG 1.1//EN" "http://www.w3.org/Graphics/SVG/1.1/DTD/svg11.dtd"><svg width="100%" height="100%" viewBox="0 0 120 120" version="1.1" xmlns="http://www.w3.org/2000/svg" xmlns:xlink="http://www.w3.org/1999/xlink" xml:space="preserve" xmlns:serif="http://www.serif.com/" style="fill-rule:evenodd;clip-rule:evenodd;stroke-linecap:round;stroke-linejoin:round;stroke-miterlimit:1.5;"><path d="M62.4,56.544c9.798,1.186 17.4,9.54 17.4,19.656c0,10.928 -8.872,19.8 -19.8,19.8c-10.928,0 -19.8,-8.872 -19.8,-19.8c0,-10.116 7.602,-18.47 17.4,-19.656l-0,-21.504l-1.44,-0l-0,-10.08l1.44,-0l-0,-0.96l4.8,-0l-0,0.96l1.44,-0l0,10.08l-1.44,-0l-0,21.504Z" style="fill:#4eb84b;stroke:#000;stroke-width:2px;"/><path d="M52.644,83.436c-1.833,-1.863 -2.964,-4.419 -2.964,-7.236c0,-5.696 4.624,-10.32 10.32,-10.32c5.696,0 10.32,4.624 10.32,10.32c0,2.817 -1.131,5.373 -2.964,7.236" style="fill:none;stroke:#fff;stroke-width:2px;"/></svg>