<?xml version="1.0" encoding="UTF-8" standalone="no"?><!DOCTYPE svg PUBLIC "-//W3C//DTD SVG 1.1//EN" "http://www.w3.org/Graphics/SVG/1.1/DTD/svg11.dtd"><svg width="100%" height="100%" viewBox="0 0 120 120" version="1.1" xmlns="http://www.w3.org/2000/svg" xmlns:xlink="http://www.w3.org/1999/xlink" xml:space="preserve" xmlns:serif="http://www.serif.com/" style="fill-rule:evenodd;clip-rule:evenodd;stroke-linecap:round;stroke-linejoin:round;stroke-miterlimit:1.5;"><rect x="33.6" y="24" width="52.8" height="72" style="fill:#4eb84b;stroke:#000;stroke-width:2px;"/><path d="M71.52,50.505l0,17.55c0,0.72 -0.585,1.305 -1.305,1.305l-30.51,-0c-0.72,-0 -1.305,-0.585 -1.305,-1.305l0,-17.55c0,-0.72 0.585,-1.305 1.305,-1.305l30.51,-0c0.72,-0 1.305,0.585 1.305,1.305Z" style="fill:#fff;stroke:#000;stroke-width:2px;"/><rect x="33.6" y="36" width="52.8" height="48" style="fill:none;stroke:#000;stroke-width:2px;"/><rect x="33.6" y="43.2" width="52.8" height="33.6" style="fill:none;stroke:#000;stroke-width:2px;"/><rect x="77.28" y="47.04" width="5.76" height="3.84" style="fill:#fff;stroke:#000;stroke-width:2px;"/><rect x="77.28" y="61.92" width="5.76" height="3.84" style="fill:#fff;stroke:#000;stroke-width:2px;"/><rect x="74.4" y="54.48" width="5.76" height="3.84" style="fill:#fff;stroke:#000;stroke-width:2px;"/></svg>