<?xml version="1.0" encoding="UTF-8" standalone="no"?><!DOCTYPE svg PUBLIC "-//W3C//DTD SVG 1.1//EN" "http://www.w3.org/Graphics/SVG/1.1/DTD/svg11.dtd"><svg width="100%" height="100%" viewBox="0 0 120 120" version="1.1" xmlns="http://www.w3.org/2000/svg" xmlns:xlink="http://www.w3.org/1999/xlink" xml:space="preserve" xmlns:serif="http://www.serif.com/" style="fill-rule:evenodd;clip-rule:evenodd;stroke-linecap:round;stroke-linejoin:round;stroke-miterlimit:1.5;"><g><g><path d="M42.326,43.007l-0,-7.332l5.52,-0l0,2.834l-1.4,0l0,1.673l0,-1.673l1.4,0l0,-2.834l26.385,-0l0,2.834l-1.419,0l0,1.673l0,-1.673l1.419,0l0,-2.834l4.353,-0l0,7.332l-9.618,-0l0,-4.498l-17.008,0l0,4.498l-9.632,-0Z" style="fill:#fff;stroke:#000;stroke-width:2px;"/><path d="M88.187,44.245c-0,-0.772 -0.627,-1.399 -1.4,-1.399l-52.751,-0c-0.772,-0 -1.399,0.627 -1.399,1.399l-0,39.005c-0,0.772 0.627,1.399 1.399,1.399l52.751,-0c0.773,-0 1.4,-0.627 1.4,-1.399l-0,-39.005Z" style="fill:#4eb84b;stroke:#000;stroke-width:2px;"/><path d="M32.64,47.952l-7.764,-0l5.221,-0l2.543,1.303l0,-2.613l-2.543,1.31l-5.221,-0l-0,-1.31l-2.278,-0.396l-7.718,-1.608l0,0.754l-2.553,-0l0,2.56" style="fill:#fff;stroke:#000;stroke-width:2px;"/><path d="M32.64,47.987l-7.764,-0l5.221,-0l2.543,-1.304l0,2.614l-2.543,-1.31l-5.221,-0l-0,1.31l-2.278,0.395l-7.718,1.609l0,-0.754l-2.553,-0l0,-2.56" style="fill:none;stroke:#000;stroke-width:2px;"/><path d="M88.201,47.624l5.092,-0" style="fill:none;stroke:#000;stroke-width:2px;"/><rect x="46.812" y="49.132" width="27.822" height="17.228" style="fill:#fff;stroke:#000;stroke-width:2px;"/><rect x="100.006" y="67.022" width="7.994" height="1.274" style="fill:#fff;stroke:#000;stroke-width:2px;"/><rect x="100.006" y="77.269" width="7.994" height="1.274" style="fill:#fff;stroke:#000;stroke-width:2px;"/><rect x="100.006" y="61.986" width="7.994" height="1.274" style="fill:#fff;stroke:#000;stroke-width:2px;"/><rect x="100.006" y="72.233" width="7.994" height="1.274" style="fill:#fff;stroke:#000;stroke-width:2px;"/><rect x="12" y="76.368" width="7.994" height="1.274" style="fill:#fff;stroke:#000;stroke-width:2px;"/><rect x="12" y="66.171" width="7.994" height="1.274" style="fill:#fff;stroke:#000;stroke-width:2px;"/><rect x="12" y="71.163" width="7.994" height="1.274" style="fill:#fff;stroke:#000;stroke-width:2px;"/><rect x="12" y="60.967" width="7.994" height="1.274" style="fill:#fff;stroke:#000;stroke-width:2px;"/></g><path d="M88.235,64.724l6.645,0l4.972,-1.927" style="fill:none;stroke:#000;stroke-width:2px;"/><path d="M88.235,65.779l6.645,-0l4.972,1.926" style="fill:none;stroke:#000;stroke-width:2px;"/><path d="M88.235,74.93l6.645,-0l4.972,-1.927" style="fill:none;stroke:#000;stroke-width:2px;"/><path d="M88.235,75.984l6.645,0l4.972,1.927" style="fill:none;stroke:#000;stroke-width:2px;"/><path d="M32.318,75.037l-6.645,-0l-4.972,1.927" style="fill:none;stroke:#000;stroke-width:2px;"/><path d="M32.318,73.983l-6.645,-0l-4.972,-1.927" style="fill:none;stroke:#000;stroke-width:2px;"/><path d="M32.318,64.831l-6.645,0l-4.972,1.927" style="fill:none;stroke:#000;stroke-width:2px;"/><path d="M32.318,63.777l-6.645,-0l-4.972,-1.927" style="fill:none;stroke:#000;stroke-width:2px;"/></g></svg>