<?xml version="1.0" encoding="UTF-8" standalone="no"?><!DOCTYPE svg PUBLIC "-//W3C//DTD SVG 1.1//EN" "http://www.w3.org/Graphics/SVG/1.1/DTD/svg11.dtd"><svg width="100%" height="100%" viewBox="0 0 120 120" version="1.1" xmlns="http://www.w3.org/2000/svg" xmlns:xlink="http://www.w3.org/1999/xlink" xml:space="preserve" xmlns:serif="http://www.serif.com/" style="fill-rule:evenodd;clip-rule:evenodd;stroke-linecap:round;stroke-linejoin:round;stroke-miterlimit:1.5;"><path d="M96,33.586l0,52.828c0,5.291 -4.295,9.586 -9.586,9.586l-52.828,0c-5.291,0 -9.586,-4.295 -9.586,-9.586l0,-52.828c0,-5.291 4.295,-9.586 9.586,-9.586l52.828,0c5.291,0 9.586,4.295 9.586,9.586Z" style="fill:#4eb84b;stroke:#000;stroke-width:2px;"/><path d="M72,60c0,2.649 -2.151,4.8 -4.8,4.8l-14.4,0c-2.649,0 -4.8,-2.151 -4.8,-4.8c-0,-2.649 2.151,-4.8 4.8,-4.8l14.4,-0c2.649,-0 4.8,2.151 4.8,4.8Z" style="fill:#fff;stroke:#000;stroke-width:2px;"/></svg>