<?xml version="1.0" encoding="UTF-8" standalone="no"?><!DOCTYPE svg PUBLIC "-//W3C//DTD SVG 1.1//EN" "http://www.w3.org/Graphics/SVG/1.1/DTD/svg11.dtd"><svg width="100%" height="100%" viewBox="0 0 120 120" version="1.1" xmlns="http://www.w3.org/2000/svg" xmlns:xlink="http://www.w3.org/1999/xlink" xml:space="preserve" xmlns:serif="http://www.serif.com/" style="fill-rule:evenodd;clip-rule:evenodd;stroke-linecap:round;stroke-linejoin:round;stroke-miterlimit:1.5;"><rect x="43.2" y="24" width="33.6" height="72" style="fill:#4eb84b;stroke:#000;stroke-width:2px;"/><rect x="43.2" y="32.407" width="33.6" height="52.793" style="fill:none;stroke:#000;stroke-width:2px;"/><rect x="43.2" y="39.6" width="33.6" height="38.4" style="fill:none;stroke:#000;stroke-width:2px;"/><rect x="47.52" y="85.2" width="4.8" height="7.2" style="fill:#fff;stroke:#000;stroke-width:2px;"/><path d="M47.52,85.2l5.76,-0l0,2.4l-0.96,-0m0,-0l0,4.8l-4.8,-0l-0,-4.8l-0.96,-0l0,-2.4l0.96,-0" style="fill:#fff;stroke:#000;stroke-width:2px;"/><path d="M59.76,89.28l0,0.12" style="fill:none;stroke:#000;stroke-width:2px;"/><path d="M59.76,29.28l0,0.12" style="fill:none;stroke:#000;stroke-width:2px;"/><path d="M50.64,29.28l0,0.12" style="fill:none;stroke:#000;stroke-width:2px;"/><path d="M50.64,52.32l0,0.12" style="fill:none;stroke:#fff;stroke-width:2px;"/><path d="M50.64,58.8l0,0.12" style="fill:none;stroke:#fff;stroke-width:2px;"/><path d="M50.64,65.28l0,0.12" style="fill:none;stroke:#fff;stroke-width:2px;"/><path d="M64.08,89.28l0,0.12" style="fill:none;stroke:#000;stroke-width:2px;"/><path d="M68.4,89.28l0,0.12" style="fill:none;stroke:#000;stroke-width:2px;"/><path d="M72.72,89.28l0,0.12" style="fill:none;stroke:#000;stroke-width:2px;"/></svg>