<?xml version="1.0" encoding="UTF-8" standalone="no"?><!DOCTYPE svg PUBLIC "-//W3C//DTD SVG 1.1//EN" "http://www.w3.org/Graphics/SVG/1.1/DTD/svg11.dtd"><svg width="100%" height="100%" viewBox="0 0 120 120" version="1.1" xmlns="http://www.w3.org/2000/svg" xmlns:xlink="http://www.w3.org/1999/xlink" xml:space="preserve" xmlns:serif="http://www.serif.com/" style="fill-rule:evenodd;clip-rule:evenodd;stroke-linecap:round;stroke-linejoin:round;stroke-miterlimit:1.5;"><rect x="24" y="36" width="72" height="60" style="fill:#4eb84b;stroke:#000;stroke-width:2px;"/><rect x="79.92" y="36" width="16.08" height="8.4" style="fill:#fff;stroke:#000;stroke-width:2px;"/><rect x="24" y="50.4" width="72" height="33.6" style="fill:none;stroke:#000;stroke-width:2px;"/><rect x="30.72" y="31.44" width="43.68" height="8.88" style="fill:#fff;stroke:#000;stroke-width:2px;"/><path d="M24,91.2l72,0" style="fill:none;stroke:#000;stroke-width:2px;"/><rect x="55.2" y="60" width="27.6" height="16.8" style="fill:#fff;stroke:#000;stroke-width:2px;"/><rect x="86.4" y="60" width="6.24" height="5.28" style="fill:#fff;stroke:#000;stroke-width:2px;"/><rect x="86.4" y="71.52" width="6.24" height="5.28" style="fill:#fff;stroke:#000;stroke-width:2px;"/><rect x="24" y="78" width="14.4" height="6" style="fill:#fff;stroke:#000;stroke-width:2px;"/><rect x="31.2" y="91.2" width="29.4" height="4.8" style="fill:#fff;stroke:#000;stroke-width:2px;"/><rect x="64.8" y="91.2" width="22.32" height="4.8" style="fill:#fff;stroke:#000;stroke-width:2px;"/><path d="M33.84,93.6l0.03,-0" style="fill:none;stroke:#000;stroke-width:2px;"/><path d="M37.2,93.6l0.03,-0" style="fill:none;stroke:#000;stroke-width:2px;"/><path d="M40.56,93.6l0.03,-0" style="fill:none;stroke:#000;stroke-width:2px;"/><path d="M43.92,93.6l0.03,-0" style="fill:none;stroke:#000;stroke-width:2px;"/><path d="M47.28,93.6l0.03,-0" style="fill:none;stroke:#000;stroke-width:2px;"/><path d="M50.64,93.6l0.03,-0" style="fill:none;stroke:#000;stroke-width:2px;"/><path d="M54,93.6l0.03,-0" style="fill:none;stroke:#000;stroke-width:2px;"/><path d="M57.36,93.6l0.03,-0" style="fill:none;stroke:#000;stroke-width:2px;"/><path d="M34.08,34.8l0.03,-0" style="fill:none;stroke:#000;stroke-width:2px;"/><path d="M37.44,34.8l0.03,-0" style="fill:none;stroke:#000;stroke-width:2px;"/><path d="M40.8,34.8l0.03,-0" style="fill:none;stroke:#000;stroke-width:2px;"/><path d="M44.16,34.8l0.03,-0" style="fill:none;stroke:#000;stroke-width:2px;"/><path d="M47.52,34.8l0.03,-0" style="fill:none;stroke:#000;stroke-width:2px;"/><path d="M50.88,34.8l0.03,-0" style="fill:none;stroke:#000;stroke-width:2px;"/><path d="M54.24,34.8l0.03,-0" style="fill:none;stroke:#000;stroke-width:2px;"/><path d="M57.6,34.8l0.03,-0" style="fill:none;stroke:#000;stroke-width:2px;"/><path d="M60.96,34.8l0.03,-0" style="fill:none;stroke:#000;stroke-width:2px;"/><path d="M64.32,34.8l0.03,-0" style="fill:none;stroke:#000;stroke-width:2px;"/><path d="M67.68,34.8l0.03,-0" style="fill:none;stroke:#000;stroke-width:2px;"/><path d="M71.04,34.8l0.03,-0" style="fill:none;stroke:#000;stroke-width:2px;"/><path d="M68.4,93.6l0.03,-0" style="fill:none;stroke:#000;stroke-width:2px;"/><path d="M73.44,93.6l0.03,-0" style="fill:none;stroke:#000;stroke-width:2px;"/><path d="M78.48,93.6l0.03,-0" style="fill:none;stroke:#000;stroke-width:2px;"/><path d="M83.52,93.6l0.03,-0" style="fill:none;stroke:#000;stroke-width:2px;"/></svg>