<?xml version="1.0" encoding="UTF-8" standalone="no"?><!DOCTYPE svg PUBLIC "-//W3C//DTD SVG 1.1//EN" "http://www.w3.org/Graphics/SVG/1.1/DTD/svg11.dtd"><svg width="100%" height="100%" viewBox="0 0 120 120" version="1.1" xmlns="http://www.w3.org/2000/svg" xmlns:xlink="http://www.w3.org/1999/xlink" xml:space="preserve" xmlns:serif="http://www.serif.com/" style="fill-rule:evenodd;clip-rule:evenodd;stroke-linecap:round;stroke-linejoin:round;stroke-miterlimit:1.5;"><path d="M95.52,35.443c-0,0 0.48,16.371 0.48,24.557c-0,8.186 -0.48,24.557 -0.48,24.557c-0,2.342 -1.421,3.763 -3.763,3.763c-0,-0 -21.171,0.48 -31.757,0.48c-10.586,-0 -31.757,-0.48 -31.757,-0.48c-2.342,-0 -3.763,-1.421 -3.763,-3.763c0,-0 -0.48,-16.371 -0.48,-24.557c0,-8.186 0.48,-24.557 0.48,-24.557c0,-2.342 1.421,-3.763 3.763,-3.763c0,-0 21.171,-0.48 31.757,-0.48c10.586,-0 31.757,0.48 31.757,0.48c2.342,-0 3.763,1.421 3.763,3.763Z" style="fill:#4eb84b;stroke:#000;stroke-width:2px;"/><path d="M86.4,31.599l-0,56.802" style="fill:none;stroke:#000;stroke-width:2px;"/><path d="M36,31.563l0,56.874" style="fill:none;stroke:#000;stroke-width:2px;"/><path d="M82.56,59.137l0,8.206c0,0.716 -0.581,1.297 -1.297,1.297l-12.286,-0c-0.716,-0 -1.297,-0.581 -1.297,-1.297l0,-8.206c0,-0.716 0.581,-1.297 1.297,-1.297l12.286,-0c0.716,-0 1.297,0.581 1.297,1.297Z" style="fill:#fff;stroke:#000;stroke-width:2px;"/><path d="M70.8,64.8l6,0" style="fill:none;stroke:#000;stroke-width:2px;"/><path d="M79.426,64.8l0.014,0" style="fill:none;stroke:#000;stroke-width:2px;"/><path d="M79.2,54.24l-15.12,0l0,18l15.12,-0" style="fill:none;stroke:#000;stroke-width:2px;"/></svg>