<?xml version="1.0" encoding="UTF-8" standalone="no"?><!DOCTYPE svg PUBLIC "-//W3C//DTD SVG 1.1//EN" "http://www.w3.org/Graphics/SVG/1.1/DTD/svg11.dtd"><svg width="100%" height="100%" viewBox="0 0 120 120" version="1.1" xmlns="http://www.w3.org/2000/svg" xmlns:xlink="http://www.w3.org/1999/xlink" xml:space="preserve" xmlns:serif="http://www.serif.com/" style="fill-rule:evenodd;clip-rule:evenodd;stroke-linecap:round;stroke-linejoin:round;stroke-miterlimit:1.5;"><g><path d="M37.408,28.715l3.805,-3.051l12.901,-1.664l13.438,0l13.092,1.664l2.75,17.564l0,31.182l-4.106,19.733l-8.614,1.85l-11.845,0l-17.616,-1.85l-5.026,-12.736l0,-33.39l1.221,-19.302Z" style="fill:#4eb848;"/><g><path d="M67.171,44.018c0,-2.008 -1.63,-3.638 -3.638,-3.638l-7.275,0c-2.008,0 -3.638,1.63 -3.638,3.638l0,20.634c0,2.008 1.63,3.638 3.638,3.638l7.275,0c2.008,0 3.638,-1.63 3.638,-3.638l0,-20.634Z" style="fill:#fff;stroke:#000;stroke-width:2px;"/><path d="M79.357,94.351c0.235,-7.383 1.618,-68.432 1.618,-68.432c-0,0 1.738,1.156 2.706,2.223c1.246,1.375 2.171,2.832 2.171,2.832c-0,-0 -0.616,29.715 -0.851,35.426c-0.234,5.71 -0.79,21.988 -0.79,21.988c0,-0 -0.981,1.904 -1.795,2.887c-0.814,0.984 -3.059,3.076 -3.059,3.076" style="fill:#fff;stroke:#000;stroke-width:2px;"/><path d="M80.975,25.919c-0,0 -5.663,-0.962 -10.772,-1.458c-5.108,-0.495 -10.3,-0.4 -10.3,-0.4l0.205,0c-0,0 -5.192,-0.095 -10.301,0.4c-5.108,0.496 -10.771,1.458 -10.771,1.458" style="fill:none;stroke:#000;stroke-width:2px;"/><path d="M79.341,94.379c0,-0 -5.431,0.85 -9.553,1.181c-3.177,0.256 -9.835,0.44 -9.835,0.44l0.105,0c-0,0 -6.658,-0.184 -9.836,-0.44c-1.304,-0.104 -2.739,-0.261 -4.092,-0.427c-2.923,-0.357 -5.461,-0.754 -5.461,-0.754" style="fill:none;stroke:#000;stroke-width:2px;"/><path d="M40.654,94.351c-0.236,-7.383 -1.618,-68.432 -1.618,-68.432c-0,0 -1.738,1.156 -2.706,2.223c-1.247,1.375 -2.171,2.832 -2.171,2.832c-0,-0 0.616,29.715 0.85,35.426c0.235,5.71 0.79,21.988 0.79,21.988c0,-0 0.981,1.904 1.796,2.887c0.814,0.984 3.059,3.076 3.059,3.076" style="fill:#fff;stroke:#000;stroke-width:2px;"/></g></g></svg>