<?xml version="1.0" encoding="UTF-8" standalone="no"?><!DOCTYPE svg PUBLIC "-//W3C//DTD SVG 1.1//EN" "http://www.w3.org/Graphics/SVG/1.1/DTD/svg11.dtd"><svg width="100%" height="100%" viewBox="0 0 120 120" version="1.1" xmlns="http://www.w3.org/2000/svg" xmlns:xlink="http://www.w3.org/1999/xlink" xml:space="preserve" xmlns:serif="http://www.serif.com/" style="fill-rule:evenodd;clip-rule:evenodd;stroke-linecap:round;stroke-linejoin:round;stroke-miterlimit:1.5;"><rect x="30" y="24" width="60" height="72" style="fill:#4eb84b;stroke:#000;stroke-width:2px;"/><circle cx="38.16" cy="30" r="2.88" style="fill:none;stroke:#000;stroke-width:2px;"/><circle cx="53.04" cy="30" r="2.88" style="fill:none;stroke:#000;stroke-width:2px;"/><circle cx="67.44" cy="30" r="2.88" style="fill:none;stroke:#000;stroke-width:2px;"/><circle cx="81.84" cy="30" r="2.88" style="fill:none;stroke:#000;stroke-width:2px;"/><circle cx="38.16" cy="90" r="2.88" style="fill:none;stroke:#000;stroke-width:2px;"/><circle cx="53.04" cy="90" r="2.88" style="fill:none;stroke:#000;stroke-width:2px;"/><circle cx="67.44" cy="90" r="2.88" style="fill:none;stroke:#000;stroke-width:2px;"/><circle cx="81.84" cy="90" r="2.88" style="fill:none;stroke:#000;stroke-width:2px;"/><rect x="53.28" y="53.76" width="32.4" height="17.76" style="fill:#fff;stroke:#000;stroke-width:2px;"/><rect x="53.28" y="53.76" width="13.2" height="7.44" style="fill:#4eb84b;stroke:#000;stroke-width:2px;"/><rect x="72.48" y="53.76" width="13.2" height="7.44" style="fill:#4eb84b;stroke:#000;stroke-width:2px;"/><rect x="30" y="40.8" width="60" height="38.4" style="fill:none;stroke:#000;stroke-width:2px;"/><path d="M36.351,56.303l0.009,-0.023" style="fill:none;stroke:#000;stroke-width:2px;"/><path d="M36.351,60.623l0.009,-0.023" style="fill:none;stroke:#000;stroke-width:2px;"/><path d="M36.351,65.183l0.009,-0.023" style="fill:none;stroke:#000;stroke-width:2px;"/><path d="M36.351,70.943l0.009,-0.023" style="fill:none;stroke:#fff;stroke-width:2px;"/></svg>