<?xml version="1.0" encoding="UTF-8" standalone="no"?><!DOCTYPE svg PUBLIC "-//W3C//DTD SVG 1.1//EN" "http://www.w3.org/Graphics/SVG/1.1/DTD/svg11.dtd"><svg width="100%" height="100%" viewBox="0 0 120 120" version="1.1" xmlns="http://www.w3.org/2000/svg" xmlns:xlink="http://www.w3.org/1999/xlink" xml:space="preserve" xmlns:serif="http://www.serif.com/" style="fill-rule:evenodd;clip-rule:evenodd;stroke-linecap:round;stroke-linejoin:round;stroke-miterlimit:1.5;"><g><path d="M23.932,56.043l0.18,-12.797l0.836,-7.013l2.506,-3.257l65.01,0l2.745,3.528l0.781,6.825l-0,33.499l-0.611,6.81l-2.473,3.274l-65.864,-0l-2.371,-3.308l-0.73,-6.841l-0.048,-13.113l1.707,-2.009l0,-3.435l-1.668,-2.163Z" style="fill:#4eb84b;stroke:#000;stroke-width:2px;"/><path d="M25.6,58.206l37.304,-0l0,-7.606l18.554,0l0,18.449l-18.34,0l-0,-7.314l-37.518,-0.094l0,-3.435Zm49.567,0.718l-8.636,0l-0,4.971l8.636,-0l-0,-4.971Z" style="fill:#fff;stroke:#000;stroke-width:2px;"/><path d="M24.156,43.294l71.666,-0" style="fill:none;stroke:#000;stroke-width:2px;"/><path d="M24.156,77.374l71.666,0" style="fill:none;stroke:#000;stroke-width:2px;"/></g></svg>