<?xml version="1.0" encoding="UTF-8" standalone="no"?><!DOCTYPE svg PUBLIC "-//W3C//DTD SVG 1.1//EN" "http://www.w3.org/Graphics/SVG/1.1/DTD/svg11.dtd"><svg width="100%" height="100%" viewBox="0 0 120 120" version="1.1" xmlns="http://www.w3.org/2000/svg" xmlns:xlink="http://www.w3.org/1999/xlink" xml:space="preserve" xmlns:serif="http://www.serif.com/" style="fill-rule:evenodd;clip-rule:evenodd;stroke-linecap:round;stroke-linejoin:round;stroke-miterlimit:1.5;"><rect x="33.6" y="24" width="52.8" height="72" style="fill:#4eb84b;stroke:#000;stroke-width:2px;"/><rect x="33.6" y="40.8" width="52.8" height="38.4" style="fill:none;stroke:#000;stroke-width:2px;"/><rect x="40.8" y="48" width="38.4" height="20.4" style="fill:#fff;stroke:#000;stroke-width:2px;"/><path d="M79.2,73.8c-0,0.993 -0.807,1.8 -1.8,1.8l-0.72,0c-0.993,0 -1.8,-0.807 -1.8,-1.8c-0,-0.993 0.807,-1.8 1.8,-1.8l0.72,0c0.993,0 1.8,0.807 1.8,1.8Z" style="fill:#fff;stroke:#000;stroke-width:2px;"/><path d="M70.08,73.8c-0,0.993 -0.807,1.8 -1.8,1.8l-3.84,-0c-0.993,-0 -1.8,-0.807 -1.8,-1.8c-0,-0.993 0.807,-1.8 1.8,-1.8l3.84,-0c0.993,-0 1.8,0.807 1.8,1.8Z" style="fill:#fff;stroke:#000;stroke-width:2px;"/><path d="M57.84,73.8c-0,0.993 -0.807,1.8 -1.8,1.8l-3.84,-0c-0.993,-0 -1.8,-0.807 -1.8,-1.8c-0,-0.993 0.807,-1.8 1.8,-1.8l3.84,-0c0.993,-0 1.8,0.807 1.8,1.8Z" style="fill:#fff;stroke:#000;stroke-width:2px;"/><path d="M82.56,92.64l0.025,0" style="fill:none;stroke:#000;stroke-width:2px;"/><path d="M78.96,92.64l0.025,0" style="fill:none;stroke:#000;stroke-width:2px;"/><path d="M75.36,92.64l0.025,0" style="fill:none;stroke:#000;stroke-width:2px;"/><path d="M71.76,92.64l0.025,0" style="fill:none;stroke:#000;stroke-width:2px;"/><path d="M68.16,92.64l0.025,0" style="fill:none;stroke:#000;stroke-width:2px;"/><path d="M64.56,92.64l0.025,0" style="fill:none;stroke:#000;stroke-width:2px;"/></svg>