<?xml version="1.0" encoding="UTF-8" standalone="no"?><!DOCTYPE svg PUBLIC "-//W3C//DTD SVG 1.1//EN" "http://www.w3.org/Graphics/SVG/1.1/DTD/svg11.dtd"><svg width="100%" height="100%" viewBox="0 0 120 120" version="1.1" xmlns="http://www.w3.org/2000/svg" xmlns:xlink="http://www.w3.org/1999/xlink" xml:space="preserve" xmlns:serif="http://www.serif.com/" style="fill-rule:evenodd;clip-rule:evenodd;stroke-linecap:round;stroke-linejoin:round;stroke-miterlimit:1.5;"><use xlink:href="#_Image1" x="0" y="0" width="504px" height="746px" transform="matrix(0.996033,0,0,0.994287,30.1711,16.5297)"/><path d="M82.2,29.626l-0,60.748c-0,3.105 -2.521,5.626 -5.626,5.626l-4.574,-0c-1.613,-0 -3.011,-2.4 -4.8,-2.4l-14.4,-0c-1.789,-0 -3.011,2.4 -4.8,2.4l-4.574,-0c-3.105,-0 -5.626,-2.521 -5.626,-5.626l-0,-60.748c-0,-3.105 2.521,-5.626 5.626,-5.626l33.148,-0c3.105,-0 5.626,2.521 5.626,5.626Z" style="fill:#4eb84b;stroke:#000;stroke-width:2px;"/><rect x="60.84" y="76.8" width="6.36" height="3.48" style="fill:#fff;stroke:#000;stroke-width:2px;"/><path d="M78.6,29.655l-0,58.29c-0,1.134 -0.921,2.055 -2.055,2.055l-33.09,-0c-1.134,-0 -2.055,-0.921 -2.055,-2.055l-0,-58.29c-0,-1.134 0.921,-2.055 2.055,-2.055l33.09,-0c1.134,-0 2.055,0.921 2.055,2.055Z" style="fill:none;stroke:#000;stroke-width:2px;"/><path d="M48,86.64c0,0 0.371,-9.095 0.48,-10.56c0.109,-1.465 0.367,-2.277 2.64,-2.4c2.283,-0.124 5.225,-0.12 8.88,-0.12" style="fill:none;stroke:#000;stroke-width:2px;"/><path d="M72,86.64c0,0 -0.371,-9.095 -0.48,-10.56c-0.109,-1.465 -0.367,-2.277 -2.64,-2.4c-2.283,-0.124 -5.225,-0.12 -8.88,-0.12" style="fill:none;stroke:#000;stroke-width:2px;"/><path d="M60.96,83.76l-0,0.48" style="fill:none;stroke:#000;stroke-width:2px;"/><path d="M63.12,83.76l-0,0.48" style="fill:none;stroke:#000;stroke-width:2px;"/><path d="M65.28,83.76l0,0.48" style="fill:none;stroke:#000;stroke-width:2px;"/><path d="M67.44,83.76l0,0.48" style="fill:none;stroke:#000;stroke-width:2px;"/></svg>