<?xml version="1.0" encoding="UTF-8" standalone="no"?><!DOCTYPE svg PUBLIC "-//W3C//DTD SVG 1.1//EN" "http://www.w3.org/Graphics/SVG/1.1/DTD/svg11.dtd"><svg width="100%" height="100%" viewBox="0 0 120 120" version="1.1" xmlns="http://www.w3.org/2000/svg" xmlns:xlink="http://www.w3.org/1999/xlink" xml:space="preserve" xmlns:serif="http://www.serif.com/" style="fill-rule:evenodd;clip-rule:evenodd;stroke-linecap:round;stroke-linejoin:round;stroke-miterlimit:1.5;"><rect x="24" y="24" width="72" height="72" style="fill:#4eb84b;stroke:#000;stroke-width:2px;"/><path d="M85.2,18.48l3.6,1.44l0,9.36l-3.36,1.68l-3.84,-1.44l-0.24,-9.6l3.84,-1.44Z" style="fill:#fff;"/><path d="M88.8,29.04l0,-8.4" style="fill:none;stroke:#000;stroke-width:2px;"/><path d="M81.6,29.04l-0,-8.4" style="fill:none;stroke:#000;stroke-width:2px;"/><rect x="24" y="40.8" width="72" height="55.2" style="fill:none;stroke:#000;stroke-width:2px;"/><path d="M79.2,96l1.08,2.16l3,-0.72l3.12,-0l-0,-1.44" style="fill:none;stroke:#000;stroke-width:2px;"/><ellipse cx="85.2" cy="20.52" rx="3.6" ry="1.8" style="fill:none;stroke:#000;stroke-width:2px;"/><path d="M88.8,28.8c-0,0.993 -1.613,1.8 -3.6,1.8c-1.987,-0 -3.6,-0.807 -3.6,-1.8" style="fill:none;stroke:#000;stroke-width:2px;"/></svg>