<?xml version="1.0" encoding="UTF-8" standalone="no"?><!DOCTYPE svg PUBLIC "-//W3C//DTD SVG 1.1//EN" "http://www.w3.org/Graphics/SVG/1.1/DTD/svg11.dtd"><svg width="100%" height="100%" viewBox="0 0 120 120" version="1.1" xmlns="http://www.w3.org/2000/svg" xmlns:xlink="http://www.w3.org/1999/xlink" xml:space="preserve" xmlns:serif="http://www.serif.com/" style="fill-rule:evenodd;clip-rule:evenodd;stroke-linecap:round;stroke-linejoin:round;stroke-miterlimit:1.5;"><path d="M96,32.602l0,54.796c0,4.748 -3.854,8.602 -8.602,8.602l-54.796,0c-4.748,0 -8.602,-3.854 -8.602,-8.602l-0,-54.796c-0,-4.748 3.854,-8.602 8.602,-8.602l54.796,-0c4.748,-0 8.602,3.854 8.602,8.602Z" style="fill:#4eb84b;stroke:#000;stroke-width:2px;"/><ellipse cx="60.191" cy="60.094" rx="23.139" ry="23.134" style="fill:#fff;stroke:#000;stroke-width:2px;"/><ellipse cx="49.593" cy="60.08" rx="2.966" ry="2.919" style="fill:#fff;stroke:#000;stroke-width:2px;"/><ellipse cx="70.735" cy="60.08" rx="2.966" ry="2.919" style="fill:#fff;stroke:#000;stroke-width:2px;"/><path d="M79.297,72.849l-0,-9.284l3.61,-0" style="fill:#fff;stroke:#000;stroke-width:2px;"/><path d="M79.297,47.01l-0,9.681l3.61,0" style="fill:#fff;stroke:#000;stroke-width:2px;"/><path d="M41.11,72.849l-0,-9.284l-3.666,-0" style="fill:#fff;stroke:#000;stroke-width:2px;"/><path d="M41.11,47.01l-0,9.681l-3.666,0" style="fill:#fff;stroke:#000;stroke-width:2px;"/><rect x="58.144" y="37.042" width="4.007" height="6.045" style="fill:#fff;stroke:#000;stroke-width:2px;"/><rect x="57.979" y="76.96" width="4.007" height="6.045" style="fill:#fff;stroke:#000;stroke-width:2px;"/><path d="M92.4,32.655l0,54.69c0,2.79 -2.265,5.055 -5.055,5.055l-54.69,0c-2.79,0 -5.055,-2.265 -5.055,-5.055l0,-54.69c0,-2.79 2.265,-5.055 5.055,-5.055l54.69,0c2.79,0 5.055,2.265 5.055,5.055Z" style="fill:none;stroke:#000;stroke-width:2px;"/><path d="M84.72,85.44l0,0.014" style="fill:none;stroke:#fff;stroke-width:2px;"/></svg>