<?xml version="1.0" encoding="UTF-8" standalone="no"?><!DOCTYPE svg PUBLIC "-//W3C//DTD SVG 1.1//EN" "http://www.w3.org/Graphics/SVG/1.1/DTD/svg11.dtd"><svg width="100%" height="100%" viewBox="0 0 120 120" version="1.1" xmlns="http://www.w3.org/2000/svg" xmlns:xlink="http://www.w3.org/1999/xlink" xml:space="preserve" xmlns:serif="http://www.serif.com/" style="fill-rule:evenodd;clip-rule:evenodd;stroke-linecap:round;stroke-linejoin:round;stroke-miterlimit:1.5;"><rect x="31.2" y="24" width="57.6" height="72" style="fill:#4eb84b;stroke:#000;stroke-width:2px;"/><circle cx="60" cy="83.76" r="2.4" style="fill:none;stroke:#000;stroke-width:2px;"/><rect x="31.2" y="43.2" width="57.6" height="33.6" style="fill:none;stroke:#000;stroke-width:2px;"/><rect x="36" y="50.4" width="48" height="12" style="fill:#fff;stroke:#000;stroke-width:2px;"/><path d="M40.8,72.96l-0,0.014" style="fill:none;stroke:#fff;stroke-width:2px;"/><path d="M45.84,72.96l-0,0.014" style="fill:none;stroke:#fff;stroke-width:2px;"/><path d="M53.146,72.967l5.294,0" style="fill:none;stroke:#fff;stroke-width:2px;"/><path d="M31.2,92.64l20.64,-0l3.36,3.36l-0,-11.28l-3.36,-1.2l3.36,1.2l2.64,0l-2.64,-0l0.007,11.287l-3.367,-3.367l-0,-9.12l2.179,-2.179l5.981,0" style="fill:none;stroke:#000;stroke-width:2px;"/><path d="M88.8,92.64l-20.64,-0l-3.36,3.36l0,-11.28l3.36,-1.2l-3.36,1.2l-2.64,0l2.64,-0l-0.007,11.287l3.367,-3.367l0,-9.12l-2.179,-2.179l-5.981,0" style="fill:none;stroke:#000;stroke-width:2px;"/><path d="M88.8,27.367l-20.64,-0l-3.36,-3.36l-0,11.28l3.36,1.2l-3.36,-1.2l-2.64,-0l2.64,-0l-0.007,-11.287l3.367,3.367l0,9.12l-2.179,2.179l-5.981,-0" style="fill:none;stroke:#000;stroke-width:2px;"/><path d="M31.2,27.367l20.64,-0l3.36,-3.36l-0,11.28l-3.36,1.2l3.36,-1.2l2.64,-0l-2.64,-0l0.007,-11.287l-3.367,3.367l-0,9.12l2.179,2.179l5.981,-0" style="fill:none;stroke:#000;stroke-width:2px;"/><circle cx="60" cy="36.247" r="2.4" style="fill:none;stroke:#000;stroke-width:2px;"/></svg>