<?xml version="1.0" encoding="UTF-8" standalone="no"?><!DOCTYPE svg PUBLIC "-//W3C//DTD SVG 1.1//EN" "http://www.w3.org/Graphics/SVG/1.1/DTD/svg11.dtd"><svg width="100%" height="100%" viewBox="0 0 120 120" version="1.1" xmlns="http://www.w3.org/2000/svg" xmlns:xlink="http://www.w3.org/1999/xlink" xml:space="preserve" xmlns:serif="http://www.serif.com/" style="fill-rule:evenodd;clip-rule:evenodd;stroke-linecap:round;stroke-linejoin:round;stroke-miterlimit:1.5;"><path d="M96,37.173l0,45.654c0,3.297 -2.676,5.973 -5.973,5.973l-60.054,0c-3.297,0 -5.973,-2.676 -5.973,-5.973l0,-45.654c0,-3.297 2.676,-5.973 5.973,-5.973l60.054,0c3.297,0 5.973,2.676 5.973,5.973Z" style="fill:#4eb84b;stroke:#000;stroke-width:2px;"/><path d="M86.4,44.662l0,28.276c0,0.807 -0.655,1.462 -1.462,1.462l-49.876,-0c-0.807,-0 -1.462,-0.655 -1.462,-1.462l-0,-28.276c-0,-0.807 0.655,-1.462 1.462,-1.462l49.876,-0c0.807,-0 1.462,0.655 1.462,1.462Z" style="fill:#fff;stroke:#000;stroke-width:2px;"/><path d="M40.8,78.24l-0,0.052" style="fill:none;stroke:#fff;stroke-width:2px;"/><path d="M47.28,78.24l0,0.057" style="fill:none;stroke:#fff;stroke-width:2px;"/></svg>