<?xml version="1.0" encoding="UTF-8" standalone="no"?><!DOCTYPE svg PUBLIC "-//W3C//DTD SVG 1.1//EN" "http://www.w3.org/Graphics/SVG/1.1/DTD/svg11.dtd"><svg width="100%" height="100%" viewBox="0 0 120 120" version="1.1" xmlns="http://www.w3.org/2000/svg" xmlns:xlink="http://www.w3.org/1999/xlink" xml:space="preserve" xmlns:serif="http://www.serif.com/" style="fill-rule:evenodd;clip-rule:evenodd;stroke-linecap:round;stroke-linejoin:round;stroke-miterlimit:1.5;"><path d="M96,33.394c0,-5.185 -4.208,-9.394 -9.392,-9.394l-53.216,0c-5.184,0 -9.392,4.209 -9.392,9.394l-0,53.212c-0,5.185 4.208,9.394 9.392,9.394l53.216,0c5.184,0 9.392,-4.209 9.392,-9.394l0,-53.212Z" style="fill:#4eb84b;stroke:#000;stroke-width:3.03px;"/><path d="M59.628,38.012l5.842,0c-0,0 0.487,2.019 2.716,2.104l-0,4.135l-8.558,0" style="fill:#fff;stroke:#000;stroke-width:3.03px;"/><path d="M59.773,38.012l-5.994,0c-0,0 -0.5,2.019 -2.787,2.104l-0,4.135l8.781,0" style="fill:#fff;stroke:#000;stroke-width:3.03px;"/><ellipse cx="59.745" cy="74.024" rx="10.703" ry="10.72" style="fill:#fff;stroke:#000;stroke-width:3.03px;"/></svg>