<?xml version="1.0" encoding="UTF-8" standalone="no"?><!DOCTYPE svg PUBLIC "-//W3C//DTD SVG 1.1//EN" "http://www.w3.org/Graphics/SVG/1.1/DTD/svg11.dtd"><svg width="100%" height="100%" viewBox="0 0 120 120" version="1.1" xmlns="http://www.w3.org/2000/svg" xmlns:xlink="http://www.w3.org/1999/xlink" xml:space="preserve" xmlns:serif="http://www.serif.com/" style="fill-rule:evenodd;clip-rule:evenodd;stroke-linecap:round;stroke-linejoin:round;stroke-miterlimit:1.5;"><path d="M69.6,24.965l-0,17.27c-0,0.532 -0.433,0.965 -0.965,0.965l-17.27,-0c-0.532,-0 -0.965,-0.433 -0.965,-0.965l-0,-17.27c-0,-0.532 0.433,-0.965 0.965,-0.965l17.27,0c0.532,0 0.965,0.433 0.965,0.965Z" style="fill:#4eb84b;stroke:#000;stroke-width:2px;"/><path d="M69.6,95.035l-0,-50.87c-0,-0.532 -0.433,-0.965 -0.965,-0.965l-17.27,0c-0.532,0 -0.965,0.433 -0.965,0.965l-0,50.87c-0,0.532 0.433,0.965 0.965,0.965l17.27,0c0.532,0 0.965,-0.433 0.965,-0.965Z" style="fill:#4eb84b;stroke:#000;stroke-width:2px;"/><path d="M60,68.88l0,24.24" style="fill:none;stroke:#000;stroke-width:2px;"/><rect x="57.12" y="35.28" width="5.76" height="3.84" style="fill:#fff;stroke:#000;stroke-width:2px;"/></svg>