<?xml version="1.0" encoding="UTF-8" standalone="no"?><!DOCTYPE svg PUBLIC "-//W3C//DTD SVG 1.1//EN" "http://www.w3.org/Graphics/SVG/1.1/DTD/svg11.dtd"><svg width="100%" height="100%" viewBox="0 0 120 120" version="1.1" xmlns="http://www.w3.org/2000/svg" xmlns:xlink="http://www.w3.org/1999/xlink" xml:space="preserve" xmlns:serif="http://www.serif.com/" style="fill-rule:evenodd;clip-rule:evenodd;stroke-linecap:round;stroke-linejoin:round;stroke-miterlimit:1.5;"><g><g><path d="M59.038,24l20.657,0c-0,0 1.354,-0.045 1.36,1.36c0.005,1.405 -0,62.125 -0,62.125l-3.289,8.527l-18.728,-0" style="fill:#4eb84b;stroke:#000;stroke-width:2px;"/><path d="M61.03,24l-20.658,0c0,0 -1.354,-0.045 -1.36,1.36c-0.005,1.405 0,62.125 0,62.125l3.29,8.527l18.728,-0" style="fill:#4eb84b;stroke:#000;stroke-width:2px;"/></g><circle cx="71.606" cy="48.877" r="3.002" style="fill:#fff;stroke:#000;stroke-width:2px;"/><path d="M80.73,48.966l-6.95,-6.493c-0,-0 -1.495,-1.065 -1.629,-4.445c-0.133,-3.38 0,-13.76 0,-13.76" style="fill:none;stroke:#000;stroke-width:2px;"/><path d="M69.883,63.384l4.872,-0l-0,8.329l1.716,15.051l-11.504,0l4.916,-15.051l0,-8.329Z" style="fill:none;stroke:#000;stroke-width:2px;"/><rect x="46.105" y="36.754" width="22.189" height="6.15" style="fill:#fff;stroke:#000;stroke-width:2px;"/><path d="M69.826,71.547l-27.684,0l-3.142,15.63" style="fill:none;stroke:#000;stroke-width:2px;"/><path d="M75.349,71.547l2.454,0l3.142,15.63" style="fill:none;stroke:#000;stroke-width:2px;"/><path d="M42.242,71.892l-0,-44.85l29.551,-0" style="fill:none;stroke:#000;stroke-width:2px;"/><path d="M77.895,71.892l-0,-25.119" style="fill:none;stroke:#000;stroke-width:2px;"/></g></svg>