<?xml version="1.0" encoding="UTF-8" standalone="no"?><!DOCTYPE svg PUBLIC "-//W3C//DTD SVG 1.1//EN" "http://www.w3.org/Graphics/SVG/1.1/DTD/svg11.dtd"><svg width="100%" height="100%" viewBox="0 0 120 120" version="1.1" xmlns="http://www.w3.org/2000/svg" xmlns:xlink="http://www.w3.org/1999/xlink" xml:space="preserve" xmlns:serif="http://www.serif.com/" style="fill-rule:evenodd;clip-rule:evenodd;stroke-linecap:round;stroke-linejoin:round;stroke-miterlimit:1.5;"><g><path d="M93.589,33.41c0,-5.194 -4.216,-9.41 -9.41,-9.41l-48.358,0c-5.194,0 -9.41,4.216 -9.41,9.41l-0,53.18c-0,5.194 4.216,9.41 9.41,9.41l1.37,0l1.7,-1.666l42.067,-0l1.682,1.666l1.539,0c5.194,0 9.41,-4.216 9.41,-9.41l0,-53.18Z" style="fill:#4eb84b;stroke:#000;stroke-width:2px;"/><path d="M79.089,90.845l5.831,-0c1.658,-0 3.004,-1.346 3.004,-3.004l-0,-55.461c-0,-1.658 -1.346,-3.004 -3.004,-3.004l-49.517,-0c-1.658,-0 -3.004,1.346 -3.004,3.004l0,55.461c0,1.658 1.346,3.004 3.004,3.004l31.434,-0" style="fill:#4eb84b;stroke:#000;stroke-width:2px;"/><path d="M67.604,83.119l10.498,-0.199l1.056,10.438l-12.539,-0l0.985,-10.239Z" style="fill:#fff;"/><g><path d="M66.576,94.334l0.861,-10.031c-0,-0 -0.181,-1.489 1.176,-1.51c1.357,-0.02 4.659,0 4.659,0" style="fill:#fff;stroke:#000;stroke-width:2px;"/><path d="M79.287,94.334l-0.86,-10.031c-0,-0 0.18,-1.489 -1.177,-1.51c-1.356,-0.02 -4.659,0 -4.659,0" style="fill:#fff;stroke:#000;stroke-width:2px;"/></g></g></svg>