<?xml version="1.0" encoding="UTF-8" standalone="no"?><!DOCTYPE svg PUBLIC "-//W3C//DTD SVG 1.1//EN" "http://www.w3.org/Graphics/SVG/1.1/DTD/svg11.dtd"><svg width="100%" height="100%" viewBox="0 0 120 120" version="1.1" xmlns="http://www.w3.org/2000/svg" xmlns:xlink="http://www.w3.org/1999/xlink" xml:space="preserve" xmlns:serif="http://www.serif.com/" style="fill-rule:evenodd;clip-rule:evenodd;stroke-linecap:round;stroke-linejoin:round;stroke-miterlimit:1.5;"><g><path d="M61.003,24.029c-13.61,0.006 -22.41,3.168 -22.41,3.168l-0,68.788l21.579,0" style="fill:#4eb84b;stroke:#000;stroke-width:2px;"/><path d="M59.109,24.029c13.61,0.006 22.411,3.168 22.411,3.168l-0,68.788l-21.58,0" style="fill:#4eb84b;stroke:#000;stroke-width:2px;"/><rect x="42.201" y="81.774" width="35.711" height="7.303" style="fill:#fff;stroke:#000;stroke-width:2px;"/><path d="M77.912,95.985l-0,-69.671l-0,62.874l-19.829,0l19.829,0l-0,-7.547l-19.829,0l19.829,0l-0,-7.562l-19.829,0l19.829,0l-0,-7.544l-19.829,-0l19.829,-0l-0,-8.037l-19.829,0l19.829,0l-0,-7.553l-19.829,0l19.829,0l-0,-7.56l-19.829,0l19.829,0l-0,-7.538l-19.829,-0l19.829,-0" style="fill:none;stroke:#000;stroke-width:2px;"/><path d="M42.201,95.985l-0,-69.671l-0,62.874l19.829,0l-19.829,0l-0,-7.547l19.829,0l-19.829,0l-0,-7.562l19.829,0l-19.829,0l-0,-7.544l19.829,-0l-19.829,-0l-0,-8.037l19.829,0l-19.829,0l-0,-7.553l19.829,0l-19.829,0l-0,-7.56l19.829,0l-19.829,0l-0,-7.538l19.829,-0l-19.829,-0" style="fill:none;stroke:#000;stroke-width:2px;"/></g></svg>