<?xml version="1.0" encoding="UTF-8" standalone="no"?><!DOCTYPE svg PUBLIC "-//W3C//DTD SVG 1.1//EN" "http://www.w3.org/Graphics/SVG/1.1/DTD/svg11.dtd"><svg width="100%" height="100%" viewBox="0 0 120 120" version="1.1" xmlns="http://www.w3.org/2000/svg" xmlns:xlink="http://www.w3.org/1999/xlink" xml:space="preserve" xmlns:serif="http://www.serif.com/" style="fill-rule:evenodd;clip-rule:evenodd;stroke-linecap:round;stroke-linejoin:round;stroke-miterlimit:1.5;"><path d="M81.194,27.781l-0,64.438c-0,2.087 -1.694,3.781 -3.781,3.781l-34.865,-0c-2.087,-0 -3.782,-1.694 -3.782,-3.781l0,-64.438c0,-2.087 1.695,-3.781 3.782,-3.781l34.865,-0c2.087,-0 3.781,1.694 3.781,3.781Z" style="fill:#4eb84b;stroke:#000;stroke-width:2px;"/><path d="M60,65.247c7.409,0 13.424,6.015 13.424,13.424c0,6.998 -5.366,12.752 -12.203,13.369c-0.402,0.036 -0.809,1.519 -1.221,1.519c-0.411,0 -0.818,-1.483 -1.22,-1.519c-6.838,-0.617 -12.203,-6.371 -12.203,-13.369c-0,-7.409 6.015,-13.424 13.423,-13.424Z" style="fill:#fff;stroke:#000;stroke-width:2px;"/><path d="M75.621,53.359l2.928,0" style="fill:none;stroke:#fff;stroke-width:2px;"/><path d="M75.621,56.518l2.928,0" style="fill:none;stroke:#fff;stroke-width:2px;"/><path d="M75.621,59.702l2.928,0" style="fill:none;stroke:#fff;stroke-width:2px;"/><path d="M75.621,62.861l2.928,0" style="fill:none;stroke:#fff;stroke-width:2px;"/><path d="M75.621,66.04l2.928,-0" style="fill:none;stroke:#fff;stroke-width:2px;"/></svg>