<?xml version="1.0" encoding="UTF-8" standalone="no"?><!DOCTYPE svg PUBLIC "-//W3C//DTD SVG 1.1//EN" "http://www.w3.org/Graphics/SVG/1.1/DTD/svg11.dtd"><svg width="100%" height="100%" viewBox="0 0 120 120" version="1.1" xmlns="http://www.w3.org/2000/svg" xmlns:xlink="http://www.w3.org/1999/xlink" xml:space="preserve" xmlns:serif="http://www.serif.com/" style="fill-rule:evenodd;clip-rule:evenodd;stroke-linecap:round;stroke-linejoin:round;stroke-miterlimit:1.5;"><g><path d="M58.704,24l2.605,0.001" style="fill:none;stroke:#000;stroke-width:2px;"/><g><path d="M58.689,24.004c-9.933,0.04 -12.907,0.446 -15.072,1.364c-2.164,0.919 -4.525,1.286 -7.338,2.315c-2.813,1.03 -3.549,1.244 -4.718,2.755c-0.172,0.223 -0.157,0.788 -0.157,0.788l-0,55.95c-0,0 0.013,2.531 1.431,4.17c1.419,1.638 2.451,2.022 3.444,2.294c0.992,0.273 13.219,2.304 13.219,2.304l9.191,-0" style="fill:#4eb848;stroke:#000;stroke-width:2px;"/><path d="M61.288,24.004c9.933,0.04 12.907,0.446 15.072,1.364c2.164,0.919 4.525,1.286 7.338,2.315c2.813,1.03 3.549,1.244 4.718,2.755c0.172,0.223 0.157,0.788 0.157,0.788l-0,55.95c-0,0 -0.013,2.531 -1.432,4.17c-1.418,1.638 -2.45,2.022 -3.443,2.294c-0.992,0.273 -13.219,2.304 -13.219,2.304l-9.191,-0" style="fill:#4eb848;stroke:#000;stroke-width:2px;"/></g><path d="M58.705,95.936l2.729,0.001" style="fill:none;stroke:#000;stroke-width:2px;"/><path d="M44.64,25.035c0.595,-0.128 1.843,1.086 1.259,2.287c-1.035,2.129 -1.634,4.14 -5.49,5.343c-3.856,1.202 -5.375,1.827 -6.516,2.786c-1.168,0.982 -2.379,1.364 -2.457,3.376c-0.078,2.012 -0.042,19.284 0,19.793c0.043,0.509 0.952,1.673 2.457,2.556c1.505,0.882 6.516,4.051 6.516,4.051c0,0 1.335,0.912 1.782,1.893c0.446,0.981 0.581,1.989 0.581,1.989l3.879,22.802c-0,-0 0.112,0.626 0.708,1.334c0.637,0.758 1.729,2.655 3.279,2.724c1.549,0.069 9.247,0 9.247,0c-0,0 7.825,0.069 9.374,0c1.549,-0.069 2.722,-1.966 3.359,-2.724c0.595,-0.708 0.708,-1.334 0.708,-1.334l3.879,-22.802c-0,-0 0.134,-1.008 0.581,-1.989c0.447,-0.981 1.782,-1.893 1.782,-1.893c-0,0 5.01,-3.169 6.515,-4.051c1.506,-0.883 2.43,-2.047 2.473,-2.556c0.042,-0.509 0.078,-17.781 -0,-19.793c-0.079,-2.012 -1.201,-2.585 -2.473,-3.376c-1.295,-0.806 -2.659,-1.584 -6.515,-2.786c-3.856,-1.203 -4.455,-3.214 -5.49,-5.343c-0.584,-1.201 0.663,-2.415 1.258,-2.287" style="fill:#fff;stroke:#000;stroke-width:2px;"/><path d="M75.336,25.035l-5.158,-0.719l-7.721,-0.231l-8.559,0l-5.98,0.506l-3.116,0.444" style="fill:none;stroke:#000;stroke-width:2px;"/><path d="M70.077,94.937l3.813,-68.05" style="fill:none;stroke:#000;stroke-width:2px;"/><path d="M49.453,95.065l-3.442,-68.137" style="fill:none;stroke:#000;stroke-width:2px;"/><g><path d="M88.743,63.751l2.788,0.23l3.025,-0c-0,-0 2.092,6.084 2.043,10.887c-0.049,4.803 -0.468,8.045 -2.869,13.493l-1.275,-1.51l-3.712,-0l-0,-23.1Z" style="fill:#fff;stroke:#000;stroke-width:2px;"/></g></g></svg>