<?xml version="1.0" encoding="UTF-8" standalone="no"?><!DOCTYPE svg PUBLIC "-//W3C//DTD SVG 1.1//EN" "http://www.w3.org/Graphics/SVG/1.1/DTD/svg11.dtd"><svg width="100%" height="100%" viewBox="0 0 120 120" version="1.1" xmlns="http://www.w3.org/2000/svg" xmlns:xlink="http://www.w3.org/1999/xlink" xml:space="preserve" xmlns:serif="http://www.serif.com/" style="fill-rule:evenodd;clip-rule:evenodd;stroke-linecap:round;stroke-linejoin:round;stroke-miterlimit:1.5;"><path d="M59.966,96c-14.604,0 -19.769,-3.589 -23.244,-9.6c-3.474,-6.011 -4.577,-25.498 -3.052,-41.76c1.526,-16.262 9.07,-20.64 25.49,-20.64c0.04,0 0.487,0 0.549,0c5.474,0 0.467,-0 -0.789,0c-1.58,0 -0.298,0 0.6,0c0.345,0 -2.822,0 -0.12,0c0.079,0 0.342,0 0.394,0c16.42,0 24.975,4.378 26.501,20.64c1.525,16.262 0.422,35.749 -3.052,41.76c-3.474,6.011 -8.64,9.6 -23.243,9.6" style="fill:#4eb84b;stroke:#000;stroke-width:2px;"/><path d="M44.581,76.08l1.533,-3.6l3.686,-27.6l2.813,-3.6l13.987,-0.248l2.921,2.648l4.626,30l3.253,4.104l7.739,3.096l-2.939,7.2l-7.2,6l-14.4,1.918l-14.4,-1.737l-8.412,-6.181l-2.962,-7.2l9.755,-4.8Z" style="fill:#fff;"/><path d="M60,40.56c-0,0 3.864,0.04 5.165,0.24c1.301,0.2 3.916,0.186 4.695,4.08c0.78,3.894 3.516,24.977 3.992,27.6c0.475,2.623 1.862,4.58 3.991,5.52c2.128,0.94 7.296,2.88 7.296,2.88" style="fill:none;stroke:#000;stroke-width:2px;"/><path d="M59.966,40.56c-0,0 -3.865,0.04 -5.166,0.24c-1.3,0.2 -3.915,0.186 -4.695,4.08c-0.78,3.894 -3.516,24.977 -3.991,27.6c-0.476,2.623 -1.863,4.58 -3.992,5.52c-2.128,0.94 -7.296,2.88 -7.296,2.88" style="fill:none;stroke:#000;stroke-width:2px;"/><path d="M59.966,96c-14.604,0 -19.769,-3.589 -23.244,-9.6c-3.474,-6.011 -4.577,-25.498 -3.052,-41.76c1.526,-16.262 9.07,-20.64 25.49,-20.64c0.04,0 0.487,0 0.549,0c5.474,0 0.467,-0 -0.789,0c-1.58,0 -0.298,0 0.6,0c0.345,0 -2.822,0 -0.12,0c0.079,0 0.342,0 0.394,0c16.42,0 24.975,4.378 26.501,20.64c1.525,16.262 0.422,35.749 -3.052,41.76c-3.474,6.011 -8.64,9.6 -23.243,9.6" style="fill:none;stroke:#000;stroke-width:2px;"/></svg>