<?xml version="1.0" encoding="UTF-8" standalone="no"?><!DOCTYPE svg PUBLIC "-//W3C//DTD SVG 1.1//EN" "http://www.w3.org/Graphics/SVG/1.1/DTD/svg11.dtd"><svg width="100%" height="100%" viewBox="0 0 120 120" version="1.1" xmlns="http://www.w3.org/2000/svg" xmlns:xlink="http://www.w3.org/1999/xlink" xml:space="preserve" xmlns:serif="http://www.serif.com/" style="fill-rule:evenodd;clip-rule:evenodd;stroke-linecap:round;stroke-linejoin:round;stroke-miterlimit:1.5;"><path d="M88.848,31.832l0,56.021c0,3.833 -2.98,6.677 -6.972,7.185c0,0 -14.587,0.962 -21.876,0.962c-7.289,-0 -21.876,-0.962 -21.876,-0.962c-4.264,-0.679 -6.972,-3.352 -6.972,-7.185l-0,-56.021c-0,-3.833 2.643,-6.685 6.972,-7.231c-0,0 9.799,-0.601 21.876,-0.601c12.077,-0 21.516,0.601 21.516,0.601c4.162,0.262 7.332,3.398 7.332,7.231Z" style="fill:#4eb84b;stroke:#000;stroke-width:2px;"/><circle cx="78.03" cy="62.584" r="1.202" style="fill:#fff;"/><circle cx="78.03" cy="68.594" r="1.202" style="fill:#fff;"/><circle cx="78.03" cy="74.604" r="1.202" style="fill:#fff;"/><circle cx="41.97" cy="62.584" r="1.202" style="fill:#fff;"/><circle cx="41.97" cy="68.594" r="1.202" style="fill:#fff;"/><circle cx="41.97" cy="74.604" r="1.202" style="fill:#fff;"/></svg>