<?xml version="1.0" encoding="UTF-8" standalone="no"?><!DOCTYPE svg PUBLIC "-//W3C//DTD SVG 1.1//EN" "http://www.w3.org/Graphics/SVG/1.1/DTD/svg11.dtd"><svg width="100%" height="100%" viewBox="0 0 120 120" version="1.1" xmlns="http://www.w3.org/2000/svg" xmlns:xlink="http://www.w3.org/1999/xlink" xml:space="preserve" xmlns:serif="http://www.serif.com/" style="fill-rule:evenodd;clip-rule:evenodd;stroke-linecap:round;stroke-linejoin:round;stroke-miterlimit:1.5;"><path d="M32.082,75.808l-2.261,0.062c-0,-0 -0.504,0.414 -0.528,3.428c-0.024,3.014 -0.01,7.557 0,8.043c0.01,0.485 0.264,1.186 0.264,1.186l2.525,-0.719" style="fill:#fff;stroke:#000;stroke-width:2px;"/><path d="M87.86,75.808l2.262,0.062c-0,-0 0.504,0.414 0.527,3.428c0.024,3.014 0.01,7.557 0,8.043c-0.01,0.485 -0.263,1.186 -0.263,1.186l-2.526,-0.719" style="fill:#fff;stroke:#000;stroke-width:2px;"/><path d="M87.757,28.142l0,63.716c0,1.522 -1.236,2.757 -2.757,2.757c-0,0 -16.549,1.385 -24.832,1.385c-8.283,-0 -24.867,-1.385 -24.867,-1.385c-1.522,0 -2.757,-1.235 -2.757,-2.757l-0,-63.716c-0,-1.522 1.235,-2.757 2.757,-2.757c0,-0 16.584,-1.385 24.867,-1.385c8.277,-0 24.832,1.385 24.832,1.385c1.521,-0 2.757,1.235 2.757,2.757Z" style="fill:#4eb84b;stroke:#000;stroke-width:2px;"/><circle cx="60.151" cy="77.787" r="5.406" style="fill:none;stroke:#fff;stroke-width:2px;"/></svg>