<?xml version="1.0" encoding="UTF-8" standalone="no"?><!DOCTYPE svg PUBLIC "-//W3C//DTD SVG 1.1//EN" "http://www.w3.org/Graphics/SVG/1.1/DTD/svg11.dtd"><svg width="100%" height="100%" viewBox="0 0 120 120" version="1.1" xmlns="http://www.w3.org/2000/svg" xmlns:xlink="http://www.w3.org/1999/xlink" xml:space="preserve" xmlns:serif="http://www.serif.com/" style="fill-rule:evenodd;clip-rule:evenodd;stroke-linecap:round;stroke-linejoin:round;stroke-miterlimit:1.5;"><g><g><path d="M60.994,23.935c15.39,0.332 21.085,2.545 21.085,2.545l2.702,6.568c-0,0 -0.195,31.721 -0.601,57.791l-2.715,2.591c-0,-0 -6.531,2.759 -20.471,2.497" style="fill:#4eb84b;stroke:#000;stroke-width:2px;"/><path d="M61.23,23.935c-15.39,0.332 -21.085,2.545 -21.085,2.545l-2.702,6.568c0,0 0.194,31.721 0.601,57.791l2.715,2.591c-0,-0 6.531,2.759 20.471,2.497" style="fill:#4eb84b;stroke:#000;stroke-width:2px;"/></g><g><path d="M60.994,33.701l9.788,-0l0,20.689c0,0 0.062,1.27 -0.953,1.47c-1.016,0.2 -3.955,0.96 -8.835,1.016" style="fill:#fff;stroke:#000;stroke-width:2px;"/><path d="M61.23,33.701l-9.789,-0l0,20.689c0,0 -0.061,1.27 0.954,1.47c1.015,0.2 3.955,0.96 8.835,1.016" style="fill:#fff;stroke:#000;stroke-width:2px;"/></g><circle cx="60.906" cy="73.436" r="10.704" style="fill:#fff;stroke:#000;stroke-width:2px;"/><path d="M81.315,26.46l-0.539,67.142" style="fill:none;stroke:#000;stroke-width:2px;"/><path d="M40.876,26.46l0.538,67.142" style="fill:none;stroke:#000;stroke-width:2px;"/><rect x="54.446" y="37.692" width="13.264" height="9.858" style="fill:#4eb84b;stroke:#000;stroke-width:2px;"/></g></svg>