<?xml version="1.0" encoding="UTF-8" standalone="no"?><!DOCTYPE svg PUBLIC "-//W3C//DTD SVG 1.1//EN" "http://www.w3.org/Graphics/SVG/1.1/DTD/svg11.dtd"><svg width="100%" height="100%" viewBox="0 0 120 120" version="1.1" xmlns="http://www.w3.org/2000/svg" xmlns:xlink="http://www.w3.org/1999/xlink" xml:space="preserve" xmlns:serif="http://www.serif.com/" style="fill-rule:evenodd;clip-rule:evenodd;stroke-linecap:round;stroke-linejoin:round;stroke-miterlimit:1.5;"><g><path d="M27.279,64.426l-3.195,1.312l2.742,16.692l3.332,-0" style="fill:#fff;stroke:#000;stroke-width:2px;"/><path d="M43.193,90.175l-0,5.762l10.149,-0l-0,-5.342" style="fill:#fff;stroke:#000;stroke-width:2px;"/><path d="M60.975,90.144l21.949,-0c0,-0 5.52,0.251 6.994,-8.489c1.473,-8.74 5.373,-25.384 2.135,-34.997c-4.569,-13.566 -16.92,-22.572 -31.992,-22.692" style="fill:#4eb848;stroke:#000;stroke-width:2px;"/><path d="M60.061,23.966c-0.041,-0 -0.082,-0 -0.123,-0" style="fill:none;stroke:#000;stroke-width:2px;"/><path d="M63.362,90.144l-26.165,-0c0,-0 -5.52,0.251 -6.993,-8.489c-1.474,-8.74 -5.373,-25.384 -2.136,-34.997c4.569,-13.566 16.921,-22.572 31.993,-22.692" style="fill:#4eb848;stroke:#000;stroke-width:2px;"/><path d="M60.061,23.966c0.041,-0 0.082,-0 0.123,-0" style="fill:none;stroke:#000;stroke-width:2px;"/><path d="M59.146,90.144l1.829,-0" style="fill:none;stroke:#000;stroke-width:2px;"/></g></svg>