<?xml version="1.0" encoding="UTF-8" standalone="no"?><!DOCTYPE svg PUBLIC "-//W3C//DTD SVG 1.1//EN" "http://www.w3.org/Graphics/SVG/1.1/DTD/svg11.dtd"><svg width="100%" height="100%" viewBox="0 0 120 120" version="1.1" xmlns="http://www.w3.org/2000/svg" xmlns:xlink="http://www.w3.org/1999/xlink" xml:space="preserve" xmlns:serif="http://www.serif.com/" style="fill-rule:evenodd;clip-rule:evenodd;stroke-linecap:round;stroke-linejoin:round;stroke-miterlimit:1.5;"><rect x="53.923" y="24" width="12.154" height="18.495" style="fill:#fff;stroke:#000;stroke-width:2px;"/><path d="M65.284,95.339l0,-52.844l-10.568,0l-0,52.844" style="fill:#4eb84b;stroke:#000;stroke-width:2px;"/><path d="M66.606,94.283l-1.322,-0l1.322,-0l-0,1.717l-13.212,-0l0,-1.717l1.322,-0" style="fill:none;stroke:#000;stroke-width:2px;"/><path d="M54.716,49.629c-0,0 -1.588,0.382 -1.586,0.925c0.003,0.544 1.586,1.057 1.586,1.057" style="fill:none;stroke:#000;stroke-width:2px;"/><path d="M54.716,51.479c-0,-0 -1.588,0.381 -1.586,0.925c0.003,0.543 1.586,1.057 1.586,1.057" style="fill:none;stroke:#000;stroke-width:2px;"/><path d="M54.716,53.328c-0,0 -1.588,0.382 -1.586,0.925c0.003,0.544 1.586,1.057 1.586,1.057" style="fill:none;stroke:#000;stroke-width:2px;"/><path d="M54.716,55.178c-0,-0 -1.588,0.381 -1.586,0.925c0.003,0.543 1.586,1.057 1.586,1.057" style="fill:none;stroke:#000;stroke-width:2px;"/><path d="M54.716,57.028c-0,-0 -1.588,0.381 -1.586,0.924c0.003,0.544 1.586,1.057 1.586,1.057" style="fill:none;stroke:#000;stroke-width:2px;"/><path d="M54.716,58.877c-0,0 -1.588,0.381 -1.586,0.925c0.003,0.543 1.586,1.057 1.586,1.057" style="fill:none;stroke:#000;stroke-width:2px;"/><path d="M54.716,60.727c-0,-0 -1.588,0.381 -1.586,0.924c0.003,0.544 1.586,1.057 1.586,1.057" style="fill:none;stroke:#000;stroke-width:2px;"/><path d="M54.716,62.576c-0,0 -1.588,0.381 -1.586,0.925c0.003,0.543 1.586,1.057 1.586,1.057" style="fill:none;stroke:#000;stroke-width:2px;"/><path d="M54.716,64.426c-0,-0 -1.588,0.381 -1.586,0.924c0.003,0.544 1.586,1.057 1.586,1.057" style="fill:none;stroke:#000;stroke-width:2px;"/><path d="M54.716,66.275c-0,0 -1.588,0.381 -1.586,0.925c0.003,0.544 1.586,1.057 1.586,1.057" style="fill:none;stroke:#000;stroke-width:2px;"/><path d="M54.716,68.125c-0,-0 -1.588,0.381 -1.586,0.925c0.003,0.543 1.586,1.056 1.586,1.056" style="fill:none;stroke:#000;stroke-width:2px;"/><path d="M54.716,69.974c-0,0 -1.588,0.382 -1.586,0.925c0.003,0.544 1.586,1.057 1.586,1.057" style="fill:none;stroke:#000;stroke-width:2px;"/><path d="M54.716,71.824c-0,-0 -1.588,0.381 -1.586,0.925c0.003,0.543 1.586,1.057 1.586,1.057" style="fill:none;stroke:#000;stroke-width:2px;"/><path d="M54.716,73.673c-0,0 -1.588,0.382 -1.586,0.925c0.003,0.544 1.586,1.057 1.586,1.057" style="fill:none;stroke:#000;stroke-width:2px;"/><path d="M54.716,75.523c-0,-0 -1.588,0.381 -1.586,0.925c0.003,0.543 1.586,1.057 1.586,1.057" style="fill:none;stroke:#000;stroke-width:2px;"/><path d="M54.716,77.372c-0,0 -1.588,0.382 -1.586,0.925c0.003,0.544 1.586,1.057 1.586,1.057" style="fill:none;stroke:#000;stroke-width:2px;"/><path d="M65.284,49.629c0,0 1.588,0.382 1.586,0.925c-0.003,0.544 -1.586,1.057 -1.586,1.057" style="fill:none;stroke:#000;stroke-width:2px;"/><path d="M65.284,51.479c0,-0 1.588,0.381 1.586,0.925c-0.003,0.543 -1.586,1.057 -1.586,1.057" style="fill:none;stroke:#000;stroke-width:2px;"/><path d="M65.284,53.328c0,0 1.588,0.382 1.586,0.925c-0.003,0.544 -1.586,1.057 -1.586,1.057" style="fill:none;stroke:#000;stroke-width:2px;"/><path d="M65.284,55.178c0,-0 1.588,0.381 1.586,0.925c-0.003,0.543 -1.586,1.057 -1.586,1.057" style="fill:none;stroke:#000;stroke-width:2px;"/><path d="M65.284,57.028c0,-0 1.588,0.381 1.586,0.924c-0.003,0.544 -1.586,1.057 -1.586,1.057" style="fill:none;stroke:#000;stroke-width:2px;"/><path d="M65.284,58.877c0,0 1.588,0.381 1.586,0.925c-0.003,0.543 -1.586,1.057 -1.586,1.057" style="fill:none;stroke:#000;stroke-width:2px;"/><path d="M65.284,60.727c0,-0 1.588,0.381 1.586,0.924c-0.003,0.544 -1.586,1.057 -1.586,1.057" style="fill:none;stroke:#000;stroke-width:2px;"/><path d="M65.284,62.576c0,0 1.588,0.381 1.586,0.925c-0.003,0.543 -1.586,1.057 -1.586,1.057" style="fill:none;stroke:#000;stroke-width:2px;"/><path d="M65.284,64.426c0,-0 1.588,0.381 1.586,0.924c-0.003,0.544 -1.586,1.057 -1.586,1.057" style="fill:none;stroke:#000;stroke-width:2px;"/><path d="M65.284,66.275c0,0 1.588,0.381 1.586,0.925c-0.003,0.544 -1.586,1.057 -1.586,1.057" style="fill:none;stroke:#000;stroke-width:2px;"/><path d="M65.284,68.125c0,-0 1.588,0.381 1.586,0.925c-0.003,0.543 -1.586,1.056 -1.586,1.056" style="fill:none;stroke:#000;stroke-width:2px;"/><path d="M65.284,69.974c0,0 1.588,0.382 1.586,0.925c-0.003,0.544 -1.586,1.057 -1.586,1.057" style="fill:none;stroke:#000;stroke-width:2px;"/><path d="M65.284,71.824c0,-0 1.588,0.381 1.586,0.925c-0.003,0.543 -1.586,1.057 -1.586,1.057" style="fill:none;stroke:#000;stroke-width:2px;"/><path d="M65.284,73.673c0,0 1.588,0.382 1.586,0.925c-0.003,0.544 -1.586,1.057 -1.586,1.057" style="fill:none;stroke:#000;stroke-width:2px;"/><path d="M65.284,75.523c0,-0 1.588,0.381 1.586,0.925c-0.003,0.543 -1.586,1.057 -1.586,1.057" style="fill:none;stroke:#000;stroke-width:2px;"/><path d="M65.284,77.372c0,0 1.588,0.382 1.586,0.925c-0.003,0.544 -1.586,1.057 -1.586,1.057" style="fill:none;stroke:#000;stroke-width:2px;"/></svg>