<?xml version="1.0" encoding="UTF-8" standalone="no"?><!DOCTYPE svg PUBLIC "-//W3C//DTD SVG 1.1//EN" "http://www.w3.org/Graphics/SVG/1.1/DTD/svg11.dtd"><svg width="100%" height="100%" viewBox="0 0 120 120" version="1.1" xmlns="http://www.w3.org/2000/svg" xmlns:xlink="http://www.w3.org/1999/xlink" xml:space="preserve" xmlns:serif="http://www.serif.com/" style="fill-rule:evenodd;clip-rule:evenodd;stroke-linecap:round;stroke-linejoin:round;stroke-miterlimit:1.5;"><path d="M60.24,24c11.786,0 20.041,0.683 22.56,1.2c2.519,0.517 5.299,1.985 5.52,6c0.221,4.015 0.216,13.759 0.24,24c0.024,10.241 -0.432,16.968 -0.72,23.28c-0.288,6.312 -0.462,8.84 -0.72,11.52c-0.258,2.68 -2.288,4.941 -5.76,5.28c-3.472,0.339 -12.225,0.72 -21.36,0.72c-9.135,0 9.135,0 0,0c-9.135,0 -17.888,-0.381 -21.36,-0.72c-3.472,-0.339 -5.502,-2.6 -5.76,-5.28c-0.258,-2.68 -0.432,-5.208 -0.72,-11.52c-0.288,-6.312 -0.744,-13.039 -0.72,-23.28c0.024,-10.241 0.019,-19.985 0.24,-24c0.221,-4.015 3.001,-5.483 5.52,-6c2.519,-0.517 10.774,-1.2 22.56,-1.2" style="fill:#4eb84b;stroke:#000;stroke-width:2px;"/><rect x="46.8" y="24.306" width="26.4" height="71.447" style="fill:#fff;"/><path d="M73.2,24.306l0,71.456" style="fill:none;stroke:#000;stroke-width:2px;"/><path d="M66,68.008l3.36,-0" style="fill:none;stroke:#4eb84b;stroke-width:2px;"/><path d="M46.8,24.306l-0,71.456" style="fill:none;stroke:#000;stroke-width:2px;"/><path d="M54,68.008l-3.36,-0" style="fill:none;stroke:#4eb84b;stroke-width:2px;"/><rect x="50.64" y="54.96" width="18.72" height="4.08" style="fill:#4eb84b;stroke:#000;stroke-width:2px;"/><path d="M60.24,24c11.786,0 20.041,0.683 22.56,1.2c2.519,0.517 5.299,1.985 5.52,6c0.221,4.015 0.216,13.759 0.24,24c0.024,10.241 -0.432,16.968 -0.72,23.28c-0.288,6.312 -0.462,8.84 -0.72,11.52c-0.258,2.68 -2.288,4.941 -5.76,5.28c-3.472,0.339 -12.225,0.72 -21.36,0.72c-9.135,0 9.135,0 0,0c-9.135,0 -17.888,-0.381 -21.36,-0.72c-3.472,-0.339 -5.502,-2.6 -5.76,-5.28c-0.258,-2.68 -0.432,-5.208 -0.72,-11.52c-0.288,-6.312 -0.744,-13.039 -0.72,-23.28c0.024,-10.241 0.019,-19.985 0.24,-24c0.221,-4.015 3.001,-5.483 5.52,-6c2.519,-0.517 10.774,-1.2 22.56,-1.2" style="fill:none;stroke:#000;stroke-width:2px;"/></svg>