<?xml version="1.0" encoding="UTF-8" standalone="no"?><!DOCTYPE svg PUBLIC "-//W3C//DTD SVG 1.1//EN" "http://www.w3.org/Graphics/SVG/1.1/DTD/svg11.dtd"><svg width="100%" height="100%" viewBox="0 0 120 120" version="1.1" xmlns="http://www.w3.org/2000/svg" xmlns:xlink="http://www.w3.org/1999/xlink" xml:space="preserve" xmlns:serif="http://www.serif.com/" style="fill-rule:evenodd;clip-rule:evenodd;stroke-linecap:round;stroke-linejoin:round;stroke-miterlimit:1.5;"><g><g><path d="M59.63,24c20.12,0.068 26.323,1.682 26.323,1.682c-0,-0 2.717,0.242 2.295,3.361c-0.422,3.118 -5.63,44.988 -6.161,47.809c-0.531,2.821 -4.248,17.139 -4.248,17.139c-0,-0 -0.427,1.743 -2.46,1.927c-2.033,0.184 -15.749,0 -15.749,0" style="fill:#4eb848;stroke:#000;stroke-width:2px;"/><path d="M60.178,24c-20.12,0.068 -26.322,1.682 -26.322,1.682c-0,-0 -2.718,0.242 -2.296,3.361c0.422,3.118 5.63,44.988 6.161,47.809c0.531,2.821 4.249,17.139 4.249,17.139c-0,-0 0.427,1.743 2.46,1.927c2.033,0.184 15.748,0 15.748,0" style="fill:#4eb848;stroke:#000;stroke-width:2px;"/></g><g><path d="M59.63,27.337c8.333,-0.066 21.827,1.032 21.827,1.032c0,0 -3.065,31.886 -5.687,46.295l-4.15,18.424l-11.99,-0" style="fill:#fff;stroke:#000;stroke-width:2px;"/><path d="M60.178,27.337c-8.332,-0.066 -21.827,1.032 -21.827,1.032c0,0 3.065,31.886 5.687,46.295l4.15,18.424l11.99,-0" style="fill:#fff;stroke:#000;stroke-width:2px;"/></g><ellipse cx="59.797" cy="84.142" rx="6.581" ry="5.375" style="fill:#4eb848;stroke:#000;stroke-width:2px;"/><path d="M37.48,74.892l44.835,0" style="fill:none;stroke:#000;stroke-width:2px;"/></g></svg>