<?xml version="1.0" encoding="UTF-8" standalone="no"?><!DOCTYPE svg PUBLIC "-//W3C//DTD SVG 1.1//EN" "http://www.w3.org/Graphics/SVG/1.1/DTD/svg11.dtd"><svg width="100%" height="100%" viewBox="0 0 120 120" version="1.1" xmlns="http://www.w3.org/2000/svg" xmlns:xlink="http://www.w3.org/1999/xlink" xml:space="preserve" xmlns:serif="http://www.serif.com/" style="fill-rule:evenodd;clip-rule:evenodd;stroke-linecap:round;stroke-linejoin:round;stroke-miterlimit:1.5;"><path d="M55.231,95.995c-0,0 -6.125,0.052 -9.284,-0.189c-3.158,-0.242 -4.68,-1.622 -5.115,-4.737c-0.436,-3.114 -2.486,-27.751 -2.814,-36.376c-0.329,-8.624 -0.262,-22.635 -0.218,-23.493c0.045,-0.857 0.059,-1.458 0.758,-2.463c0.699,-1.004 1.895,-0.947 1.895,-0.947c-0,0 3.572,-2.663 4.357,-3.221c0.785,-0.558 2.526,-0.566 3.032,-0.568c0.506,-0.002 7.351,-0 7.351,-0c0,-0 6.883,-0.002 7.389,-0c0.506,0.002 2.246,0.01 3.031,0.568c0.785,0.558 4.358,3.221 4.358,3.221c-0,0 1.195,-0.057 1.894,0.947c0.7,1.005 0.714,1.606 0.758,2.463c0.045,0.858 0.112,14.869 -0.217,23.493c-0.328,8.625 -2.379,33.262 -2.814,36.376c-0.435,3.115 -1.957,4.495 -5.115,4.737c-3.159,0.241 -9.284,0.189 -9.284,0.189" style="fill:#4eb84b;stroke:#000;stroke-width:2px;"/><path d="M55.193,89.933c0,-0 4.986,-0.098 6.442,-0.379c1.455,-0.282 2.213,-1.038 2.463,-3.221c0.249,-2.183 5.326,-50.563 5.494,-51.912c0.168,-1.348 -0.147,-2.686 -0.947,-3.41c-0.8,-0.724 -3.52,-2.446 -3.979,-2.842c-0.458,-0.396 -1.258,-0.925 -2.084,-0.947c-0.826,-0.022 -7.389,-0 -7.389,-0c0,-0 -6.563,-0.022 -7.389,-0c-0.826,0.022 -1.625,0.551 -2.084,0.947c-0.458,0.396 -3.179,2.118 -3.978,2.842c-0.8,0.724 -1.115,2.062 -0.948,3.41c0.168,1.349 5.245,49.729 5.495,51.912c0.249,2.183 1.007,2.939 2.463,3.221c1.455,0.281 6.441,0.379 6.441,0.379" style="fill:#fff;stroke:#000;stroke-width:2px;"/><path d="M51.404,52.799l7.578,-0" style="fill:none;stroke:#4eb84b;stroke-width:2px;"/></svg>