<?xml version="1.0" encoding="UTF-8" standalone="no"?><!DOCTYPE svg PUBLIC "-//W3C//DTD SVG 1.1//EN" "http://www.w3.org/Graphics/SVG/1.1/DTD/svg11.dtd"><svg width="100%" height="100%" viewBox="0 0 120 120" version="1.1" xmlns="http://www.w3.org/2000/svg" xmlns:xlink="http://www.w3.org/1999/xlink" xml:space="preserve" xmlns:serif="http://www.serif.com/" style="fill-rule:evenodd;clip-rule:evenodd;stroke-linecap:round;stroke-linejoin:round;stroke-miterlimit:1.5;"><path d="M80.88,22.044l-0,67.872c-0,1.835 -1.489,3.324 -3.324,3.324l-34.872,0c-1.835,0 -3.324,-1.489 -3.324,-3.324l-0,-67.872c-0,-1.835 1.489,-3.324 3.324,-3.324l34.872,0c1.835,0 3.324,1.489 3.324,3.324Z" style="fill:#4eb84b;stroke:#000;stroke-width:2px;"/><path d="M80.88,24.816l-0,23.358c-0,1.229 -0.997,2.226 -2.226,2.226l-37.068,0c-1.229,0 -2.226,-0.997 -2.226,-2.226l-0,-23.358c-0,-1.228 0.997,-2.226 2.226,-2.226l37.068,0c1.229,0 2.226,0.998 2.226,2.226Z" style="fill:#fff;stroke:#000;stroke-width:2px;"/><path d="M60.009,64.32c6.947,0 12.587,5.641 12.587,12.588c0,6.947 -5.64,12.588 -12.588,12.588c-6.947,-0.001 -12.588,-5.641 -12.587,-12.589c-0,-6.947 5.64,-12.587 12.588,-12.587Z" style="fill:#fff;"/><circle cx="60.008" cy="76.908" r="9.948" style="fill:#4eb84b;stroke:#000;stroke-width:2px;"/></svg>