<?xml version="1.0" encoding="UTF-8" standalone="no"?><!DOCTYPE svg PUBLIC "-//W3C//DTD SVG 1.1//EN" "http://www.w3.org/Graphics/SVG/1.1/DTD/svg11.dtd"><svg width="100%" height="100%" viewBox="0 0 120 120" version="1.1" xmlns="http://www.w3.org/2000/svg" xmlns:xlink="http://www.w3.org/1999/xlink" xml:space="preserve" xmlns:serif="http://www.serif.com/" style="fill-rule:evenodd;clip-rule:evenodd;stroke-linecap:round;stroke-linejoin:round;stroke-miterlimit:1.5;"><path d="M95.999,37.477l-0,45.046c-0,7.438 -6.039,13.476 -13.477,13.476l-45.045,0c-7.438,0 -13.477,-6.038 -13.477,-13.476l0,-45.046c0,-7.438 6.039,-13.476 13.477,-13.476l45.045,-0c7.438,-0 13.477,6.038 13.477,13.476Z" style="fill:#4eb84b;stroke:#000;stroke-width:2px;"/><path d="M59.866,38.24c11.935,-0 21.625,9.69 21.625,21.626c-0,11.936 -9.691,21.626 -21.626,21.626c-11.936,-0.001 -21.626,-9.691 -21.626,-21.627c0,-11.936 9.691,-21.626 21.627,-21.625Z" style="fill:#fff;"/><circle cx="59.865" cy="59.866" r="17.597" style="fill:#4eb84b;stroke:#000;stroke-width:2px;"/></svg>