<?xml version="1.0" encoding="UTF-8" standalone="no"?><!DOCTYPE svg PUBLIC "-//W3C//DTD SVG 1.1//EN" "http://www.w3.org/Graphics/SVG/1.1/DTD/svg11.dtd"><svg width="100%" height="100%" viewBox="0 0 120 120" version="1.1" xmlns="http://www.w3.org/2000/svg" xmlns:xlink="http://www.w3.org/1999/xlink" xml:space="preserve" xmlns:serif="http://www.serif.com/" style="fill-rule:evenodd;clip-rule:evenodd;stroke-linecap:round;stroke-linejoin:round;stroke-miterlimit:1.5;"><path d="M60.04,96l-9.116,0l-6.312,-3.039c-0,0 -2.337,-8.811 -3.507,-19.169c-1.17,-10.357 -1.117,-18.721 -0.233,-27.584c0.883,-8.863 3.974,-19.403 3.974,-19.403c4.747,-2.763 15.194,-2.805 15.194,-2.805c0,0 10.521,-0.081 15.195,2.805c0,0 3.091,10.54 3.974,19.403c0.884,8.863 0.936,17.227 -0.234,27.584c-1.17,10.358 -3.506,19.169 -3.506,19.169l-6.312,3.039l-9.117,0" style="fill:#4eb84b;stroke:#000;stroke-width:2px;"/><path d="M50.924,96l1.519,-23.61l15.078,-0l1.636,23.376l-18.233,0.234Z" style="fill:#fff;"/><path d="M50.924,96c-0,0 0.775,-17.971 0.935,-21.974c0.044,-1.107 0.16,-2.088 2.571,-2.104c2.411,-0.015 5.61,0 5.61,0" style="fill:none;stroke:#000;stroke-width:2px;"/><path d="M69.157,96c0,0 -0.775,-17.971 -0.935,-21.974c-0.044,-1.107 -0.16,-2.088 -2.571,-2.104c-2.412,-0.015 -5.611,0 -5.611,0" style="fill:none;stroke:#000;stroke-width:2px;"/><path d="M60.04,35.445l0,21.984" style="fill:none;stroke:#fff;stroke-width:2px;"/><path d="M60.04,96l-9.116,0l-6.312,-3.039c-0,0 -2.337,-8.811 -3.507,-19.169c-1.17,-10.357 -1.117,-18.721 -0.233,-27.584c0.883,-8.863 3.974,-19.403 3.974,-19.403c4.747,-2.763 15.194,-2.805 15.194,-2.805c0,0 10.521,-0.081 15.195,2.805c0,0 3.091,10.54 3.974,19.403c0.884,8.863 0.936,17.227 -0.234,27.584c-1.17,10.358 -3.506,19.169 -3.506,19.169l-6.312,3.039l-9.117,0" style="fill:none;stroke:#000;stroke-width:2px;"/></svg>