<?xml version="1.0" encoding="UTF-8" standalone="no"?><!DOCTYPE svg PUBLIC "-//W3C//DTD SVG 1.1//EN" "http://www.w3.org/Graphics/SVG/1.1/DTD/svg11.dtd"><svg width="100%" height="100%" viewBox="0 0 120 120" version="1.1" xmlns="http://www.w3.org/2000/svg" xmlns:xlink="http://www.w3.org/1999/xlink" xml:space="preserve" xmlns:serif="http://www.serif.com/" style="fill-rule:evenodd;clip-rule:evenodd;stroke-linecap:round;stroke-linejoin:round;stroke-miterlimit:1.5;"><rect x="27.644" y="24" width="64.872" height="71.096" style="fill:#4eb84b;stroke:#000;stroke-width:2px;"/><circle cx="41.508" cy="48.196" r="5.217" style="fill:#fff;stroke:#000;stroke-width:2px;"/><circle cx="44.219" cy="61.086" r="5.217" style="fill:#fff;stroke:#000;stroke-width:2px;"/><rect x="76.629" y="24.23" width="6.435" height="6.894" style="fill:#fff;stroke:#000;stroke-width:2px;"/><rect x="55.696" y="24" width="8.503" height="8.043" style="fill:#fff;stroke:#000;stroke-width:2px;"/><rect x="44.425" y="24" width="8.503" height="8.043" style="fill:#fff;stroke:#000;stroke-width:2px;"/><rect x="36.543" y="24" width="5.121" height="5.724" style="fill:#fff;stroke:#000;stroke-width:2px;"/><rect x="47.93" y="72.201" width="7.531" height="5.724" style="fill:#fff;stroke:#000;stroke-width:2px;"/><rect x="32.264" y="76.117" width="12.653" height="3.615" style="fill:#fff;stroke:#000;stroke-width:2px;"/><rect x="32.264" y="85.155" width="4.218" height="6.628" style="fill:#fff;stroke:#000;stroke-width:2px;"/><rect x="43.109" y="87.866" width="4.218" height="8.134" style="fill:#fff;stroke:#000;stroke-width:2px;"/><rect x="58.412" y="72.201" width="7.531" height="5.724" style="fill:#fff;stroke:#000;stroke-width:2px;"/><rect x="68.752" y="74.611" width="4.36" height="3.314" style="fill:#fff;stroke:#000;stroke-width:2px;"/><rect x="73.837" y="69.311" width="14.762" height="2.625" style="fill:#fff;stroke:#000;stroke-width:2px;"/><rect x="64.419" y="41.925" width="13.789" height="15.857" style="fill:#fff;stroke:#000;stroke-width:2px;"/><rect x="66.967" y="28.022" width="6.894" height="4.022" style="fill:#fff;stroke:#000;stroke-width:2px;"/><rect x="66.967" y="24" width="6.894" height="4.022" style="fill:#fff;stroke:#000;stroke-width:2px;"/><path d="M68.326,34.801l5.055,0l0,2.988l-1.149,1.149l-2.987,-0l-0.919,-1.034l-0,-3.103Z" style="fill:#fff;stroke:#000;stroke-width:2px;"/><circle cx="80.506" cy="37.787" r="2.068" style="fill:#fff;stroke:#000;stroke-width:2px;"/><rect x="54.756" y="43.064" width="6.894" height="7.124" style="fill:#fff;stroke:#000;stroke-width:2px;"/><rect x="54.527" y="52.956" width="7.124" height="4.826" style="fill:#fff;stroke:#000;stroke-width:2px;"/><rect x="57.268" y="82.745" width="29.523" height="12.351" style="fill:#fff;stroke:#000;stroke-width:2px;"/></svg>