<?xml version="1.0" encoding="UTF-8" standalone="no"?><!DOCTYPE svg PUBLIC "-//W3C//DTD SVG 1.1//EN" "http://www.w3.org/Graphics/SVG/1.1/DTD/svg11.dtd"><svg width="100%" height="100%" viewBox="0 0 120 120" version="1.1" xmlns="http://www.w3.org/2000/svg" xmlns:xlink="http://www.w3.org/1999/xlink" xml:space="preserve" xmlns:serif="http://www.serif.com/" style="fill-rule:evenodd;clip-rule:evenodd;stroke-linecap:round;stroke-linejoin:round;stroke-miterlimit:1.5;"><path d="M67.398,28.523l0,62.954c0,0.449 -0.364,0.813 -0.813,0.813l-13.211,0c-0.449,0 -0.814,-0.364 -0.814,-0.813l-0,-62.954c-0,-0.449 0.365,-0.813 0.814,-0.813l13.211,-0c0.449,-0 0.813,0.364 0.813,0.813Z" style="fill:#4eb84b;stroke:#000;stroke-width:2px;"/><path d="M67.398,36.814l0,46.372c0,0.449 -0.364,0.814 -0.813,0.814l-13.211,0c-0.449,0 -0.814,-0.365 -0.814,-0.814l-0,-46.372c-0,-0.449 0.365,-0.814 0.814,-0.814l13.211,0c0.449,0 0.813,0.365 0.813,0.814Z" style="fill:#4eb84b;stroke:#000;stroke-width:2px;"/><rect x="53.909" y="24" width="12.141" height="3.71" style="fill:#fff;stroke:#000;stroke-width:2px;"/><rect x="53.909" y="92.29" width="12.141" height="3.71" style="fill:#fff;stroke:#000;stroke-width:2px;"/><path d="M64.059,47.369l0,6.714c0,0.8 -0.649,1.449 -1.448,1.449l-2.162,-0c-0.799,-0 -1.448,-0.649 -1.448,-1.449l-0,-6.714c-0,-0.8 0.649,-1.449 1.448,-1.449l2.162,0c0.799,0 1.448,0.649 1.448,1.449Z" style="fill:#fff;stroke:#000;stroke-width:2px;"/><rect x="55.899" y="59.76" width="3.094" height="5.733" style="fill:#fff;stroke:#000;stroke-width:2px;"/><rect x="56.069" y="46.258" width="0" height="9.105" style="fill:#4eb84b;stroke:#000;stroke-width:2px;"/><circle cx="63.267" cy="62.698" r="1.77" style="fill:#fff;stroke:#000;stroke-width:2px;"/></svg>