<?xml version="1.0" encoding="UTF-8" standalone="no"?><!DOCTYPE svg PUBLIC "-//W3C//DTD SVG 1.1//EN" "http://www.w3.org/Graphics/SVG/1.1/DTD/svg11.dtd"><svg width="100%" height="100%" viewBox="0 0 120 120" version="1.1" xmlns="http://www.w3.org/2000/svg" xmlns:xlink="http://www.w3.org/1999/xlink" xml:space="preserve" xmlns:serif="http://www.serif.com/" style="fill-rule:evenodd;clip-rule:evenodd;stroke-linecap:round;stroke-linejoin:round;stroke-miterlimit:1.5;"><g><rect x="17.28" y="24" width="85.429" height="72" style="fill:#4eb84b;stroke:#000;stroke-width:2px;"/><rect x="80.709" y="24.286" width="8" height="8.571" style="fill:#fff;stroke:#000;stroke-width:2px;"/><rect x="55.28" y="24" width="10.571" height="10" style="fill:#fff;stroke:#000;stroke-width:2px;"/><rect x="41.566" y="24" width="10.571" height="10" style="fill:#fff;stroke:#000;stroke-width:2px;"/><circle cx="34.994" cy="55.429" r="6.571" style="fill:#fff;stroke:#000;stroke-width:2px;"/><circle cx="38.994" cy="71.714" r="6.571" style="fill:#fff;stroke:#000;stroke-width:2px;"/><rect x="66.423" y="46.286" width="17.143" height="19.714" style="fill:#fff;stroke:#000;stroke-width:2px;"/><rect x="68.994" y="29" width="8.571" height="5" style="fill:#fff;stroke:#000;stroke-width:2px;"/><rect x="68.994" y="24" width="8.571" height="5" style="fill:#fff;stroke:#000;stroke-width:2px;"/><rect x="76.423" y="84.286" width="21.429" height="3.714" style="fill:#fff;stroke:#000;stroke-width:2px;"/><path d="M60.137,88.583l0,-2.012l4,0l0,2.012l2,-0l0,4.274l-8.286,0l0,-4.274l2.286,-0Z" style="fill:#fff;stroke:#000;stroke-width:2px;"/><path d="M48.28,88.583l0,-2.012l4,0l0,2.012l2,-0l0,4.274l-8.286,0l0,-4.274l2.286,-0Z" style="fill:#fff;stroke:#000;stroke-width:2px;"/><path d="M36.137,31.417l0,2.012l-4,-0l0,-2.012l-2,0l0,-4.274l8.286,-0l-0,4.274l-2.286,0Z" style="fill:#fff;stroke:#000;stroke-width:2px;"/><path d="M71.28,37.429l6.286,-0l-0,3.714l-1.429,1.428l-3.714,0l-1.143,-1.285l0,-3.857Z" style="fill:#fff;stroke:#000;stroke-width:2px;"/><circle cx="86.423" cy="41.143" r="2.571" style="fill:#fff;stroke:#000;stroke-width:2px;"/><rect x="54.709" y="48" width="8.571" height="8.857" style="fill:#fff;stroke:#000;stroke-width:2px;"/><rect x="54.423" y="60" width="8.857" height="6" style="fill:#fff;stroke:#000;stroke-width:2px;"/></g></svg>