<?xml version="1.0" encoding="UTF-8" standalone="no"?><!DOCTYPE svg PUBLIC "-//W3C//DTD SVG 1.1//EN" "http://www.w3.org/Graphics/SVG/1.1/DTD/svg11.dtd"><svg width="100%" height="100%" viewBox="0 0 120 120" version="1.1" xmlns="http://www.w3.org/2000/svg" xmlns:xlink="http://www.w3.org/1999/xlink" xml:space="preserve" xmlns:serif="http://www.serif.com/" style="fill-rule:evenodd;clip-rule:evenodd;stroke-linecap:round;stroke-linejoin:round;stroke-miterlimit:1.5;"><path d="M60,96c-8.079,0 -9.087,-1.681 -10.703,-6.811c-1.615,-5.13 -5.288,-17.152 -9.081,-31.135c-3.792,-13.983 -5.046,-13.469 -1.135,-21.892c3.911,-8.422 7.067,-11.023 9.243,-11.513c1.342,-0.303 5.465,-0.649 8.433,-0.649l6.486,0c2.976,0 7.091,0.346 8.433,0.649c2.176,0.49 5.332,3.091 9.243,11.513c3.911,8.423 2.657,7.909 -1.135,21.892c-3.793,13.983 -7.466,26.005 -9.081,31.135c-1.616,5.13 -2.624,6.811 -10.703,6.811Zm0,-12.324c1.143,-0 4.567,0.092 5.4,-0.156c1.118,-0.332 1.904,-0.82 2.64,-2.76c1.373,-3.62 3.96,-7.787 3.96,-7.787c-2.613,3.264 -7.489,3.243 -8.757,3.243l-6.486,0c-1.268,0 -6.144,0.021 -8.757,-3.243c0,-0 2.744,4.111 3.96,7.787c0.722,2.184 1.322,2.499 2.64,2.76c0.693,0.137 4.477,0.156 5.4,0.156Z" style="fill:#4eb84b;stroke:#000;stroke-width:2px;"/><path d="M48.973,42.486l22.054,0" style="fill:none;stroke:#fff;stroke-width:2px;"/><path d="M57.73,83.351l6.59,0.169l2.4,-1.2l9.821,-15.509l-2.919,12.973l-5.19,14.594l-7.459,1.622l-10.054,-1.946l-4.865,-15.243l-2.919,-11.676l8.945,13.025l0.72,2.411l4.93,0.78Z" style="fill:#fff;"/><path d="M60,96c-8.079,0 -9.087,-1.681 -10.703,-6.811c-1.615,-5.13 -5.288,-17.152 -9.081,-31.135c-3.792,-13.983 -5.046,-13.469 -1.135,-21.892c3.911,-8.422 7.067,-11.023 9.243,-11.513c1.342,-0.303 5.465,-0.649 8.433,-0.649l6.486,0c2.976,0 7.091,0.346 8.433,0.649c2.176,0.49 5.332,3.091 9.243,11.513c3.911,8.423 2.657,7.909 -1.135,21.892c-3.793,13.983 -7.466,26.005 -9.081,31.135c-1.616,5.13 -2.624,6.811 -10.703,6.811Zm0,-12.324c1.143,-0 4.567,0.092 5.4,-0.156c1.118,-0.332 1.904,-0.82 2.64,-2.76c1.373,-3.62 3.96,-7.787 3.96,-7.787c-2.613,3.264 -7.489,3.243 -8.757,3.243l-6.486,0c-1.268,0 -6.144,0.021 -8.757,-3.243c0,-0 2.744,4.111 3.96,7.787c0.722,2.184 1.322,2.499 2.64,2.76c0.693,0.137 4.477,0.156 5.4,0.156Z" style="fill:none;stroke:#000;stroke-width:2px;"/><path d="M48,72.973c-0.938,-1.172 -2.207,-3.179 -3.568,-5.838c-2.427,-4.744 -4.692,-10.858 -5.306,-12.973" style="fill:none;stroke:#000;stroke-width:2px;"/><path d="M72,72.973c0.938,-1.172 2.207,-3.179 3.568,-5.838c2.427,-4.744 4.692,-10.858 5.306,-12.973" style="fill:none;stroke:#000;stroke-width:2px;"/></svg>