<?xml version="1.0" encoding="UTF-8" standalone="no"?><!DOCTYPE svg PUBLIC "-//W3C//DTD SVG 1.1//EN" "http://www.w3.org/Graphics/SVG/1.1/DTD/svg11.dtd"><svg width="100%" height="100%" viewBox="0 0 120 120" version="1.1" xmlns="http://www.w3.org/2000/svg" xmlns:xlink="http://www.w3.org/1999/xlink" xml:space="preserve" xmlns:serif="http://www.serif.com/" style="fill-rule:evenodd;clip-rule:evenodd;stroke-linecap:round;stroke-linejoin:round;stroke-miterlimit:1.5;"><path d="M95.954,33.744l-0,52.512c-0,5.378 -4.366,9.744 -9.744,9.744l-52.512,-0c-5.378,-0 -9.744,-4.366 -9.744,-9.744l-0,-52.512c-0,-5.378 4.366,-9.744 9.744,-9.744l52.512,-0c5.378,-0 9.744,4.366 9.744,9.744Z" style="fill:#4eb84b;stroke:#000;stroke-width:2px;"/><path d="M91.154,33.908l-0,52.184c-0,2.819 -2.289,5.108 -5.108,5.108l-52.184,-0c-2.819,-0 -5.108,-2.289 -5.108,-5.108l-0,-52.184c-0,-2.819 2.289,-5.108 5.108,-5.108l52.184,-0c2.819,-0 5.108,2.289 5.108,5.108Z" style="fill:#4eb84b;stroke:#000;stroke-width:2px;"/></svg>