<?xml version="1.0" encoding="UTF-8" standalone="no"?><!DOCTYPE svg PUBLIC "-//W3C//DTD SVG 1.1//EN" "http://www.w3.org/Graphics/SVG/1.1/DTD/svg11.dtd"><svg width="100%" height="100%" viewBox="0 0 120 120" version="1.1" xmlns="http://www.w3.org/2000/svg" xmlns:xlink="http://www.w3.org/1999/xlink" xml:space="preserve" xmlns:serif="http://www.serif.com/" style="fill-rule:evenodd;clip-rule:evenodd;stroke-linecap:round;stroke-linejoin:round;stroke-miterlimit:1.5;"><path d="M60,95.984c-0,0 -17.52,0.608 -30.536,-5.725c-13.015,-6.333 -16.221,-17.622 -16.085,-30.263c0.136,-12.743 4.535,-23.954 13.632,-29.173c9.096,-5.219 20.731,-6.33 24.81,-6.543c2.667,-0.14 4.351,-0.239 5.862,-0.273c0.799,-0.018 1.619,0.022 2.317,0c3.055,-0.035 4.1,0.059 8.179,0.273c4.079,0.213 15.714,1.324 24.81,6.543c9.097,5.219 13.881,16.618 13.632,29.173c-0.25,12.639 -3.07,23.93 -16.085,30.263c-13.016,6.333 -30.536,5.725 -30.536,5.725" style="fill:#4eb84b;stroke:#000;stroke-width:2px;"/><path d="M60,44.728c9.781,-0 16.086,5.76 16.086,15.54c-0,9.781 -6.305,16.086 -16.086,16.086c-9.781,0 -15.54,-6.305 -15.54,-16.086c-0,-9.78 5.759,-15.54 15.54,-15.54Z" style="fill:#fff;stroke:#000;stroke-width:2px;"/></svg>