<?xml version="1.0" encoding="UTF-8" standalone="no"?><!DOCTYPE svg PUBLIC "-//W3C//DTD SVG 1.1//EN" "http://www.w3.org/Graphics/SVG/1.1/DTD/svg11.dtd"><svg width="100%" height="100%" viewBox="0 0 120 120" version="1.1" xmlns="http://www.w3.org/2000/svg" xmlns:xlink="http://www.w3.org/1999/xlink" xml:space="preserve" xmlns:serif="http://www.serif.com/" style="fill-rule:evenodd;clip-rule:evenodd;stroke-linecap:round;stroke-linejoin:round;stroke-miterlimit:1.5;"><g><path d="M28.624,42.563l31.6,-18.523l31.038,17.718l0.352,35.982l-30.956,18.304l-31.543,-18.244l-0.491,-35.237Z" style="fill:#4eb84b;"/><path d="M56.641,25.589c2.595,-1.618 4.289,-1.59 7.012,-0.034c2.722,1.556 24.562,14.043 24.562,14.043" style="fill:none;stroke:#000;stroke-width:2px;"/><path d="M88.293,39.642c2.699,1.439 3.522,2.92 3.536,6.055c0.014,3.136 0.119,28.293 0.119,28.293" style="fill:none;stroke:#000;stroke-width:2px;"/><path d="M91.953,74.149c0.103,3.056 -0.768,4.51 -3.477,6.09c-2.708,1.579 -24.442,14.249 -24.442,14.249" style="fill:none;stroke:#000;stroke-width:2px;"/><path d="M63.879,94.58c-2.595,1.618 -4.289,1.59 -7.012,0.034c-2.722,-1.556 -24.562,-14.043 -24.562,-14.043" style="fill:none;stroke:#000;stroke-width:2px;"/><path d="M32.116,80.466c-2.699,-1.439 -3.522,-2.92 -3.536,-6.055c-0.014,-3.136 -0.119,-28.293 -0.119,-28.293" style="fill:none;stroke:#000;stroke-width:2px;"/><path d="M28.474,46.099c-0.103,-3.057 0.768,-4.51 3.476,-6.09c2.709,-1.58 24.443,-14.25 24.443,-14.25" style="fill:none;stroke:#000;stroke-width:2px;"/><path d="M33.616,60.786c0,-0 0.006,12.176 0,13.14c-0.002,0.448 0.14,1.045 0.432,1.43c0.337,0.443 0.86,0.661 1.383,0.973c0.977,0.584 10.766,6.339 10.766,6.339" style="fill:none;stroke:#fff;stroke-width:2px;"/><path d="M86.811,60.786c0,-0 -0.005,12.176 0,13.14c0.003,0.448 -0.139,1.045 -0.431,1.43c-0.337,0.443 -0.86,0.661 -1.383,0.973c-0.977,0.584 -10.766,6.339 -10.766,6.339" style="fill:none;stroke:#fff;stroke-width:2px;"/><path d="M29.42,42.096l30.755,17.33l0,36.064l0,-36.064" style="fill:none;stroke:#000;stroke-width:2px;"/><path d="M91.049,42.069l-30.868,17.339l0,36.082l0,-36.082l30.868,-17.339Z" style="fill:none;stroke:#000;stroke-width:2px;"/></g></svg>