<?xml version="1.0" encoding="UTF-8" standalone="no"?><!DOCTYPE svg PUBLIC "-//W3C//DTD SVG 1.1//EN" "http://www.w3.org/Graphics/SVG/1.1/DTD/svg11.dtd"><svg width="100%" height="100%" viewBox="0 0 120 120" version="1.1" xmlns="http://www.w3.org/2000/svg" xmlns:xlink="http://www.w3.org/1999/xlink" xml:space="preserve" xmlns:serif="http://www.serif.com/" style="fill-rule:evenodd;clip-rule:evenodd;stroke-linecap:round;stroke-linejoin:round;stroke-miterlimit:1.5;"><path d="M60.015,96l-28.225,-16.334l-0,-39.201l28.225,-16.465l28.225,16.465l-0,39.201l-28.225,16.334" style="fill:#4eb84b;stroke:#000;stroke-width:2px;"/><path d="M60.015,89.597l-23.78,-14.268l-0,-30.789l23.78,-14.268l23.78,14.268l-0,30.789l-23.78,14.268" style="fill:#4eb84b;stroke:#000;stroke-width:2px;"/><path d="M48.171,59.804l7.356,4.247l-0,8.493l-7.356,4.247l-7.356,-4.247l0,-8.493l7.356,-4.247Z" style="fill:#fff;stroke:#000;stroke-width:2px;"/><path d="M48.171,63.985l3.735,2.157l-0,4.312l-3.735,2.156l-3.734,-2.156l-0,-4.312l3.734,-2.157Z" style="fill:#4eb84b;stroke:#000;stroke-width:2px;"/><path d="M60.015,30.272l-0,-6.272" style="fill:none;stroke:#000;stroke-width:2px;"/><path d="M60.015,95.608l-0,-6.272" style="fill:none;stroke:#000;stroke-width:2px;"/><path d="M31.79,79.666l4.445,-4.443" style="fill:none;stroke:#000;stroke-width:2px;"/><path d="M31.79,40.726l4.445,3.92" style="fill:none;stroke:#000;stroke-width:2px;"/><path d="M83.795,44.646l4.445,-4.181" style="fill:none;stroke:#000;stroke-width:2px;"/><path d="M83.795,74.962l4.445,4.443" style="fill:none;stroke:#000;stroke-width:2px;"/></svg>