<?xml version="1.0" encoding="UTF-8" standalone="no"?><!DOCTYPE svg PUBLIC "-//W3C//DTD SVG 1.1//EN" "http://www.w3.org/Graphics/SVG/1.1/DTD/svg11.dtd"><svg width="100%" height="100%" viewBox="0 0 120 120" version="1.1" xmlns="http://www.w3.org/2000/svg" xmlns:xlink="http://www.w3.org/1999/xlink" xml:space="preserve" xmlns:serif="http://www.serif.com/" style="fill-rule:evenodd;clip-rule:evenodd;stroke-linecap:round;stroke-linejoin:round;stroke-miterlimit:1.5;"><path d="M81.6,28.37l0,63.26c0,2.412 -1.958,4.37 -4.37,4.37l-34.207,0c-2.412,0 -4.37,-1.958 -4.37,-4.37l-0,-63.26c-0,-2.412 1.958,-4.37 4.37,-4.37l34.207,0c2.412,0 4.37,1.958 4.37,4.37Z" style="fill:#4eb84b;stroke:#000;stroke-width:2px;"/><path d="M74.151,38.172l0,12.689c0,0.895 -0.726,1.621 -1.621,1.621l-24.362,0c-0.894,0 -1.621,-0.726 -1.621,-1.621l0,-12.689c0,-0.894 0.727,-1.621 1.621,-1.621l24.362,0c0.895,0 1.621,0.727 1.621,1.621Z" style="fill:#fff;stroke:#000;stroke-width:2px;"/></svg>