<?xml version="1.0" encoding="UTF-8" standalone="no"?><!DOCTYPE svg PUBLIC "-//W3C//DTD SVG 1.1//EN" "http://www.w3.org/Graphics/SVG/1.1/DTD/svg11.dtd"><svg width="100%" height="100%" viewBox="0 0 120 120" version="1.1" xmlns="http://www.w3.org/2000/svg" xmlns:xlink="http://www.w3.org/1999/xlink" xml:space="preserve" xmlns:serif="http://www.serif.com/" style="fill-rule:evenodd;clip-rule:evenodd;stroke-linecap:round;stroke-linejoin:round;stroke-miterlimit:1.5;"><path d="M83.432,31.699c0,6.381 -1.791,18.88 -1.791,28.313c0,9.432 1.791,22.144 1.791,28.284c0,3.794 -3.603,8.059 -8.04,8.059l-30.784,-0c-4.438,-0 -8.041,-4.265 -8.041,-8.059c0,-6.062 1.874,-18.852 1.874,-28.284c0,-9.433 -1.874,-22.266 -1.874,-28.313c0,-3.794 3.603,-8.059 8.041,-8.059l30.784,0c4.437,0 8.04,4.265 8.04,8.059Z" style="fill:#4eb84b;stroke:#000;stroke-width:2px;"/><circle cx="52.02" cy="39.9" r="1.14" style="fill:#fff;"/><circle cx="57.54" cy="39.9" r="1.14" style="fill:#fff;"/><circle cx="62.58" cy="39.9" r="1.14" style="fill:#fff;"/><circle cx="68.1" cy="39.9" r="1.14" style="fill:#fff;"/><rect x="51.6" y="45.84" width="16.8" height="9.6" style="fill:#fff;stroke:#000;stroke-width:2px;"/></svg>