<?xml version="1.0" encoding="UTF-8" standalone="no"?><!DOCTYPE svg PUBLIC "-//W3C//DTD SVG 1.1//EN" "http://www.w3.org/Graphics/SVG/1.1/DTD/svg11.dtd"><svg width="100%" height="100%" viewBox="0 0 120 120" version="1.1" xmlns="http://www.w3.org/2000/svg" xmlns:xlink="http://www.w3.org/1999/xlink" xml:space="preserve" xmlns:serif="http://www.serif.com/" style="fill-rule:evenodd;clip-rule:evenodd;stroke-linecap:round;stroke-linejoin:round;stroke-miterlimit:1.5;"><path d="M59.982,96c-8.348,0 -11.718,-2.036 -13.873,-4.53c-2.154,-2.493 -5.298,-10.99 -6.794,-19.818c-1.497,-8.829 -1.342,-17.924 0.283,-25.481c1.624,-7.556 3.984,-13.988 6.228,-17.27c2.245,-3.281 6.05,-4.141 8.494,-4.53c2.444,-0.388 3.775,-0.371 5.662,-0.371c1.888,0 3.219,-0.017 5.662,0.371c2.444,0.389 6.249,1.249 8.494,4.53c2.245,3.282 4.604,9.714 6.229,17.27c1.624,7.557 1.779,16.652 0.283,25.481c-1.497,8.828 -4.64,17.325 -6.795,19.818c-2.155,2.494 -5.525,4.53 -13.873,4.53" style="fill:#4eb84b;stroke:#000;stroke-width:2px;"/><path d="M59.982,88.073c-8.594,-0 -9.939,-2.142 -11.891,-5.379c-1.951,-3.238 -4.838,-7.634 -4.813,-16.138c0.026,-8.505 3.447,-17.901 5.097,-21.517c1.649,-3.616 3.561,-5.584 6.228,-6.229c2.667,-0.644 4.54,-0.566 5.379,-0.566c0.839,0 2.712,-0.078 5.379,0.566c2.667,0.645 4.579,2.613 6.229,6.229c1.65,3.616 5.07,13.012 5.096,21.517c0.026,8.504 -2.862,12.9 -4.813,16.138c-1.951,3.237 -3.297,5.379 -11.891,5.379" style="fill:#fff;stroke:#000;stroke-width:2px;"/><circle cx="59.982" cy="69.245" r="10.334" style="fill:#4eb84b;stroke:#000;stroke-width:2px;"/><path d="M59.982,41.075c0,0 2.507,0.037 4.672,0.425c2.164,0.388 5.821,1.416 5.821,1.416l-2.282,-2.69l-3.681,-1.598l-4.53,-0.384l-0.283,0l-4.23,0.384l-3.68,1.598l-2.282,2.69c-0,-0 3.657,-1.028 5.821,-1.416c2.164,-0.388 4.671,-0.425 4.671,-0.425" style="fill:#4eb84b;"/><path d="M59.982,88.073c-8.594,-0 -9.939,-2.142 -11.891,-5.379c-1.951,-3.238 -4.838,-7.634 -4.813,-16.138c0.026,-8.505 3.447,-17.901 5.097,-21.517c1.649,-3.616 3.561,-5.584 6.228,-6.229c2.667,-0.644 4.54,-0.566 5.379,-0.566c0.839,0 2.712,-0.078 5.379,0.566c2.667,0.645 4.579,2.613 6.229,6.229c1.65,3.616 5.07,13.012 5.096,21.517c0.026,8.504 -2.862,12.9 -4.813,16.138c-1.951,3.237 -3.297,5.379 -11.891,5.379" style="fill:none;stroke:#000;stroke-width:2px;"/></svg>