<?xml version="1.0" encoding="UTF-8" standalone="no"?><!DOCTYPE svg PUBLIC "-//W3C//DTD SVG 1.1//EN" "http://www.w3.org/Graphics/SVG/1.1/DTD/svg11.dtd"><svg width="100%" height="100%" viewBox="0 0 120 120" version="1.1" xmlns="http://www.w3.org/2000/svg" xmlns:xlink="http://www.w3.org/1999/xlink" xml:space="preserve" xmlns:serif="http://www.serif.com/" style="fill-rule:evenodd;clip-rule:evenodd;stroke-linecap:round;stroke-linejoin:round;stroke-miterlimit:1.5;"><path d="M54,86.4l7.44,0.734l4.56,-0.641l2.64,3.987l-1.92,3.12l-0.48,1.2l-10.32,0.72l-2.571,-1.92l-2.229,-2.4l1.035,-2.64l1.845,-2.16Z" style="fill:#fff;"/><g><path d="M52.257,92.692l1.092,0.75l0,0.79c0,-0 2.2,1.76 6.718,1.768" style="fill:none;stroke:#000;stroke-width:2px;"/><path d="M61.883,24l-19.976,0l-6.332,2.546c-0,-0 -1.15,0.789 -1.56,1.469c-0.409,0.68 -0.655,2.632 -0.655,2.632l0.311,44.592c-0,-0 0.158,2.37 0.56,3.472c0.403,1.102 0.792,1.981 1.344,2.39c0.552,0.41 16.721,11.596 16.721,11.596c0,-0 -0.994,-1.085 -0.833,-2.146c0.161,-1.061 0.157,-1.762 2.535,-4.067c0.025,-0.025 -0,0 -0,0c-0.059,0.021 2.997,0.703 6.023,0.693c2.917,0.03 -2.943,0.03 -0.026,0c3.025,0.01 6.082,-0.672 6.023,-0.693c0,0 -0.025,-0.025 0,0c2.378,2.305 2.374,3.006 2.535,4.067c0.161,1.061 -0.834,2.146 -0.834,2.146c0,-0 16.17,-11.186 16.722,-11.596c0.552,-0.409 0.941,-1.288 1.344,-2.39c0.402,-1.102 0.56,-3.472 0.56,-3.472l0.311,-44.592c-0,0 -0.246,-1.952 -0.655,-2.632c-0.41,-0.68 -1.56,-1.469 -1.56,-1.469l-6.332,-2.546l-19.976,-0" style="fill:#4eb84b;stroke:#000;stroke-width:2px;"/><path d="M53.849,86.357l0.779,-0.884c0,0 0.211,-0.308 0.257,-0.842c0.055,-0.64 -0,-0.873 -0,-0.873l-12.929,-59.726" style="fill:none;stroke:#000;stroke-width:2px;"/><path d="M67.759,92.692l-1.092,0.75l-0,0.79c-0,-0 -2.2,1.76 -6.718,1.768" style="fill:none;stroke:#000;stroke-width:2px;"/><path d="M66.167,86.357l-0.779,-0.884c-0,0 -0.211,-0.308 -0.257,-0.842c-0.055,-0.64 -0,-0.873 -0,-0.873l12.929,-59.726" style="fill:none;stroke:#000;stroke-width:2px;"/><path d="M60.042,44.878l0,16.383" style="fill:none;stroke:#fff;stroke-width:2px;"/></g></svg>