<?xml version="1.0" encoding="UTF-8" standalone="no"?><!DOCTYPE svg PUBLIC "-//W3C//DTD SVG 1.1//EN" "http://www.w3.org/Graphics/SVG/1.1/DTD/svg11.dtd"><svg width="100%" height="100%" viewBox="0 0 120 120" version="1.1" xmlns="http://www.w3.org/2000/svg" xmlns:xlink="http://www.w3.org/1999/xlink" xml:space="preserve" xmlns:serif="http://www.serif.com/" style="fill-rule:evenodd;clip-rule:evenodd;stroke-linecap:round;stroke-linejoin:round;stroke-miterlimit:1.5;"><rect x="53.64" y="37.92" width="12.72" height="58.08" style="fill:#4eb84b;"/><path d="M53.64,37.92c0,-0 0.015,-3.937 0.24,-6.36c0.225,-2.423 1.32,-3.96 1.32,-3.96l-0,-3.6l9.6,0l0,3.6c0,-0 1.095,1.537 1.32,3.96c0.225,2.423 0.24,6.36 0.24,6.36" style="fill:#4eb84b;stroke:#000;stroke-width:2px;"/><path d="M66.36,37.92l-0,58.08l-6.36,0l6.36,0l-0,-58.08Z" style="fill:none;stroke:#000;stroke-width:2px;"/><path d="M60,37.92l6.36,-0" style="fill:none;stroke:#000;stroke-width:2px;"/><path d="M53.64,37.92l0,58.08l6.36,0l-6.36,0c0,0 0,-60.267 0,-58.08Z" style="fill:none;stroke:#000;stroke-width:2px;"/><path d="M60,37.92l-6.36,-0" style="fill:none;stroke:#000;stroke-width:2px;"/><rect x="57.12" y="72.24" width="5.76" height="4.32" style="fill:#fff;stroke:#000;stroke-width:2px;"/><rect x="56.88" y="51.84" width="6.24" height="7.92" style="fill:#fff;stroke:#000;stroke-width:2px;"/><rect x="57.709" y="30" width="4.582" height="5.04" style="fill:#fff;stroke:#000;stroke-width:2px;"/><circle cx="60" cy="44.16" r="2.88" style="fill:#fff;stroke:#000;stroke-width:2px;"/></svg>