<?xml version="1.0" encoding="UTF-8" standalone="no"?><!DOCTYPE svg PUBLIC "-//W3C//DTD SVG 1.1//EN" "http://www.w3.org/Graphics/SVG/1.1/DTD/svg11.dtd"><svg width="100%" height="100%" viewBox="0 0 120 120" version="1.1" xmlns="http://www.w3.org/2000/svg" xmlns:xlink="http://www.w3.org/1999/xlink" xml:space="preserve" xmlns:serif="http://www.serif.com/" style="fill-rule:evenodd;clip-rule:evenodd;stroke-linecap:round;stroke-linejoin:round;stroke-miterlimit:1.5;"><path d="M52.742,71.811l-0,21.386l-3.774,0l-0,2.803l22.064,0l0,-2.803l-3.774,0l0,-21.386" style="fill:#fff;stroke:#000;stroke-width:2px;"/><path d="M60,72.339l-5.806,-0l-1.597,-0.581l-0,-47.032l1.597,-0.726l11.612,-0l1.597,0.726l0,47.032l-1.597,0.581l-5.806,-0" style="fill:#4eb84b;stroke:#000;stroke-width:2px;"/><path d="M53.625,30.008l-0,11.903" style="fill:none;stroke:#fff;stroke-width:2px;"/><path d="M66.375,30.008l0,11.903" style="fill:none;stroke:#fff;stroke-width:2px;"/><rect x="56.371" y="44.903" width="7.258" height="10.742" style="fill:#fff;stroke:#000;stroke-width:2px;"/><path d="M60,72.339l-5.806,-0l-1.597,-0.581l-0,-47.032l1.597,-0.726l11.612,-0l1.597,0.726l0,47.032l-1.597,0.581l-5.806,-0" style="fill:none;stroke:#000;stroke-width:2px;"/></svg>