<?xml version="1.0" encoding="UTF-8" standalone="no"?><!DOCTYPE svg PUBLIC "-//W3C//DTD SVG 1.1//EN" "http://www.w3.org/Graphics/SVG/1.1/DTD/svg11.dtd"><svg width="100%" height="100%" viewBox="0 0 120 120" version="1.1" xmlns="http://www.w3.org/2000/svg" xmlns:xlink="http://www.w3.org/1999/xlink" xml:space="preserve" xmlns:serif="http://www.serif.com/" style="fill-rule:evenodd;clip-rule:evenodd;stroke-linecap:round;stroke-linejoin:round;stroke-miterlimit:1.5;"><path d="M59.996,96c-5.936,-0 -9.049,-3.028 -10.585,-4.564c-1.536,-1.536 -12.393,-12.394 -12.393,-12.394l-0,-49.021l6.02,-6.021l33.915,0l6.021,6.021l0,49.021c0,0 -10.858,10.858 -12.393,12.394c-1.536,1.536 -4.649,4.564 -10.585,4.564" style="fill:#4eb84b;stroke:#000;stroke-width:2px;"/><path d="M54.436,69.869l11.12,-0" style="fill:none;stroke:#fff;stroke-width:2px;"/><path d="M76.953,24l0,48.649c0,1.541 -0.196,3.08 -0.834,4.448c-0.638,1.367 -5.897,18.903 -16.123,18.903" style="fill:none;stroke:#000;stroke-width:2px;"/><path d="M43.038,24l0,48.649c0,1.541 0.196,3.08 0.834,4.448c0.638,1.367 5.897,18.903 16.124,18.903" style="fill:none;stroke:#000;stroke-width:2px;"/><rect x="46.652" y="37.9" width="26.687" height="16.958" style="fill:#fff;stroke:#000;stroke-width:2px;"/></svg>