<?xml version="1.0" encoding="UTF-8" standalone="no"?><!DOCTYPE svg PUBLIC "-//W3C//DTD SVG 1.1//EN" "http://www.w3.org/Graphics/SVG/1.1/DTD/svg11.dtd"><svg width="100%" height="100%" viewBox="0 0 120 120" version="1.1" xmlns="http://www.w3.org/2000/svg" xmlns:xlink="http://www.w3.org/1999/xlink" xml:space="preserve" xmlns:serif="http://www.serif.com/" style="fill-rule:evenodd;clip-rule:evenodd;stroke-linecap:round;stroke-linejoin:round;stroke-miterlimit:1.5;"><path d="M60,24c3.136,0 9.304,0.95 11.04,1.44c1.736,0.49 2.422,1.008 2.64,3.36c0.218,2.352 1.44,11.482 1.44,29.04c-0,17.558 -1.139,30.397 -1.44,32.88c-0.301,2.483 -1.35,3.805 -2.88,4.32c-1.53,0.515 -5.864,0.96 -10.08,0.96c-4.216,0 2.776,0 -1.44,0c-4.216,0 -8.55,-0.445 -10.08,-0.96c-1.53,-0.515 -2.579,-1.837 -2.88,-4.32c-0.301,-2.483 -1.44,-15.322 -1.44,-32.88c-0,-17.558 1.222,-26.688 1.44,-29.04c0.218,-2.352 0.904,-2.87 2.64,-3.36c1.736,-0.49 7.904,-1.44 11.04,-1.44" style="fill:#4eb84b;stroke:#000;stroke-width:2px;"/><circle cx="60" cy="75.36" r="3.6" style="fill:#fff;stroke:#000;stroke-width:2px;"/><g><path d="M59.28,42l1.44,0" style="fill:none;stroke:#fff;stroke-width:2px;"/><path d="M59.32,46.32l1.36,0" style="fill:none;stroke:#fff;stroke-width:2px;"/><path d="M59.28,50.4l1.44,0" style="fill:none;stroke:#fff;stroke-width:2px;"/><path d="M59.32,54.72l1.36,0" style="fill:none;stroke:#fff;stroke-width:2px;"/><path d="M59.32,58.8l1.36,-0" style="fill:none;stroke:#fff;stroke-width:2px;"/><path d="M59.32,62.88l1.36,-0" style="fill:none;stroke:#fff;stroke-width:2px;"/><path d="M57.6,83.52l4.8,-0" style="fill:none;stroke:#fff;stroke-width:2px;"/><path d="M57.6,87.12l4.8,-0" style="fill:none;stroke:#fff;stroke-width:2px;"/><path d="M57.6,90.72l4.8,-0" style="fill:none;stroke:#fff;stroke-width:2px;"/></g></svg>