<?xml version="1.0" encoding="UTF-8" standalone="no"?><!DOCTYPE svg PUBLIC "-//W3C//DTD SVG 1.1//EN" "http://www.w3.org/Graphics/SVG/1.1/DTD/svg11.dtd"><svg width="100%" height="100%" viewBox="0 0 120 120" version="1.1" xmlns="http://www.w3.org/2000/svg" xmlns:xlink="http://www.w3.org/1999/xlink" xml:space="preserve" xmlns:serif="http://www.serif.com/" style="fill-rule:evenodd;clip-rule:evenodd;stroke-linecap:round;stroke-linejoin:round;stroke-miterlimit:1.5;"><path d="M60,96c0,0 -10.058,-0.253 -15.215,-0.543c-5.157,-0.291 -8.536,-1.79 -9.238,-8.423c-0.701,-6.633 -0.542,-12.003 -0.543,-23.909c-0.001,-11.907 0.132,-21.673 0.543,-28.529c0.412,-6.855 2.836,-8.046 4.076,-8.694c1.239,-0.648 3.747,-1.366 9.509,-1.63c5.762,-0.265 7.245,-0.272 10.868,-0.272c3.623,0 5.106,0.007 10.868,0.272c5.762,0.264 8.27,0.982 9.509,1.63c1.24,0.648 3.664,1.839 4.076,8.694c0.411,6.856 0.544,16.622 0.543,28.529c-0.001,11.906 0.158,17.276 -0.543,23.909c-0.702,6.633 -4.081,8.132 -9.238,8.423c-5.157,0.29 -15.215,0.543 -15.215,0.543" style="fill:#4eb84b;stroke:#000;stroke-width:2px;"/><path d="M60,91.381c0,0 -9.045,-0.177 -14.4,-0.543c-5.355,-0.367 -6.389,-3.01 -6.521,-5.842c-0.131,-2.832 -0.202,-14.064 -0.136,-22.958c0.067,-8.894 0.093,-16.668 0.136,-24.453c0.044,-7.785 2.893,-7.499 7.336,-8.151c4.443,-0.652 13.585,-0.543 13.585,-0.543c0,-0 9.142,-0.109 13.585,0.543c4.443,0.652 7.292,0.366 7.336,8.151c0.043,7.785 0.069,15.559 0.136,24.453c0.066,8.894 -0.005,20.126 -0.136,22.958c-0.132,2.832 -1.166,5.475 -6.521,5.842c-5.355,0.366 -14.4,0.543 -14.4,0.543" style="fill:#fff;stroke:#000;stroke-width:2px;"/><path d="M43.155,54.43l33.69,0" style="fill:none;stroke:#4eb84b;stroke-width:2px;"/></svg>