<?xml version="1.0" encoding="UTF-8" standalone="no"?><!DOCTYPE svg PUBLIC "-//W3C//DTD SVG 1.1//EN" "http://www.w3.org/Graphics/SVG/1.1/DTD/svg11.dtd"><svg width="100%" height="100%" viewBox="0 0 120 120" version="1.1" xmlns="http://www.w3.org/2000/svg" xmlns:xlink="http://www.w3.org/1999/xlink" xml:space="preserve" xmlns:serif="http://www.serif.com/" style="fill-rule:evenodd;clip-rule:evenodd;stroke-linecap:round;stroke-linejoin:round;stroke-miterlimit:1.5;"><g><path d="M59.922,23.976c-0,-0 7.139,-0 12.587,0.721c4.598,0.609 10.952,1.954 12.717,10.995c0.385,1.973 0.578,4.314 0.558,7.088c-0.119,17.03 0.74,18.274 0.133,34.407c-0.608,16.134 -5.258,16.96 -10.994,18.024c-5.737,1.063 -15.212,0.679 -15.212,0.679" style="fill:#4eb84b;stroke:#000;stroke-width:2px;"/><path d="M60.092,29.534c0,-0 15.111,-0.235 18.085,3.239c2.974,3.475 2.412,7.883 2.576,27.519c0.174,20.821 0.059,28.047 -8.672,28.458c-8.72,0.41 -12.137,0.286 -12.137,0.286" style="fill:#fff;stroke:#000;stroke-width:2px;"/><path d="M60.117,23.976c-0,-0 -7.14,-0 -12.587,0.721c-4.598,0.609 -10.952,1.954 -12.717,10.995c-0.386,1.973 -0.578,4.314 -0.559,7.088c0.12,17.03 -0.74,18.274 -0.132,34.407c0.607,16.134 5.257,16.96 10.994,18.024c5.736,1.063 15.212,0.679 15.212,0.679" style="fill:#4eb848;stroke:#000;stroke-width:2px;"/><path d="M60.793,29.52c-0,-0 -15.957,-0.221 -18.931,3.253c-2.974,3.475 -2.412,7.883 -2.576,27.519c-0.174,20.821 -0.057,27.991 8.672,28.458c8.719,0.465 12.811,0.315 12.811,0.315" style="fill:#fff;stroke:#000;stroke-width:2px;"/></g></svg>