<?xml version="1.0" encoding="UTF-8" standalone="no"?><!DOCTYPE svg PUBLIC "-//W3C//DTD SVG 1.1//EN" "http://www.w3.org/Graphics/SVG/1.1/DTD/svg11.dtd"><svg width="100%" height="100%" viewBox="0 0 120 120" version="1.1" xmlns="http://www.w3.org/2000/svg" xmlns:xlink="http://www.w3.org/1999/xlink" xml:space="preserve" xmlns:serif="http://www.serif.com/" style="fill-rule:evenodd;clip-rule:evenodd;stroke-linecap:round;stroke-linejoin:round;stroke-miterlimit:1.5;"><path d="M60,90c0,0 -8.885,-0.224 -13.44,-0.48c-4.555,-0.256 -7.54,-1.581 -8.16,-7.44c-0.62,-5.859 -0.479,-10.602 -0.48,-21.12c-0.001,-10.518 0.117,-19.144 0.48,-25.2c0.363,-6.056 2.505,-7.108 3.6,-7.68c1.095,-0.572 3.31,-1.207 8.4,-1.44c5.09,-0.233 6.4,-0.24 9.6,-0.24c3.2,0 4.51,0.007 9.6,0.24c5.09,0.233 7.305,0.868 8.4,1.44c1.095,0.572 3.237,1.624 3.6,7.68c0.363,6.056 0.481,14.682 0.48,25.2c-0.001,10.518 0.14,15.261 -0.48,21.12c-0.62,5.859 -3.605,7.184 -8.16,7.44c-4.555,0.256 -13.44,0.48 -13.44,0.48" style="fill:#4eb84b;stroke:#000;stroke-width:2px;"/><path d="M60,85.92c0,0 -7.99,-0.156 -12.72,-0.48c-4.73,-0.324 -5.644,-2.658 -5.76,-5.16c-0.116,-2.502 -0.179,-12.424 -0.12,-20.28c0.059,-7.856 0.081,-14.723 0.12,-21.6c0.039,-6.877 2.555,-6.624 6.48,-7.2c3.925,-0.576 12,-0.48 12,-0.48c0,0 8.075,-0.096 12,0.48c3.925,0.576 6.441,0.323 6.48,7.2c0.039,6.877 0.061,13.744 0.12,21.6c0.059,7.856 -0.004,17.778 -0.12,20.28c-0.116,2.502 -1.03,4.836 -5.76,5.16c-4.73,0.324 -12.72,0.48 -12.72,0.48" style="fill:#fff;stroke:#000;stroke-width:2px;"/><path d="M45.12,53.28l29.76,-0" style="fill:none;stroke:#4eb84b;stroke-width:2px;"/></svg>