<?xml version="1.0" encoding="UTF-8" standalone="no"?><!DOCTYPE svg PUBLIC "-//W3C//DTD SVG 1.1//EN" "http://www.w3.org/Graphics/SVG/1.1/DTD/svg11.dtd"><svg width="100%" height="100%" viewBox="0 0 120 120" version="1.1" xmlns="http://www.w3.org/2000/svg" xmlns:xlink="http://www.w3.org/1999/xlink" xml:space="preserve" xmlns:serif="http://www.serif.com/" style="fill-rule:evenodd;clip-rule:evenodd;stroke-linecap:round;stroke-linejoin:round;stroke-miterlimit:1.5;"><path d="M95.64,35.962l0,47.356c0,6.602 -5.36,11.962 -11.962,11.962l-47.356,-0c-6.602,-0 -11.962,-5.36 -11.962,-11.962l0,-47.356c0,-6.602 5.36,-11.962 11.962,-11.962l47.356,-0c6.602,-0 11.962,5.36 11.962,11.962Z" style="fill:#4eb84b;stroke:#000;stroke-width:2px;"/><rect x="66.397" y="45.149" width="14.36" height="28.721" style="fill:#fff;stroke:#000;stroke-width:2px;"/><path d="M62.219,46.977l0,25.326" style="fill:none;stroke:#fff;stroke-width:2px;"/><path d="M84.935,46.977l-0,25.326" style="fill:none;stroke:#fff;stroke-width:2px;"/><path d="M62.219,42.538c0,-6.273 5.085,-11.358 11.358,-11.358c6.273,0 11.358,5.085 11.358,11.358" style="fill:none;stroke:#fff;stroke-width:2px;"/><path d="M62.219,76.481c0,6.273 5.085,11.358 11.358,11.358c6.273,-0 11.358,-5.085 11.358,-11.358" style="fill:none;stroke:#fff;stroke-width:2px;"/></svg>