<?xml version="1.0" encoding="UTF-8" standalone="no"?><!DOCTYPE svg PUBLIC "-//W3C//DTD SVG 1.1//EN" "http://www.w3.org/Graphics/SVG/1.1/DTD/svg11.dtd"><svg width="100%" height="100%" viewBox="0 0 120 120" version="1.1" xmlns="http://www.w3.org/2000/svg" xmlns:xlink="http://www.w3.org/1999/xlink" xml:space="preserve" xmlns:serif="http://www.serif.com/" style="fill-rule:evenodd;clip-rule:evenodd;stroke-linecap:round;stroke-linejoin:round;stroke-miterlimit:1.5;"><path d="M60.01,24c7.034,0 11.338,2.43 11.924,8.713c0.585,6.284 1.146,17.738 1.146,27.746c0,10.007 -0.6,19.315 -1.376,26.828c-0.775,7.512 -8.433,8.713 -11.694,8.713c-3.261,0 -10.919,-1.201 -11.694,-8.713c-0.776,-7.513 -1.376,-16.821 -1.376,-26.828c-0,-10.008 0.561,-21.462 1.146,-27.746c0.586,-6.283 4.89,-8.713 11.924,-8.713" style="fill:#4eb84b;stroke:#000;stroke-width:2px;"/><path d="M59.093,63.439l1.834,0" style="fill:none;stroke:#fff;stroke-width:2px;"/><path d="M59.093,59.312l1.834,0" style="fill:none;stroke:#fff;stroke-width:2px;"/><path d="M59.093,55.185l1.834,-0" style="fill:none;stroke:#fff;stroke-width:2px;"/><path d="M59.093,51.057l1.834,0" style="fill:none;stroke:#fff;stroke-width:2px;"/><path d="M59.093,46.93l1.834,-0" style="fill:none;stroke:#fff;stroke-width:2px;"/><circle cx="60.01" cy="75.134" r="3.439" style="fill:#fff;stroke:#000;stroke-width:2px;"/></svg>