<?xml version="1.0" encoding="UTF-8" standalone="no"?><!DOCTYPE svg PUBLIC "-//W3C//DTD SVG 1.1//EN" "http://www.w3.org/Graphics/SVG/1.1/DTD/svg11.dtd"><svg width="100%" height="100%" viewBox="0 0 120 120" version="1.1" xmlns="http://www.w3.org/2000/svg" xmlns:xlink="http://www.w3.org/1999/xlink" xml:space="preserve" xmlns:serif="http://www.serif.com/" style="fill-rule:evenodd;clip-rule:evenodd;stroke-linecap:round;stroke-linejoin:round;stroke-miterlimit:1.5;"><path d="M60,24.24c8.565,-0 14.149,0.229 18,4.08c3.851,3.851 5.36,7.751 5.52,24.48c0.16,16.729 0.545,32.599 -3.84,37.2c-4.385,4.601 -7.659,6 -19.68,6" style="fill:#4eb84b;stroke:#000;stroke-width:2px;"/><path d="M60,36c4.971,0 10.397,0.096 14.16,3.36c3.763,3.264 4.535,12.832 5.28,18.96c0.745,6.128 1.22,14.446 0.24,18.96c-0.98,4.514 -2.606,7.408 -5.28,9.12c-2.674,1.712 -7.415,2.4 -14.4,2.4" style="fill:none;stroke:#000;stroke-width:2px;"/><circle cx="68.76" cy="75.96" r="7.08" style="fill:#fff;stroke:#000;stroke-width:2px;"/><path d="M60,24.24c-8.565,-0 -14.149,0.229 -18,4.08c-3.851,3.851 -5.36,7.751 -5.52,24.48c-0.16,16.729 -0.545,32.599 3.84,37.2c4.385,4.601 7.659,6 19.68,6" style="fill:#4eb84b;stroke:#000;stroke-width:2px;"/><path d="M60,36c-4.971,0 -10.397,0.096 -14.16,3.36c-3.763,3.264 -4.535,12.832 -5.28,18.96c-0.745,6.128 -1.22,14.446 -0.24,18.96c0.98,4.514 2.606,7.408 5.28,9.12c2.674,1.712 7.415,2.4 14.4,2.4" style="fill:none;stroke:#000;stroke-width:2px;"/><circle cx="51.24" cy="75.96" r="7.08" style="fill:#fff;stroke:#000;stroke-width:2px;"/></svg>