<?xml version="1.0" encoding="UTF-8" standalone="no"?><!DOCTYPE svg PUBLIC "-//W3C//DTD SVG 1.1//EN" "http://www.w3.org/Graphics/SVG/1.1/DTD/svg11.dtd"><svg width="100%" height="100%" viewBox="0 0 120 120" version="1.1" xmlns="http://www.w3.org/2000/svg" xmlns:xlink="http://www.w3.org/1999/xlink" xml:space="preserve" xmlns:serif="http://www.serif.com/" style="fill-rule:evenodd;clip-rule:evenodd;stroke-linecap:round;stroke-linejoin:round;stroke-miterlimit:1.5;"><path d="M60,96c-6.694,0 -13.646,-0.5 -17.424,-5.647c-3.599,-4.902 -4.176,-18.151 -4.176,-30.353c0,-12.202 1.144,-23.152 3.735,-28.8c2.59,-5.648 8.386,-7.2 17.385,-7.2c8.999,0 -8.039,0 0.96,0c8.999,0 14.795,1.552 17.385,7.2c2.591,5.648 3.735,16.598 3.735,28.8c0,12.202 -0.577,25.451 -4.176,30.353c-3.778,5.147 -10.73,5.647 -17.424,5.647" style="fill:#4eb84b;stroke:#000;stroke-width:2px;"/><path d="M42.135,31.2l13.536,45.6" style="fill:none;stroke:#000;stroke-width:2px;"/><circle cx="60" cy="84" r="8.401" style="fill:#fff;stroke:#000;stroke-width:2px;"/><path d="M77.865,31.2l-13.536,45.6" style="fill:none;stroke:#000;stroke-width:2px;"/><path d="M60,64.32l0,-10.32" style="fill:none;stroke:#fff;stroke-width:2px;"/></svg>