<?xml version="1.0" encoding="UTF-8" standalone="no"?><!DOCTYPE svg PUBLIC "-//W3C//DTD SVG 1.1//EN" "http://www.w3.org/Graphics/SVG/1.1/DTD/svg11.dtd"><svg width="100%" height="100%" viewBox="0 0 120 120" version="1.1" xmlns="http://www.w3.org/2000/svg" xmlns:xlink="http://www.w3.org/1999/xlink" xml:space="preserve" xmlns:serif="http://www.serif.com/" style="fill-rule:evenodd;clip-rule:evenodd;stroke-linecap:round;stroke-linejoin:round;stroke-miterlimit:1.5;"><path d="M60,96c-12.113,-0 -16.472,-3.762 -19.2,-9.6c-2.728,-5.838 -2.4,-14.369 -2.4,-26.4c0,-12.031 0.059,-18.684 2.4,-26.4c2.341,-7.716 9.541,-9.6 18.96,-9.6c9.419,0 -8.939,0 0.48,0c9.419,0 16.619,1.884 18.96,9.6c2.341,7.716 2.4,14.369 2.4,26.4c0,12.031 0.328,20.562 -2.4,26.4c-2.728,5.838 -7.087,9.6 -19.2,9.6" style="fill:#4eb84b;stroke:#000;stroke-width:2px;"/><path d="M60,50.88l-0,18.24" style="fill:none;stroke:#fff;stroke-width:2px;"/></svg>