<?xml version="1.0" encoding="UTF-8" standalone="no"?><!DOCTYPE svg PUBLIC "-//W3C//DTD SVG 1.1//EN" "http://www.w3.org/Graphics/SVG/1.1/DTD/svg11.dtd"><svg width="100%" height="100%" viewBox="0 0 120 120" version="1.1" xmlns="http://www.w3.org/2000/svg" xmlns:xlink="http://www.w3.org/1999/xlink" xml:space="preserve" xmlns:serif="http://www.serif.com/" style="fill-rule:evenodd;clip-rule:evenodd;stroke-linecap:round;stroke-linejoin:round;stroke-miterlimit:1.5;"><path d="M60,24c0,0 20.118,0.294 22.452,0.516c2.334,0.222 3.613,1.983 3.613,4.387l-0,29.162c-0,1.961 -0.44,2.358 -1.033,3.87c-0.593,1.513 -4.816,10.733 -5.161,11.613c-0.345,0.881 -0.516,1.369 -0.516,2.323l-0,14.194c-0,2.48 -0.994,3.561 -3.871,4.387c-2.877,0.825 -9.555,1.548 -15.484,1.548c-5.929,-0 -12.607,-0.723 -15.484,-1.548c-2.877,-0.826 -3.871,-1.907 -3.871,-4.387l0,-14.194c0,-0.954 -0.171,-1.442 -0.516,-2.323c-0.345,-0.88 -4.568,-10.1 -5.161,-11.613c-0.593,-1.512 -1.033,-1.909 -1.033,-3.87l0,-29.162c0,-2.404 1.279,-4.165 3.613,-4.387c2.334,-0.222 22.452,-0.516 22.452,-0.516" style="fill:#4eb84b;stroke:#000;stroke-width:2px;"/><path d="M60,92.129c9.215,0 11.268,-0.53 12.903,-1.032c1.635,-0.503 2.581,-1.316 2.581,-3.355l-0,-52.645c-0,-1.593 -0.549,-2.147 -2.226,-2.226c-1.697,-0.081 -13.258,-0.097 -13.258,-0.097c-0,0 -11.561,0.016 -13.258,0.097c-1.677,0.079 -2.226,0.633 -2.226,2.226l0,52.645c0,2.039 0.946,2.852 2.581,3.355c1.635,0.502 3.688,1.032 12.903,1.032" style="fill:#fff;stroke:#000;stroke-width:2px;"/><path d="M61.677,58.581l7.742,-0" style="fill:none;stroke:#4eb84b;stroke-width:2px;"/><path d="M58.323,58.581l-7.742,-0" style="fill:none;stroke:#4eb84b;stroke-width:2px;"/><path d="M79.355,89.419l3.484,0l-0,-22.507" style="fill:none;stroke:#000;stroke-width:2px;"/><path d="M40.645,89.419l-3.484,0l0,-22.507" style="fill:none;stroke:#000;stroke-width:2px;"/></svg>