<?xml version="1.0" encoding="UTF-8" standalone="no"?><!DOCTYPE svg PUBLIC "-//W3C//DTD SVG 1.1//EN" "http://www.w3.org/Graphics/SVG/1.1/DTD/svg11.dtd"><svg width="100%" height="100%" viewBox="0 0 120 120" version="1.1" xmlns="http://www.w3.org/2000/svg" xmlns:xlink="http://www.w3.org/1999/xlink" xml:space="preserve" xmlns:serif="http://www.serif.com/" style="fill-rule:evenodd;clip-rule:evenodd;stroke-linecap:round;stroke-linejoin:round;stroke-miterlimit:1.5;"><path d="M60,95.526c-0,0 -5.069,0.103 -8.289,0.103c-3.221,0 -6.969,-2.029 -8.29,-6.497c-1.321,-4.468 -8.393,-30.701 -9.474,-35.527c-1.08,-4.826 -1.196,-9.716 1.185,-14.21c2.38,-4.495 2.657,-4.965 5.921,-9.474c3.263,-4.509 9.538,-5.921 14.21,-5.921l9.474,0c4.672,0 10.947,1.412 14.21,5.921c3.264,4.509 3.541,4.979 5.921,9.474c2.381,4.494 2.265,9.384 1.185,14.21c-1.081,4.826 -8.153,31.059 -9.474,35.527c-1.321,4.468 -5.069,6.497 -8.29,6.497c-3.22,0 -8.289,-0.103 -8.289,-0.103" style="fill:#4eb84b;stroke:#000;stroke-width:2px;"/><path d="M55.263,42.947l9.474,0" style="fill:none;stroke:#fff;stroke-width:2px;"/><path d="M50.526,71.577l19.421,0.142l9.948,5.807l-5.211,15.632l-4.973,2.842l-22.737,-1.184l-2.842,-4.027l-3.98,-13.5l10.374,-5.712Z" style="fill:#fff;"/><path d="M60,71.132l4.737,-0c3.147,-0 4.873,0.205 7.105,1.421c2.232,1.215 4.932,3.317 8.07,4.5" style="fill:none;stroke:#000;stroke-width:2px;"/><path d="M60,71.132l-4.737,-0c-3.147,-0 -4.873,0.205 -7.105,1.421c-2.232,1.215 -4.932,3.317 -8.07,4.5" style="fill:none;stroke:#000;stroke-width:2px;"/><circle cx="60" cy="84.039" r="7.934" style="fill:#4eb84b;stroke:#000;stroke-width:2px;"/><circle cx="60" cy="70.993" r="1.993" style="fill:#fff;stroke:#000;stroke-width:2px;"/><path d="M60,95.526c-0,0 -5.069,0.103 -8.289,0.103c-3.221,0 -6.969,-2.029 -8.29,-6.497c-1.321,-4.468 -8.393,-30.701 -9.474,-35.527c-1.08,-4.826 -1.196,-9.716 1.185,-14.21c2.38,-4.495 2.657,-4.965 5.921,-9.474c3.263,-4.509 9.538,-5.921 14.21,-5.921l9.474,0c4.672,0 10.947,1.412 14.21,5.921c3.264,4.509 3.541,4.979 5.921,9.474c2.381,4.494 2.265,9.384 1.185,14.21c-1.081,4.826 -8.153,31.059 -9.474,35.527c-1.321,4.468 -5.069,6.497 -8.29,6.497c-3.22,0 -8.289,-0.103 -8.289,-0.103" style="fill:none;stroke:#000;stroke-width:2px;"/></svg>