<?xml version="1.0" encoding="UTF-8" standalone="no"?><!DOCTYPE svg PUBLIC "-//W3C//DTD SVG 1.1//EN" "http://www.w3.org/Graphics/SVG/1.1/DTD/svg11.dtd"><svg width="100%" height="100%" viewBox="0 0 120 120" version="1.1" xmlns="http://www.w3.org/2000/svg" xmlns:xlink="http://www.w3.org/1999/xlink" xml:space="preserve" xmlns:serif="http://www.serif.com/" style="fill-rule:evenodd;clip-rule:evenodd;stroke-linecap:round;stroke-linejoin:round;stroke-miterlimit:1.5;"><path d="M89.071,25.489l-0,69.022c-0,0.822 -0.667,1.489 -1.489,1.489l-55.164,0c-0.822,0 -1.489,-0.667 -1.489,-1.489l0,-69.022c0,-0.822 0.667,-1.489 1.489,-1.489l55.164,0c0.822,0 1.489,0.667 1.489,1.489Z" style="fill:#4eb84b;stroke:#000;stroke-width:2px;"/><rect x="37.249" y="32.803" width="45.502" height="29.451" style="fill:#fff;stroke:#000;stroke-width:2px;"/><circle cx="60" cy="80.327" r="11.376" style="fill:#fff;stroke:#000;stroke-width:2px;"/><path d="M89.071,30.275c-0,-1.645 -0.85,-2.528 -1.896,-2.528c-1.047,-0 -1.896,-0.85 -1.896,-1.896c-0,-1.046 -0.872,-1.851 -2.528,-1.851" style="fill:#4eb84b;stroke:#000;stroke-width:2px;"/><path d="M30.929,30.275c0,-1.645 0.85,-2.528 1.896,-2.528c1.047,-0 1.896,-0.85 1.896,-1.896c0,-1.046 0.872,-1.851 2.528,-1.851" style="fill:#4eb84b;stroke:#000;stroke-width:2px;"/><path d="M89.071,89.725c-0,1.645 -0.85,2.528 -1.896,2.528c-1.047,0 -1.896,0.85 -1.896,1.896c-0,1.046 -0.872,1.851 -2.528,1.851" style="fill:#4eb84b;stroke:#000;stroke-width:2px;"/><path d="M30.929,89.725c0,1.645 0.85,2.528 1.896,2.528c1.047,0 1.896,0.85 1.896,1.896c0,1.046 0.872,1.851 2.528,1.851" style="fill:#4eb84b;stroke:#000;stroke-width:2px;"/></svg>