<?xml version="1.0" encoding="UTF-8" standalone="no"?><!DOCTYPE svg PUBLIC "-//W3C//DTD SVG 1.1//EN" "http://www.w3.org/Graphics/SVG/1.1/DTD/svg11.dtd"><svg width="100%" height="100%" viewBox="0 0 120 120" version="1.1" xmlns="http://www.w3.org/2000/svg" xmlns:xlink="http://www.w3.org/1999/xlink" xml:space="preserve" xmlns:serif="http://www.serif.com/" style="fill-rule:evenodd;clip-rule:evenodd;stroke-linecap:round;stroke-linejoin:round;stroke-miterlimit:1.5;"><circle cx="60" cy="60" r="36" style="fill:#4eb84b;stroke:#000;stroke-width:2px;"/><circle cx="60" cy="60" r="26.873" style="fill:none;stroke:#000;stroke-width:2px;"/><path d="M84.266,71.198l-31.292,-0c-2.636,-0 -4.084,-2.271 -4.645,-4.433c-0.562,-2.162 -0.86,-4.429 -0.86,-6.765c-0,-2.726 0.406,-5.358 1.162,-7.838c0.683,-2.239 2.078,-3.39 5.386,-3.39l15.907,0c4.677,0 10.061,0.026 14.495,0" style="fill:#fff;stroke:#000;stroke-width:2px;"/><path d="M59.203,71.198l22.165,-0c2.635,-0 4.084,-2.271 4.645,-4.433c0.562,-2.162 0.86,-4.429 0.86,-6.765c0,-2.726 -0.406,-5.358 -1.163,-7.838c-0.682,-2.239 -2.077,-3.39 -5.385,-3.39l-15.907,0" style="fill:#fff;stroke:#000;stroke-width:2px;"/></svg>