<?xml version="1.0" encoding="UTF-8" standalone="no"?><!DOCTYPE svg PUBLIC "-//W3C//DTD SVG 1.1//EN" "http://www.w3.org/Graphics/SVG/1.1/DTD/svg11.dtd"><svg width="100%" height="100%" viewBox="0 0 120 120" version="1.1" xmlns="http://www.w3.org/2000/svg" xmlns:xlink="http://www.w3.org/1999/xlink" xml:space="preserve" xmlns:serif="http://www.serif.com/" style="fill-rule:evenodd;clip-rule:evenodd;stroke-linecap:round;stroke-linejoin:round;stroke-miterlimit:1.5;"><path d="M94.296,42.103l-0,35.794c-0,9.992 -8.112,18.103 -18.103,18.103l-32.386,-0c-9.991,-0 -18.103,-8.111 -18.103,-18.103l0,-35.794c0,-9.992 8.112,-18.103 18.103,-18.103l32.386,0c9.991,0 18.103,8.111 18.103,18.103Z" style="fill:#4eb84b;stroke:#000;stroke-width:2px;"/><path d="M60.055,37.407l15.899,18.945c5.439,6.481 4.593,16.158 -1.888,21.597c-6.481,5.438 -16.158,4.592 -21.596,-1.888l-15.899,-18.945c-5.439,-6.481 -4.593,-16.158 1.888,-21.597c6.481,-5.438 16.158,-4.592 21.596,1.888Z" style="fill:#fff;stroke:#000;stroke-width:2px;"/></svg>