<?xml version="1.0" encoding="UTF-8" standalone="no"?><!DOCTYPE svg PUBLIC "-//W3C//DTD SVG 1.1//EN" "http://www.w3.org/Graphics/SVG/1.1/DTD/svg11.dtd"><svg width="100%" height="100%" viewBox="0 0 120 120" version="1.1" xmlns="http://www.w3.org/2000/svg" xmlns:xlink="http://www.w3.org/1999/xlink" xml:space="preserve" xmlns:serif="http://www.serif.com/" style="fill-rule:evenodd;clip-rule:evenodd;stroke-linecap:round;stroke-linejoin:round;stroke-miterlimit:1.5;"><path d="M59.726,24.037c-0,0 8.82,-0.084 12.297,0c3.48,0.085 9.337,0.07 9.337,11.842l-0,50.784c-0,8.325 -5.711,9.337 -7.411,9.337l-14.223,0" style="fill:#4eb84b;stroke:#000;stroke-width:2px;"/><path d="M60.181,24.037c0,0 -8.82,-0.084 -12.297,0c-3.48,0.085 -9.337,0.07 -9.337,11.842l-0,50.784c-0,8.325 5.711,9.337 7.411,9.337l14.223,0" style="fill:#4eb84b;stroke:#000;stroke-width:2px;"/><path d="M60.387,35.896l10.302,22.651c2.223,4.888 0.06,10.661 -4.828,12.884c-4.888,2.223 -10.661,0.06 -12.884,-4.828l-10.302,-22.652c-2.223,-4.887 -0.059,-10.66 4.829,-12.883c4.887,-2.223 10.66,-0.06 12.883,4.828Z" style="fill:#fff;stroke:#000;stroke-width:2px;"/><circle cx="61.775" cy="62.524" r="6.832" style="fill:#4eb84b;stroke:#000;stroke-width:2px;"/></svg>