<?xml version="1.0" encoding="UTF-8" standalone="no"?><!DOCTYPE svg PUBLIC "-//W3C//DTD SVG 1.1//EN" "http://www.w3.org/Graphics/SVG/1.1/DTD/svg11.dtd"><svg width="100%" height="100%" viewBox="0 0 120 120" version="1.1" xmlns="http://www.w3.org/2000/svg" xmlns:xlink="http://www.w3.org/1999/xlink" xml:space="preserve" xmlns:serif="http://www.serif.com/" style="fill-rule:evenodd;clip-rule:evenodd;stroke-linecap:round;stroke-linejoin:round;stroke-miterlimit:1.5;"><g><g><path d="M62.583,24.001c4.387,-0.048 15.85,2.945 15.85,2.945l2.274,3.949c0,0 3.208,23.682 3.047,44.183c-0.086,11.001 -1.585,15.703 -1.585,15.703l-1.462,2.481c0,-0 -7.187,2.752 -18.124,2.738" style="fill:#4eb848;stroke:#000;stroke-width:2px;"/><path d="M62.589,24.001c-4.388,-0.048 -15.851,2.945 -15.851,2.945l-2.274,3.949c-0,0 -3.207,23.682 -3.047,44.183c0.086,11.001 1.586,15.703 1.586,15.703l1.461,2.481c-0,-0 7.187,2.752 18.125,2.738" style="fill:#4eb848;stroke:#000;stroke-width:2px;"/></g><path d="M60.808,62.568l0.271,-10.802c0,0 0.094,-1.275 1.443,-1.258c1.349,0.016 1.502,1.258 1.502,1.258l0.199,10.802" style="fill:#fff;stroke:#000;stroke-width:2px;"/><circle cx="62.53" cy="75.755" r="13.009" style="fill:#fff;stroke:#000;stroke-width:2px;"/><circle cx="62.528" cy="75.822" r="9.279" style="fill:#4eb848;stroke:#000;stroke-width:2px;"/></g></svg>