<?xml version="1.0" encoding="UTF-8" standalone="no"?><!DOCTYPE svg PUBLIC "-//W3C//DTD SVG 1.1//EN" "http://www.w3.org/Graphics/SVG/1.1/DTD/svg11.dtd"><svg width="100%" height="100%" viewBox="0 0 120 120" version="1.1" xmlns="http://www.w3.org/2000/svg" xmlns:xlink="http://www.w3.org/1999/xlink" xml:space="preserve" xmlns:serif="http://www.serif.com/" style="fill-rule:evenodd;clip-rule:evenodd;stroke-linecap:round;stroke-linejoin:round;stroke-miterlimit:1.5;"><path d="M60.001,96c-12.748,-0 -16.458,-0.686 -20.117,-5.029c-3.659,-4.344 -4.765,-11.784 -4.765,-26.471c0,-14.687 -0.171,-28.537 3.177,-34.412c3.347,-5.875 11.626,-6.088 21.704,-6.088c10.077,0 -10.078,0 -0,0c10.077,0 18.359,0.213 21.706,6.088c3.347,5.875 3.176,19.725 3.176,34.412c0,14.687 -1.105,22.127 -4.764,26.471c-3.659,4.343 -7.369,5.029 -20.118,5.029" style="fill:#4eb84b;stroke:#000;stroke-width:2px;"/><path d="M57.353,53.912l5.294,-0" style="fill:none;stroke:#fff;stroke-width:2px;"/></svg>