<?xml version="1.0" encoding="UTF-8" standalone="no"?><!DOCTYPE svg PUBLIC "-//W3C//DTD SVG 1.1//EN" "http://www.w3.org/Graphics/SVG/1.1/DTD/svg11.dtd"><svg width="100%" height="100%" viewBox="0 0 120 120" version="1.1" xmlns="http://www.w3.org/2000/svg" xmlns:xlink="http://www.w3.org/1999/xlink" xml:space="preserve" xmlns:serif="http://www.serif.com/" style="fill-rule:evenodd;clip-rule:evenodd;stroke-linecap:round;stroke-linejoin:round;stroke-miterlimit:1.5;"><path d="M79.5,96l-39,-0l0,-72l39,-0l0,72Z" style="fill:#4eb84b;stroke:#000;stroke-width:2px;"/><path d="M67.5,96l-27,-0l0,-12l27,-0l0,12Z" style="fill:#fff;stroke:#000;stroke-width:2px;"/><path d="M70.5,73.849l-30,-0l0,-29.952l30,-0l0,29.952Z" style="fill:#fff;stroke:#000;stroke-width:2px;"/><path d="M74.4,71.7l5.1,-0l0,-25.2l-5.1,-0l0,25.2Z" style="fill:#fff;stroke:#000;stroke-width:2px;"/><path d="M79.5,36l-18,-0l0,-12l18,-0l0,12Z" style="fill:#fff;stroke:#000;stroke-width:2px;"/><path d="M57.6,39.9l-17.1,-0l0,-15.9l17.1,-0l0,15.9Z" style="fill:#fff;stroke:#000;stroke-width:2px;"/></svg>