<?xml version="1.0" encoding="UTF-8" standalone="no"?><!DOCTYPE svg PUBLIC "-//W3C//DTD SVG 1.1//EN" "http://www.w3.org/Graphics/SVG/1.1/DTD/svg11.dtd"><svg width="100%" height="100%" viewBox="0 0 120 120" version="1.1" xmlns="http://www.w3.org/2000/svg" xmlns:xlink="http://www.w3.org/1999/xlink" xml:space="preserve" xmlns:serif="http://www.serif.com/" style="fill-rule:evenodd;clip-rule:evenodd;stroke-linecap:round;stroke-linejoin:round;stroke-miterlimit:1.5;"><path d="M60,96l-10.746,0c-2.841,0 -8.876,-1.968 -11.284,-8.06c-2.407,-6.091 -4.508,-12.934 -6.179,-19.612c-1.671,-6.677 -2.165,-11.024 -2.149,-12.627c0.015,-1.602 0.548,-6.819 3.224,-12.895c2.676,-6.076 6.751,-11.23 11.015,-13.97c4.263,-2.74 7.981,-4.836 16.119,-4.836c1.843,0 -1.021,0 -0,0c8.138,0 11.856,2.096 16.119,4.836c4.264,2.74 8.339,7.894 11.015,13.97c2.676,6.076 3.209,11.293 3.224,12.895c0.016,1.603 -0.478,5.95 -2.149,12.627c-1.671,6.678 -3.772,13.521 -6.179,19.612c-2.408,6.092 -8.443,8.06 -11.284,8.06l-10.746,0" style="fill:#4eb84b;stroke:#000;stroke-width:2px;"/><path d="M48.822,34.209l-10.315,9.328l-5.373,10.897l0,17.646l6.292,18.547l7.141,5.373l24.99,0l6.406,-2.687l4.792,-7.253l5.112,-22.299l-3.584,-16.119l-8.973,-10.746l-9.937,-4.631l-10.746,-0l-5.805,1.944Z" style="fill:#fff;"/><path d="M60,87.537l-9.269,0c-3.638,0 -4.001,-1.445 -4.567,-4.164c-0.565,-2.719 -3.255,-15.463 -3.492,-16.791c-0.237,-1.328 -0.222,-1.82 0.134,-2.821c0.356,-1 3.782,-10.93 4.567,-13.433c0.785,-2.502 2.09,-2.418 4.567,-2.418l16.12,0c2.477,0 3.782,-0.084 4.567,2.418c0.785,2.503 4.211,12.433 4.567,13.433c0.356,1.001 0.371,1.493 0.134,2.821c-0.237,1.328 -2.927,14.072 -3.492,16.791c-0.566,2.719 -0.929,4.164 -4.567,4.164l-9.269,0" style="fill:#4eb84b;stroke:#000;stroke-width:2px;"/><path d="M60,83.91c-3.124,0 -6.451,-0.146 -7.522,-0.537c-1.071,-0.391 -1.209,-0.967 -1.209,-2.283c-0,-1.317 -0.031,-9.575 -0,-10.881c0.03,-1.306 0.124,-1.541 0.671,-1.746c0.547,-0.205 3.581,-0.672 8.06,-0.672c0.108,0 -0.197,0 0,0c4.479,0 7.513,0.467 8.06,0.672c0.547,0.205 0.641,0.44 0.671,1.746c0.031,1.306 0,9.564 0,10.881c0,1.316 -0.138,1.892 -1.209,2.283c-1.071,0.391 -4.398,0.537 -7.522,0.537" style="fill:#fff;stroke:#000;stroke-width:2px;"/><path d="M60,31.791c8.304,0 14.207,2.939 19.612,9.403c5.404,6.464 6.802,10.04 7.522,14.776c0.72,4.736 2.456,11.258 -4.379,30.09" style="fill:none;stroke:#000;stroke-width:2px;"/><path d="M60,31.791c-8.304,0 -14.207,2.939 -19.612,9.403c-5.404,6.464 -6.802,10.04 -7.522,14.776c-0.72,4.736 -2.456,11.258 4.379,30.09" style="fill:none;stroke:#000;stroke-width:2px;"/><path d="M54.627,55.97l10.746,0" style="fill:none;stroke:#fff;stroke-width:2px;"/><path d="M60,96l-10.746,0c-2.841,0 -8.876,-1.968 -11.284,-8.06c-2.407,-6.091 -4.508,-12.934 -6.179,-19.612c-1.671,-6.677 -2.165,-11.024 -2.149,-12.627c0.015,-1.602 0.548,-6.819 3.224,-12.895c2.676,-6.076 6.751,-11.23 11.015,-13.97c4.263,-2.74 7.981,-4.836 16.119,-4.836c1.843,0 -1.021,0 -0,0c8.138,0 11.856,2.096 16.119,4.836c4.264,2.74 8.339,7.894 11.015,13.97c2.676,6.076 3.209,11.293 3.224,12.895c0.016,1.603 -0.478,5.95 -2.149,12.627c-1.671,6.678 -3.772,13.521 -6.179,19.612c-2.408,6.092 -8.443,8.06 -11.284,8.06l-10.746,0" style="fill:none;stroke:#000;stroke-width:2px;"/></svg>