<?xml version="1.0" encoding="UTF-8" standalone="no"?><!DOCTYPE svg PUBLIC "-//W3C//DTD SVG 1.1//EN" "http://www.w3.org/Graphics/SVG/1.1/DTD/svg11.dtd"><svg width="100%" height="100%" viewBox="0 0 120 120" version="1.1" xmlns="http://www.w3.org/2000/svg" xmlns:xlink="http://www.w3.org/1999/xlink" xml:space="preserve" xmlns:serif="http://www.serif.com/" style="fill-rule:evenodd;clip-rule:evenodd;stroke-linecap:round;stroke-linejoin:round;stroke-miterlimit:1.5;"><path d="M60.002,24c4.536,-0 6.314,0.364 6.314,0.364l2.185,1.336l0,0.971l0.375,0.374l-0,65.92l-0.821,0.82l-0,2.215l-16.096,0l0,-2.215l-0.82,-0.82l-0,-65.92l0.374,-0.374l-0,-0.971l2.185,-1.336c0,0 1.778,-0.364 6.314,-0.364" style="fill:#4eb84b;stroke:#000;stroke-width:2px;"/><path d="M64.252,27.642l-0,64.594" style="fill:none;stroke:#000;stroke-width:2px;"/><path d="M50.774,27.642l1.457,-2.671l3.4,-0.828l10.928,0.1l1.942,2.185l0,1.457l-17.727,-0.243Z" style="fill:#fff;"/><path d="M52.11,95.879l0.06,-3.057l3.4,-0.829l10.927,0.1l1.943,2.186l-0,1.457l-16.33,0.143Z" style="fill:#fff;"/><path d="M60.002,27.642l8.852,0" style="fill:none;stroke:#000;stroke-width:2px;"/><path d="M60.002,92.236l8.852,0" style="fill:none;stroke:#000;stroke-width:2px;"/><path d="M55.763,27.642l-0,64.594" style="fill:none;stroke:#000;stroke-width:2px;"/><path d="M60.002,27.642l-8.852,0" style="fill:none;stroke:#000;stroke-width:2px;"/><path d="M60.012,92.236l-8.851,0" style="fill:none;stroke:#000;stroke-width:2px;"/><path d="M60.002,24c4.536,-0 6.314,0.364 6.314,0.364l2.185,1.336l0,0.971l0.375,0.374l-0,65.92l-0.821,0.82l-0,2.215l-16.096,0l0,-2.215l-0.82,-0.82l-0,-65.92l0.374,-0.374l-0,-0.971l2.185,-1.336c0,0 1.778,-0.364 6.314,-0.364" style="fill:none;stroke:#000;stroke-width:2px;"/></svg>