<?xml version="1.0" encoding="UTF-8" standalone="no"?><!DOCTYPE svg PUBLIC "-//W3C//DTD SVG 1.1//EN" "http://www.w3.org/Graphics/SVG/1.1/DTD/svg11.dtd"><svg width="100%" height="100%" viewBox="0 0 120 120" version="1.1" xmlns="http://www.w3.org/2000/svg" xmlns:xlink="http://www.w3.org/1999/xlink" xml:space="preserve" xmlns:serif="http://www.serif.com/" style="fill-rule:evenodd;clip-rule:evenodd;stroke-linecap:round;stroke-linejoin:round;stroke-miterlimit:1.5;"><path d="M60.1,24c7.051,-0 9.814,0.566 9.814,0.566l3.397,2.076l0,1.51l0.582,0.582l0,62.548l-1.276,1.276l0,3.442l-25.018,-0l-0,-3.442l-1.276,-1.276l-0,-62.548l0.582,-0.582l-0,-1.51l3.397,-2.076c-0,0 2.763,-0.566 9.814,-0.566" style="fill:#4eb84b;stroke:#000;stroke-width:2px;"/><path d="M67.906,29.662l-0,60.487" style="fill:none;stroke:#000;stroke-width:2px;"/><path d="M64.306,24.323l-0,65.826" style="fill:none;stroke:#000;stroke-width:2px;"/><path d="M45.757,29.662l2.265,-4.152l5.284,-1.288l16.986,0.155l3.019,3.398l0,2.264l-27.554,-0.377Z" style="fill:#fff;"/><path d="M52.11,95.879l-4.11,0.121l-1.643,-5.851l27.502,0l-1.242,5.851l-4.177,-0.264l-16.33,0.143Z" style="fill:#fff;"/><path d="M60.1,29.662l13.759,-0" style="fill:none;stroke:#000;stroke-width:2px;"/><path d="M60.1,90.149l13.759,0" style="fill:none;stroke:#000;stroke-width:2px;"/><path d="M51.72,29.662l0,60.487" style="fill:none;stroke:#000;stroke-width:2px;"/><path d="M55.56,29.662l0,60.487" style="fill:none;stroke:#000;stroke-width:2px;"/><path d="M60.1,29.662l-13.759,-0" style="fill:none;stroke:#000;stroke-width:2px;"/><path d="M60.116,90.149l-13.759,0" style="fill:none;stroke:#000;stroke-width:2px;"/><path d="M60.1,24c7.051,-0 9.814,0.566 9.814,0.566l3.397,2.076l0,1.51l0.582,0.582l0,62.548l-1.276,1.276l0,3.442l-25.018,-0l-0,-3.442l-1.276,-1.276l-0,-62.548l0.582,-0.582l-0,-1.51l3.397,-2.076c-0,0 2.763,-0.566 9.814,-0.566" style="fill:none;stroke:#000;stroke-width:2px;"/></svg>