<?xml version="1.0" encoding="UTF-8" standalone="no"?><!DOCTYPE svg PUBLIC "-//W3C//DTD SVG 1.1//EN" "http://www.w3.org/Graphics/SVG/1.1/DTD/svg11.dtd"><svg width="100%" height="100%" viewBox="0 0 120 120" version="1.1" xmlns="http://www.w3.org/2000/svg" xmlns:xlink="http://www.w3.org/1999/xlink" xml:space="preserve" xmlns:serif="http://www.serif.com/" style="fill-rule:evenodd;clip-rule:evenodd;stroke-linecap:round;stroke-linejoin:round;stroke-miterlimit:1.5;"><g><path d="M59.404,24l15.012,0c-0,0 2.835,0.119 4.483,2.353c1.908,2.586 1.737,6.135 1.737,6.135l0,45.691c0,0 0.131,6.893 -6.22,12.544c-6.014,5.35 -14.601,5.277 -14.601,5.277" style="fill:#4eb84b;stroke:#000;stroke-width:2px;"/><path d="M60.491,24l-15.012,0c0,0 -2.835,0.119 -4.483,2.353c-1.908,2.586 -1.737,6.135 -1.737,6.135l-0,45.691c-0,0 -0.131,6.893 6.22,12.544c6.014,5.35 14.601,5.277 14.601,5.277" style="fill:#4eb84b;stroke:#000;stroke-width:2px;"/><ellipse cx="72.705" cy="57.934" rx="2.652" ry="2.646" style="fill:#fff;stroke:#000;stroke-width:2px;"/><ellipse cx="60.109" cy="75.309" rx="15.012" ry="15.014" style="fill:#fff;stroke:#000;stroke-width:2px;"/></g></svg>