<?xml version="1.0" encoding="UTF-8" standalone="no"?><!DOCTYPE svg PUBLIC "-//W3C//DTD SVG 1.1//EN" "http://www.w3.org/Graphics/SVG/1.1/DTD/svg11.dtd"><svg width="100%" height="100%" viewBox="0 0 120 120" version="1.1" xmlns="http://www.w3.org/2000/svg" xmlns:xlink="http://www.w3.org/1999/xlink" xml:space="preserve" xmlns:serif="http://www.serif.com/" style="fill-rule:evenodd;clip-rule:evenodd;stroke-linecap:round;stroke-linejoin:round;stroke-miterlimit:1.5;"><g><path d="M57.059,24.104l-15.794,0.715l-7.454,2.681l-2.128,6.094l-0.624,31.835l0.666,25.326l4.596,5.279l12.623,-1.092l13.944,-0.593l14.836,1.618l5.908,-4.467l0.846,-39.735l-1.432,-21.676l-3.217,-4.026l-13.982,-1.632l-8.788,-0.327Z" style="fill:#4eb84b;"/><path d="M57.675,24.299c10.37,0 21.504,0.268 23.783,3.308c2.279,3.041 2.62,4.508 2.743,24.209c0.123,19.702 -0.381,32.04 -0.597,37.024c-0.217,4.984 -4.241,7.269 -7.978,6.813c-3.738,-0.457 -9.21,-1.467 -18.126,-1.467" style="fill:none;stroke:#000;stroke-width:2px;"/><path d="M72.66,51.592c-0,0 -1.105,3.989 -1.656,6.744c-0.552,2.755 -1.16,8.574 -1.16,8.574" style="fill:#fff;stroke:#fff;stroke-width:2px;"/><path d="M82.719,33.368c-4.234,1.608 -9.391,6.921 -12.774,21.032c-3.383,14.111 -2.865,32.323 -2.865,32.323" style="fill:none;stroke:#000;stroke-width:2px;"/><path d="M57.455,24.299c-10.37,0 -21.504,0.268 -23.783,3.308c-2.28,3.041 -2.62,4.508 -2.743,24.209c-0.123,19.702 0.381,32.04 0.597,37.024c0.217,4.984 4.241,7.269 7.978,6.813c3.737,-0.457 9.209,-1.467 18.126,-1.467" style="fill:none;stroke:#000;stroke-width:2px;"/><path d="M42.47,51.592c-0,0 1.105,3.989 1.656,6.744c0.552,2.755 1.159,8.574 1.159,8.574" style="fill:#fff;stroke:#fff;stroke-width:2px;"/><path d="M32.411,33.368c4.234,1.608 9.39,6.921 12.773,21.032c3.383,14.111 2.865,32.323 2.865,32.323" style="fill:none;stroke:#000;stroke-width:2px;"/></g></svg>