<?xml version="1.0" encoding="UTF-8" standalone="no"?><!DOCTYPE svg PUBLIC "-//W3C//DTD SVG 1.1//EN" "http://www.w3.org/Graphics/SVG/1.1/DTD/svg11.dtd"><svg width="100%" height="100%" viewBox="0 0 120 120" version="1.1" xmlns="http://www.w3.org/2000/svg" xmlns:xlink="http://www.w3.org/1999/xlink" xml:space="preserve" xmlns:serif="http://www.serif.com/" style="fill-rule:evenodd;clip-rule:evenodd;stroke-linecap:round;stroke-linejoin:round;stroke-miterlimit:1.5;"><g><g><path d="M59.901,24c0,-0 -6.184,0.174 -10.362,0.626c-4.179,0.452 -11.505,1.359 -14.464,2.384c-2.959,1.024 -2.679,3.315 -2.679,3.315c3.182,21.6 7.652,42.726 13.845,63.221c0.044,-0.03 0.416,2.446 2.842,2.451c2.41,0.006 10.818,0 10.818,0" style="fill:#4eb84b;stroke:#000;stroke-width:2px;"/><path d="M59.639,24.014c0,0 6.5,0.16 10.678,0.612c4.178,0.452 11.505,1.359 14.464,2.384c2.959,1.024 2.678,3.315 2.678,3.315c-3.181,21.6 -7.651,42.726 -13.844,63.221c-0.045,-0.03 -0.416,2.446 -2.843,2.451c-2.409,0.006 -11.133,0 -11.133,0" style="fill:#4eb84b;stroke:#000;stroke-width:2px;"/></g><path d="M59.481,74.778c0,-0 10.725,0.005 11.711,-0c0.987,-0.005 1.095,-1.16 1.095,-1.16c-0,-0 7.046,-35.493 7.209,-36.698c0.163,-1.206 -0.992,-1.462 -0.992,-1.462c0,0 -2.531,-0.755 -7.312,-1.156c-4.78,-0.402 -11.263,-0.601 -11.263,-0.601c-0,0 -6.485,0.199 -11.266,0.601c-4.781,0.401 -7.312,1.156 -7.312,1.156c0,0 -1.154,0.256 -0.992,1.462c0.163,1.205 7.21,36.698 7.21,36.698c-0,-0 0.108,1.155 1.094,1.16c0.987,0.005 11.711,-0 11.711,-0" style="fill:#fff;stroke:#000;stroke-width:2px;"/><path d="M42.847,81.59l0.326,0.735l33.759,-0" style="fill:none;stroke:#000;stroke-width:2px;"/></g></svg>