<?xml version="1.0" encoding="UTF-8" standalone="no"?><!DOCTYPE svg PUBLIC "-//W3C//DTD SVG 1.1//EN" "http://www.w3.org/Graphics/SVG/1.1/DTD/svg11.dtd"><svg width="100%" height="100%" viewBox="0 0 120 120" version="1.1" xmlns="http://www.w3.org/2000/svg" xmlns:xlink="http://www.w3.org/1999/xlink" xml:space="preserve" xmlns:serif="http://www.serif.com/" style="fill-rule:evenodd;clip-rule:evenodd;stroke-linecap:round;stroke-linejoin:round;stroke-miterlimit:1.5;"><rect x="56.465" y="24.38" width="6.714" height="2.003" style="fill:#4eb84b;"/><path d="M64.36,25.323l-0,70.677l-8.871,-0l0,-70.677" style="fill:#4eb84b;stroke:#000;stroke-width:2px;"/><path d="M55.489,26.447c0,0.76 1.988,1.376 4.435,1.376c2.448,0 4.436,-0.616 4.436,-1.376" style="fill:none;stroke:#fff;stroke-width:2px;"/><path d="M64.36,25.323l-0,70.677l-8.871,-0l0,-70.677" style="fill:none;stroke:#000;stroke-width:2px;"/><path d="M64.36,40.971l-0,4.472c-0,2.398 -1.947,4.345 -4.345,4.345c-2.399,-0 -4.346,-1.947 -4.346,-4.345l0,-4.472c0,-2.399 1.947,-4.346 4.346,-4.346c2.398,0 4.345,1.947 4.345,4.346Z" style="fill:#fff;stroke:#000;stroke-width:2px;"/><ellipse cx="59.924" cy="25.376" rx="4.435" ry="1.376" style="fill:none;stroke:#000;stroke-width:2px;"/></svg>