<?xml version="1.0" encoding="UTF-8" standalone="no"?><!DOCTYPE svg PUBLIC "-//W3C//DTD SVG 1.1//EN" "http://www.w3.org/Graphics/SVG/1.1/DTD/svg11.dtd"><svg width="100%" height="100%" viewBox="0 0 120 120" version="1.1" xmlns="http://www.w3.org/2000/svg" xmlns:xlink="http://www.w3.org/1999/xlink" xml:space="preserve" xmlns:serif="http://www.serif.com/" style="fill-rule:evenodd;clip-rule:evenodd;stroke-linecap:round;stroke-linejoin:round;stroke-miterlimit:1.5;"><path d="M55.031,24.377l4.965,-0.369l4.965,0.369l2.482,2.114l-0.248,67.275l-4.717,2.234l-4.965,0l-4.716,-2.234l-0,-67.761l2.234,-1.628Z" style="fill:#4eb84b;"/><path d="M52.797,27.732c-0,1.233 3.226,2.234 7.199,2.234c3.973,0 7.199,-1.001 7.199,-2.234" style="fill:none;stroke:#fff;stroke-width:2px;"/><ellipse cx="59.996" cy="25.994" rx="7.199" ry="2.234" style="fill:none;stroke:#000;stroke-width:2px;"/><path d="M52.797,92.028c-0,-1.233 3.226,-2.234 7.199,-2.234c3.973,-0 7.199,1.001 7.199,2.234" style="fill:none;stroke:#fff;stroke-width:2px;"/><ellipse cx="59.996" cy="93.766" rx="7.199" ry="2.234" style="fill:none;stroke:#000;stroke-width:2px;"/><path d="M67.195,25.994l0,67.939" style="fill:none;stroke:#000;stroke-width:2px;"/><path d="M52.797,25.983l-0,67.783" style="fill:none;stroke:#000;stroke-width:2px;"/><path d="M67.313,56.732l-0,5.551c-0,4.038 -3.279,7.317 -7.317,7.317c-4.038,0 -7.317,-3.279 -7.317,-7.317l-0,-5.551c-0,-4.038 3.279,-7.317 7.317,-7.317c4.038,0 7.317,3.279 7.317,7.317Z" style="fill:#fff;stroke:#000;stroke-width:2px;"/></svg>