<?xml version="1.0" encoding="UTF-8" standalone="no"?><!DOCTYPE svg PUBLIC "-//W3C//DTD SVG 1.1//EN" "http://www.w3.org/Graphics/SVG/1.1/DTD/svg11.dtd"><svg width="100%" height="100%" viewBox="0 0 120 120" version="1.1" xmlns="http://www.w3.org/2000/svg" xmlns:xlink="http://www.w3.org/1999/xlink" xml:space="preserve" xmlns:serif="http://www.serif.com/" style="fill-rule:evenodd;clip-rule:evenodd;stroke-linecap:round;stroke-linejoin:round;stroke-miterlimit:1.5;"><path d="M60.24,23.988c11.16,-0 20.16,0.523 20.16,12.84l-0,44.76c-0,4.176 -1.845,9.264 -6,12.012c-3.929,2.598 -9.393,2.388 -14.16,2.388c-9.809,-0 9.569,-0 -0.24,-0c-4.767,-0 -10.471,0.21 -14.4,-2.388c-4.155,-2.748 -5.76,-7.836 -5.76,-12.012l0,-44.76c0,-12.317 9,-12.84 20.16,-12.84" style="fill:#fff;stroke:#000;stroke-width:2px;"/><path d="M60.24,23.988c11.16,-0 20.16,0.523 20.16,12.84l-0,25.8c-0,4.176 -1.365,9.372 -5.52,12.12c-3.929,2.598 -9.873,2.28 -14.64,2.28c-9.809,-0 9.569,-0 -0.24,-0c-4.767,-0 -10.711,0.318 -14.64,-2.28c-4.155,-2.748 -5.52,-7.944 -5.52,-12.12l0,-25.8c0,-12.317 9,-12.84 20.16,-12.84" style="fill:#4eb84b;stroke:#000;stroke-width:2px;"/><ellipse cx="60" cy="86.4" rx="8.64" ry="6" style="fill:#4eb84b;stroke:#000;stroke-width:2px;"/></svg>