<?xml version="1.0" encoding="UTF-8" standalone="no"?><!DOCTYPE svg PUBLIC "-//W3C//DTD SVG 1.1//EN" "http://www.w3.org/Graphics/SVG/1.1/DTD/svg11.dtd"><svg width="100%" height="100%" viewBox="0 0 120 120" version="1.1" xmlns="http://www.w3.org/2000/svg" xmlns:xlink="http://www.w3.org/1999/xlink" xml:space="preserve" xmlns:serif="http://www.serif.com/" style="fill-rule:evenodd;clip-rule:evenodd;stroke-linecap:round;stroke-linejoin:round;stroke-miterlimit:1.5;"><g><path d="M74.4,39.631c-0,0 -0.015,38.495 -0,42.166c0.015,3.672 -1.567,7.099 -3.787,9.547c-2.242,2.472 -5.27,4.652 -10.533,4.654c-5.263,0.003 5.242,0.003 -0.021,0c-5.263,-0.002 -8.292,-2.182 -10.533,-4.654c-2.221,-2.448 -3.802,-5.875 -3.787,-9.547c0.015,-3.671 -0,-42.166 -0,-42.166l-0,40.738c-0,-0 0.015,-38.495 -0,-42.166c-0.015,-3.672 1.566,-7.099 3.787,-9.547c2.241,-2.472 5.27,-4.652 10.533,-4.654c5.263,-0.003 -5.242,-0.003 0.021,-0c5.263,0.002 8.291,2.182 10.533,4.654c2.22,2.448 3.802,5.875 3.787,9.547c-0.015,3.671 -0,42.166 -0,42.166" style="fill:#4eb84b;stroke:#000;stroke-width:2px;"/><path d="M67.258,79.528c-0,-0 0.067,0.878 -0,3.417c-0.068,2.539 -1.118,3.758 -1.818,4.544c-0.701,0.786 -2.489,2.212 -5.397,2.205c-2.908,-0.007 2.771,-0.007 -0.137,-0c-2.908,0.007 -4.697,-1.419 -5.398,-2.205c-0.7,-0.786 -1.75,-2.005 -1.817,-4.544c-0.068,-2.539 -0,-3.417 -0,-3.417l-0,2.045c-0,-0 -0.068,-0.879 -0,-3.417c0.067,-2.539 1.117,-3.758 1.817,-4.544c0.701,-0.786 2.49,-2.212 5.398,-2.205c2.908,0.007 -2.771,0.007 0.137,-0c2.908,-0.007 4.696,1.419 5.397,2.205c0.7,0.786 1.75,2.005 1.818,4.544c0.067,2.538 -0,3.417 -0,3.417" style="fill:#fff;stroke:#000;stroke-width:2px;"/><g><ellipse cx="60.258" cy="57.986" rx="1.703" ry="1.681" style="fill:#fff;"/><ellipse cx="60.258" cy="42.121" rx="1.703" ry="1.681" style="fill:#fff;"/><ellipse cx="60.258" cy="50.235" rx="1.703" ry="1.681" style="fill:#fff;"/></g></g></svg>