<?xml version="1.0" encoding="UTF-8" standalone="no"?><!DOCTYPE svg PUBLIC "-//W3C//DTD SVG 1.1//EN" "http://www.w3.org/Graphics/SVG/1.1/DTD/svg11.dtd"><svg width="100%" height="100%" viewBox="0 0 120 120" version="1.1" xmlns="http://www.w3.org/2000/svg" xmlns:xlink="http://www.w3.org/1999/xlink" xml:space="preserve" xmlns:serif="http://www.serif.com/" style="fill-rule:evenodd;clip-rule:evenodd;stroke-linecap:round;stroke-linejoin:round;stroke-miterlimit:1.5;"><path d="M96,36.849l-0,46.302c-0,7.092 -5.757,12.849 -12.849,12.849l-46.302,-0c-7.092,-0 -12.849,-5.757 -12.849,-12.849l0,-46.302c0,-7.092 5.757,-12.849 12.849,-12.849l46.302,-0c7.092,-0 12.849,5.757 12.849,12.849Z" style="fill:#fff;stroke:#000;stroke-width:2px;"/><path d="M92.16,36.953l0,46.094c0,5.03 -4.083,9.113 -9.113,9.113l-46.094,0c-5.03,0 -9.113,-4.083 -9.113,-9.113l0,-46.094c0,-5.03 4.083,-9.113 9.113,-9.113l46.094,0c5.03,0 9.113,4.083 9.113,9.113Z" style="fill:#4eb84b;stroke:#000;stroke-width:2px;"/></svg>