<?xml version="1.0" encoding="UTF-8" standalone="no"?><!DOCTYPE svg PUBLIC "-//W3C//DTD SVG 1.1//EN" "http://www.w3.org/Graphics/SVG/1.1/DTD/svg11.dtd"><svg width="100%" height="100%" viewBox="0 0 120 120" version="1.1" xmlns="http://www.w3.org/2000/svg" xmlns:xlink="http://www.w3.org/1999/xlink" xml:space="preserve" xmlns:serif="http://www.serif.com/" style="fill-rule:evenodd;clip-rule:evenodd;stroke-linecap:round;stroke-linejoin:round;stroke-miterlimit:1.5;"><path d="M60,24c-15.964,-0 -19.371,0.247 -21.835,3.68c-2.464,3.433 -2.208,5.204 -2.208,10.55l-0,49.803c-0,3.171 1.073,3.772 2.453,5.152c1.38,1.38 2.879,2.544 5.398,2.699c2.519,0.155 29.865,0.155 32.384,-0c2.519,-0.155 4.018,-1.319 5.398,-2.699c1.379,-1.38 2.453,-1.981 2.453,-5.152l-0,-49.803c-0,-5.346 0.256,-7.117 -2.208,-10.55c-2.464,-3.433 -5.871,-3.68 -21.835,-3.68" style="fill:#4eb84b;stroke:#000;stroke-width:2px;"/><path d="M60,30.869l11.776,0c2.899,0 4.819,0.365 6.379,2.208c1.56,1.844 2.208,3.115 2.208,5.398l-0,48.086c-0,1.621 -0.245,2.716 -1.472,3.925c-1.228,1.21 -1.904,2.208 -6.379,2.208l-25.024,0c-4.475,0 -5.152,-0.998 -6.379,-2.208c-1.228,-1.209 -1.472,-2.304 -1.472,-3.925l-0,-48.086c-0,-2.283 0.648,-3.554 2.208,-5.398c1.56,-1.843 3.48,-2.208 6.379,-2.208l11.776,0" style="fill:#4eb84b;stroke:#000;stroke-width:2px;"/><path d="M74.72,48.456l0,34.503c0,1.717 -1.394,3.111 -3.111,3.111l-23.463,0c-1.718,0 -3.112,-1.394 -3.112,-3.111l0,-34.503c0,-1.718 1.394,-3.112 3.112,-3.112l23.463,0c1.717,0 3.111,1.394 3.111,3.112Z" style="fill:#fff;stroke:#000;stroke-width:2px;"/><circle cx="60" cy="53.931" r="1.472" style="fill:#4eb84b;"/><circle cx="63.189" cy="53.931" r="0.981" style="fill:#4eb84b;"/><circle cx="65.397" cy="53.931" r="0.491" style="fill:#4eb84b;"/><circle cx="56.81" cy="53.931" r="0.981" style="fill:#4eb84b;"/><circle cx="54.602" cy="53.931" r="0.491" style="fill:#4eb84b;"/></svg>