<?xml version="1.0" encoding="UTF-8" standalone="no"?><!DOCTYPE svg PUBLIC "-//W3C//DTD SVG 1.1//EN" "http://www.w3.org/Graphics/SVG/1.1/DTD/svg11.dtd"><svg width="100%" height="100%" viewBox="0 0 120 120" version="1.1" xmlns="http://www.w3.org/2000/svg" xmlns:xlink="http://www.w3.org/1999/xlink" xml:space="preserve" xmlns:serif="http://www.serif.com/" style="fill-rule:evenodd;clip-rule:evenodd;stroke-linecap:round;stroke-linejoin:round;stroke-miterlimit:1.5;"><path d="M60,24l13.92,0c0,0 1.472,1.053 3.36,4.08l0,54.48c0,0 -0.552,1.63 -2.64,3.6l0,7.68c0,1.134 -0.802,2.16 -2.16,2.16l-24.96,-0c-1.358,-0 -2.16,-1.026 -2.16,-2.16l0,-7.68c-2.088,-1.97 -2.64,-3.6 -2.64,-3.6l0,-54.48c1.888,-3.027 3.36,-4.08 3.36,-4.08l13.92,0" style="fill:#4eb84b;stroke:#000;stroke-width:2px;"/><path d="M52.8,41.52l14.4,0" style="fill:none;stroke:#fff;stroke-width:2px;"/><path d="M73.92,24c0,0 -1.568,1.996 -2.4,3.36c-0.832,1.364 -1.44,2.91 -1.44,5.52c0,2.61 -0.111,49.92 -0.111,49.92" style="fill:none;stroke:#000;stroke-width:2px;"/><path d="M45.6,86.4l3.12,-1.359l2.16,-4.401l3.6,-1.44l12.24,0.24l2.903,1.68l1.417,4.32l3.6,0.96l0,7.92l-1.68,1.92l-25.92,-0.48l-1.68,-1.68l0.24,-7.68Z" style="fill:#fff;"/><path d="M60,78.96l5.76,-0c2.63,-0 3.848,1.158 4.08,3.12c0.232,1.962 1.385,3.986 4.8,4.08" style="fill:none;stroke:#000;stroke-width:2px;"/><path d="M46.08,24c0,0 1.568,1.996 2.4,3.36c0.832,1.364 1.44,2.91 1.44,5.52c0,2.61 0.111,49.92 0.111,49.92" style="fill:none;stroke:#000;stroke-width:2px;"/><path d="M60,78.96l-5.76,-0c-2.63,-0 -3.848,1.158 -4.08,3.12c-0.232,1.962 -1.385,3.986 -4.8,4.08" style="fill:none;stroke:#000;stroke-width:2px;"/><path d="M60,24l13.92,0c0,0 1.472,1.053 3.36,4.08l0,54.48c0,0 -0.552,1.63 -2.64,3.6l0,7.68c0,1.134 -0.802,2.16 -2.16,2.16l-24.96,-0c-1.358,-0 -2.16,-1.026 -2.16,-2.16l0,-7.68c-2.088,-1.97 -2.64,-3.6 -2.64,-3.6l0,-54.48c1.888,-3.027 3.36,-4.08 3.36,-4.08l13.92,0" style="fill:none;stroke:#000;stroke-width:2px;"/><path d="M63.564,85.3l-7.128,0c-0.945,0.833 -1.476,1.962 -1.476,3.14c-0,2.451 2.258,4.44 5.04,4.44c2.782,0 5.04,-1.989 5.04,-4.44c-0,-1.178 -0.531,-2.307 -1.476,-3.14Z" style="fill:#4eb84b;stroke:#000;stroke-width:2px;"/></svg>