<?xml version="1.0" encoding="UTF-8" standalone="no"?><!DOCTYPE svg PUBLIC "-//W3C//DTD SVG 1.1//EN" "http://www.w3.org/Graphics/SVG/1.1/DTD/svg11.dtd"><svg width="100%" height="100%" viewBox="0 0 120 120" version="1.1" xmlns="http://www.w3.org/2000/svg" xmlns:xlink="http://www.w3.org/1999/xlink" xml:space="preserve" xmlns:serif="http://www.serif.com/" style="fill-rule:evenodd;clip-rule:evenodd;stroke-linecap:round;stroke-linejoin:round;stroke-miterlimit:1.5;"><g><path d="M59.986,25.03l-10.996,0l0,-1.03c-2.793,-0.004 -6.64,1.636 -6.64,1.636l-0,65.375c-0,0 2.391,3.417 6.64,4.92l7.56,0l0,-0.385l-0.031,0.373l0.005,-0.358l3.462,0" style="fill:#4eb84b;stroke:#000;stroke-width:2px;"/><path d="M59.584,25.03l11.416,0l0,-1.03c2.794,-0.004 6.641,1.636 6.641,1.636l0,65.375c0,0 -2.391,3.417 -6.641,4.92l-7.56,0l0,-0.385l0.032,0.373l-0.006,-0.358l-3.882,0" style="fill:#4eb84b;stroke:#000;stroke-width:2px;"/><rect x="49.022" y="44.237" width="21.957" height="35.099" style="fill:#fff;stroke:#000;stroke-width:2px;"/><path d="M56.741,59.98c-2.735,1.316 -4.474,4.075 -4.474,7.102c0,4.352 3.546,7.886 7.912,7.886c4.367,-0 7.913,-3.534 7.913,-7.886c-0,-3.027 -1.739,-5.786 -4.474,-7.102l-6.877,0Z" style="fill:#4eb84b;stroke:#000;stroke-width:2px;"/><path d="M67.875,52.557c-0,-0.477 -0.387,-0.864 -0.864,-0.864l-13.758,0c-0.476,0 -0.864,0.387 -0.864,0.864l0,1.729c0,0.477 0.388,0.864 0.864,0.864l13.758,0c0.477,0 0.864,-0.387 0.864,-0.864l-0,-1.729Z" style="fill:#4eb84b;stroke:#000;stroke-width:2px;"/><path d="M49.014,25.147l0,70.853" style="fill:none;stroke:#000;stroke-width:2px;"/><path d="M70.99,25.147l0,70.853" style="fill:none;stroke:#000;stroke-width:2px;"/></g></svg>