<?xml version="1.0" encoding="UTF-8" standalone="no"?><!DOCTYPE svg PUBLIC "-//W3C//DTD SVG 1.1//EN" "http://www.w3.org/Graphics/SVG/1.1/DTD/svg11.dtd"><svg width="100%" height="100%" viewBox="0 0 120 120" version="1.1" xmlns="http://www.w3.org/2000/svg" xmlns:xlink="http://www.w3.org/1999/xlink" xml:space="preserve" xmlns:serif="http://www.serif.com/" style="fill-rule:evenodd;clip-rule:evenodd;stroke-linecap:round;stroke-linejoin:round;stroke-miterlimit:1.5;"><path d="M60,96c-10.798,0 -14.16,-1.2 -14.16,-1.2c-2.887,-2.934 -4.08,-5.28 -4.08,-5.28c-0,0 -1.566,-8.332 -3.36,-26.16c-1.794,-17.828 -1.68,-31.44 -1.68,-31.44c3.631,-5.338 6.24,-7.44 6.24,-7.44c-0,0 4.241,-0.48 16.8,-0.48c12.559,0 -12.079,0 0.48,0c12.559,0 16.8,0.48 16.8,0.48c-0,0 2.609,2.102 6.24,7.44c0,0 0.114,13.612 -1.68,31.44c-1.794,17.828 -3.36,26.16 -3.36,26.16c0,0 -1.193,2.346 -4.08,5.28c0,0 -3.362,1.2 -14.16,1.2" style="fill:#4eb84b;stroke:#000;stroke-width:2px;"/><path d="M74.394,94.56c-0,0 1.56,-15.983 2.166,-38.4c0.606,-22.417 0.48,-31.68 0.48,-31.68" style="fill:#fff;stroke:#000;stroke-width:2px;"/><path d="M60,73.2c6.166,0 8.361,0.094 9.6,-0.72c1.239,-0.814 2.425,-3.555 3.12,-6.24c0,-0 -0.247,0.995 -0.755,2.4l-23.93,-0c-0.508,-1.405 -0.755,-2.4 -0.755,-2.4c0.695,2.685 1.881,5.426 3.12,6.24c1.239,0.814 3.434,0.72 9.6,0.72" style="fill:#fff;stroke:#000;stroke-width:2px;"/><path d="M45.606,94.56c0,0 -1.56,-15.983 -2.166,-38.4c-0.606,-22.417 -0.48,-31.68 -0.48,-31.68" style="fill:#fff;stroke:#000;stroke-width:2px;"/></svg>