<?xml version="1.0" encoding="UTF-8" standalone="no"?><!DOCTYPE svg PUBLIC "-//W3C//DTD SVG 1.1//EN" "http://www.w3.org/Graphics/SVG/1.1/DTD/svg11.dtd"><svg width="100%" height="100%" viewBox="0 0 120 120" version="1.1" xmlns="http://www.w3.org/2000/svg" xmlns:xlink="http://www.w3.org/1999/xlink" xml:space="preserve" xmlns:serif="http://www.serif.com/" style="fill-rule:evenodd;clip-rule:evenodd;stroke-linecap:round;stroke-linejoin:round;stroke-miterlimit:1.5;"><path d="M89.28,33.483l0,9.717c0,0 -3.6,2.375 -3.6,16.8c-0,14.425 3.6,16.8 3.6,16.8l0,9.717c0,5.234 -4.249,9.483 -9.483,9.483l-39.594,0c-5.234,0 -9.483,-4.249 -9.483,-9.483l-0,-9.717c-0,-0 3.6,-4.803 3.6,-16.8c-0,-11.997 -3.6,-16.8 -3.6,-16.8l0,-9.717c0,-5.234 4.249,-9.483 9.483,-9.483l39.594,-0c5.234,-0 9.483,4.249 9.483,9.483Z" style="fill:#4eb84b;stroke:#000;stroke-width:2px;"/><circle cx="60" cy="60" r="3.6" style="fill:#fff;stroke:#000;stroke-width:2px;"/></svg>