<?xml version="1.0" encoding="UTF-8" standalone="no"?><!DOCTYPE svg PUBLIC "-//W3C//DTD SVG 1.1//EN" "http://www.w3.org/Graphics/SVG/1.1/DTD/svg11.dtd"><svg width="100%" height="100%" viewBox="0 0 120 120" version="1.1" xmlns="http://www.w3.org/2000/svg" xmlns:xlink="http://www.w3.org/1999/xlink" xml:space="preserve" xmlns:serif="http://www.serif.com/" style="fill-rule:evenodd;clip-rule:evenodd;stroke-linecap:round;stroke-linejoin:round;stroke-miterlimit:1.5;"><rect x="44.779" y="71.839" width="30.443" height="17.879" style="fill:#fff;"/><rect x="44.779" y="89.718" width="30.443" height="6.282" style="fill:#4eb84b;"/><path d="M60,96l15.221,0l0,-24.403" style="fill:none;stroke:#000;stroke-width:2px;"/><path d="M60,96l-15.221,0l-0,-24.403" style="fill:none;stroke:#000;stroke-width:2px;"/><path d="M87.906,25.655l0,44.287l-1.655,1.655l-52.502,0l-1.655,-1.655l-0,-44.287l1.655,-1.655l52.502,-0l1.655,1.655Z" style="fill:#4eb84b;stroke:#000;stroke-width:2px;"/><path d="M44.779,89.718l30.442,0" style="fill:none;stroke:#000;stroke-width:2px;"/><path d="M82.159,24c-0,-0 -14.767,39.571 -15.031,40.349c-0.265,0.778 -0.658,1.691 -1.933,1.691l-27.544,0c-1.476,0 -1.988,-0.745 -1.45,-2.174c0.539,-1.429 14.497,-39.866 14.497,-39.866" style="fill:#fff;stroke:#000;stroke-width:2px;"/><path d="M87.906,25.655l0,44.287l-1.655,1.655l-52.502,0l-1.655,-1.655l-0,-44.287l1.655,-1.655l52.502,-0l1.655,1.655Z" style="fill:none;stroke:#000;stroke-width:2px;"/></svg>