<?xml version="1.0" encoding="UTF-8" standalone="no"?><!DOCTYPE svg PUBLIC "-//W3C//DTD SVG 1.1//EN" "http://www.w3.org/Graphics/SVG/1.1/DTD/svg11.dtd"><svg width="100%" height="100%" viewBox="0 0 120 120" version="1.1" xmlns="http://www.w3.org/2000/svg" xmlns:xlink="http://www.w3.org/1999/xlink" xml:space="preserve" xmlns:serif="http://www.serif.com/" style="fill-rule:evenodd;clip-rule:evenodd;stroke-linecap:round;stroke-linejoin:round;stroke-miterlimit:1.5;"><path d="M60.031,96l-12,0c-1.271,0 -3.12,-0.881 -3.12,-0.881c-0,0 -2.521,-7.208 -3.586,-11.119c-1.066,-3.911 -2.131,-6.809 -2.417,-12c-0.285,-5.191 1.676,-38.57 1.923,-43.2c0.246,-4.63 2.581,-4.8 4.8,-4.8l28.769,0c2.219,0 4.553,0.17 4.8,4.8c0.247,4.63 2.208,38.009 1.923,43.2c-0.286,5.191 -1.351,8.089 -2.417,12c-1.065,3.911 -3.586,11.119 -3.586,11.119c0,0 -1.85,0.881 -3.12,0.881l-12,0" style="fill:#4eb84b;stroke:#000;stroke-width:2px;"/><path d="M60.031,87.36l-9.84,0c-3.393,0 -4.066,-2.348 -4.32,-6.72c-0.255,-4.372 0.624,-22.061 0.72,-25.2c0.096,-3.139 1.728,-3.12 3.36,-3.12l20.129,0c1.632,0 3.264,-0.019 3.36,3.12c0.096,3.139 0.975,20.828 0.72,25.2c-0.255,4.372 -0.927,6.72 -4.32,6.72l-9.84,0" style="fill:#fff;stroke:#000;stroke-width:2px;"/></svg>