<?xml version="1.0" encoding="UTF-8" standalone="no"?><!DOCTYPE svg PUBLIC "-//W3C//DTD SVG 1.1//EN" "http://www.w3.org/Graphics/SVG/1.1/DTD/svg11.dtd"><svg width="100%" height="100%" viewBox="0 0 120 120" version="1.1" xmlns="http://www.w3.org/2000/svg" xmlns:xlink="http://www.w3.org/1999/xlink" xml:space="preserve" xmlns:serif="http://www.serif.com/" style="fill-rule:evenodd;clip-rule:evenodd;stroke-linecap:round;stroke-linejoin:round;stroke-miterlimit:1.5;"><path d="M60,24c6.562,0 11.098,0.564 12.589,1.732c1.491,1.169 3.674,5.999 5.651,14.108c1.977,8.109 3.041,16.8 1.2,26.88c-1.841,10.08 -5.282,24.777 -7.92,27.12c-2.638,2.343 -6.899,2.16 -10.92,2.16c-4.021,0 2.941,0 -1.08,0c-4.021,0 -8.402,0.183 -11.04,-2.16c-2.638,-2.343 -6.079,-17.04 -7.92,-27.12c-1.841,-10.08 -0.777,-18.771 1.2,-26.88c1.977,-8.109 4.16,-12.939 5.651,-14.108c1.491,-1.168 6.027,-1.732 12.589,-1.732" style="fill:#4eb84b;stroke:#000;stroke-width:2px;"/><path d="M60,38.88c1.17,-0 2.09,-0.07 2.64,0.48c0.55,0.55 0.767,1.725 1.2,6.48c0.433,4.755 0.521,12.711 0.48,14.16c-0.041,1.449 -0.941,1.347 -1.68,1.44c-0.739,0.093 -1.503,0.12 -2.64,0.12" style="fill:none;stroke:#fff;stroke-width:2px;"/><path d="M60,38.88c-1.17,-0 -2.09,-0.07 -2.64,0.48c-0.55,0.55 -0.767,1.725 -1.2,6.48c-0.433,4.755 -0.521,12.711 -0.48,14.16c0.041,1.449 0.941,1.347 1.68,1.44c0.739,0.093 1.503,0.12 2.64,0.12" style="fill:none;stroke:#fff;stroke-width:2px;"/><path d="M60,34.56c3.512,-0 4.946,0.137 6,0.96c1.054,0.823 1.324,2.382 2.16,7.2c0.836,4.818 0.651,6.261 0.48,9.84c-0.171,3.575 -0.24,4.8 -0.24,4.8" style="fill:none;stroke:#000;stroke-width:2px;"/><path d="M60,34.56c-3.512,-0 -4.946,0.137 -6,0.96c-1.054,0.823 -1.324,2.382 -2.16,7.2c-0.836,4.818 -0.651,6.261 -0.48,9.84c0.171,3.575 0.24,4.8 0.24,4.8" style="fill:none;stroke:#000;stroke-width:2px;"/></svg>