<?xml version="1.0" encoding="UTF-8" standalone="no"?><!DOCTYPE svg PUBLIC "-//W3C//DTD SVG 1.1//EN" "http://www.w3.org/Graphics/SVG/1.1/DTD/svg11.dtd"><svg width="100%" height="100%" viewBox="0 0 120 120" version="1.1" xmlns="http://www.w3.org/2000/svg" xmlns:xlink="http://www.w3.org/1999/xlink" xml:space="preserve" xmlns:serif="http://www.serif.com/" style="fill-rule:evenodd;clip-rule:evenodd;stroke-linecap:round;stroke-linejoin:round;stroke-miterlimit:1.5;"><g><path d="M63.417,23.973l-15.959,0c-2.228,0 -4.971,1.553 -5.194,4.987c-0.309,4.764 -2.397,33.089 -2.193,36.667c0.178,3.108 0.548,8.622 1.333,13.576c0.784,4.953 2.184,13.43 2.184,13.43l2.538,3.444l20.366,-0.085" style="fill:#4eb84b;stroke:#000;stroke-width:2px;"/><path d="M56.487,23.973l15.958,0c2.228,0 4.972,1.553 5.194,4.987c0.309,4.764 2.397,33.089 2.193,36.667c-0.177,3.108 -0.547,8.622 -1.332,13.576c-0.785,4.953 -2.185,13.43 -2.185,13.43l-2.537,3.444l-20.366,-0.085" style="fill:#4eb84b;stroke:#000;stroke-width:2px;"/><g><path d="M58.165,48.077l9.78,-0c0.956,-0 1.679,0.193 1.727,1.891c0.049,1.699 1.07,17.4 1.033,22.308c-0.036,4.909 0.076,17.262 -10.843,17.262" style="fill:#fff;stroke:#000;stroke-width:2px;"/><path d="M61.618,48.077l-9.78,-0c-0.956,-0 -1.679,0.193 -1.727,1.891c-0.049,1.699 -1.07,17.4 -1.033,22.308c0.036,4.909 -0.076,17.262 10.843,17.262" style="fill:#fff;stroke:#000;stroke-width:2px;"/></g><circle cx="65.975" cy="35.788" r="4.008" style="fill:#fff;stroke:#000;stroke-width:2px;"/><path d="M40.068,64.12l1.709,6.03l2.153,1.671l5.147,-0" style="fill:none;stroke:#000;stroke-width:2px;"/><path d="M79.712,64.12l-1.709,6.03l-2.153,1.671l-5.146,-0" style="fill:none;stroke:#000;stroke-width:2px;"/></g></svg>