<?xml version="1.0" encoding="UTF-8" standalone="no"?><!DOCTYPE svg PUBLIC "-//W3C//DTD SVG 1.1//EN" "http://www.w3.org/Graphics/SVG/1.1/DTD/svg11.dtd"><svg width="100%" height="100%" viewBox="0 0 120 120" version="1.1" xmlns="http://www.w3.org/2000/svg" xmlns:xlink="http://www.w3.org/1999/xlink" xml:space="preserve" xmlns:serif="http://www.serif.com/" style="fill-rule:evenodd;clip-rule:evenodd;stroke-linecap:round;stroke-linejoin:round;stroke-miterlimit:1.5;"><path d="M60,95.52l-6,0c0,0 -1.418,-1.232 -3.6,-6.24c-2.182,-5.008 -3.184,-17.48 -3.84,-29.28c-0.656,-11.8 -0.734,-16.027 -0.48,-22.32c0.254,-6.293 1.177,-8.843 2.88,-11.04c1.703,-2.197 2.595,-2.64 3.84,-2.64l14.4,0c1.245,0 2.137,0.443 3.84,2.64c1.703,2.197 2.626,4.747 2.88,11.04c0.254,6.293 0.176,10.52 -0.48,22.32c-0.656,11.8 -1.658,24.272 -3.84,29.28c-2.182,5.008 -3.6,6.24 -3.6,6.24l-6,0" style="fill:#4eb84b;stroke:#000;stroke-width:2px;"/><path d="M73.42,32.4l-3.34,-2.16l0.48,16.08l-0.48,12.96l-2.88,29.76l3.36,-2.64l2.4,-16.32l1.038,-22.32l-0.578,-15.36Z" style="fill:#fff;"/><path d="M73.499,32.88c-0.637,-2.417 -3.419,-2.88 -3.419,-2.88c0,-0 0.868,8.491 0.63,17.001c-0.239,8.565 -0.521,11.874 -0.952,18.995c-0.431,7.127 -2.558,22.804 -2.558,22.804c0,-0 2.838,0.081 3.574,-3.354" style="fill:none;stroke:#000;stroke-width:2px;"/><path d="M46.58,32.4l3.34,-2.16l-0.48,16.08l0.48,12.96l2.88,29.76l-3.36,-2.64l-2.4,-16.32l-1.038,-22.32l0.578,-15.36Z" style="fill:#fff;"/><path d="M46.501,32.88c0.637,-2.417 3.419,-2.88 3.419,-2.88c0,-0 -0.868,8.491 -0.63,17.001c0.239,8.565 0.521,11.874 0.952,18.995c0.431,7.127 2.558,22.804 2.558,22.804c0,-0 -2.838,0.081 -3.574,-3.354" style="fill:none;stroke:#000;stroke-width:2px;"/><g><path d="M60.72,84.48l-1.44,-0" style="fill:none;stroke:#fff;stroke-width:2px;"/><path d="M60.96,79.44l-1.92,0" style="fill:none;stroke:#fff;stroke-width:2px;"/><path d="M61.2,74.4l-2.4,-0" style="fill:none;stroke:#fff;stroke-width:2px;"/><path d="M61.44,69.36l-2.88,0" style="fill:none;stroke:#fff;stroke-width:2px;"/><path d="M61.68,64.32l-3.36,-0" style="fill:none;stroke:#fff;stroke-width:2px;"/><path d="M61.92,59.28l-3.84,0" style="fill:none;stroke:#fff;stroke-width:2px;"/><path d="M62.16,54.24l-4.32,-0" style="fill:none;stroke:#fff;stroke-width:2px;"/></g><path d="M60,95.52l-6,0c0,0 -1.418,-1.232 -3.6,-6.24c-2.182,-5.008 -3.184,-17.48 -3.84,-29.28c-0.656,-11.8 -0.734,-16.027 -0.48,-22.32c0.254,-6.293 1.177,-8.843 2.88,-11.04c1.703,-2.197 2.595,-2.64 3.84,-2.64l14.4,0c1.245,0 2.137,0.443 3.84,2.64c1.703,2.197 2.626,4.747 2.88,11.04c0.254,6.293 0.176,10.52 -0.48,22.32c-0.656,11.8 -1.658,24.272 -3.84,29.28c-2.182,5.008 -3.6,6.24 -3.6,6.24l-6,0" style="fill:none;stroke:#000;stroke-width:2px;"/></svg>