<?xml version="1.0" encoding="UTF-8" standalone="no"?><!DOCTYPE svg PUBLIC "-//W3C//DTD SVG 1.1//EN" "http://www.w3.org/Graphics/SVG/1.1/DTD/svg11.dtd"><svg width="100%" height="100%" viewBox="0 0 120 120" version="1.1" xmlns="http://www.w3.org/2000/svg" xmlns:xlink="http://www.w3.org/1999/xlink" xml:space="preserve" xmlns:serif="http://www.serif.com/" style="fill-rule:evenodd;clip-rule:evenodd;stroke-linecap:round;stroke-linejoin:round;stroke-miterlimit:1.5;"><path d="M60,96.24c3.484,-0 6.555,-0.885 8.64,-2.16c2.085,-1.275 3.513,-1.35 3.84,-9.6c0.327,-8.25 0.851,-18.986 1.2,-34.08c0.349,-15.094 0.461,-21.49 -0.96,-23.52c-1.421,-2.03 -2.594,-2.88 -12.48,-2.88c-9.886,-0 9.406,-0 -0.48,-0c-9.886,-0 -11.059,0.85 -12.48,2.88c-1.421,2.03 -1.309,8.426 -0.96,23.52c0.349,15.094 0.873,25.83 1.2,34.08c0.327,8.25 1.755,8.325 3.84,9.6c2.085,1.275 5.156,2.16 8.64,2.16" style="fill:#4eb84b;stroke:#000;stroke-width:2px;"/><path d="M60,89.52l-2.4,0c-0.323,0 -0.48,-0.25 -0.48,-1.44c0,-1.19 0.083,-3.296 -0.24,-9.36c-0.323,-6.064 -0.54,-7.694 -0.96,-12.24c-0.42,-4.546 -1.712,-10.962 -2.4,-13.92l6.48,-0" style="fill:none;stroke:#000;stroke-width:2px;"/><circle cx="60" cy="57.6" r="2.4" style="fill:#fff;stroke:#000;stroke-width:2px;"/><path d="M60,63l0.012,0" style="fill:none;stroke:#fff;stroke-width:2px;"/><path d="M60,67.8l0.012,0" style="fill:none;stroke:#fff;stroke-width:2px;"/><path d="M60,72.6l0.012,-0" style="fill:none;stroke:#fff;stroke-width:2px;"/><path d="M60,77.4l0.012,0" style="fill:none;stroke:#fff;stroke-width:2px;"/><path d="M60,82.2l0.012,0" style="fill:none;stroke:#fff;stroke-width:2px;"/><path d="M60,87l0.012,0" style="fill:none;stroke:#fff;stroke-width:2px;"/><path d="M60,89.52l2.4,0c0.323,0 0.48,-0.25 0.48,-1.44c0,-1.19 -0.083,-3.296 0.24,-9.36c0.323,-6.064 0.54,-7.694 0.96,-12.24c0.42,-4.546 1.712,-10.962 2.4,-13.92l-6.48,-0" style="fill:none;stroke:#000;stroke-width:2px;"/></svg>