<?xml version="1.0" encoding="UTF-8" standalone="no"?><!DOCTYPE svg PUBLIC "-//W3C//DTD SVG 1.1//EN" "http://www.w3.org/Graphics/SVG/1.1/DTD/svg11.dtd"><svg width="100%" height="100%" viewBox="0 0 120 120" version="1.1" xmlns="http://www.w3.org/2000/svg" xmlns:xlink="http://www.w3.org/1999/xlink" xml:space="preserve" xmlns:serif="http://www.serif.com/" style="fill-rule:evenodd;clip-rule:evenodd;stroke-linecap:round;stroke-linejoin:round;stroke-miterlimit:1.5;"><path d="M60,24c11.743,0 15.451,1.004 19.2,3.84c3.749,2.836 5.389,6.961 5.28,15.36c-0.109,8.399 -0.649,24.859 -1.2,33.84c-0.551,8.981 -3.374,12.934 -7.2,15.6c-3.826,2.666 -8.768,3.36 -15.6,3.36c-6.832,0 5.872,0 -0.96,0c-6.832,0 -11.774,-0.694 -15.6,-3.36c-3.826,-2.666 -6.649,-6.619 -7.2,-15.6c-0.551,-8.981 -1.091,-25.441 -1.2,-33.84c-0.109,-8.399 1.531,-12.524 5.28,-15.36c3.749,-2.836 7.457,-3.84 19.2,-3.84" style="fill:#fff;stroke:#000;stroke-width:2px;"/><path d="M60,28.8c7.393,-0 11.354,0.223 14.4,1.845c3.046,1.623 5.568,4.093 5.386,13.537c-0.183,9.445 -0.791,23.453 -1.324,28.956c-0.532,5.503 -1.32,7.312 -3.324,9.37c-2.005,2.058 -3.757,3.892 -14.418,3.892c-10.661,-0 9.221,-0 -1.44,-0c-10.661,-0 -12.413,-1.834 -14.418,-3.892c-2.004,-2.058 -2.792,-3.867 -3.324,-9.37c-0.533,-5.503 -1.141,-19.511 -1.324,-28.956c-0.182,-9.444 2.34,-11.914 5.386,-13.537c3.046,-1.622 7.007,-1.845 14.4,-1.845" style="fill:#4eb84b;stroke:#000;stroke-width:2px;"/><path d="M60,58.08c5.495,-0 6.861,0.187 8.16,0.48c1.299,0.293 3.86,0.877 3.84,3.12c-0.02,2.243 -0.342,8.696 -0.72,10.8c-0.378,2.104 -0.959,3.286 -3.36,4.08c-2.401,0.794 -4.781,0.72 -7.92,0.72" style="fill:none;stroke:#fff;stroke-width:2px;"/><path d="M60,58.08c-5.495,-0 -6.861,0.187 -8.16,0.48c-1.299,0.293 -3.86,0.877 -3.84,3.12c0.02,2.243 0.342,8.696 0.72,10.8c0.378,2.104 0.959,3.286 3.36,4.08c2.401,0.794 4.781,0.72 7.92,0.72" style="fill:none;stroke:#fff;stroke-width:2px;"/></svg>