<?xml version="1.0" encoding="UTF-8" standalone="no"?><!DOCTYPE svg PUBLIC "-//W3C//DTD SVG 1.1//EN" "http://www.w3.org/Graphics/SVG/1.1/DTD/svg11.dtd"><svg width="100%" height="100%" viewBox="0 0 120 120" version="1.1" xmlns="http://www.w3.org/2000/svg" xmlns:xlink="http://www.w3.org/1999/xlink" xml:space="preserve" xmlns:serif="http://www.serif.com/" style="fill-rule:evenodd;clip-rule:evenodd;stroke-linecap:round;stroke-linejoin:round;stroke-miterlimit:1.5;"><path d="M59.766,96l-8.883,0c-5.069,0 -6.824,-1.283 -8.415,-3.273c-1.624,-2.029 -1.871,-5.513 -1.871,-10.285l0,-46.754c0,-4.547 0.472,-6.549 3.039,-9.117c2.568,-2.567 6.799,-2.571 16.13,-2.571c9.331,-0 -8.863,-0 0.468,-0c9.331,-0 13.562,0.004 16.13,2.571c2.567,2.568 3.039,4.57 3.039,9.117l-0,46.754c-0,4.772 -0.247,8.256 -1.871,10.285c-1.591,1.99 -3.346,3.273 -8.415,3.273l-8.883,0" style="fill:#4eb84b;stroke:#000;stroke-width:2px;"/><rect x="40.597" y="62.906" width="38.805" height="5.509" style="fill:#fff;stroke:#000;stroke-width:2px;"/><path d="M67.013,24.234c0.007,2.777 -0.07,2.788 -2.32,2.788c-2.25,-0 -4.459,0.017 -4.459,0.017l-0.468,-0c0,-0 -2.209,-0.017 -4.459,-0.017c-2.25,-0 -2.327,-0.011 -2.32,-2.788" style="fill:#fff;stroke:#000;stroke-width:2px;"/><path d="M59.766,96l-8.883,0c-5.069,0 -6.824,-1.283 -8.415,-3.273c-1.624,-2.029 -1.871,-5.513 -1.871,-10.285l0,-46.754c0,-4.547 0.472,-6.549 3.039,-9.117c2.568,-2.567 6.799,-2.571 16.13,-2.571c9.331,-0 -8.863,-0 0.468,-0c9.331,-0 13.562,0.004 16.13,2.571c2.567,2.568 3.039,4.57 3.039,9.117l-0,46.754c-0,4.772 -0.247,8.256 -1.871,10.285c-1.591,1.99 -3.346,3.273 -8.415,3.273l-8.883,0" style="fill:none;stroke:#000;stroke-width:2px;"/></svg>