<?xml version="1.0" encoding="UTF-8" standalone="no"?><!DOCTYPE svg PUBLIC "-//W3C//DTD SVG 1.1//EN" "http://www.w3.org/Graphics/SVG/1.1/DTD/svg11.dtd"><svg width="100%" height="100%" viewBox="0 0 120 120" version="1.1" xmlns="http://www.w3.org/2000/svg" xmlns:xlink="http://www.w3.org/1999/xlink" xml:space="preserve" xmlns:serif="http://www.serif.com/" style="fill-rule:evenodd;clip-rule:evenodd;stroke-linecap:round;stroke-linejoin:round;stroke-miterlimit:1.5;"><circle cx="60" cy="60" r="36" style="fill:#4eb84b;stroke:#000;stroke-width:2px;"/><path d="M33.674,43.905l3.697,1.695l-3.085,8.486l-0.772,9.514l4.372,11.571l-3.086,1.85l-4.886,-8.535l-1.285,-11.057l5.045,-13.524Z" style="fill:#fff;"/><path d="M86.326,43.905l-3.697,1.695l3.085,8.486l0.772,9.514l-4.372,11.571l3.086,1.85l4.886,-8.535l1.285,-11.057l-5.045,-13.524Z" style="fill:#fff;"/><path d="M33.674,43.905c-0,-0 1.392,0.39 2.246,0.666c0.855,0.276 2.045,0.462 0.937,2.572c-1.108,2.11 -3.277,6.565 -3.277,12.857c-0,6.292 3.022,11.908 3.534,13.114c0.523,1.232 0.667,2.341 -0.257,2.829c-0.924,0.488 -2.454,1.286 -2.454,1.286" style="fill:none;stroke:#000;stroke-width:2px;"/><path d="M60,43.286c-5.842,-0 -9.792,-0.079 -12.101,1.57c-2.308,1.648 -8.143,6.605 -8.143,15.371c0,8.765 3.174,16.199 15.147,20.915l0.919,3.287l8.356,-0l0.919,-3.287c11.973,-4.716 15.147,-12.15 15.147,-20.915c-0,-8.766 -5.835,-13.723 -8.143,-15.371c-2.309,-1.649 -6.259,-1.57 -12.101,-1.57" style="fill:#fff;stroke:#000;stroke-width:2px;"/><path d="M86.326,43.905c0,-0 -1.392,0.39 -2.246,0.666c-0.855,0.276 -2.045,0.462 -0.937,2.572c1.108,2.11 3.277,6.565 3.277,12.857c0,6.292 -3.022,11.908 -3.534,13.114c-0.523,1.232 -0.667,2.341 0.257,2.829c0.924,0.488 2.454,1.286 2.454,1.286" style="fill:none;stroke:#000;stroke-width:2px;"/><circle cx="60" cy="60" r="30.857" style="fill:none;stroke:#000;stroke-width:2px;"/></svg>