<?xml version="1.0" encoding="UTF-8" standalone="no"?><!DOCTYPE svg PUBLIC "-//W3C//DTD SVG 1.1//EN" "http://www.w3.org/Graphics/SVG/1.1/DTD/svg11.dtd"><svg width="100%" height="100%" viewBox="0 0 120 120" version="1.1" xmlns="http://www.w3.org/2000/svg" xmlns:xlink="http://www.w3.org/1999/xlink" xml:space="preserve" xmlns:serif="http://www.serif.com/" style="fill-rule:evenodd;clip-rule:evenodd;stroke-linecap:round;stroke-linejoin:round;stroke-miterlimit:1.5;"><rect x="24" y="42.668" width="71.992" height="40.372" style="fill:#4eb84b;stroke:#000;stroke-width:2px;"/><path d="M49.55,71.758l0,11.293" style="fill:none;stroke:#000;stroke-width:2px;"/><path d="M70.583,71.758l-0,11.293" style="fill:none;stroke:#000;stroke-width:2px;"/><path d="M49.55,42.679l0,11.293" style="fill:none;stroke:#000;stroke-width:2px;"/><path d="M70.583,42.679l-0,11.293" style="fill:none;stroke:#000;stroke-width:2px;"/><path d="M24,53.972l71.992,0" style="fill:none;stroke:#000;stroke-width:2px;"/><path d="M24,71.758l71.992,0" style="fill:none;stroke:#000;stroke-width:2px;"/><circle cx="40.712" cy="79.099" r="0.86" style="stroke:#000;stroke-width:2px;"/><circle cx="44.1" cy="75.993" r="0.882" style="stroke:#000;stroke-width:2px;"/><circle cx="37.324" cy="75.993" r="0.882" style="stroke:#000;stroke-width:2px;"/><rect x="24" y="42.679" width="8.249" height="11.293" style="fill:#fff;stroke:#000;stroke-width:2px;"/><path d="M24,48.326l8.249,-0" style="fill:none;stroke:#000;stroke-width:2px;"/><path d="M26.513,45.47l0.012,0" style="fill:none;stroke:#000;stroke-width:2px;"/><path d="M29.662,45.535l0.011,0" style="fill:none;stroke:#000;stroke-width:2px;"/><path d="M59.432,46.632l0.012,0" style="fill:none;stroke:#000;stroke-width:2px;"/><path d="M62.388,46.631l0.012,0" style="fill:none;stroke:#000;stroke-width:2px;"/><path d="M53.361,46.632l0.012,0" style="fill:none;stroke:#000;stroke-width:2px;"/><path d="M56.313,46.628l0.012,0" style="fill:none;stroke:#000;stroke-width:2px;"/><path d="M26.513,51.116l0.012,0.001" style="fill:none;stroke:#000;stroke-width:2px;"/><path d="M29.662,51.182l0.011,-0" style="fill:none;stroke:#000;stroke-width:2px;"/><rect x="24" y="42.657" width="8.249" height="11.293" style="fill:#fff;stroke:#000;stroke-width:2px;"/><path d="M24,48.326l8.249,-0" style="fill:none;stroke:#000;stroke-width:2px;"/><path d="M26.513,45.47l0.012,0" style="fill:none;stroke:#000;stroke-width:2px;"/><path d="M29.661,45.48l0.012,0" style="fill:none;stroke:#000;stroke-width:2px;"/><path d="M26.513,51.116l0.012,0.001" style="fill:none;stroke:#000;stroke-width:2px;"/><path d="M29.661,51.12l0.012,0" style="fill:none;stroke:#000;stroke-width:2px;"/><rect x="24" y="71.73" width="8.249" height="11.293" style="fill:#fff;stroke:#000;stroke-width:2px;"/><path d="M24,77.377l8.249,-0" style="fill:none;stroke:#000;stroke-width:2px;"/><path d="M26.513,74.521l0.012,-0" style="fill:none;stroke:#000;stroke-width:2px;"/><path d="M29.662,74.586l0.011,0" style="fill:none;stroke:#000;stroke-width:2px;"/><path d="M26.513,80.167l0.012,0" style="fill:none;stroke:#000;stroke-width:2px;"/><path d="M29.662,80.232l0.011,0.001" style="fill:none;stroke:#000;stroke-width:2px;"/><rect x="24" y="71.73" width="8.249" height="11.293" style="fill:#fff;stroke:#000;stroke-width:2px;"/><path d="M24,77.377l8.249,-0" style="fill:none;stroke:#000;stroke-width:2px;"/><path d="M26.513,74.521l0.012,-0" style="fill:none;stroke:#000;stroke-width:2px;"/><path d="M29.662,74.586l0.011,0" style="fill:none;stroke:#000;stroke-width:2px;"/><path d="M26.513,80.167l0.012,0" style="fill:none;stroke:#000;stroke-width:2px;"/><path d="M29.662,80.232l0.011,0.001" style="fill:none;stroke:#000;stroke-width:2px;"/><rect x="87.751" y="42.679" width="8.249" height="11.293" style="fill:#fff;stroke:#000;stroke-width:2px;"/><path d="M87.751,48.326l8.249,-0" style="fill:none;stroke:#000;stroke-width:2px;"/><path d="M90.264,45.47l0.012,0" style="fill:none;stroke:#000;stroke-width:2px;"/><path d="M93.412,45.535l0.012,0" style="fill:none;stroke:#000;stroke-width:2px;"/><path d="M90.264,51.116l0.012,0.001" style="fill:none;stroke:#000;stroke-width:2px;"/><path d="M93.412,51.182l0.012,-0" style="fill:none;stroke:#000;stroke-width:2px;"/><rect x="87.751" y="42.679" width="8.249" height="11.293" style="fill:#fff;stroke:#000;stroke-width:2px;"/><path d="M87.751,48.326l8.249,-0" style="fill:none;stroke:#000;stroke-width:2px;"/><path d="M90.264,45.47l0.012,0" style="fill:none;stroke:#000;stroke-width:2px;"/><path d="M93.412,45.535l0.012,0" style="fill:none;stroke:#000;stroke-width:2px;"/><path d="M90.264,51.116l0.012,0.001" style="fill:none;stroke:#000;stroke-width:2px;"/><path d="M93.412,51.182l0.012,-0" style="fill:none;stroke:#000;stroke-width:2px;"/><rect x="87.751" y="71.73" width="8.249" height="11.293" style="fill:#fff;stroke:#000;stroke-width:2px;"/><path d="M87.751,77.377l8.249,-0" style="fill:none;stroke:#000;stroke-width:2px;"/><path d="M90.264,74.521l0.012,-0" style="fill:none;stroke:#000;stroke-width:2px;"/><path d="M93.412,74.586l0.012,0" style="fill:none;stroke:#000;stroke-width:2px;"/><path d="M90.264,80.167l0.012,0" style="fill:none;stroke:#000;stroke-width:2px;"/><path d="M93.412,80.232l0.012,0.001" style="fill:none;stroke:#000;stroke-width:2px;"/><rect x="87.751" y="71.73" width="8.249" height="11.293" style="fill:#fff;stroke:#000;stroke-width:2px;"/><path d="M87.751,77.377l8.249,-0" style="fill:none;stroke:#000;stroke-width:2px;"/><path d="M90.264,74.521l0.012,-0" style="fill:none;stroke:#000;stroke-width:2px;"/><path d="M93.412,74.586l0.012,0" style="fill:none;stroke:#000;stroke-width:2px;"/><path d="M90.264,80.167l0.012,0" style="fill:none;stroke:#000;stroke-width:2px;"/><path d="M93.412,80.232l0.012,0.001" style="fill:none;stroke:#000;stroke-width:2px;"/><rect x="37.834" y="45.785" width="7.058" height="4.235" style="fill:#fff;stroke:#000;stroke-width:2px;"/><rect x="52.797" y="74.864" width="4.517" height="5.082" style="fill:#fff;stroke:#000;stroke-width:2px;"/><rect x="74.394" y="45.785" width="7.764" height="4.235" style="fill:#fff;stroke:#000;stroke-width:2px;"/><path d="M53.361,50.02l9.035,-0" style="fill:none;stroke:#000;stroke-width:2px;"/><path d="M60.951,74.836l6.439,-0" style="fill:none;stroke:#000;stroke-width:2px;"/><path d="M60.951,77.411l6.439,0" style="fill:none;stroke:#000;stroke-width:2px;"/><path d="M60.951,79.962l6.439,0" style="fill:none;stroke:#000;stroke-width:2px;"/><rect x="74.934" y="77.227" width="6.623" height="3.128" style="fill:#fff;stroke:#000;stroke-width:2px;"/></svg>