<?xml version="1.0" encoding="UTF-8" standalone="no"?><!DOCTYPE svg PUBLIC "-//W3C//DTD SVG 1.1//EN" "http://www.w3.org/Graphics/SVG/1.1/DTD/svg11.dtd"><svg width="100%" height="100%" viewBox="0 0 120 120" version="1.1" xmlns="http://www.w3.org/2000/svg" xmlns:xlink="http://www.w3.org/1999/xlink" xml:space="preserve" xmlns:serif="http://www.serif.com/" style="fill-rule:evenodd;clip-rule:evenodd;stroke-linecap:round;stroke-linejoin:round;stroke-miterlimit:1.5;"><rect x="31.222" y="24" width="57.668" height="72.002" style="fill:#4eb84b;stroke:#000;stroke-width:2px;"/><circle cx="73.786" cy="69.6" r="4.214" style="fill:#fff;stroke:#000;stroke-width:2px;"/><rect x="31.222" y="24" width="25.178" height="16.8" style="fill:#fff;stroke:#000;stroke-width:2px;"/><rect x="31.222" y="79.2" width="14.378" height="16.8" style="fill:#fff;stroke:#000;stroke-width:2px;"/><rect x="60.72" y="79.2" width="14.378" height="16.8" style="fill:#fff;stroke:#000;stroke-width:2px;"/><rect x="74.422" y="24" width="14.378" height="16.8" style="fill:#fff;stroke:#000;stroke-width:2px;"/><path d="M78.022,28.2l0.009,-0" style="fill:none;stroke:#000;stroke-width:2px;"/><path d="M81.622,28.2l0.009,-0" style="fill:none;stroke:#000;stroke-width:2px;"/><path d="M85.222,28.2l0.009,-0" style="fill:none;stroke:#000;stroke-width:2px;"/><path d="M78.022,36.6l0.009,-0" style="fill:none;stroke:#000;stroke-width:2px;"/><path d="M81.622,36.6l0.009,-0" style="fill:none;stroke:#000;stroke-width:2px;"/><path d="M85.222,36.6l0.009,-0" style="fill:none;stroke:#000;stroke-width:2px;"/><path d="M34.822,28.2l0.009,-0" style="fill:none;stroke:#000;stroke-width:2px;"/><path d="M38.422,28.2l0.009,-0" style="fill:none;stroke:#000;stroke-width:2px;"/><path d="M42.022,28.2l0.009,-0" style="fill:none;stroke:#000;stroke-width:2px;"/><path d="M34.822,36.6l0.009,-0" style="fill:none;stroke:#000;stroke-width:2px;"/><path d="M38.422,36.6l0.009,-0" style="fill:none;stroke:#000;stroke-width:2px;"/><path d="M42.022,36.6l0.009,-0" style="fill:none;stroke:#000;stroke-width:2px;"/><path d="M45.622,28.2l0.009,-0" style="fill:none;stroke:#000;stroke-width:2px;"/><path d="M49.222,28.2l0.009,-0" style="fill:none;stroke:#000;stroke-width:2px;"/><path d="M52.822,28.2l0.009,-0" style="fill:none;stroke:#000;stroke-width:2px;"/><path d="M45.622,36.6l0.009,-0" style="fill:none;stroke:#000;stroke-width:2px;"/><path d="M49.222,36.6l0.009,-0" style="fill:none;stroke:#000;stroke-width:2px;"/><path d="M52.822,36.6l0.009,-0" style="fill:none;stroke:#000;stroke-width:2px;"/><rect x="55.68" y="40.8" width="19.2" height="0" style="fill:none;stroke:#000;stroke-width:2px;"/><rect x="31.222" y="79.2" width="57.668" height="0" style="fill:none;stroke:#000;stroke-width:2px;"/><rect x="31.2" y="87.6" width="57.69" height="0" style="fill:none;stroke:#000;stroke-width:2px;"/><rect x="31.2" y="32.4" width="57.6" height="0" style="fill:none;stroke:#000;stroke-width:2px;"/><rect x="62.64" y="54" width="21.6" height="4.8" style="fill:#fff;stroke:#000;stroke-width:2px;"/><path d="M34.8,83.4l0.009,-0" style="fill:none;stroke:#000;stroke-width:2px;"/><path d="M38.4,83.4l0.009,-0" style="fill:none;stroke:#000;stroke-width:2px;"/><path d="M42,83.4l0.009,-0" style="fill:none;stroke:#000;stroke-width:2px;"/><path d="M34.8,91.8l0.009,-0" style="fill:none;stroke:#000;stroke-width:2px;"/><path d="M38.4,91.8l0.009,-0" style="fill:none;stroke:#000;stroke-width:2px;"/><path d="M42,91.8l0.009,-0" style="fill:none;stroke:#000;stroke-width:2px;"/><path d="M64.32,83.4l0.009,-0" style="fill:none;stroke:#000;stroke-width:2px;"/><path d="M67.92,83.4l0.009,-0" style="fill:none;stroke:#000;stroke-width:2px;"/><path d="M71.52,83.4l0.009,-0" style="fill:none;stroke:#000;stroke-width:2px;"/><path d="M64.32,91.8l0.009,-0" style="fill:none;stroke:#000;stroke-width:2px;"/><path d="M67.92,91.8l0.009,-0" style="fill:none;stroke:#000;stroke-width:2px;"/><path d="M71.52,91.8l0.009,-0" style="fill:none;stroke:#000;stroke-width:2px;"/></svg>