<?xml version="1.0" encoding="UTF-8" standalone="no"?><!DOCTYPE svg PUBLIC "-//W3C//DTD SVG 1.1//EN" "http://www.w3.org/Graphics/SVG/1.1/DTD/svg11.dtd"><svg width="100%" height="100%" viewBox="0 0 120 120" version="1.1" xmlns="http://www.w3.org/2000/svg" xmlns:xlink="http://www.w3.org/1999/xlink" xml:space="preserve" xmlns:serif="http://www.serif.com/" style="fill-rule:evenodd;clip-rule:evenodd;stroke-linecap:round;stroke-linejoin:round;stroke-miterlimit:1.5;"><rect x="24" y="24" width="72" height="72" style="fill:#4eb84b;stroke:#000;stroke-width:2px;"/><path d="M24,37.091l72,-0" style="fill:none;stroke:#000;stroke-width:2px;"/><rect x="28.8" y="24" width="62.4" height="6.545" style="fill:#fff;stroke:#000;stroke-width:2px;"/><rect x="28.8" y="89.455" width="62.4" height="6.545" style="fill:#fff;stroke:#000;stroke-width:2px;"/><rect x="91.2" y="43.2" width="4.8" height="33.6" style="fill:#fff;stroke:#000;stroke-width:2px;"/><rect x="24" y="43.2" width="4.8" height="33.6" style="fill:#fff;stroke:#000;stroke-width:2px;"/><path d="M24,82.909l72,0" style="fill:none;stroke:#000;stroke-width:2px;"/><rect x="30.545" y="82.909" width="8.182" height="6.545" style="fill:#fff;stroke:#000;stroke-width:2px;"/><rect x="33.818" y="30.545" width="8.182" height="6.545" style="fill:#fff;stroke:#000;stroke-width:2px;"/><rect x="50.182" y="30.545" width="38.858" height="6.545" style="fill:#fff;stroke:#000;stroke-width:2px;"/><rect x="49.527" y="82.909" width="10.953" height="6.545" style="fill:#fff;stroke:#000;stroke-width:2px;"/><rect x="70.473" y="82.909" width="18.982" height="6.545" style="fill:#fff;stroke:#000;stroke-width:2px;"/><path d="M36.524,33.818l0.063,0" style="fill:none;stroke:#000;stroke-width:2px;"/><path d="M39.231,33.818l0.064,0" style="fill:none;stroke:#000;stroke-width:2px;"/><path d="M33.24,86.4l0.064,-0" style="fill:none;stroke:#000;stroke-width:2px;"/><path d="M36,86.4l0.064,-0" style="fill:none;stroke:#000;stroke-width:2px;"/><path d="M52.2,86.4l0.064,-0" style="fill:none;stroke:#000;stroke-width:2px;"/><path d="M54.96,86.4l0.064,-0" style="fill:none;stroke:#000;stroke-width:2px;"/><path d="M57.72,86.4l0.064,-0" style="fill:none;stroke:#000;stroke-width:2px;"/><path d="M73.08,86.4l0.064,-0" style="fill:none;stroke:#000;stroke-width:2px;"/><path d="M75.84,86.4l0.064,-0" style="fill:none;stroke:#000;stroke-width:2px;"/><path d="M78.536,86.4l0.064,-0" style="fill:none;stroke:#000;stroke-width:2px;"/><path d="M81.24,86.4l0.064,-0" style="fill:none;stroke:#000;stroke-width:2px;"/><path d="M84,86.4l0.064,-0" style="fill:none;stroke:#000;stroke-width:2px;"/><path d="M86.76,86.4l0.064,-0" style="fill:none;stroke:#000;stroke-width:2px;"/><path d="M52.844,33.818l0.063,0" style="fill:none;stroke:#000;stroke-width:2px;"/><path d="M55.551,33.818l0.064,0" style="fill:none;stroke:#000;stroke-width:2px;"/><path d="M58.364,33.818l0.063,0" style="fill:none;stroke:#000;stroke-width:2px;"/><path d="M61.071,33.818l0.064,0" style="fill:none;stroke:#000;stroke-width:2px;"/><path d="M63.884,33.818l0.063,0" style="fill:none;stroke:#000;stroke-width:2px;"/><path d="M66.591,33.818l0.064,0" style="fill:none;stroke:#000;stroke-width:2px;"/><path d="M69.404,33.818l0.063,0" style="fill:none;stroke:#000;stroke-width:2px;"/><path d="M72.111,33.818l0.064,0" style="fill:none;stroke:#000;stroke-width:2px;"/><path d="M74.924,33.818l0.063,0" style="fill:none;stroke:#000;stroke-width:2px;"/><path d="M77.631,33.818l0.064,0" style="fill:none;stroke:#000;stroke-width:2px;"/><path d="M80.444,33.818l0.063,0" style="fill:none;stroke:#000;stroke-width:2px;"/><path d="M83.151,33.818l0.064,0" style="fill:none;stroke:#000;stroke-width:2px;"/><path d="M86.031,33.818l0.064,0" style="fill:none;stroke:#000;stroke-width:2px;"/></svg>