<?xml version="1.0" encoding="UTF-8" standalone="no"?><!DOCTYPE svg PUBLIC "-//W3C//DTD SVG 1.1//EN" "http://www.w3.org/Graphics/SVG/1.1/DTD/svg11.dtd"><svg width="100%" height="100%" viewBox="0 0 120 120" version="1.1" xmlns="http://www.w3.org/2000/svg" xmlns:xlink="http://www.w3.org/1999/xlink" xml:space="preserve" xmlns:serif="http://www.serif.com/" style="fill-rule:evenodd;clip-rule:evenodd;stroke-linecap:round;stroke-linejoin:round;stroke-miterlimit:1.5;"><path d="M75.597,37.197l0,45.606c0,7.284 -5.913,13.197 -13.197,13.197c-7.284,0 -13.197,-5.913 -13.197,-13.197l-0,-45.606c-0,-7.284 5.913,-13.197 13.197,-13.197c7.284,0 13.197,5.913 13.197,13.197Z" style="fill:#fff;stroke:#000;stroke-width:2px;"/><path d="M72,37.2l0,45.6c0,5.298 -4.302,9.6 -9.6,9.6c-5.298,0 -9.6,-4.302 -9.6,-9.6l0,-45.6c0,-5.298 4.302,-9.6 9.6,-9.6c5.298,-0 9.6,4.302 9.6,9.6Z" style="fill:#4eb84b;stroke:#000;stroke-width:2px;"/><rect x="56.242" y="50.4" width="12.317" height="19.2" style="fill:#fff;stroke:#000;stroke-width:2px;"/><path d="M56.04,37.32c0,-3.51 2.85,-6.36 6.36,-6.36c3.51,0 6.36,2.85 6.36,6.36" style="fill:none;stroke:#fff;stroke-width:2px;"/><path d="M56.04,82.68c0,3.51 2.85,6.36 6.36,6.36c3.51,-0 6.36,-2.85 6.36,-6.36" style="fill:none;stroke:#fff;stroke-width:2px;"/></svg>