<?xml version="1.0" encoding="UTF-8" standalone="no"?><!DOCTYPE svg PUBLIC "-//W3C//DTD SVG 1.1//EN" "http://www.w3.org/Graphics/SVG/1.1/DTD/svg11.dtd"><svg width="100%" height="100%" viewBox="0 0 120 120" version="1.1" xmlns="http://www.w3.org/2000/svg" xmlns:xlink="http://www.w3.org/1999/xlink" xml:space="preserve" xmlns:serif="http://www.serif.com/" style="fill-rule:evenodd;clip-rule:evenodd;stroke-linecap:round;stroke-linejoin:round;stroke-miterlimit:1.5;"><path d="M60,95.971c-8.41,-0 -16.052,0.548 -19.27,-3.117c-3.217,-3.666 -2.786,-5.844 -2.786,-32.723c0,-26.88 0,26.749 0,-0.131c0,-26.879 -0.431,-29.188 2.786,-32.853c3.218,-3.665 10.86,-3.117 19.27,-3.117c8.41,-0 -8.178,-0.001 0.232,-0.001c8.41,-0 15.82,-0.547 19.038,3.118c3.217,3.665 2.786,5.974 2.786,32.853c-0,26.88 -0,-26.633 -0,0.247c-0,26.879 0.431,28.941 -2.786,32.607c-3.218,3.665 -10.86,3.117 -19.27,3.117" style="fill:#4eb84b;stroke:#000;stroke-width:2px;"/><path d="M60,84.392c-8.584,-0 -14.001,0.259 -15.671,-1.277c-1.549,-1.425 -1.509,-9.007 -1.509,-22.984c-0,-25.502 -0,25.385 -0,-0.117c-0,-13.977 -0.04,-21.675 1.509,-23.1c1.67,-1.536 6.855,-1.277 15.439,-1.277c7.267,0 -6.803,0 0.464,0c8.584,0 13.769,-0.259 15.439,1.277c1.549,1.425 1.509,9.123 1.509,23.1c0,25.502 0,-25.269 0,0.233c0,13.977 0.04,21.443 -1.509,22.868c-1.67,1.536 -7.087,1.277 -15.671,1.277" style="fill:#fff;stroke:#000;stroke-width:2px;"/></svg>