<?xml version="1.0" encoding="UTF-8" standalone="no"?><!DOCTYPE svg PUBLIC "-//W3C//DTD SVG 1.1//EN" "http://www.w3.org/Graphics/SVG/1.1/DTD/svg11.dtd"><svg width="100%" height="100%" viewBox="0 0 120 120" version="1.1" xmlns="http://www.w3.org/2000/svg" xmlns:xlink="http://www.w3.org/1999/xlink" xml:space="preserve" xmlns:serif="http://www.serif.com/" style="fill-rule:evenodd;clip-rule:evenodd;stroke-linecap:round;stroke-linejoin:round;stroke-miterlimit:1.5;"><path d="M60,24c7.911,0 18.696,0.66 21.703,5.866c3.006,5.205 4.136,19.069 3.812,29.034c-0.323,9.965 -3.268,20.727 -5.572,26.395c-2.304,5.669 -2.506,6.412 -4.986,7.919c-2.48,1.507 -4.665,2.786 -9.091,2.786l-11.732,0c-4.426,0 -6.611,-1.279 -9.091,-2.786c-2.48,-1.507 -2.682,-2.25 -4.986,-7.919c-2.304,-5.668 -5.249,-16.43 -5.572,-26.395c-0.324,-9.965 0.806,-23.829 3.812,-29.034c3.007,-5.206 13.792,-5.866 21.703,-5.866" style="fill:#4eb84b;stroke:#000;stroke-width:2px;"/><circle cx="48.349" cy="60.367" r="2.933" style="fill:#fff;stroke:#000;stroke-width:2px;"/><circle cx="60.026" cy="73.857" r="8.212" style="fill:#fff;stroke:#000;stroke-width:2px;"/></svg>