<?xml version="1.0" encoding="UTF-8" standalone="no"?><!DOCTYPE svg PUBLIC "-//W3C//DTD SVG 1.1//EN" "http://www.w3.org/Graphics/SVG/1.1/DTD/svg11.dtd"><svg width="100%" height="100%" viewBox="0 0 120 120" version="1.1" xmlns="http://www.w3.org/2000/svg" xmlns:xlink="http://www.w3.org/1999/xlink" xml:space="preserve" xmlns:serif="http://www.serif.com/" style="fill-rule:evenodd;clip-rule:evenodd;stroke-linecap:round;stroke-linejoin:round;stroke-miterlimit:1.5;"><path d="M96,27.119l0,65.762c0,1.721 -1.398,3.119 -3.119,3.119l-65.762,0c-1.721,0 -3.119,-1.398 -3.119,-3.119l0,-65.762c0,-1.721 1.398,-3.119 3.119,-3.119l65.762,-0c1.721,-0 3.119,1.398 3.119,3.119Z" style="fill:#4eb84b;stroke:#000;stroke-width:2px;"/><circle cx="60" cy="46.667" r="4" style="fill:#fff;stroke:#000;stroke-width:2px;"/><path d="M24,69.333l72,0" style="fill:none;stroke:#000;stroke-width:2px;"/><path d="M24,81.333l72,0" style="fill:none;stroke:#000;stroke-width:2px;"/><path d="M24,90.133l72,0" style="fill:none;stroke:#000;stroke-width:2px;"/><path d="M26.933,90.133c1.619,0 2.934,1.315 2.934,2.934l-0,2.933" style="fill:none;stroke:#000;stroke-width:2px;"/><path d="M93.067,90.133c-1.619,0 -2.934,1.315 -2.934,2.934l0,2.933" style="fill:none;stroke:#000;stroke-width:2px;"/><path d="M26.933,90.133l-2.933,0" style="fill:none;stroke:#000;stroke-width:2px;"/><path d="M26.933,29.867c1.619,-0 2.934,-1.315 2.934,-2.934l-0,-2.933" style="fill:none;stroke:#000;stroke-width:2px;"/><path d="M26.933,29.867l-2.933,-0" style="fill:none;stroke:#000;stroke-width:2px;"/><path d="M93.067,29.867c-1.619,-0 -2.934,-1.315 -2.934,-2.934l0,-2.933" style="fill:none;stroke:#000;stroke-width:2px;"/><path d="M93.067,29.867l2.933,-0" style="fill:none;stroke:#000;stroke-width:2px;"/></svg>