<?xml version="1.0" encoding="UTF-8" standalone="no"?><!DOCTYPE svg PUBLIC "-//W3C//DTD SVG 1.1//EN" "http://www.w3.org/Graphics/SVG/1.1/DTD/svg11.dtd"><svg width="100%" height="100%" viewBox="0 0 120 120" version="1.1" xmlns="http://www.w3.org/2000/svg" xmlns:xlink="http://www.w3.org/1999/xlink" xml:space="preserve" xmlns:serif="http://www.serif.com/" style="fill-rule:evenodd;clip-rule:evenodd;stroke-linecap:round;stroke-linejoin:round;stroke-miterlimit:1.5;"><path d="M83.262,28.478l-0,63.044c-0,2.471 -2.007,4.478 -4.479,4.478l-37.566,0c-2.472,0 -4.479,-2.007 -4.479,-4.478l0,-63.044c0,-2.471 2.007,-4.478 4.479,-4.478l37.566,0c2.472,0 4.479,2.007 4.479,4.478Z" style="fill:#4eb84b;stroke:#000;stroke-width:2px;"/><path d="M54.44,33.671c1.602,-1.038 3.511,-1.64 5.56,-1.64c2.192,-0 4.224,0.689 5.89,1.863" style="fill:none;stroke:#fff;stroke-width:2px;"/><path d="M68.606,36.717c1.038,1.602 1.64,3.511 1.64,5.56c0,2.049 -0.602,3.958 -1.64,5.56" style="fill:none;stroke:#fff;stroke-width:2px;"/><path d="M65.89,50.66c-1.666,1.173 -3.698,1.863 -5.89,1.863c-2.049,0 -3.958,-0.603 -5.56,-1.64" style="fill:none;stroke:#fff;stroke-width:2px;"/><path d="M51.617,48.167c-1.174,-1.667 -1.863,-3.698 -1.863,-5.89c-0,-2.192 0.689,-4.224 1.863,-5.89" style="fill:none;stroke:#fff;stroke-width:2px;"/><circle cx="60" cy="77.871" r="1.809" style="fill:#fff;stroke:#000;stroke-width:2px;"/><circle cx="67.477" cy="77.871" r="1.809" style="fill:#fff;stroke:#000;stroke-width:2px;"/><circle cx="52.523" cy="77.871" r="1.809" style="fill:#fff;stroke:#000;stroke-width:2px;"/></svg>