<?xml version="1.0" encoding="UTF-8" standalone="no"?><!DOCTYPE svg PUBLIC "-//W3C//DTD SVG 1.1//EN" "http://www.w3.org/Graphics/SVG/1.1/DTD/svg11.dtd"><svg width="100%" height="100%" viewBox="0 0 120 120" version="1.1" xmlns="http://www.w3.org/2000/svg" xmlns:xlink="http://www.w3.org/1999/xlink" xml:space="preserve" xmlns:serif="http://www.serif.com/" style="fill-rule:evenodd;clip-rule:evenodd;stroke-linecap:round;stroke-linejoin:round;stroke-miterlimit:1.5;"><path d="M81.736,60.564l-0,31.476c-0,2.186 -1.775,3.96 -3.96,3.96l-35.552,0c-2.185,0 -3.96,-1.774 -3.96,-3.96l0,-31.476" style="fill:#4eb84b;stroke:#000;stroke-width:2px;"/><path d="M38.264,70.304l0,-24.568c0,-11.996 9.74,-21.736 21.736,-21.736c11.996,-0 21.736,9.74 21.736,21.736l-0,24.568" style="fill:#4eb84b;stroke:#000;stroke-width:2px;"/><path d="M40.2,46.92c-0,-2.352 0.248,-4.562 0.84,-6.6c2.558,-8.803 10.253,-14.4 18.96,-14.4c10.947,-0 19.821,8.032 19.821,20.88" style="fill:#4eb84b;stroke:#fff;stroke-width:2px;"/><circle cx="60" cy="78.34" r="10.868" style="fill:#fff;stroke:#000;stroke-width:2px;"/><circle cx="60" cy="47.366" r="5.977" style="fill:#fff;stroke:#000;stroke-width:2px;"/><path d="M38.264,70.304l0,-24.568c0,-11.996 9.74,-21.736 21.736,-21.736c11.996,-0 21.736,9.74 21.736,21.736l-0,24.568" style="fill:none;stroke:#000;stroke-width:2px;"/></svg>