<?xml version="1.0" encoding="UTF-8" standalone="no"?><!DOCTYPE svg PUBLIC "-//W3C//DTD SVG 1.1//EN" "http://www.w3.org/Graphics/SVG/1.1/DTD/svg11.dtd"><svg width="100%" height="100%" viewBox="0 0 120 120" version="1.1" xmlns="http://www.w3.org/2000/svg" xmlns:xlink="http://www.w3.org/1999/xlink" xml:space="preserve" xmlns:serif="http://www.serif.com/" style="fill-rule:evenodd;clip-rule:evenodd;stroke-linecap:round;stroke-linejoin:round;stroke-miterlimit:1.5;"><path d="M60,24c-8.424,0 -12.443,1.929 -13.92,8.16c-1.477,6.231 -2.015,10.677 -2.88,17.76c-0.865,7.083 -1.17,10.473 -1.44,13.92c-0.27,3.447 -1.271,5.76 -1.273,7.92c-0.002,2.16 2.003,7.879 3.913,12.96c1.91,5.081 2.712,7.723 5.04,9.36c2.328,1.637 4.914,1.92 10.32,1.92c5.406,0 -4.926,0 0.48,0c5.406,0 7.992,-0.283 10.32,-1.92c2.328,-1.637 3.13,-4.279 5.04,-9.36c1.91,-5.081 3.915,-10.8 3.913,-12.96c-0.002,-2.16 -1.003,-4.473 -1.273,-7.92c-0.27,-3.447 -0.575,-6.837 -1.44,-13.92c-0.865,-7.083 -1.403,-11.529 -2.88,-17.76c-1.477,-6.231 -5.496,-8.16 -13.92,-8.16" style="fill:#4eb84b;stroke:#000;stroke-width:2px;"/><path d="M60,27.84c6.405,0 7.729,0.709 8.64,4.32c0.911,3.611 1.537,7.77 2.88,16.08c1.343,8.31 1.522,16.511 1.44,21.36c-0.082,4.849 -0.331,6.24 -12.72,6.24c-12.389,0 11.909,0 -0.48,0c-12.389,0 -12.638,-1.391 -12.72,-6.24c-0.082,-4.849 0.097,-13.05 1.44,-21.36c1.343,-8.31 1.969,-12.469 2.88,-16.08c0.911,-3.611 2.235,-4.32 8.64,-4.32" style="fill:#fff;stroke:#000;stroke-width:2px;"/><path d="M66,82.626l-0,7.548c-0,1.229 -0.997,2.226 -2.226,2.226l-7.548,-0c-1.229,-0 -2.226,-0.997 -2.226,-2.226l0,-7.548c0,-1.229 0.997,-2.226 2.226,-2.226l7.548,-0c1.229,-0 2.226,0.997 2.226,2.226Z" style="fill:#fff;stroke:#000;stroke-width:2px;"/><path d="M55.2,56.88l0.009,-0" style="fill:none;stroke:#000;stroke-width:2px;"/><path d="M57.6,56.88l0.009,-0" style="fill:none;stroke:#000;stroke-width:2px;"/><path d="M60,56.88l0.009,-0" style="fill:none;stroke:#000;stroke-width:2px;"/><path d="M62.4,56.88l0.009,-0" style="fill:none;stroke:#000;stroke-width:2px;"/><path d="M64.8,56.88l0.009,-0" style="fill:none;stroke:#000;stroke-width:2px;"/></svg>