<?xml version="1.0" encoding="UTF-8" standalone="no"?><!DOCTYPE svg PUBLIC "-//W3C//DTD SVG 1.1//EN" "http://www.w3.org/Graphics/SVG/1.1/DTD/svg11.dtd"><svg width="100%" height="100%" viewBox="0 0 120 120" version="1.1" xmlns="http://www.w3.org/2000/svg" xmlns:xlink="http://www.w3.org/1999/xlink" xml:space="preserve" xmlns:serif="http://www.serif.com/" style="fill-rule:evenodd;clip-rule:evenodd;stroke-linecap:round;stroke-linejoin:round;stroke-miterlimit:1.5;"><g><path d="M61.093,24.005l-34.839,-0l0,0.881l-3.323,0l-2.76,2.76l-0,47.935l20.356,20.355l20.741,0" style="fill:#4eb84b;stroke:#000;stroke-width:2px;"/><path d="M26.254,24.886l0,10.882l33.799,-0" style="fill:#4eb84b;stroke:#000;stroke-width:2px;"/><path d="M60.182,24.005l33.628,-0l0,0.881l3.324,0l2.759,2.76l0,47.935l-20.355,20.355l-19.377,0" style="fill:#4eb84b;stroke:#000;stroke-width:2px;"/><path d="M93.81,24.886l0,10.882l-33.799,-0" style="fill:#4eb84b;stroke:#000;stroke-width:2px;"/><rect x="26.254" y="24.005" width="67.556" height="11.763" style="fill:#fff;stroke:#000;stroke-width:2px;"/><g><circle cx="32.491" cy="30.092" r="2.269" style="fill:#4eb84b;stroke:#000;stroke-width:2px;"/><circle cx="41.769" cy="30.092" r="2.269" style="fill:#4eb84b;stroke:#000;stroke-width:2px;"/><circle cx="51.205" cy="30.092" r="2.269" style="fill:#4eb84b;stroke:#000;stroke-width:2px;"/><circle cx="60.483" cy="30.092" r="2.269" style="fill:#4eb84b;stroke:#000;stroke-width:2px;"/><circle cx="69.799" cy="30.092" r="2.269" style="fill:#4eb84b;stroke:#000;stroke-width:2px;"/><circle cx="79.076" cy="30.092" r="2.269" style="fill:#4eb84b;stroke:#000;stroke-width:2px;"/><circle cx="88.135" cy="30.092" r="2.269" style="fill:#4eb84b;stroke:#000;stroke-width:2px;"/></g></g></svg>