<?xml version="1.0" encoding="UTF-8" standalone="no"?><!DOCTYPE svg PUBLIC "-//W3C//DTD SVG 1.1//EN" "http://www.w3.org/Graphics/SVG/1.1/DTD/svg11.dtd"><svg width="100%" height="100%" viewBox="0 0 120 120" version="1.1" xmlns="http://www.w3.org/2000/svg" xmlns:xlink="http://www.w3.org/1999/xlink" xml:space="preserve" xmlns:serif="http://www.serif.com/" style="fill-rule:evenodd;clip-rule:evenodd;stroke-linecap:round;stroke-linejoin:round;stroke-miterlimit:1.5;"><path d="M96,41.231l-0,37.538c-0,4.874 -3.957,8.831 -8.831,8.831l-54.338,-0c-4.874,-0 -8.831,-3.957 -8.831,-8.831l-0,-37.538c-0,-4.874 3.957,-8.831 8.831,-8.831l54.338,0c4.874,0 8.831,3.957 8.831,8.831Z" style="fill:#4eb84b;stroke:#000;stroke-width:2px;"/><path d="M88.8,42.141l0,35.718c0,1.402 -1.139,2.541 -2.541,2.541l-52.518,-0c-1.402,-0 -2.541,-1.139 -2.541,-2.541l-0,-35.718c-0,-1.402 1.139,-2.541 2.541,-2.541l52.518,-0c1.402,-0 2.541,1.139 2.541,2.541Z" style="fill:none;stroke:#000;stroke-width:2px;"/><path d="M64.08,87.6l-30.96,-0l1.44,-3.84l51.12,-0l1.44,3.84l-30.96,-0" style="fill:#fff;stroke:#000;stroke-width:2px;"/></svg>