<?xml version="1.0" encoding="UTF-8" standalone="no"?><!DOCTYPE svg PUBLIC "-//W3C//DTD SVG 1.1//EN" "http://www.w3.org/Graphics/SVG/1.1/DTD/svg11.dtd"><svg width="100%" height="100%" viewBox="0 0 120 120" version="1.1" xmlns="http://www.w3.org/2000/svg" xmlns:xlink="http://www.w3.org/1999/xlink" xml:space="preserve" xmlns:serif="http://www.serif.com/" style="fill-rule:evenodd;clip-rule:evenodd;stroke-linecap:round;stroke-linejoin:round;stroke-miterlimit:1.5;"><path d="M79.2,31.958l0,56.084c0,4.392 -3.566,7.958 -7.958,7.958l-22.484,0c-4.392,0 -7.958,-3.566 -7.958,-7.958l-0,-56.084c-0,-4.392 3.566,-7.958 7.958,-7.958l22.484,0c4.392,0 7.958,3.566 7.958,7.958Z" style="fill:#4eb84b;stroke:#000;stroke-width:2px;"/><path d="M59.64,45.36l0.84,0" style="fill:none;stroke:#fff;stroke-width:2px;"/><path d="M54.963,42.903l0.594,0.594" style="fill:none;stroke:#fff;stroke-width:2px;"/><path d="M64.563,43.497l0.594,-0.594" style="fill:none;stroke:#fff;stroke-width:2px;"/><path d="M69.6,57.6c-0,1.325 -1.075,2.4 -2.4,2.4l-14.4,0c-1.325,0 -2.4,-1.075 -2.4,-2.4c-0,-1.325 1.075,-2.4 2.4,-2.4l14.4,-0c1.325,-0 2.4,1.075 2.4,2.4Z" style="fill:#fff;stroke:#000;stroke-width:2px;"/><ellipse cx="60" cy="80.16" rx="10.32" ry="9.36" style="fill:#fff;stroke:#000;stroke-width:2px;"/><path d="M48.141,74.061c0.83,-1.498 1.958,-2.821 3.305,-3.895" style="fill:#fff;stroke:#fff;stroke-width:2px;"/><path d="M68.554,70.166c1.347,1.074 2.475,2.397 3.305,3.895" style="fill:none;stroke:#fff;stroke-width:2px;"/><ellipse cx="60" cy="39.773" rx="9.052" ry="8.52" style="fill:none;stroke:#000;stroke-width:2px;"/></svg>