<?xml version="1.0" encoding="UTF-8" standalone="no"?><!DOCTYPE svg PUBLIC "-//W3C//DTD SVG 1.1//EN" "http://www.w3.org/Graphics/SVG/1.1/DTD/svg11.dtd"><svg width="100%" height="100%" viewBox="0 0 120 120" version="1.1" xmlns="http://www.w3.org/2000/svg" xmlns:xlink="http://www.w3.org/1999/xlink" xml:space="preserve" xmlns:serif="http://www.serif.com/" style="fill-rule:evenodd;clip-rule:evenodd;stroke-linecap:round;stroke-linejoin:round;stroke-miterlimit:1.5;"><path d="M82.8,26.593l0,66.814c0,1.431 -1.162,2.593 -2.593,2.593l-40.414,-0c-1.431,-0 -2.593,-1.162 -2.593,-2.593l0,-66.814c0,-1.431 1.162,-2.593 2.593,-2.593l40.414,-0c1.431,-0 2.593,1.162 2.593,2.593Z" style="fill:#4eb84b;stroke:#000;stroke-width:2px;"/><path d="M60,41.88l0,0.028" style="fill:none;stroke:#000;stroke-width:2px;"/><rect x="45.016" y="33.6" width="8.264" height="8.202" style="fill:#fff;stroke:#000;stroke-width:2px;"/><path d="M37.2,30.24l0.48,-5.28l8.16,-0.48l36,0.24l0.72,5.04l-45.36,0.48Z" style="fill:#fff;"/><path d="M37.2,30l45.6,0" style="fill:none;stroke:#000;stroke-width:2px;"/><path d="M37.44,90.24l45.6,-0.72l-0.72,6.24l-43.2,0.72l-2.16,-3.36l0.48,-2.88Z" style="fill:#fff;"/><path d="M37.2,90l45.6,0" style="fill:none;stroke:#000;stroke-width:2px;"/><path d="M82.8,26.593l0,66.814c0,1.431 -1.162,2.593 -2.593,2.593l-40.414,-0c-1.431,-0 -2.593,-1.162 -2.593,-2.593l0,-66.814c0,-1.431 1.162,-2.593 2.593,-2.593l40.414,-0c1.431,-0 2.593,1.162 2.593,2.593Z" style="fill:none;stroke:#000;stroke-width:2px;"/></svg>