<?xml version="1.0" encoding="UTF-8" standalone="no"?><!DOCTYPE svg PUBLIC "-//W3C//DTD SVG 1.1//EN" "http://www.w3.org/Graphics/SVG/1.1/DTD/svg11.dtd"><svg width="100%" height="100%" viewBox="0 0 120 120" version="1.1" xmlns="http://www.w3.org/2000/svg" xmlns:xlink="http://www.w3.org/1999/xlink" xml:space="preserve" xmlns:serif="http://www.serif.com/" style="fill-rule:evenodd;clip-rule:evenodd;stroke-linecap:round;stroke-linejoin:round;stroke-miterlimit:1.5;"><path d="M60,58.8l0,-34.8l12.48,5.04l5.28,5.04l3.6,17.76l-5.76,37.92l-2.88,3.36l-12.72,3.36l0,-26.88" style="fill:#4eb84b;stroke:#000;stroke-width:2px;"/><path d="M60,45.36l15.84,8.4l5.52,-1.92l-5.52,1.92l-3.36,-24.72l3.36,24.72c0,0 -0.454,11.52 -1.2,18.96c-0.746,7.44 -1.92,20.4 -1.92,20.4" style="fill:none;stroke:#000;stroke-width:2px;"/><path d="M60,58.8l0,-34.8l-12.48,5.04l-5.28,5.04l-3.6,17.76l5.76,37.92l2.88,3.36l12.72,3.36l0,-26.88" style="fill:#4eb84b;stroke:#000;stroke-width:2px;"/><rect x="51.6" y="59.52" width="16.8" height="10.08" style="fill:#fff;stroke:#000;stroke-width:2px;"/><path d="M60,45.36l-15.84,8.4l-5.52,-1.92l5.52,1.92l3.36,-24.72l-3.36,24.72c0,0 0.454,11.52 1.2,18.96c0.746,7.44 1.92,20.4 1.92,20.4" style="fill:none;stroke:#000;stroke-width:2px;"/><path d="M60,40.08l-0,-8.88" style="fill:none;stroke:#fff;stroke-width:2px;"/></svg>