<?xml version="1.0" encoding="UTF-8" standalone="no"?><!DOCTYPE svg PUBLIC "-//W3C//DTD SVG 1.1//EN" "http://www.w3.org/Graphics/SVG/1.1/DTD/svg11.dtd"><svg width="100%" height="100%" viewBox="0 0 120 120" version="1.1" xmlns="http://www.w3.org/2000/svg" xmlns:xlink="http://www.w3.org/1999/xlink" xml:space="preserve" xmlns:serif="http://www.serif.com/" style="fill-rule:evenodd;clip-rule:evenodd;stroke-linecap:round;stroke-linejoin:round;stroke-miterlimit:1.5;"><path d="M60.104,96c-14.532,-0 -18.077,-2.744 -20.16,-8.4c-2.083,-5.656 -1.463,-27.036 -1.44,-37.2c0.023,-10.164 0.387,-18.154 2.951,-21.6c2.564,-3.446 7.224,-4.8 18.305,-4.8c11.081,0 -10.601,0 0.48,0c11.081,0 15.845,1.354 18.409,4.8c2.564,3.446 2.928,11.436 2.951,21.6c0.023,10.164 0.643,31.544 -1.44,37.2c-2.083,5.656 -5.628,8.4 -20.16,8.4" style="fill:#4eb84b;stroke:#000;stroke-width:2px;"/><path d="M60,33.6c4.769,-0 8.64,3.871 8.64,8.64c0,4.769 -3.871,8.64 -8.64,8.64c-4.769,0 -8.64,-3.871 -8.64,-8.64c-0,-4.769 3.871,-8.64 8.64,-8.64Zm0,5.04c-1.987,-0 -3.6,1.613 -3.6,3.6c-0,1.987 1.613,3.6 3.6,3.6c1.987,-0 3.6,-1.613 3.6,-3.6c0,-1.987 -1.613,-3.6 -3.6,-3.6Z" style="fill:#fff;stroke:#000;stroke-width:2px;"/></svg>