<?xml version="1.0" encoding="UTF-8" standalone="no"?><!DOCTYPE svg PUBLIC "-//W3C//DTD SVG 1.1//EN" "http://www.w3.org/Graphics/SVG/1.1/DTD/svg11.dtd"><svg width="100%" height="100%" viewBox="0 0 120 120" version="1.1" xmlns="http://www.w3.org/2000/svg" xmlns:xlink="http://www.w3.org/1999/xlink" xml:space="preserve" xmlns:serif="http://www.serif.com/" style="fill-rule:evenodd;clip-rule:evenodd;stroke-linecap:round;stroke-linejoin:round;stroke-miterlimit:1.5;"><path d="M60,24c7.998,0 17.28,0.365 17.28,0.365c5.017,0.286 6.322,2.919 6.48,7.795c-0,0 0.24,18.743 0.24,27.84l0,27.221c-0.195,5.447 -3.934,8.779 -8.779,8.779l-30.442,0c-4.845,0 -8.584,-3.332 -8.779,-8.779l-0,-27.221c-0,-9.097 0.24,-27.84 0.24,-27.84c0.158,-4.876 1.463,-7.509 6.48,-7.795c0,-0 9.282,-0.365 17.28,-0.365" style="fill:#4eb84b;stroke:#000;stroke-width:2px;"/><path d="M60.24,67.2c4.636,0 8.4,3.764 8.4,8.4c0,4.636 -3.764,8.4 -8.4,8.4c-4.636,0 -8.4,-3.764 -8.4,-8.4c0,-4.636 3.764,-8.4 8.4,-8.4Zm0,4.56c-2.119,0 -3.84,1.721 -3.84,3.84c0,2.119 1.721,3.84 3.84,3.84c2.119,-0 3.84,-1.721 3.84,-3.84c-0,-2.119 -1.721,-3.84 -3.84,-3.84Z" style="fill:#fff;stroke:#000;stroke-width:2px;"/></svg>