<?xml version="1.0" encoding="UTF-8" standalone="no"?><!DOCTYPE svg PUBLIC "-//W3C//DTD SVG 1.1//EN" "http://www.w3.org/Graphics/SVG/1.1/DTD/svg11.dtd"><svg width="100%" height="100%" viewBox="0 0 120 120" version="1.1" xmlns="http://www.w3.org/2000/svg" xmlns:xlink="http://www.w3.org/1999/xlink" xml:space="preserve" xmlns:serif="http://www.serif.com/" style="fill-rule:evenodd;clip-rule:evenodd;stroke-linecap:round;stroke-linejoin:round;stroke-miterlimit:1.5;"><g><rect x="56.057" y="24.754" width="7.548" height="70.959" style="fill:#4eb84b;stroke:#000;stroke-width:2px;"/><g><g><path d="M59.88,24c6.533,-0.002 12.454,0.297 13.079,1.574c0.626,1.277 2.65,15.885 2.714,30.213c0.064,14.329 -3.997,36.974 -3.997,36.974c0,0 -6.107,3.127 -11.574,3.239" style="fill:#4eb84b;stroke:#000;stroke-width:2px;"/><path d="M59.904,24c-6.534,-0.002 -12.232,0.297 -12.858,1.574c-0.626,1.277 -2.649,15.885 -2.714,30.213c-0.064,14.329 3.997,36.974 3.997,36.974c0,0 6.108,3.127 11.575,3.239" style="fill:#4eb84b;stroke:#000;stroke-width:2px;"/></g><path d="M61.2,70.56c0,-0.662 -0.538,-1.2 -1.2,-1.2c-0.662,0 -1.2,0.538 -1.2,1.2l0,12.171c0,0.662 0.538,1.2 1.2,1.2c0.662,-0 1.2,-0.538 1.2,-1.2l0,-12.171Z" style="fill:#fff;"/></g></g></svg>