<?xml version="1.0" encoding="UTF-8" standalone="no"?><!DOCTYPE svg PUBLIC "-//W3C//DTD SVG 1.1//EN" "http://www.w3.org/Graphics/SVG/1.1/DTD/svg11.dtd"><svg width="100%" height="100%" viewBox="0 0 120 120" version="1.1" xmlns="http://www.w3.org/2000/svg" xmlns:xlink="http://www.w3.org/1999/xlink" xml:space="preserve" xmlns:serif="http://www.serif.com/" style="fill-rule:evenodd;clip-rule:evenodd;stroke-linecap:round;stroke-linejoin:round;stroke-miterlimit:1.5;"><g><path d="M61.477,24.192l11.223,1.478l7.941,4.049l3.032,3.992l2.641,5.272l1.483,12.962l0.173,17.297l-1.259,12.138l-4.159,7.552l-7.231,5.172l-11.832,1.827l-13.07,-0.972l-10.858,-5.613l-5.491,-9.93l-1.061,-18.489l2.276,-21.106l5.246,-10.205l8.993,-4.546l11.953,-0.878Z" style="fill:#4eb84b;"/><path d="M60.972,24.034c10.69,-0 21.225,2.494 24.936,14.502c1.416,4.582 2.082,12.345 2.268,19.863c0.288,11.68 -0.702,23.54 -3.683,27.561c-4.899,6.61 -9.244,9.919 -23.581,9.919" style="fill:none;stroke:#000;stroke-width:2px;"/><path d="M60.56,24.034c-10.69,-0 -21.225,2.494 -24.936,14.502c-1.416,4.582 -2.082,12.345 -2.268,19.863c-0.288,11.68 0.702,23.54 3.683,27.561c4.899,6.61 9.244,9.919 23.581,9.919" style="fill:none;stroke:#000;stroke-width:2px;"/><path d="M75.345,46.958l3.011,0.494c-0,0 1.282,1.605 1.832,4.128c0.28,1.286 0.806,3.209 1.105,5.255c0.288,1.967 0.353,4.049 0.382,5.791c0.059,3.553 -0.892,11.602 -2.023,13.379c0,-0 -1.367,-4.144 -1.27,-7.146c0.097,-3.001 0.195,-9.027 -0.315,-11.575c-0.226,-1.129 -0.552,-3.466 -1.107,-5.519c-0.695,-2.576 -1.615,-4.807 -1.615,-4.807Z" style="fill:#fff;"/><path d="M45.943,46.958l-3.01,0.494c-0,0 -1.283,1.605 -1.832,4.128c-0.28,1.286 -0.807,3.209 -1.106,5.255c-0.287,1.967 -0.353,4.049 -0.382,5.791c-0.059,3.553 0.893,11.602 2.023,13.379c0,-0 1.367,-4.144 1.271,-7.146c-0.097,-3.001 -0.196,-9.027 0.314,-11.575c0.227,-1.129 0.553,-3.466 1.107,-5.519c0.696,-2.576 1.615,-4.807 1.615,-4.807Z" style="fill:#fff;"/><path d="M60.93,46.147l7.51,0.335l3.573,3.304l1.97,14.353l-3.969,10.7l-8.634,3.654l-8.252,-2.121l-5.061,-8.149l-0.423,-9.071l2.151,-10.215l4.674,-3.022l6.461,0.232Z" style="fill:#fff;"/><path d="M60.399,46.062c8.502,0 11.943,-1.231 13.147,13.394c1.203,14.625 -6.801,18.988 -12.893,18.988" style="fill:none;stroke:#000;stroke-width:2px;"/><path d="M60.93,46.062c-8.502,0 -11.943,-1.231 -13.147,13.394c-1.203,14.625 6.801,18.988 12.893,18.988" style="fill:none;stroke:#000;stroke-width:2px;"/><circle cx="60.628" cy="66.262" r="8.037" style="fill:#4eb84b;stroke:#000;stroke-width:2px;"/></g></svg>