<?xml version="1.0" encoding="UTF-8" standalone="no"?><!DOCTYPE svg PUBLIC "-//W3C//DTD SVG 1.1//EN" "http://www.w3.org/Graphics/SVG/1.1/DTD/svg11.dtd"><svg width="100%" height="100%" viewBox="0 0 120 120" version="1.1" xmlns="http://www.w3.org/2000/svg" xmlns:xlink="http://www.w3.org/1999/xlink" xml:space="preserve" xmlns:serif="http://www.serif.com/" style="fill-rule:evenodd;clip-rule:evenodd;stroke-linecap:round;stroke-linejoin:round;stroke-miterlimit:1.5;"><path d="M80.4,44.4l-0,31.2c-0,11.259 -9.141,20.4 -20.4,20.4c-11.259,0 -20.4,-9.141 -20.4,-20.4l0,-31.2c0,-11.259 9.141,-20.4 20.4,-20.4c11.259,0 20.4,9.141 20.4,20.4Z" style="fill:#4eb84b;stroke:#000;stroke-width:2px;"/><path d="M73.839,44.196l-0,11.565c-0,7.638 -6.201,13.839 -13.839,13.839c-7.638,-0 -13.839,-6.201 -13.839,-13.839l0,-11.565c0,-7.638 6.201,-13.839 13.839,-13.839c7.638,0 13.839,6.201 13.839,13.839Z" style="fill:#fff;stroke:#000;stroke-width:2px;"/></svg>