<?xml version="1.0" encoding="UTF-8" standalone="no"?><!DOCTYPE svg PUBLIC "-//W3C//DTD SVG 1.1//EN" "http://www.w3.org/Graphics/SVG/1.1/DTD/svg11.dtd"><svg width="100%" height="100%" viewBox="0 0 120 120" version="1.1" xmlns="http://www.w3.org/2000/svg" xmlns:xlink="http://www.w3.org/1999/xlink" xml:space="preserve" xmlns:serif="http://www.serif.com/" style="fill-rule:evenodd;clip-rule:evenodd;stroke-linecap:round;stroke-linejoin:round;stroke-miterlimit:1.5;"><g><rect x="34.149" y="24.407" width="52.011" height="35.144" style="fill:#4eb84b;"/><path d="M85.857,61.61c0,-0.852 -0.691,-1.543 -1.543,-1.543l-48.924,-0c-0.852,-0 -1.543,0.691 -1.543,1.543l-0,32.847c-0,0.852 0.691,1.543 1.543,1.543l48.924,-0c0.852,-0 1.543,-0.691 1.543,-1.543l0,-32.847Z" style="fill:#4eb84b;stroke:#000;stroke-width:2px;"/><path d="M45.197,95.965c0.765,0.024 1.271,-1.186 1.271,-1.186l6.179,-18.38c0,0 0.441,-0.993 1.269,-1.007c0.829,-0.013 6.117,0 6.117,0l-0.519,0c-0,0 5.288,-0.013 6.117,0c0.829,0.014 1.269,1.007 1.269,1.007l6.179,18.38c0,0 0.506,1.21 1.271,1.186" style="fill:#fff;stroke:#000;stroke-width:2px;"/><path d="M33.847,52.664l-0,5.726c-0,0.852 0.691,1.543 1.543,1.543l5.739,0l-7.282,-7.269Zm52.01,-0l-7.299,7.269l5.756,0c0.852,0 1.543,-0.691 1.543,-1.543l0,-5.726Zm-52.01,-21.388l-0,-5.733c-0,-0.852 0.691,-1.543 1.543,-1.543l48.924,-0c0.852,-0 1.543,0.691 1.543,1.543l0,5.733l-7.299,-7.276l-37.429,-0l-7.282,7.276Z" style="fill:#fff;stroke:#000;stroke-width:2px;"/><path d="M85.857,28.776l0,26.448" style="fill:none;stroke:#000;stroke-width:2px;"/><ellipse cx="67.699" cy="48.653" rx="2.619" ry="2.616" style="fill:#fff;stroke:#000;stroke-width:2px;"/><path d="M85.852,57.506l0,4.226" style="fill:#4eb84b;stroke:#000;stroke-width:2px;"/><path d="M33.844,57.506l-0,4.226" style="fill:#4eb84b;stroke:#000;stroke-width:2px;"/><path d="M33.829,28.857l0,26.707" style="fill:none;stroke:#000;stroke-width:2px;"/><path d="M44.576,95.998l30.722,0" style="fill:none;stroke:#000;stroke-width:2px;"/></g></svg>