<?xml version="1.0" encoding="UTF-8" standalone="no"?><!DOCTYPE svg PUBLIC "-//W3C//DTD SVG 1.1//EN" "http://www.w3.org/Graphics/SVG/1.1/DTD/svg11.dtd"><svg width="100%" height="100%" viewBox="0 0 120 120" version="1.1" xmlns="http://www.w3.org/2000/svg" xmlns:xlink="http://www.w3.org/1999/xlink" xml:space="preserve" xmlns:serif="http://www.serif.com/" style="fill-rule:evenodd;clip-rule:evenodd;stroke-linecap:round;stroke-linejoin:round;stroke-miterlimit:1.5;"><path d="M60,84c-18.844,0 -28.625,-1.392 -31.44,-3.36c-2.815,-1.968 -4.32,-6.418 -4.32,-20.52c0,-14.102 0,13.742 0,-0.36c0,-14.102 1.505,-18.432 4.32,-20.4c2.815,-1.968 12.356,-3.36 31.2,-3.36c18.844,0 -18.364,0 0.48,0c18.844,0 28.385,1.392 31.2,3.36c2.815,1.968 4.32,6.298 4.32,20.4c-0,14.102 -0,-13.742 -0,0.36c-0,14.102 -1.505,18.552 -4.32,20.52c-2.815,1.968 -12.596,3.36 -31.44,3.36" style="fill:#4eb84b;stroke:#000;stroke-width:2px;"/><path d="M85.2,47.773l-0,24.454c-0,1.199 -0.974,2.173 -2.173,2.173l-46.054,-0c-1.199,-0 -2.173,-0.974 -2.173,-2.173l-0,-24.454c-0,-1.199 0.974,-2.173 2.173,-2.173l46.054,0c1.199,0 2.173,0.974 2.173,2.173Z" style="fill:#fff;stroke:#000;stroke-width:2px;"/></svg>