<?xml version="1.0" encoding="UTF-8" standalone="no"?><!DOCTYPE svg PUBLIC "-//W3C//DTD SVG 1.1//EN" "http://www.w3.org/Graphics/SVG/1.1/DTD/svg11.dtd"><svg width="100%" height="100%" viewBox="0 0 120 120" version="1.1" xmlns="http://www.w3.org/2000/svg" xmlns:xlink="http://www.w3.org/1999/xlink" xml:space="preserve" xmlns:serif="http://www.serif.com/" style="fill-rule:evenodd;clip-rule:evenodd;stroke-linecap:round;stroke-linejoin:round;stroke-miterlimit:1.5;"><g><path d="M31.34,29.957l14.539,-4.738l15.075,-1.097l19.548,2.229l8.29,3.557l3.39,8.264l2.374,9.458l0.125,23.344l-5.195,17.244l-8.032,4.365l-9.432,0.746l-8.753,1.607l-3.189,1.082l-3.306,-1.665l-14.368,-1.736l-4.291,-0.12l-0.681,-0.936l-6.333,-3.643l-4.184,-9.414l-1.874,-20.908l1.587,-17.206l4.71,-10.433Z" style="fill:#4eb84b;"/><path d="M59.684,35.29c21.366,-0 24.181,7.178 24.181,24.22c-0,17.041 -3.038,23.254 -24.205,23.254" style="fill:none;stroke:#fff;stroke-width:2px;"/><path d="M60.195,35.29c-21.366,-0 -24.181,7.178 -24.181,24.22c0,17.041 3.038,23.254 24.205,23.254" style="fill:none;stroke:#fff;stroke-width:2px;"/><path d="M59.659,24.192c12.918,-0 25.976,2.992 28.97,5.986c2.993,2.994 6.193,13.192 6.193,27.726c0,14.534 -2.128,26.247 -5.853,29.973c-1.25,1.25 -4.418,2.794 -6.883,3.857c-0.43,0.186 -0.036,0.642 -0.483,0.71c-0.667,0.102 -1.602,0.172 -2.423,0.168c-0.906,-0.006 -1.666,0.01 -1.666,0.01c-0,-0 -8.434,1.84 -14.043,1.984c-0.411,0.01 -0.75,0.559 -1.506,0.839c-0.638,0.236 -1.701,0.212 -2.062,0.212" style="fill:none;stroke:#000;stroke-width:2px;"/><path d="M60.25,24.192c-12.918,-0 -25.976,2.992 -28.97,5.986c-2.993,2.994 -6.193,13.192 -6.193,27.726c-0,14.534 2.128,26.247 5.853,29.973c1.25,1.25 4.418,2.794 6.883,3.857c0.43,0.186 0.036,0.642 0.483,0.71c0.667,0.102 1.602,0.172 2.423,0.168c0.906,-0.006 1.666,0.01 1.666,0.01c0,-0 8.434,1.84 14.044,1.984c0.41,0.01 0.749,0.559 1.505,0.839c0.638,0.236 1.701,0.212 2.062,0.212" style="fill:none;stroke:#000;stroke-width:2px;"/></g></svg>