<?xml version="1.0" encoding="UTF-8" standalone="no"?><!DOCTYPE svg PUBLIC "-//W3C//DTD SVG 1.1//EN" "http://www.w3.org/Graphics/SVG/1.1/DTD/svg11.dtd"><svg width="100%" height="100%" viewBox="0 0 120 120" version="1.1" xmlns="http://www.w3.org/2000/svg" xmlns:xlink="http://www.w3.org/1999/xlink" xml:space="preserve" xmlns:serif="http://www.serif.com/" style="fill-rule:evenodd;clip-rule:evenodd;stroke-linecap:round;stroke-linejoin:round;stroke-miterlimit:1.5;"><path d="M96,31.403l0,57.194c0,4.086 -3.317,7.403 -7.403,7.403l-57.194,0c-4.086,0 -7.403,-3.317 -7.403,-7.403l0,-57.194c0,-4.086 3.317,-7.403 7.403,-7.403l57.194,0c4.086,0 7.403,3.317 7.403,7.403Z" style="fill:#4eb84b;stroke:#000;stroke-width:2px;"/><path d="M61.68,73.08c-0.56,0.035 -1.028,0.12 -1.68,0.12c-4.316,0 -7.867,-1.651 -10.56,-5.283c-1.576,-2.125 -2.348,-3.335 -4.56,-3.357c-2.212,-0.022 -2.821,1.68 -6,1.68c-3.179,-0 -5.76,-2.581 -5.76,-5.76c0,-3.179 2.564,-5.494 5.76,-5.76c1.583,-0.132 4.447,-0.236 6.72,-0.96c2.413,-0.768 3.963,-2.049 4.68,-2.76c0.08,-0.08 0.24,-0.24 0.24,-0.24c2.404,-2.514 5.731,-3.96 9.48,-3.96c5.622,-0 10.338,3.324 12.24,8.28c0,-0 0.101,0.24 0.15,0.36c0.23,0.564 0.567,2.611 1.05,3.84c0.861,2.189 2.07,3.868 3.12,4.8c1.64,1.455 3.403,1.783 6.339,2.88c3.856,1.441 6.141,4.997 6.141,9.12c-0,5.431 -4.409,9.84 -9.84,9.84c-5.431,-0 -9.147,-4.126 -10.08,-9.36c-0.171,-0.959 -0.674,-1.908 -1.68,-2.64c-1.006,-0.732 -2.641,-0.98 -3.6,-0.96c-0.846,0.017 -1.52,0.08 -2.16,0.12Z" style="fill:#fff;stroke:#000;stroke-width:2px;"/><path d="M67.2,55.163l0,9.674c0,1.304 -1.059,2.363 -2.363,2.363l-2.437,0l-0.84,1.2l-3.24,-0l-0.72,-1.2l-2.437,0c-1.304,0 -2.363,-1.059 -2.363,-2.363l-0,-9.674c-0,-1.304 1.059,-2.363 2.363,-2.363l9.674,-0c1.304,-0 2.363,1.059 2.363,2.363Z" style="fill:#4eb84b;stroke:#000;stroke-width:2px;"/><circle cx="79.2" cy="76.32" r="5.52" style="fill:#4eb84b;stroke:#000;stroke-width:2px;"/><circle cx="38.88" cy="60.72" r="2.4" style="fill:#4eb84b;stroke:#000;stroke-width:2px;"/><path d="M90,33.8l0,2.48c0,1.965 -1.595,3.56 -3.56,3.56l-52.88,0c-1.965,0 -3.56,-1.595 -3.56,-3.56l0,-2.48c0,-1.965 1.595,-3.56 3.56,-3.56l52.88,0c1.965,0 3.56,1.595 3.56,3.56Z" style="fill:#4eb84b;stroke:#000;stroke-width:2px;"/></svg>