<?xml version="1.0" encoding="UTF-8" standalone="no"?><!DOCTYPE svg PUBLIC "-//W3C//DTD SVG 1.1//EN" "http://www.w3.org/Graphics/SVG/1.1/DTD/svg11.dtd"><svg width="100%" height="100%" viewBox="0 0 120 120" version="1.1" xmlns="http://www.w3.org/2000/svg" xmlns:xlink="http://www.w3.org/1999/xlink" xml:space="preserve" xmlns:serif="http://www.serif.com/" style="fill-rule:evenodd;clip-rule:evenodd;stroke-linecap:round;stroke-linejoin:round;stroke-miterlimit:1.5;"><use xlink:href="#_Image1" x="0" y="0" width="722px" height="898px" transform="matrix(1.00445,0,0,0.996279,29.3388,21.0778)"/><path d="M60,96l-13.854,0c-6.924,0 -12.546,-5.622 -12.546,-12.546l0,-55.56c0,-2.149 1.745,-3.894 3.894,-3.894l36.36,-0c6.924,-0 12.546,5.622 12.546,12.546l0,55.56c0,2.149 -1.745,3.894 -3.894,3.894l-22.506,0" style="fill:#4eb84b;stroke:#000;stroke-width:2px;"/><path d="M77.04,71.735l0,16.37c0,1.576 -1.279,2.855 -2.855,2.855l-4.585,-0l-1.08,1.68l-4.8,-0l-1.32,-1.68l-4.585,-0c-1.576,-0 -2.855,-1.279 -2.855,-2.855l-0,-16.37c-0,-1.576 1.279,-2.855 2.855,-2.855l16.37,-0c1.576,-0 2.855,1.279 2.855,2.855Z" style="fill:#fff;stroke:#000;stroke-width:2px;"/></svg>