<?xml version="1.0" encoding="UTF-8" standalone="no"?><!DOCTYPE svg PUBLIC "-//W3C//DTD SVG 1.1//EN" "http://www.w3.org/Graphics/SVG/1.1/DTD/svg11.dtd"><svg width="100%" height="100%" viewBox="0 0 120 120" version="1.1" xmlns="http://www.w3.org/2000/svg" xmlns:xlink="http://www.w3.org/1999/xlink" xml:space="preserve" xmlns:serif="http://www.serif.com/" style="fill-rule:evenodd;clip-rule:evenodd;stroke-linecap:round;stroke-linejoin:round;stroke-miterlimit:1.5;"><path d="M60,96c-12.912,0 -23.945,-1.589 -25.586,-2.017c-1.64,-0.428 -2.974,-1.091 -2.974,-3.743l-0,-8.64l1.92,-4.32l0,-34.56l-1.92,-4.32l0,-8.64c0,-2.652 1.334,-3.315 2.974,-3.743c1.641,-0.428 12.434,-2.017 25.346,-2.017c12.912,0 -12.432,0 0.48,0c12.912,0 23.705,1.589 25.346,2.017c1.64,0.428 2.974,1.091 2.974,3.743l0,8.64l-1.92,4.32l0,34.56l1.92,4.32l0,8.64c0,2.652 -1.334,3.315 -2.974,3.743c-1.641,0.428 -12.674,2.017 -25.586,2.017" style="fill:#4eb84b;stroke:#000;stroke-width:2px;"/><path d="M60,56.4l0,7.2" style="fill:none;stroke:#fff;stroke-width:2px;"/></svg>