<?xml version="1.0" encoding="UTF-8" standalone="no"?><!DOCTYPE svg PUBLIC "-//W3C//DTD SVG 1.1//EN" "http://www.w3.org/Graphics/SVG/1.1/DTD/svg11.dtd"><svg width="100%" height="100%" viewBox="0 0 120 120" version="1.1" xmlns="http://www.w3.org/2000/svg" xmlns:xlink="http://www.w3.org/1999/xlink" xml:space="preserve" xmlns:serif="http://www.serif.com/" style="fill-rule:evenodd;clip-rule:evenodd;stroke-linecap:round;stroke-linejoin:round;stroke-miterlimit:1.5;"><g><path d="M42.805,73.874l3.114,-0.438l3.831,-2.622l5.918,-1.871l6.806,0l5.779,0.717l5.15,2.644l2.188,1.132l2.858,0l0,19.09l-1.409,2.848l-10.008,0l-2.175,-3.949l-4.312,-0.818l-4.448,1.447l-2.296,3.946l-8.334,0l-3.147,-2.554l0.485,-19.572Z" style="fill:#fff;"/><g><path d="M42.998,73.3l-1.958,-24.206l1.242,-19.264c-0.377,-2.821 0.105,-4.344 2.186,-3.452l15.544,-2.364l16.839,2.364c2.374,-0.137 2.862,1.263 2.382,3.452l0.628,14.709l-0.628,18.123l-0.584,10.638l-3.244,0.472l-3.683,-2.777l-11.71,-2.609l-10.922,3.522l-6.092,1.392Z" style="fill:#4eb848;"/><path d="M61.761,30.73c-0,-0.661 -0.537,-1.197 -1.197,-1.197c-0.661,-0 -1.198,0.536 -1.198,1.197l0,30.301c0,0.661 0.537,1.197 1.198,1.197c0.66,-0 1.197,-0.536 1.197,-1.197l-0,-30.301Z" style="fill:#fff;"/><g><g><path d="M59.775,24.028c7.548,-0.247 19.144,1.186 19.287,2.913c0.333,4.005 -0.394,40.891 -0.483,46.64l-3.739,0c-0,0 -3.873,-5.387 -15.065,-5.163" style="fill:none;stroke:#000;stroke-width:2px;"/><path d="M78.579,73.581l-0,18.77c-0,-0 0.11,3.164 -3.173,3.317c-3.284,0.153 -8.304,0 -8.304,0c-0,0 -1.389,-4.63 -3.41,-4.741c-2.021,-0.111 -4.653,0 -4.653,0" style="fill:none;stroke:#000;stroke-width:2px;"/></g><g><path d="M61.325,24.028c-7.548,-0.247 -19.144,1.186 -19.287,2.913c-0.333,4.005 0.393,40.891 0.483,46.64l3.739,0c0,0 3.873,-5.387 15.065,-5.163" style="fill:none;stroke:#000;stroke-width:2px;"/><path d="M42.521,73.581l0,18.77c0,-0 -0.11,3.164 3.173,3.317c3.284,0.153 8.304,0 8.304,0c0,0 1.389,-4.63 3.41,-4.741c2.021,-0.111 4.652,0 4.652,0" style="fill:none;stroke:#000;stroke-width:2px;"/></g></g></g></g></svg>