<?xml version="1.0" encoding="UTF-8" standalone="no"?><!DOCTYPE svg PUBLIC "-//W3C//DTD SVG 1.1//EN" "http://www.w3.org/Graphics/SVG/1.1/DTD/svg11.dtd"><svg width="100%" height="100%" viewBox="0 0 120 120" version="1.1" xmlns="http://www.w3.org/2000/svg" xmlns:xlink="http://www.w3.org/1999/xlink" xml:space="preserve" xmlns:serif="http://www.serif.com/" style="fill-rule:evenodd;clip-rule:evenodd;stroke-linecap:round;stroke-linejoin:round;stroke-miterlimit:1.5;"><path d="M37.92,60c0,-11.858 0.382,-26.704 2.16,-30.48c1.778,-3.776 13.297,-5.52 19.68,-5.52c6.383,0 -5.903,0 0.48,0c6.383,0 17.902,1.744 19.68,5.52c1.778,3.776 2.16,18.502 2.16,30.36c0,11.858 0,-11.618 0,0.24c0,11.858 -0.382,26.584 -2.16,30.36c-1.778,3.776 -13.297,5.52 -19.68,5.52c-6.383,0 5.903,0 -0.48,0c-6.383,0 -17.902,-1.744 -19.68,-5.52c-1.778,-3.776 -2.16,-18.622 -2.16,-30.48" style="fill:#4eb84b;stroke:#000;stroke-width:2px;"/><path d="M60,68.88c3.688,0 8.4,-0.342 8.4,3.12l-0,9.12c-0,2.278 -0.591,2.88 -8.16,2.88c-7.569,0 7.089,0 -0.48,0c-7.569,0 -8.16,-0.602 -8.16,-2.88l-0,-9.12c-0,-3.462 4.712,-3.12 8.4,-3.12" style="fill:#fff;stroke:#000;stroke-width:2px;"/><path d="M45.6,26.4c0,-0 -1.366,5.217 -2.16,20.16c-0.794,14.943 -0.402,20.042 0.24,28.32c0.642,8.278 2.342,19.2 2.342,19.2" style="fill:none;stroke:#000;stroke-width:2px;"/><path d="M74.378,26.4c0,-0 1.366,5.217 2.16,20.16c0.794,14.943 0.403,20.042 -0.24,28.32c-0.642,8.278 -2.341,19.2 -2.341,19.2" style="fill:none;stroke:#000;stroke-width:2px;"/></svg>