<?xml version="1.0" encoding="UTF-8" standalone="no"?><!DOCTYPE svg PUBLIC "-//W3C//DTD SVG 1.1//EN" "http://www.w3.org/Graphics/SVG/1.1/DTD/svg11.dtd"><svg width="100%" height="100%" viewBox="0 0 120 120" version="1.1" xmlns="http://www.w3.org/2000/svg" xmlns:xlink="http://www.w3.org/1999/xlink" xml:space="preserve" xmlns:serif="http://www.serif.com/" style="fill-rule:evenodd;clip-rule:evenodd;stroke-linecap:round;stroke-linejoin:round;stroke-miterlimit:1.5;"><path d="M86.4,26.289l-0,67.422c-0,1.264 -1.025,2.289 -2.289,2.289l-48.222,0c-1.264,0 -2.289,-1.025 -2.289,-2.289l0,-67.422c0,-1.264 1.025,-2.289 2.289,-2.289l48.222,0c1.264,0 2.289,1.025 2.289,2.289Z" style="fill:#4eb84b;stroke:#000;stroke-width:2px;"/><path d="M75.12,46.32l-0,24.96c-0,8.345 -6.775,15.12 -15.12,15.12c-8.345,0 -15.12,-6.775 -15.12,-15.12l0,-24.96c0,-8.345 6.775,-15.12 15.12,-15.12c8.345,0 15.12,6.775 15.12,15.12Z" style="fill:#fff;stroke:#000;stroke-width:2px;"/><circle cx="60" cy="46.32" r="9.6" style="fill:none;stroke:#4eb84b;stroke-width:2px;"/></svg>