<?xml version="1.0" encoding="UTF-8" standalone="no"?><!DOCTYPE svg PUBLIC "-//W3C//DTD SVG 1.1//EN" "http://www.w3.org/Graphics/SVG/1.1/DTD/svg11.dtd"><svg width="100%" height="100%" viewBox="0 0 120 120" version="1.1" xmlns="http://www.w3.org/2000/svg" xmlns:xlink="http://www.w3.org/1999/xlink" xml:space="preserve" xmlns:serif="http://www.serif.com/" style="fill-rule:evenodd;clip-rule:evenodd;stroke-linecap:round;stroke-linejoin:round;stroke-miterlimit:1.5;"><path d="M60,96c-6.892,0 -10.349,-0.152 -12.96,-0.48c-2.611,-0.328 -2.988,-0.797 -3.36,-1.92c-0.372,-1.123 -1.134,-2.82 -4.56,-15.84c-3.426,-13.02 -3.36,-21.918 -3.36,-29.76c0,-7.842 0.961,-16.675 1.44,-19.2c0.479,-2.525 1.157,-2.936 3.12,-3.36c1.963,-0.424 6.644,-1.44 19.44,-1.44c12.796,0 -12.316,0 0.48,0c12.796,0 17.477,1.016 19.44,1.44c1.963,0.424 2.641,0.835 3.12,3.36c0.479,2.525 1.44,11.358 1.44,19.2c-0,7.842 0.066,16.74 -3.36,29.76c-3.426,13.02 -4.188,14.717 -4.56,15.84c-0.372,1.123 -0.749,1.592 -3.36,1.92c-2.611,0.328 -6.068,0.48 -12.96,0.48" style="fill:#4eb84b;stroke:#000;stroke-width:2px;"/><path d="M60,92.4c-10.888,-0 -11.896,-3.443 -12.96,-8.16c-1.064,-4.717 -2.129,-12.409 -0.48,-14.88c1.649,-2.471 6.977,-2.64 13.32,-2.64c6.343,-0 -6.103,-0 0.24,-0c6.343,-0 11.671,0.169 13.32,2.64c1.649,2.471 0.584,10.163 -0.48,14.88c-1.064,4.717 -2.072,8.16 -12.96,8.16" style="fill:#fff;stroke:#000;stroke-width:2px;"/><circle cx="60" cy="48" r="7.92" style="fill:none;stroke:#fff;stroke-width:2px;"/><path d="M60,89.52c-2.625,0 -4.21,-0.291 -6.48,-2.88c-1.865,-2.127 -1.858,-5.382 -0.96,-7.2c0.445,-0.902 2.009,-3.84 2.88,-5.28c0.871,-1.44 1.357,-1.68 2.16,-1.68l4.8,0c0.803,0 1.289,0.24 2.16,1.68c0.871,1.44 2.435,4.378 2.88,5.28c0.898,1.818 0.905,5.073 -0.96,7.2c-2.27,2.589 -3.855,2.88 -6.48,2.88" style="fill:#4eb84b;stroke:#000;stroke-width:2px;"/></svg>