<?xml version="1.0" encoding="UTF-8" standalone="no"?><!DOCTYPE svg PUBLIC "-//W3C//DTD SVG 1.1//EN" "http://www.w3.org/Graphics/SVG/1.1/DTD/svg11.dtd"><svg width="100%" height="100%" viewBox="0 0 120 120" version="1.1" xmlns="http://www.w3.org/2000/svg" xmlns:xlink="http://www.w3.org/1999/xlink" xml:space="preserve" xmlns:serif="http://www.serif.com/" style="fill-rule:evenodd;clip-rule:evenodd;stroke-linecap:round;stroke-linejoin:round;stroke-miterlimit:1.5;"><path d="M60,24c9.532,-0 14.945,2.29 15.36,2.52c0.415,0.23 0.6,0.199 0.6,2.52c-0,2.321 -0.004,23.335 -0.12,29.76c-0.116,6.425 -0.858,11.872 -1.68,18.48c-0.822,6.608 -1.411,10.083 -1.44,11.52c-0.029,1.437 0.015,2.718 0,3.6c-0.015,0.882 -0.692,2.025 -1.92,2.16c-1.228,0.135 -1.942,-0.14 -3.84,0.48c-1.898,0.62 -3.84,0.96 -6.72,0.96c-2.88,0 2.4,0 -0.48,0c-2.88,0 -4.822,-0.34 -6.72,-0.96c-1.898,-0.62 -2.612,-0.345 -3.84,-0.48c-1.228,-0.135 -1.905,-1.278 -1.92,-2.16c-0.015,-0.882 0.029,-2.163 0,-3.6c-0.029,-1.437 -0.618,-4.912 -1.44,-11.52c-0.822,-6.608 -1.564,-12.055 -1.68,-18.48c-0.116,-6.425 -0.12,-27.439 -0.12,-29.76c0,-2.321 0.185,-2.29 0.6,-2.52c0.415,-0.23 5.828,-2.52 15.36,-2.52" style="fill:#4eb84b;stroke:#000;stroke-width:2px;"/><path d="M60,66l0,23.28" style="fill:none;stroke:#fff;stroke-width:2px;"/><path d="M73.031,25.68c0,0 -0.049,16.123 -1.751,27.36c-1.702,11.237 -3.462,17.137 -4.08,27.722c-0.618,10.585 -0.72,14.278 -0.72,14.278" style="fill:none;stroke:#000;stroke-width:2px;"/><path d="M46.969,25.68c-0,0 0.049,16.123 1.751,27.36c1.702,11.237 3.462,17.137 4.08,27.722c0.618,10.585 0.72,14.278 0.72,14.278" style="fill:none;stroke:#000;stroke-width:2px;"/></svg>